<?xml version="1.0" standalone="no"?>
<!DOCTYPE svg PUBLIC "-//W3C//DTD SVG 20010904//EN"
 "http://www.w3.org/TR/2001/REC-SVG-20010904/DTD/svg10.dtd">
<svg version="1.0" xmlns="http://www.w3.org/2000/svg"
 width="350.000000pt" height="350.000000pt" viewBox="0 0 350.000000 350.000000"
 preserveAspectRatio="xMidYMid meet">
<metadata>
Created by potrace 1.14, written by Peter Selinger 2001-2017
</metadata>
<g transform="translate(0.000000,350.000000) scale(0.100000,-0.100000)"
fill="#000000" stroke="none">
<path d="M1650 3494 c-366 -45 -664 -297 -777 -659 l-28 -90 -3 -1372 -2
-1373 915 0 915 0 -2 1373 -3 1372 -23 75 c-102 335 -348 572 -675 654 -68 16
-250 28 -317 20z m308 -65 c308 -70 554 -312 644 -634 l23 -80 3 -1337 3
-1338 -876 0 -876 0 3 1338 3 1337 23 80 c132 473 578 742 1050 634z"/>
<path d="M1700 3282 c0 -16 -3 -63 -6 -104 l-7 -75 54 -6 c69 -8 99 9 99 58 0
18 -5 37 -10 40 -6 4 -7 23 -4 44 5 33 3 41 -17 55 -13 9 -43 16 -66 16 -41 0
-43 -2 -43 -28z m78 -34 c-6 -18 -28 -21 -28 -4 0 9 7 16 16 16 9 0 14 -5 12
-12z m10 -85 c-2 -10 -13 -19 -26 -21 -17 -3 -22 2 -22 17 0 16 6 21 26 21 19
0 25 -5 22 -17z"/>
<path d="M1498 3276 c-9 -9 -18 -45 -22 -93 -4 -43 -10 -88 -13 -100 -4 -18
-1 -23 15 -23 12 0 25 7 30 16 10 18 79 36 88 23 8 -14 44 -11 44 4 0 17 -103
180 -116 184 -7 2 -18 -3 -26 -11z m47 -124 c-22 -5 -29 3 -21 25 7 17 8 17
22 -2 13 -18 13 -20 -1 -23z"/>
<path d="M1943 3263 c-3 -10 -14 -40 -25 -66 -34 -88 -18 -132 53 -143 44 -7
63 13 96 103 23 63 23 68 7 80 -24 17 -29 12 -55 -61 -23 -67 -36 -80 -60 -66
-11 7 -9 21 10 81 19 59 21 73 9 80 -20 13 -28 11 -35 -8z"/>
<path d="M1256 3179 c-56 -44 -21 -114 53 -107 57 4 56 -18 -1 -36 -10 -3 -18
-15 -18 -26 0 -15 7 -20 25 -20 33 0 81 25 89 45 20 53 -10 85 -77 85 -26 0
-47 3 -47 7 0 4 12 17 28 30 23 19 25 24 12 33 -22 14 -34 12 -64 -11z"/>
<path d="M2129 3190 c-7 -61 10 -77 37 -35 15 23 15 28 3 36 -19 12 -39 11
-40 -1z"/>
<path d="M2202 3114 c-26 -18 -28 -52 -5 -93 21 -36 9 -55 -16 -25 -9 12 -27
25 -39 28 -19 6 -22 4 -22 -19 0 -35 42 -75 78 -75 56 0 78 55 45 111 -20 34
-11 49 15 26 25 -23 52 -22 52 2 0 22 -44 61 -69 61 -9 0 -27 -7 -39 -16z"/>
<path d="M1405 2945 c-64 -28 -122 -35 -169 -22 l-29 8 16 -25 c16 -24 16 -26
-2 -35 -10 -6 -32 -32 -48 -58 -34 -55 -116 -194 -121 -205 -2 -5 7 -8 20 -8
20 -1 14 -9 -41 -59 l-64 -58 46 -7 47 -7 -14 -27 c-21 -41 -39 -147 -31 -179
5 -15 9 -98 10 -183 2 -113 7 -169 19 -207 18 -55 59 -113 81 -113 11 0 10
-14 -6 -67 -11 -38 -22 -77 -25 -88 -4 -16 4 -23 39 -38 72 -29 101 -67 107
-140 5 -57 7 -62 30 -65 24 -3 30 -15 73 -145 26 -79 47 -148 47 -154 0 -6
-23 -16 -50 -23 -43 -10 -59 -22 -109 -78 -33 -37 -59 -68 -57 -69 1 -2 71
-11 155 -22 84 -11 155 -22 157 -24 2 -2 -51 -9 -119 -16 -153 -16 -208 -23
-204 -27 2 -2 77 -19 167 -39 168 -37 212 -51 125 -40 -145 17 -361 33 -366
27 -4 -4 -25 -48 -47 -99 l-41 -91 -1 -219 c0 -120 -1 -226 0 -235 0 -17 43
-18 769 -18 l769 0 6 31 c3 17 6 120 6 227 l0 196 -40 41 -39 40 15 98 c14 88
14 106 0 200 -9 56 -36 160 -61 231 l-44 129 37 43 c79 89 132 234 132 359 0
274 -210 514 -483 551 -42 6 -56 15 -110 68 -34 34 -90 77 -124 96 -57 33 -60
36 -45 53 20 22 85 22 123 0 15 -9 35 -34 44 -55 8 -21 21 -38 29 -38 23 0 73
47 80 75 4 14 10 23 15 20 26 -16 27 79 1 105 -19 19 -20 19 -76 -6 -31 -14
-59 -23 -61 -20 -11 11 9 24 45 30 45 7 69 30 78 74 5 24 3 33 -10 38 -9 3
-16 12 -16 19 0 7 -6 16 -12 18 -7 3 8 3 35 0 26 -3 47 -2 47 4 0 10 -52 61
-90 87 -25 18 -25 18 -2 11 21 -6 23 -5 13 13 -16 30 -72 61 -127 71 -28 6
-55 18 -65 30 -16 19 -19 19 -46 6 -27 -14 -35 -13 -89 6 -37 13 -93 23 -149
25 -80 4 -97 2 -150 -21z m184 -53 c-19 -30 2 -76 36 -82 24 -4 26 -7 13 -18
-20 -16 -43 -7 -57 24 -12 27 -15 77 -4 87 14 15 23 6 12 -11z m41 -6 c0 -2
-7 -9 -15 -16 -12 -10 -15 -10 -15 4 0 9 7 16 15 16 8 0 15 -2 15 -4z m261
-77 c14 -26 -1 -39 -46 -39 -51 0 -73 34 -32 50 38 15 66 11 78 -11z m-467
-125 c25 -10 19 -64 -11 -109 -15 -22 -58 -76 -96 -120 -61 -70 -68 -83 -63
-110 4 -16 13 -36 21 -44 12 -12 15 -9 20 23 10 53 25 44 25 -15 0 -42 8 -65
42 -125 23 -41 45 -74 49 -74 4 0 8 33 11 73 3 60 8 82 30 115 15 23 37 46 48
52 19 10 20 8 20 -53 0 -36 7 -83 15 -106 8 -23 11 -49 8 -58 -9 -23 -42 61
-43 112 -1 37 -2 38 -13 16 -9 -18 -7 -42 6 -106 18 -89 22 -155 9 -155 -5 0
-14 33 -19 73 -6 39 -17 87 -24 105 -13 31 -14 25 -14 -86 0 -108 -6 -145 -20
-131 -2 3 -9 30 -14 60 l-9 54 -2 -50 c-2 -58 -10 -45 -31 50 l-14 60 -5 -55
c-7 -79 -24 -64 -30 27 l-5 78 -8 -52 c-11 -74 -26 -75 -20 -1 5 45 3 59 -5
54 -7 -4 -12 -16 -12 -26 0 -10 -4 -22 -10 -25 -6 -4 -11 19 -12 62 -1 38 -3
53 -5 33 -5 -37 -22 -66 -24 -39 -1 7 0 45 1 83 2 70 -12 85 -23 26 -8 -39
-27 -39 -27 0 0 56 25 96 92 145 75 56 97 84 105 129 7 45 -15 52 -78 25 -27
-12 -52 -19 -56 -16 -15 16 51 61 136 92 20 8 37 14 38 14 1 1 8 -2 17 -5z
m203 -37 c-16 -12 -50 -42 -78 -66 -32 -29 -49 -38 -49 -28 0 25 51 78 95 98
54 25 66 23 32 -4z m34 -86 c-12 -22 -78 -58 -88 -48 -12 12 11 41 47 59 38
19 54 15 41 -11z m-499 -11 c-36 -33 -52 -38 -52 -16 0 19 39 46 65 46 17 -1
16 -4 -13 -30z m546 -53 c4 -20 -25 -34 -40 -19 -15 15 -1 44 19 40 10 -2 19
-11 21 -21z m-3 -177 c6 -10 -51 -40 -76 -40 -18 0 -4 24 22 37 29 15 46 16
54 3z m35 -73 c0 -26 -75 -76 -90 -60 -12 11 11 39 46 58 36 18 44 19 44 2z
m-502 -254 c5 -17 -26 -29 -40 -15 -6 6 -7 15 -3 22 9 14 37 9 43 -7z m42 -37
c0 -15 -40 -47 -72 -59 -26 -9 -23 15 5 40 35 32 67 41 67 19z m30 -65 c0 -20
-73 -81 -96 -81 -40 0 -17 45 41 81 38 24 55 24 55 0z m41 -44 c-5 -13 -21
-41 -35 -62 -14 -21 -31 -56 -38 -79 -15 -55 -25 -64 -34 -32 -9 38 21 110 66
157 42 45 53 49 41 16z m59 -33 c-31 -49 -54 -98 -80 -171 -13 -36 -29 -63
-36 -63 -20 0 -18 12 21 106 41 99 82 164 102 164 11 0 10 -8 -7 -36z m9 -235
c-6 -11 -10 -44 -9 -72 2 -29 2 -63 1 -77 -1 -23 -3 -23 -12 -6 -15 24 -7 139
10 160 19 22 24 20 10 -5z m35 -85 c9 -23 7 -64 -3 -64 -9 0 -21 34 -21 63 0
21 16 22 24 1z m44 -79 c-3 -3 -9 2 -12 12 -6 14 -5 15 5 6 7 -7 10 -15 7 -18z
m22 -222 c37 -141 37 -143 6 -143 -17 0 -26 5 -26 16 0 14 -3 14 -15 4 -13
-11 -15 -7 -15 26 0 35 -1 36 -14 19 -12 -17 -13 -11 -9 50 5 65 23 115 42
115 4 0 18 -39 31 -87z m790 -32 l0 -35 28 28 29 27 22 -53 c12 -29 29 -102
37 -163 13 -92 14 -122 3 -185 -16 -99 -23 -110 -37 -62 -12 38 -14 39 -66 46
-77 9 -85 14 -92 56 l-6 37 -71 7 c-39 4 -72 8 -74 10 -2 2 19 66 47 142 l51
139 57 30 c63 33 72 30 72 -24z m-490 -7 c0 -7 -53 -25 -58 -20 -11 11 20 34
38 29 11 -3 20 -7 20 -9z m77 -20 c10 -2 8 -18 -8 -61 -26 -69 -26 -70 -41
-55 -7 7 -19 12 -27 12 -40 1 -44 16 -17 69 28 53 31 55 93 35z m157 -31 c-9
-41 -34 -143 -45 -185 l-9 -37 -46 17 c-64 24 -69 38 -40 114 14 35 27 75 31
91 5 25 8 27 60 27 55 0 55 0 49 -27z m-360 -62 c-4 -14 -7 -27 -8 -28 -1 -1
-18 4 -39 10 -28 9 -37 17 -37 35 0 19 4 21 25 16 21 -5 25 -3 25 17 l1 24 19
-24 c14 -16 18 -31 14 -50z m-189 -432 c20 -20 20 -20 0 -35 -17 -12 -20 -12
-28 1 -11 20 -53 19 -61 -1 -23 -59 15 -114 54 -79 19 17 50 15 50 -4 0 -16
-51 -51 -75 -51 -61 0 -99 78 -71 145 24 57 86 68 131 24z m133 -41 c2 -44 8
-70 18 -79 24 -19 33 0 36 76 3 62 5 70 23 70 18 0 20 -8 23 -73 3 -66 1 -74
-22 -97 -29 -29 -62 -32 -94 -9 -20 14 -22 24 -22 100 0 76 2 85 18 82 14 -3
18 -16 20 -70z m281 56 c19 -14 22 -23 18 -50 -4 -22 -1 -37 9 -45 19 -15 18
-48 -3 -71 -12 -13 -30 -18 -70 -18 l-53 0 0 93 c0 52 3 97 7 100 12 13 69 7
92 -9z m206 4 c14 -6 25 -15 25 -19 0 -9 -26 -19 -51 -19 -30 0 -22 -17 19
-37 34 -16 37 -22 37 -58 0 -38 -2 -41 -37 -49 -29 -7 -42 -6 -63 8 -34 23
-19 41 30 38 46 -3 45 12 -2 35 -33 16 -38 23 -38 53 0 27 6 37 25 47 30 15
24 15 55 1z m-831 -276 c-6 -4 -11 -16 -11 -27 0 -11 5 -23 11 -27 6 -5 1 -8
-11 -8 -20 0 -23 5 -23 35 0 30 3 35 23 35 12 0 17 -3 11 -8z m76 -31 c-1 -32
-2 -34 -14 -18 -7 9 -16 17 -19 17 -3 0 -8 -8 -10 -17 -3 -10 -5 -2 -6 18 -1
33 2 37 24 37 22 0 25 -5 25 -37z m60 19 c0 -11 -4 -20 -10 -20 -5 0 -10 -7
-10 -15 0 -8 -4 -15 -10 -15 -5 0 -10 16 -10 35 0 28 4 35 20 35 13 0 20 -7
20 -20z m66 -6 c8 -29 -7 -49 -30 -41 -16 6 -22 48 -9 60 14 15 33 6 39 -19z
m47 17 c4 12 7 11 16 -1 9 -12 11 -13 11 -1 0 8 3 12 6 8 3 -3 3 -20 -1 -37
-11 -49 -55 -33 -55 20 0 18 3 21 9 11 7 -11 9 -11 14 0z m91 1 c-6 -4 -11
-16 -11 -27 0 -11 5 -23 11 -27 6 -5 1 -8 -11 -8 -20 0 -23 5 -23 35 0 30 3
35 23 35 12 0 17 -3 11 -8z m66 -25 c0 -26 -4 -33 -20 -34 -16 -1 -20 4 -20
33 0 27 4 34 20 34 16 0 20 -7 20 -33z m37 -19 c-2 -13 -4 -5 -4 17 -1 22 1
32 4 23 2 -10 2 -28 0 -40z m44 40 c0 -10 2 -10 6 0 9 24 23 12 23 -22 0 -29
-3 -33 -25 -33 -22 0 -25 4 -25 33 0 31 19 50 21 22z m89 1 c0 -6 -7 -9 -15
-5 -11 4 -15 -1 -15 -19 0 -14 4 -25 10 -25 5 0 7 7 4 15 -4 8 -1 15 5 15 6 0
11 -9 11 -20 0 -13 -7 -20 -20 -20 -16 0 -20 7 -20 35 0 28 4 35 20 35 11 0
20 -5 20 -11z m87 -26 c-11 -35 -12 -35 -18 -12 -11 39 -10 45 10 46 17 1 18
-2 8 -34z m71 -1 c3 -27 0 -32 -17 -32 -17 0 -21 6 -21 36 0 28 3 35 18 32 11
-2 18 -14 20 -36z m43 6 l2 -33 7 35 7 35 2 -37 c1 -32 -2 -38 -19 -38 -16 0
-20 7 -20 35 0 44 20 46 21 3z m82 25 c-7 -2 -14 -19 -14 -36 l-2 -32 -4 30
c-3 16 -10 33 -16 37 -7 4 2 7 18 7 17 0 24 -3 18 -6z m46 -10 c2 33 21 17 21
-18 0 -35 -19 -51 -21 -17 0 14 -2 14 -9 -3 -7 -16 -9 -11 -9 20 0 31 2 36 9
20 7 -17 9 -17 9 -2z m-1071 -111 c2 -8 -3 -10 -15 -5 -17 6 -17 6 0 -15 11
-11 16 -26 12 -31 -8 -14 -35 -14 -35 -1 0 6 5 10 11 10 8 0 8 5 -1 15 -7 8
-9 22 -6 31 7 17 27 15 34 -4z m54 -22 c-4 -43 -22 -56 -22 -16 0 13 -3 31 -6
40 -4 11 0 16 13 16 16 0 18 -6 15 -40z m66 -6 c2 -29 0 -35 -8 -24 -6 10 -10
11 -10 3 0 -7 -4 -13 -10 -13 -11 0 -14 63 -3 74 15 14 28 -2 31 -40z m62 36
c0 -5 -4 -10 -9 -10 -13 0 -10 -43 4 -52 5 -4 0 -8 -12 -8 -19 0 -23 5 -23 33
0 19 3 37 7 40 10 11 33 8 33 -3z m60 0 c7 11 10 4 10 -27 0 -24 -4 -43 -10
-43 -5 0 -10 6 -11 13 0 10 -2 10 -6 0 -9 -25 -23 -13 -23 20 0 38 10 53 22
35 6 -10 10 -10 18 2z m68 -8 c2 -7 -2 -10 -12 -6 -19 7 -23 -31 -4 -42 8 -5
9 -2 5 9 -3 10 -2 17 3 17 6 0 10 -9 10 -21 0 -14 -5 -19 -17 -17 -19 3 -29
39 -19 65 7 16 28 13 34 -5z m55 -19 c-7 -48 -13 -55 -13 -17 0 17 -5 35 -12
42 -9 9 -7 12 9 12 19 0 21 -4 16 -37z m56 9 c2 38 21 27 21 -11 0 -39 -19
-60 -21 -23 0 14 -2 14 -9 -3 -6 -15 -9 -9 -8 25 0 37 1 41 8 20 5 -16 8 -19
9 -8z m81 18 c0 -5 -7 -10 -16 -10 -14 0 -14 -3 -4 -15 10 -12 10 -15 -1 -15
-9 -1 -8 -5 5 -15 19 -15 19 -15 -2 -15 -19 0 -22 6 -22 40 0 33 3 40 20 40
11 0 20 -4 20 -10z m53 -3 c3 10 5 -2 6 -27 0 -38 -1 -42 -11 -25 -11 19 -11
19 -19 0 -5 -14 -8 -6 -8 25 0 40 1 43 13 27 14 -18 14 -18 19 0z m44 -49 c-2
-13 -4 -3 -4 22 0 25 2 35 4 23 2 -13 2 -33 0 -45z m64 47 c5 14 8 8 8 -22 1
-40 -18 -64 -20 -25 0 14 -2 14 -9 -3 -7 -15 -9 -9 -9 25 0 38 1 42 11 25 11
-19 11 -19 19 0z m67 -5 c3 -7 0 -10 -7 -6 -6 4 -11 2 -11 -3 0 -6 5 -11 10
-11 6 0 10 -9 10 -21 0 -29 -34 -21 -38 9 -7 45 23 71 36 32z m100 2 c2 -7 -2
-10 -12 -6 -12 4 -16 0 -16 -15 0 -12 6 -21 15 -21 8 0 15 -4 15 -10 0 -5 -9
-10 -20 -10 -16 0 -20 7 -20 33 0 19 3 37 7 41 9 9 26 2 31 -12z m60 -26 c3
-32 1 -37 -15 -34 -19 3 -29 38 -19 65 10 26 31 8 34 -31z m71 -1 c-1 -23 -4
-30 -6 -17 -2 12 -8 22 -13 22 -5 0 -11 -10 -13 -22 -2 -13 -5 -6 -6 17 -1 35
2 41 19 41 17 0 20 -6 19 -41z m79 11 c2 -16 -1 -33 -7 -39 -8 -8 -11 -5 -11
11 0 29 -17 28 -23 0 -2 -13 -5 -5 -6 18 -1 36 1 40 22 39 16 -1 23 -9 25 -29z
m45 -26 c3 8 8 26 11 40 2 14 3 7 3 -15 -2 -29 -7 -41 -19 -43 -15 -3 -18 4
-17 40 l2 43 7 -40 c4 -25 9 -34 13 -25z m73 47 c10 4 14 -4 14 -31 0 -20 -4
-36 -10 -36 -5 0 -10 6 -11 13 0 10 -2 10 -6 0 -9 -25 -23 -13 -23 20 0 33 11
58 18 38 2 -5 10 -7 18 -4z m41 -49 c-2 -13 -4 -3 -4 22 0 25 2 35 4 23 2 -13
2 -33 0 -45z m56 25 c-7 -46 -13 -55 -13 -20 0 14 -3 32 -6 41 -4 10 -1 16 9
16 13 0 15 -8 10 -37z m63 28 c17 14 17 5 -1 -41 -9 -24 -14 -29 -14 -15 -1
11 -4 31 -6 45 -3 14 -2 19 1 12 5 -10 9 -10 20 -1z"/>
<path d="M1866 593 c-12 -12 -5 -23 14 -23 11 0 20 4 20 9 0 11 -26 22 -34 14z"/>
<path d="M1860 500 c0 -14 7 -20 24 -20 23 0 41 22 29 34 -4 3 -17 6 -30 6
-16 0 -23 -6 -23 -20z"/>
<path d="M1472 325 c0 -16 2 -22 5 -12 2 9 2 23 0 30 -3 6 -5 -1 -5 -18z"/>
<path d="M2002 325 c0 -16 2 -22 5 -12 2 9 2 23 0 30 -3 6 -5 -1 -5 -18z"/>
<path d="M2002 205 c0 -16 2 -22 5 -12 2 9 2 23 0 30 -3 6 -5 -1 -5 -18z"/>
<path d="M2106 2681 c-29 -31 -48 -93 -33 -103 25 -15 61 48 55 97 l-3 27 -19
-21z"/>
</g>
</svg>
