<?xml version="1.0" encoding="UTF-8" standalone="no"?>
<!-- Created with Inkscape (http://www.inkscape.org/) -->

<svg
   version="1.1"
   id="svg1"
   fill="currentColor"
   stroke="currentColor"
   width="1024"
   height="1024"
   viewBox="0 0 1024 1024"
   xmlns="http://www.w3.org/2000/svg"
   xmlns:svg="http://www.w3.org/2000/svg">
  <defs
     id="defs1" />
  <g
     id="g1">
    <path
       d="m 274.17431,890.68555 c -3.07666,-3.27496 -2.87198,-7.9916 0.46055,-10.61297 C 277.19921,878.05546 278.32399,878 316.66965,878 h 39.39994 l -3.33839,-2.93115 c -4.12598,-3.62265 -8.32419,-11.25136 -9.11814,-16.56885 -0.32848,-2.2 -1.07456,-11.425 -1.65795,-20.5 -0.5834,-9.075 -1.22327,-18.75 -1.42195,-21.5 -1.09351,-15.13574 -1.59505,-22.52014 -2.513,-37 -1.26006,-19.8763 -1.99637,-31.24437 -2.52601,-39 -0.22537,-3.3 -0.67473,-10.275 -0.99858,-15.5 -0.32386,-5.225 -0.7744,-11.3 -1.00121,-13.5 -0.42004,-4.07442 -1.10885,-14.24375 -1.99815,-29.5 -0.27251,-4.675 -0.71187,-10.525 -0.97635,-13 -0.26449,-2.475 -0.72363,-8.55 -1.02031,-13.5 -0.6341,-10.5796 -2.32533,-35.43386 -2.99401,-44 -0.25761,-3.3 -0.71108,-9.6 -1.00772,-14 -0.29664,-4.4 -0.74122,-9.8 -0.98796,-12 -0.24673,-2.2 -0.70024,-8.275 -1.00778,-13.5 -0.30755,-5.225 -0.76679,-11.75 -1.02055,-14.5 -0.25376,-2.75 -0.70356,-9.275 -0.99955,-14.5 -0.63544,-11.21706 -2.2655,-37.1771 -3.04537,-48.5 -1.23928,-17.99299 -2.11117,-37.04621 -1.72747,-37.75 0.22489,-0.4125 91.28626,-0.75 202.3586,-0.75 l 201.94971,0 -0.49486,6.25 c -0.27218,3.4375 -0.96635,14.125 -1.5426,23.75 -0.57625,9.625 -1.24279,20.2 -1.4812,23.5 -0.23841,3.3 -0.70177,10.5 -1.02969,16 -0.32792,5.5 -0.75956,11.8 -0.9592,14 -0.19963,2.2 -0.63781,9.175 -0.97373,15.5 -0.33591,6.325 -1.03526,17.125 -1.55412,24 -0.51885,6.875 -1.183,16.55 -1.4759,21.5 -0.29289,4.95 -0.74767,11.25 -1.01062,14 -0.26294,2.75 -0.71395,8.6 -1.00224,13 -0.28828,4.4 -0.71576,10.475 -0.94995,13.5 -0.50133,6.47567 -1.78056,24.98892 -2.07295,30 -0.11231,1.925 -0.49284,8.675 -0.84561,15 -0.35278,6.325 -0.85617,13.975 -1.11866,17 -0.26249,3.025 -0.72769,9.55 -1.03377,14.5 -0.30609,4.95 -0.754,11.25 -0.99535,14 -0.24134,2.75 -0.65982,8.15 -0.92995,12 -0.27013,3.85 -0.73232,10.375 -1.0271,14.5 -1.1898,16.64935 -1.47354,20.89551 -2.00471,30 -1.08206,18.54693 -1.51932,25.58554 -2.01898,32.5 -0.27821,3.85 -0.95245,13.975 -1.4983,22.5 -1.19266,18.6267 -2.67044,23.48369 -9.18304,30.18161 L 681.12985,878 h 39.98053 39.98053 l 2.45454,2.45455 c 2.9997,2.99969 3.13134,6.41533 0.38197,9.91059 L 761.85484,893 H 519.10173 276.34863 Z m 130.51993,-71.09841 2.80576,-2.41286 0.27698,-50.08463 c 0.24323,-43.98315 0.0851,-50.45564 -1.2979,-53.1301 -3.04936,-5.89681 -10.99497,-5.95673 -13.4204,-0.1012 -0.78025,1.88368 -1.03007,17.87601 -0.83579,53.50308 l 0.27711,50.81632 2.36078,1.91113 c 3.17823,2.57286 6.45246,2.4058 9.83346,-0.50174 z M 643.25,818.8862 c 1.61733,-1.94797 1.74759,-5.98481 1.7182,-53.24698 -0.024,-38.623 -0.32996,-51.52755 -1.25,-52.72588 -3.33352,-4.34178 -9.56133,-4.60859 -12.23748,-0.52427 -1.79499,2.73951 -3.12945,60.5272 -2.00952,87.02052 0.72659,17.18836 0.85583,18.00835 3.20923,20.36175 1.9579,1.9579 3.09384,2.32824 5.63586,1.83739 1.75104,-0.33811 3.97121,-1.56325 4.93371,-2.72253 z M 545.19572,763.39879 C 550.63431,760.58639 551,758.51262 551,730.48392 c 0,-15.745 0.39889,-26.36073 1.03518,-27.54966 0.98372,-1.8381 2.36336,-1.93445 27.75,-1.938 37.87676,-0.005 36.21687,1.54014 36.21108,-33.71414 C 615.99074,633.62219 617.56688,635 579.0673,635 c -24.67895,0 -26.04941,-0.0981 -27.03212,-1.93426 C 551.39778,631.87474 551,621.14501 551,605.14247 v -25.98902 l -2.5737,-3.05866 c -4.0034,-4.75778 -7.48637,-5.28405 -32.5735,-4.92181 -20.94505,0.30244 -22.8122,0.4765 -24.84262,2.31583 C 486.69355,577.3992 486.51669,578.58212 486,607 l -0.5,27.5 -28.5,0.5 c -20.52147,0.36003 -29.12699,0.85823 -30.73965,1.77964 C 421.42211,639.54402 421,642.09481 421,668.56799 v 24.6673 l 3.88235,3.88236 3.88236,3.88235 h 27.41764 c 19.99151,0 27.74267,0.32502 28.61765,1.2 0.87287,0.87287 1.20102,8.43768 1.20374,27.75 0.004,24.85625 0.13234,26.76094 2.01969,29.85655 3.29458,5.40374 5.18011,5.72926 31.04218,5.35917 17.79518,-0.25465 24.01962,-0.67555 26.13011,-1.76693 z M 642.54545,614.54545 645,612.09091 V 563.5 514.90909 l -2.45455,-2.45454 c -3.17564,-3.17565 -7.4883,-3.20874 -10.42759,-0.08 l -2.23077,2.37454 -0.12686,47.87546 c -0.13447,50.74556 -0.0696,51.5051 4.55514,53.36847 3.65535,1.47278 5.66283,1.11968 8.23008,-1.44757 z m -237.63959,-0.45131 c 2.96319,-2.96319 3.45748,-13.28247 2.78081,-58.05531 -0.56819,-37.59593 -0.74559,-40.64097 -2.50506,-43 -2.10393,-2.82088 -4.15542,-3.5132 -7.74252,-2.6129 C 392.1189,511.76121 392,512.92834 392,563.81548 c 0,45.94825 0.0427,46.96909 2.07258,49.54966 2.55635,3.24988 7.94949,3.61279 10.83328,0.729 z M 301.74797,440.57083 c -5.98559,-2.13219 -10.38734,-6.13439 -13.30451,-12.09687 -2.35328,-4.80993 -2.64358,-6.39213 -2.19596,-11.9685 0.8117,-10.11208 5.89676,-17.46999 14.79322,-21.40533 4.46085,-1.97324 7.09031,-2.00099 216.01915,-2.27967 l 211.50334,-0.28212 5.96828,2.98083 c 10.11409,5.05143 15.27369,14.27129 14.146,25.27799 -1.1372,11.09952 -8.66415,18.68425 -20.0559,20.20987 -3.36687,0.4509 -99.94659,0.83794 -214.62159,0.86008 -171.5403,0.0331 -209.1651,-0.19666 -212.25203,-1.29628 z m 223.57996,-66.36286 c 3.63048,-3.63331 5.01872,-3.53059 8.29376,0.61368 l 2.1217,2.68482 -6.85246,-0.003 -6.85246,-0.003 z m -135.56292,-9.47241 c 6.72924,-6.74544 12.22267,-12.48294 12.20762,-12.75 -0.0151,-0.26706 -6.10418,-6.78556 -13.53138,-14.48556 -7.4272,-7.7 -13.76586,-15.02124 -14.08591,-16.26941 -0.72879,-2.84228 1.33735,-7.99576 3.71607,-9.26881 4.41009,-2.3602 6.23933,-1.17729 20.91626,13.52587 l 14.4618,14.48765 4.02526,-3.83184 4.02527,-3.83184 22.5,22.3259 22.5,22.3259 -44.48499,0.0183 -44.485,0.0183 z m 62.12874,-19.14875 -31.60626,-31.34723 51.28421,-51.33077 c 39.12755,-39.16307 52.1902,-51.65517 55.10625,-52.69929 5.12642,-1.83558 14.73619,-1.97388 20.60795,-0.2966 4.24118,1.2115 7.38745,3.94054 27.64292,23.97709 C 599.24353,257.94193 599,257.60298 599,267.39287 599,271.68269 595.07637,279 592.77612,279 c -0.63348,0 -12.29988,-11.10989 -25.92534,-24.68864 -13.62545,-13.57875 -25.51496,-25.10355 -26.42112,-25.61066 -3.57571,-2.00107 -9.13111,3.36835 -8.02887,7.76006 0.31398,1.25096 11.84708,13.35156 25.62912,26.89022 27.98304,27.48887 26.48312,24.84295 18.48098,32.60121 l -4.59214,4.45218 -25.71645,-25.70218 C 519.23758,247.75242 517.54338,246.50216 513.74524,250.75 c -1.6214,1.81338 -2.0478,3.33675 -1.88937,6.75 0.0569,1.22547 9.97419,11.69665 25.60854,27.03874 l 25.5157,25.03875 -6.3182,6.26204 -6.31821,6.26205 -25.60313,-26.05079 C 507.26651,278.27121 498.46618,270 497.02326,270 494.81223,270 490,274.11399 490,276.00421 c 0,3.11938 4.96928,8.68428 27.86073,31.20011 l 25.0177,24.6072 -6.02733,5.7491 -6.02733,5.74909 -26.16883,-26.15485 C 477.26502,289.77957 476.08977,288.91023 472,293 c -4.58656,4.58656 -3.7911,5.69405 24.21919,33.7193 l 26.21918,26.2332 -3.46918,3.74621 c -1.90806,2.06041 -7.04111,7.4711 -11.40679,12.02375 L 499.6248,377 l -8.0624,-0.033 -8.0624,-0.033 z m 29.88374,-0.14351 C 483.26415,344.402 484,342.85677 484,340.77622 c 0,-2.65017 -1.95337,-5.08307 -13.2023,-16.4433 -14.04615,-14.18513 -16.48085,-15.5505 -20.26771,-11.36606 -3.83121,4.23344 -2.59243,6.4417 11.58112,20.64448 13.7627,13.79109 15.43387,14.79652 19.66638,11.83196 z m 63.73441,23.56867 -7.94118,-7.98803 3.55554,-3.76197 c 1.95555,-2.06908 4.50006,-4.83026 5.65447,-6.13594 l 2.09892,-2.37397 7.40456,7.62397 c 7.84152,8.07387 10.2118,9.06613 14.49328,6.06727 1.50219,-1.05217 2.22251,-2.5845 2.22251,-4.72788 0,-2.61433 -1.34195,-4.52104 -7.64234,-10.8586 l -7.64234,-7.68743 5.29231,-6.08469 c 2.91077,-3.34659 5.52825,-6.0847 5.81663,-6.0847 0.28837,0 3.77293,3.15 7.74345,7 3.97052,3.85 8.08865,7 9.1514,7 2.72511,0 6.28089,-4.13029 6.28089,-7.29571 0,-1.91535 -1.87614,-4.65561 -6.65814,-9.72478 l -6.65814,-7.05798 3.00616,-3.21076 c 1.65338,-1.76593 4.49685,-4.89827 6.31882,-6.96077 1.82196,-2.0625 3.8284,-3.75 4.45876,-3.75 0.63036,0 3.98589,2.925 7.45674,6.5 5.19796,5.35394 6.87971,6.5 9.53823,6.5 3.88677,0 6.53757,-2.60555 6.53757,-6.42597 0,-2.05016 -1.68653,-4.51544 -6.5,-9.50132 -3.575,-3.70306 -6.5,-7.15508 -6.5,-7.67116 C 603,291.30815 612.95657,281 614.01267,281 c 0.39199,0 3.66784,3.15 7.27967,7 5.31496,5.66543 7.14153,7 9.58061,7 1.98059,0 3.54727,-0.76185 4.57035,-2.22251 3.03974,-4.33984 2.02569,-6.86168 -5.94132,-14.77552 l -7.49802,-7.44798 5.71672,-5.77699 c 3.14419,-3.17735 5.9933,-5.777 6.33135,-5.777 0.33805,0 3.53964,2.925 7.11464,6.5 7.04583,7.04584 10.88476,8.31063 14.17834,4.67126 3.08432,-3.40813 2.00429,-6.04114 -5.75745,-14.0361 l -7.41244,-7.63516 5.4313,-5.81689 5.4313,-5.81689 19.45848,18.71931 19.45849,18.71931 -6.67896,7.09758 c -3.67343,3.90367 -25.99455,27.01008 -49.6025,51.34758 L 592.74969,377 h -19.64831 -19.6483 z M 679.09898,245.69611 C 657.97841,225.23825 640.2545,207.50397 639.7125,206.2866 637.67734,201.71552 642.35798,196 648.13657,196 c 1.25137,0 6.67181,4.48758 13.99458,11.5861 l 11.95212,11.58611 2.24569,-3.33611 c 4.24709,-6.30927 14.1988,-8.66601 21.2447,-5.03112 4.58795,2.36687 10.52404,8.33964 12.81616,12.89536 3.26585,6.49108 1.37686,14.29596 -4.7098,19.45977 l -3.13551,2.66012 13.74182,13.33988 c 9.40864,9.13344 13.73739,14.02519 13.72775,15.51316 -0.008,1.19531 -1.17908,3.55781 -2.60297,5.25 -2.04844,2.43443 -3.35319,3.06548 -6.25,3.02284 -3.43803,-0.0506 -6.00098,-2.32035 -42.06213,-37.25 z M 581.141,224.56998 c -21.92771,-21.85423 -20.99818,-19.63191 -11.83586,-28.29724 10.17059,-9.61892 12.29042,-8.98263 31.62259,9.49193 16.7811,16.03667 18.40137,18.6322 15.47754,24.79371 -1.75648,3.70151 -12.52893,13.49721 -14.70719,13.37367 -0.65894,-0.0374 -9.90963,-8.7503 -20.55708,-19.36207 z m 129.9101,-16.99705 c -2.87307,-1.5911 -3.89233,-3.95264 -3.22122,-7.46332 0.29628,-1.5499 7.29372,-9.50722 18.08756,-20.56872 9.68239,-9.92249 22.32444,-22.92278 28.09345,-28.88954 5.76901,-5.96675 11.5269,-11.25273 12.79531,-11.74661 1.59228,-0.61999 3.18,-0.44612 5.12882,0.56166 3.18319,1.64609 4.06498,3.33035 4.06498,7.76431 0,2.67551 -3.60705,6.71901 -28.25,31.66821 -15.5375,15.73059 -28.7,28.93169 -29.25,29.33577 -1.53225,1.12572 -4.73501,0.84119 -7.4489,-0.66176 z"
       id="path1" />
  </g>
</svg>
