<?xml version="1.0" encoding="UTF-8" standalone="no"?>
<!-- Created with Inkscape (http://www.inkscape.org/) -->

<svg
   version="1.1"
   id="svg1"
   fill="currentColor"
   stroke="currentColor"
   width="531.74817"
   height="531.42957"
   viewBox="0 0 531.74817 531.42957"
   sodipodi:docname="community.svg"
   inkscape:version="1.3 (0e150ed, 2023-07-21)"
   xmlns:inkscape="http://www.inkscape.org/namespaces/inkscape"
   xmlns:sodipodi="http://sodipodi.sourceforge.net/DTD/sodipodi-0.dtd"
   xmlns="http://www.w3.org/2000/svg"
   xmlns:svg="http://www.w3.org/2000/svg">
  <sodipodi:namedview
     id="namedview1"
     pagecolor="#ffffff"
     bordercolor="#999999"
     borderopacity="1"
     inkscape:showpageshadow="2"
     inkscape:pageopacity="0"
     inkscape:pagecheckerboard="0"
     inkscape:deskcolor="#d1d1d1"
     inkscape:zoom="0.23046875"
     inkscape:cx="264.67797"
     inkscape:cy="282.0339"
     inkscape:window-width="1312"
     inkscape:window-height="449"
     inkscape:window-x="0"
     inkscape:window-y="25"
     inkscape:window-maximized="0"
     inkscape:current-layer="svg1" />
  <defs
     id="defs1" />
  <g
     id="g1"
     transform="translate(-247.74918,-230.07041)">
    <path
       d="m 286.20144,725.75 c 0.45409,-33.62791 0.5776,-35.48008 2.68399,-40.25 3.22708,-7.30772 6.619,-11.80507 11.60279,-15.38415 6.39223,-4.59056 11.87412,-6.22108 21.01178,-6.24971 9.83732,-0.0308 15.4628,2.13652 20.7577,7.99734 L 346,676.00576 V 718.50288 761 h -30.13728 -30.13728 z m 81.00266,-6.5 c 0.31482,-40.60296 0.38562,-41.90396 2.57692,-47.3537 5.15541,-12.82147 16.07122,-23.61364 27.7572,-27.4428 4.47232,-1.46545 8.7516,-1.9535 17.12845,-1.9535 6.14166,0 11.31666,0.225 11.5,0.5 0.18333,0.275 0.2037,26.9375 0.0453,59.25 L 425.92389,761 H 396.40213 366.88038 Z M 448,708.57236 c 0,-31.8896 0.42131,-55.49198 1.07549,-60.25 3.31908,-24.14062 21.12147,-45.22099 44.42451,-52.60444 5.85027,-1.85363 9.29947,-2.2168 21,-2.2111 12.12386,0.006 14.99362,0.33305 21.41453,2.44117 19.0098,6.24131 35.37784,22.90585 42.00949,42.77046 2.00602,6.0089 2.07598,8.17409 2.07598,64.25 V 761 H 514 448 Z M 602.80193,702.25 c -0.16606,-32.3125 -0.26509,-58.86184 -0.22005,-58.99854 0.045,-0.1367 3.50592,-0.53798 7.69087,-0.89174 20.29383,-1.71546 37.25473,7.78845 46.19989,25.88775 4.79181,9.69556 5.44466,16.82862 5.49169,60.00253 L 662,761 H 632.55193 603.10386 Z M 682,718.64079 v -42.35921 l 4.01835,-4.56509 c 5.21464,-5.92414 11.04065,-8.19143 20.98165,-8.16539 5.97938,0.0157 8.66293,0.55749 13.23579,2.67244 6.94281,3.21105 14.45136,10.50033 17.79614,17.27646 2.46765,4.99915 2.46812,5.00614 2.76463,41.25 L 741.09313,761 H 711.54656 682 Z M 348.60386,647.5011 c -4.431,-3.35409 -14.94058,-5.92909 -24.34715,-5.96541 L 315.01342,641.5 314.75671,563.5158 314.5,485.5316 301.21797,498.5158 c -7.30512,7.14131 -14.95512,13.7599 -17,14.70798 -5.42843,2.5168 -16.37863,2.36095 -21.89957,-0.31169 -8.74694,-4.23432 -15.41462,-16.16082 -13.83485,-24.74641 1.82628,-9.92521 4.10638,-12.35267 95.51645,-101.68923 30.43822,-29.74777 64.18805,-62.9207 114.06068,-112.11099 43.09915,-42.50949 44.9329,-43.93219 56.43932,-43.78806 3.56636,0.0447 7.62242,0.8223 10,1.91719 2.61638,1.20487 15.25353,13.02574 36.53358,34.17373 17.89346,17.78242 32.74346,32.33191 33,32.3322 0.25653,2.8e-4 0.46642,-5.3209 0.46642,-11.82486 0,-11.40135 0.10789,-12.00003 3.00892,-16.69576 2.13684,-3.45878 4.4464,-5.61084 7.96856,-7.42514 4.81811,-2.48185 5.60152,-2.56391 27.45241,-2.87555 26.09599,-0.37219 29.4561,0.20678 35.33826,6.08894 6.92654,6.92654 6.73185,5.18168 6.73185,60.33198 v 49.66437 l 49.08368,49.25877 c 26.99603,27.09232 50.2705,50.9953 51.72106,53.11775 3.33409,4.87841 4.23403,14.93709 1.84745,20.64897 C 773.34255,509.60442 765.13813,515 753.76382,515 744.14266,515 740.72365,512.94667 725.75,498.17599 L 713,485.59881 l -0.007,77.9506 -0.007,77.95059 -9.74276,0.10406 c -7.77456,0.083 -11.27307,0.63859 -17.31794,2.75 -4.16635,1.45527 -7.83935,2.64594 -8.16222,2.64594 -0.32288,0 -2.60921,-2.8125 -5.08075,-6.25 -2.47154,-3.4375 -6.27489,-7.96911 -8.45188,-10.07024 l -3.95817,-3.82025 4.2678,-6.36441 c 7.73239,-11.53102 11.08699,-24.01798 10.09928,-37.59303 -1.83896,-25.27457 -20.75525,-47.67842 -44.67649,-52.9134 -3.35013,-0.73315 -10.26301,-1.05085 -17.5,-0.80426 -11.94161,0.4069 -13.50394,0.79182 -26.05899,6.42023 -0.7376,0.33067 -1.29072,-2.93615 -1.68952,-9.97849 -0.64126,-11.32367 -4.49167,-25.12224 -9.31224,-33.37188 C 566.0889,476.31701 548.67903,463.23892 531,458.9003 c -7.84782,-1.92595 -26.92925,-1.64894 -35,0.50809 -15.28908,4.08623 -28.29246,12.72891 -37.44291,24.8864 C 448.64297,497.46688 444,511.02832 444,526.81389 444,532.50592 443.60448,536 442.96016,536 c -0.57191,0 -2.7364,-0.86552 -4.80998,-1.92338 -11.02407,-5.62406 -31.79001,-7.1201 -44.22231,-3.18589 -16.65194,5.26951 -30.92415,19.58076 -37.00803,37.10927 -2.70835,7.80311 -3.7067,23.89276 -1.99433,32.14116 1.42404,6.85958 5.68997,15.9401 10.33361,21.99626 l 3.5558,4.63741 -4.00153,3.86259 C 360.30682,634.9875 352,646.16379 352,647.87699 c 0,1.49148 -1.08833,1.37102 -3.39614,-0.37589 z M 402,622.68589 C 391.32373,619.60498 383.84268,613.345 378.33413,602.88279 375.74366,597.96278 375.5,596.59726 375.5,587 c 0,-9.28003 0.30911,-11.15938 2.66041,-16.17515 5.42784,-11.5786 15.08053,-18.84747 27.73473,-20.88537 11.72163,-1.88771 22.63078,1.72694 31.30582,10.37291 15.5876,15.53535 15.25758,38.92841 -0.75567,53.56362 -9.06236,8.28249 -23.48768,11.97197 -34.44529,8.80988 z m 205,-0.2712 c -24.47913,-6.47002 -34.82218,-36.3714 -20.02196,-57.88277 9.08994,-13.21178 29.71603,-18.93893 44.24778,-12.28607 26.68102,12.21497 30.3901,48.70353 6.60228,64.95081 -9.24324,6.31321 -19.87557,8.11286 -30.8281,5.21803 z M 497.48886,572.66027 C 478.38346,565.55506 466,547.26849 466,526.16088 c 0,-28.61958 26.67202,-50.71645 55.96872,-46.36819 22.98265,3.41112 40.97344,24.35267 41.01941,47.74721 0.041,20.86675 -13.60915,39.24739 -33.77134,45.47486 -9.18697,2.83757 -23.57705,2.67679 -31.72793,-0.35449 z"
       id="path1" />
  </g>
</svg>
