<?xml version="1.0" encoding="UTF-8" standalone="no"?>
<!-- Created with Inkscape (http://www.inkscape.org/) -->

<svg
   version="1.1"
   id="svg1"
   fill="currentColor"
   stroke="currentColor"
   width="1024"
   height="1024"
   viewBox="0 0 1024 1024"
   xmlns="http://www.w3.org/2000/svg"
   xmlns:svg="http://www.w3.org/2000/svg">
  <defs
     id="defs1" />
  <g
     id="g1">
    <path
       d="M 298.72263,870.92189 C 288.9455,869.35848 279.24764,860.94034 276.47747,851.61218 275.21301,847.35427 275,830.66535 275,735.85368 275,626.09382 274.98152,625.06048 273,624 c -2.3106,-1.2366 -5.40256,7e-4 -6.38235,2.55401 -0.33971,0.88526 -0.61765,4.28721 -0.61765,7.5599 0,13.40432 -8.34622,22.22887 -21.10538,22.31494 -7.3616,0.0497 -14.06843,-3.922 -18.36818,-10.8773 L 223.5,640.65598 v -73.57799 c 0,-83.09552 -0.35756,-78.80954 7.97368,-95.57799 10.63488,-21.40505 25.89984,-35.2565 47.65541,-43.24265 l 7.37091,-2.70575 55.98788,-0.32326 c 48.03631,-0.27735 56.98991,-0.10033 63.04327,1.24642 14.09154,3.13507 29.31177,12.30139 40.77656,24.55751 8.56168,9.15263 12.78558,15.93893 17.60915,28.29164 L 467.5,488.5 v 76 c 0,72.27847 -0.0914,76.17139 -1.86697,79.5 -6.15636,11.54128 -19.29639,15.90356 -29.64196,9.84066 -8.28155,-4.85332 -10.87364,-9.83028 -10.94718,-21.01923 -0.0308,-4.69179 -0.51137,-7.14605 -1.61532,-8.25 -1.92213,-1.92214 -3.82125,-2.00814 -5.28907,-0.23952 -0.78903,0.95073 -1.18182,33.21971 -1.37245,112.75 L 416.5,848.5 l -2.3858,5.27943 c -3.02204,6.68732 -10.49347,13.52152 -17.22753,15.75821 -6.37419,2.11717 -16.81636,1.62541 -22.35351,-1.0527 -5.3378,-2.5817 -10.59357,-8.01238 -13.57535,-14.02713 L 358.5,849.5 358,766.27223 l -0.5,-83.22777 -2.66096,-2.66047 c -5.13943,-5.13847 -16.66753,-4.06013 -20.0594,1.87636 C 333.77985,684.0102 333.39065,702.65156 333,767.5 l -0.5,83 -2.96815,5.3588 c -6.27123,11.32231 -18.08424,17.09787 -30.80922,15.06309 z m 323.60155,-1.30507 C 611.28546,866.01635 602.22025,856.52763 598.08131,844.24136 596.01747,838.11495 596,837.0261 596,714.53155 596,644.3347 595.62112,591 595.12244,591 c -0.48265,0 -1.49515,0.74626 -2.25,1.65836 -0.75484,0.9121 -4.07244,2.93675 -7.37244,4.49922 -18.4636,8.74204 -39.76765,-3.23933 -44.37562,-24.9568 -1.51909,-7.15949 -1.56351,-145.8581 -0.0503,-156.87842 4.20655,-30.63417 25.19362,-57.53045 53.40141,-68.43735 15.17102,-5.86607 14.92873,-5.85005 88.52446,-5.85287 73.20195,-0.003 72.6251,-0.0403 86.87097,5.64804 22.40438,8.94601 43.88442,30.38493 51.47895,51.38038 5.61952,15.53545 5.61664,15.48785 5.6,92.43944 -0.008,39.05 -0.41312,74.08678 -0.89928,77.85952 -2.41415,18.73465 -16.03502,31.65792 -33.33815,31.63071 -6.80335,-0.0107 -14.68575,-2.99028 -18.11748,-6.8485 C 773.54727,591.96378 772.31997,591 771.86768,591 c -0.4523,0 -0.94505,55.9125 -1.09502,124.25 L 770.5,839.5 768.01219,846 c -1.90412,4.97495 -4.01572,8.04651 -9,13.09145 -8.72468,8.83087 -14.79715,11.29212 -28.02736,11.35984 -8.78837,0.045 -10.02641,-0.20275 -16.20803,-3.24329 -7.30445,-3.59282 -12.3192,-8.63544 -16.61565,-16.708 l -2.66115,-5 -0.5,-92 c -0.41918,-77.12978 -0.72916,-92.34485 -1.9178,-94.13351 C 691.2756,656.6479 686.81703,654 684.04605,654 c -3.09485,0 -7.78071,2.66007 -9.26641,5.26035 C 673.77653,661.01602 673.39195,681.05662 673,752 l -0.5,90.5 -2.68006,5.71807 c -3.72633,7.95037 -10.76805,15.13876 -18.6132,19.00092 -5.64271,2.77789 -7.70767,3.23848 -15.605,3.4807 -5.71081,0.17515 -10.65748,-0.22828 -13.27756,-1.08287 z M 331.07519,398.91274 c -27.61203,-5.41738 -47.92262,-24.73482 -55.69392,-52.97059 -2.77176,-10.07077 -2.53516,-29.25644 0.47993,-38.91693 7.60622,-24.37069 23.24266,-40.66095 46.6388,-48.58896 10.4111,-3.52791 28.12973,-4.45128 39.40594,-2.05358 30.62366,6.51162 53.69107,33.43913 56.67635,66.16056 1.29933,14.24182 -3.6002,32.11664 -12.55284,45.7962 -12.78581,19.53662 -36.54364,31.83095 -60.96984,31.55099 -5.25779,-0.0603 -11.55078,-0.50022 -13.98442,-0.97769 z m 334.9935,-82.94112 c -31.19503,-6.54148 -54.59659,-27.61174 -65.06832,-58.58611 -2.94575,-8.71327 -3.39445,-11.4438 -3.78386,-23.02656 -0.71741,-21.33871 3.02252,-35.11015 13.98617,-51.50099 12.15407,-18.17054 32.38216,-31.90695 53.61142,-36.40624 10.04925,-2.12981 27.9426,-1.85351 38.1859,0.58966 11.18771,2.66843 24.99229,9.46728 34.39672,16.94064 22.88993,18.18979 36.22169,49.33963 32.59844,76.16672 -4.00211,29.63226 -21.63722,55.09423 -46.6153,67.30423 -13.09421,6.40082 -23.10529,8.74891 -38.87986,9.11922 -7.7,0.18076 -15.99409,-0.0895 -18.43131,-0.60057 z"
       id="path1" />
  </g>
</svg>
