<?xml version="1.0" encoding="UTF-8" standalone="no"?>
<!-- Created with Inkscape (http://www.inkscape.org/) -->

<svg
   version="1.1"
   id="svg1"
   fill="currentColor"
   stroke="currentColor"
   width="1024"
   height="1024"
   viewBox="0 0 1024 1024"
   xmlns="http://www.w3.org/2000/svg"
   xmlns:svg="http://www.w3.org/2000/svg">
  <defs
     id="defs1" />
  <g
     id="g1">
    <path
       d="M 518.55695,781.33196 C 515.67624,776.77854 508.91527,769.30468 487.49968,747 c -15.15764,-15.78692 -25.00862,-31.03518 -28.55252,-44.19624 -0.59324,-2.20311 -1.22334,-3.84772 -1.40023,-3.6547 -0.17689,0.19302 0.0634,4.83581 0.53405,10.31732 1.08285,12.61256 3.7763,21.59052 9.98835,33.29382 l 4.91526,9.2602 -3.58836,-1.49931 c -26.80031,-11.19789 -51.65156,-40.9108 -59.85504,-71.56453 -5.23275,-19.5531 -5.45499,-39.39663 -0.60222,-53.77104 1.87978,-5.56812 1.8794,-5.59714 -0.0421,-3.15268 -3.75171,4.77288 -9.01075,16.96181 -11.42547,26.48091 -4.66307,18.38235 -4.29912,35.82223 1.07746,51.63001 1.34573,3.95663 2.29862,7.34205 2.11752,7.52316 -0.18111,0.1811 -2.37786,-1.02765 -4.88169,-2.68612 -7.03584,-4.66035 -19.20433,-18.02588 -26.37404,-28.9685 -31.07197,-47.42301 -33.79063,-109.76115 -6.36097,-145.85536 4.53734,-5.9706 4.05265,-5.87386 -4.54972,0.9081 -18.08541,14.25821 -28.86822,29.94305 -36.03202,52.41268 l -3.1811,9.97772 -1.52973,-2.97772 c -2.44704,-4.76331 -6.50664,-18.48692 -8.31341,-28.10372 -2.43707,-12.97165 -2.26241,-37.80699 0.35805,-50.91325 5.65733,-28.29518 19.92163,-53.53861 37.69821,-66.71427 l 4,-2.96473 -3.48229,0.7396 c -13.70575,2.91095 -28.04127,10.14659 -37.86322,19.11089 l -7.25732,6.62361 0.6526,-5.37792 c 2.73505,-22.5392 15.18656,-42.34882 34.44094,-54.79353 3.3644,-2.17452 6.55779,-4.10057 7.09642,-4.28011 0.53862,-0.17954 -0.36534,-2.80908 -2.0088,-5.84342 -4.15851,-7.67787 -6.08252,-15.91593 -6.05388,-25.92097 0.0461,-16.10301 4.34798,-26.36804 15.97555,-38.12038 7.73516,-7.81816 13.07056,-11.05444 22.25593,-13.49973 5.96412,-1.58774 19.6844,-1.87089 24.44856,-0.50454 2.3956,0.68705 3.48146,0.56562 4.35505,-0.48699 0.64006,-0.77123 3.82975,-2.37431 7.08819,-3.56239 l 5.92443,-2.16016 -2.2284,-2.37202 C 408.12528,304.1822 395.12835,299 383.91091,299 380.10991,299 377,298.58501 377,298.07781 c 0,-1.68135 9.39998,-9.01889 16,-12.48946 9.62601,-5.06177 17.60804,-6.83521 31,-6.88754 18.02049,-0.0704 29.65895,4.00334 41.44269,14.50602 5.437,4.84591 5.631,4.93064 4.96436,2.16808 -3.25527,-13.4898 -12.66798,-26.5223 -25.81042,-35.73619 l -5.90337,-4.13872 2.90337,-0.63169 c 4.87763,-1.06122 16.00875,-0.93097 21.60415,0.2528 11.69934,2.47513 25.6938,10.89145 31.70775,19.06915 3.13811,4.26717 3.23239,4.23572 5.06759,-1.69026 1.75278,-5.65982 7.58663,-16.20881 11.87744,-21.47725 C 516.48175,245.34007 521.00665,241 522.30315,241 c 1.70272,0 8.75703,8.03034 13.68298,15.57614 2.57523,3.94485 5.67547,10.26652 6.88943,14.04815 l 2.20721,6.87571 7.20861,-7.00328 c 3.96474,-3.8518 9.53758,-8.24914 12.3841,-9.77185 6.79005,-3.63228 19.1157,-6.72763 26.73448,-6.71386 6.92443,0.0125 13.59004,0.9407 13.59004,1.89243 0,0.35296 -1.66737,1.53158 -3.70527,2.61916 -6.55974,3.50076 -17.79048,15.52016 -21.56063,23.07469 -1.89468,3.79649 -3.75631,8.25271 -4.13697,9.90271 -0.38066,1.65 -0.95626,3.9 -1.27912,5 -0.38208,1.30179 1.37459,0.15257 5.03194,-3.2919 11.82378,-11.1356 30.83974,-16.73004 49.02763,-14.4238 5.01733,0.63621 11.37242,1.92126 14.12242,2.85568 6.57852,2.23531 17.67866,8.9174 21.69221,13.05833 l 3.20012,3.30169 -2.94616,0.0349 c -11.84083,0.14021 -28.17738,5.85017 -34.32421,11.997 l -3.3647,3.3647 4.92264,1.67326 c 2.70746,0.92029 6.382,2.42792 8.16564,3.35028 2.62711,1.35852 4.80141,1.55248 11.44873,1.02124 10.19307,-0.8146 18.23176,0.59187 26.47854,4.63276 7.40768,3.62974 16.77518,11.98802 21.24878,18.95952 10.06721,15.68838 10.94279,39.23166 2.06838,55.6165 l -2.85373,5.26885 6.63188,4.27851 c 3.64753,2.35318 10.27725,7.89713 14.7327,12.31989 6.85223,6.80195 8.89408,9.65524 13.24742,18.51199 C 738.2127,449.94325 741,458.85058 741,465.07982 v 3.65962 l -6.78656,-6.61972 c -7.84595,-7.65308 -18.08801,-13.44236 -32.06256,-18.12325 -5.14202,-1.72236 -9.53767,-2.94302 -9.76811,-2.71257 -0.23045,0.23045 1.35929,1.65135 3.53275,3.15756 5.38941,3.73486 13.84742,12.79113 18.8381,20.17059 20.21008,29.88357 27.23459,71.09162 18.17811,106.63869 -2.28358,8.96315 -6.87034,21.75252 -7.79759,21.7422 -0.34878,-0.004 -1.39288,-3.15359 -2.32022,-6.99936 -2.10883,-8.7455 -9.38363,-24.23523 -15.22998,-32.42815 -4.86699,-6.82048 -22.4028,-23.95135 -27.58423,-26.94726 l -3.25462,-1.88182 4.28558,5.38182 c 5.72835,7.19367 12.47362,21.61862 15.71382,33.60448 2.43397,9.00355 2.64281,11.32062 2.63876,29.27735 -0.004,16.39944 -0.35917,21.14762 -2.23562,29.86219 -6.78817,31.52544 -22.11605,59.01866 -42.52831,76.28195 -3.91563,3.31156 -8.32285,6.65285 -9.79384,7.42509 l -2.67452,1.40406 2.35578,-5.79759 c 6.06279,-14.92062 7.11151,-37.07792 2.51685,-53.1757 -2.37659,-8.32658 -11.05122,-27.28101 -13.05098,-28.51693 -0.88013,-0.54395 -1.03626,-0.39508 -0.49839,0.47522 1.64823,2.66689 4.53206,15.88198 5.13733,23.54171 1.68694,21.34845 -7.3134,51.65035 -21.0886,71 -5.67294,7.96862 -18.90956,20.49665 -27.58655,26.10976 C 584.19099,745.32645 573.09332,751 571.56876,751 c -0.20582,0 1.53845,-3.35629 3.87615,-7.45843 6.4298,-11.28283 10.63558,-26.3465 10.48162,-37.54157 -0.0566,-4.11698 -0.15355,-4.28721 -1.13875,-2 -8.869,20.5899 -14.04383,27.89954 -35.5084,50.15691 -9.77866,10.13984 -19.78059,21.11515 -22.22651,24.38958 -2.44592,3.27443 -4.70324,6.27583 -5.01626,6.66977 -0.31302,0.39394 -1.87887,-1.354 -3.47966,-3.8843 z m 18.62497,-133.31658 c 1.57704,-2.46655 3.36343,-6.29155 3.96976,-8.5 0.93904,-3.42034 1.22135,-3.719 1.90508,-2.01538 0.44147,1.1 0.8343,4.82833 0.87295,8.28518 0.0683,6.10803 0.13073,6.25284 2.21458,5.1376 4.10051,-2.19453 11.09508,-9.41261 13.95637,-14.40235 1.58339,-2.76124 3.40333,-7.66534 4.04432,-10.89802 l 1.16543,-5.87758 1.56945,2.87758 c 1.00952,1.85097 1.55779,5.34341 1.53677,9.7892 l -0.0327,6.91162 4.38111,-4.83909 C 580.31131,626.14905 584,616.34016 584,604.60847 c 0,-2.9112 -1.16412,-12.00155 -2.58694,-20.20078 -3.12892,-18.03088 -2.80299,-24.81893 2.10821,-43.90769 1.83957,-7.15 4.70402,-18.2531 6.36545,-24.67355 C 593.0028,503.78463 595.22571,488 593.80546,488 593.36246,488 593,488.4487 593,488.99712 c 0,2.4287 -7.93921,9.53412 -13.46603,12.05181 l -5.96602,2.71776 -2.18448,12.36665 c -1.20146,6.80167 -3.40439,18.66666 -4.89541,26.36666 -2.24981,11.61861 -2.6654,16.21129 -2.44323,27 0.53678,26.06686 0.48675,26.808 -2.12984,31.55136 -1.46783,2.66089 -3.99405,5.28808 -6.41783,6.67434 -3.95822,2.26387 -4.30081,2.28365 -35.168,2.03022 L 489.15832,609.5 486.44333,607 c -6.06678,-5.58635 -6.93871,-10.19565 -6.52629,-34.5 0.22894,-13.49192 -1.19182,-23.71444 -7.36608,-53 -1.39147,-6.6 -2.53468,-12.95136 -2.54046,-14.11414 -0.008,-1.59089 -1.16228,-2.55401 -4.66409,-3.89137 -5.44439,-2.07923 -12.05885,-7.72709 -14.04729,-11.99449 -1.28445,-2.75658 -1.35812,-2.26973 -0.908,6 0.4979,9.14743 3.27302,21.37917 8.73483,38.5 1.66685,5.225 3.74659,14.45 4.62163,20.5 1.69276,11.70364 1.59649,13.31757 -2.3262,39 -2.74956,18.00173 0.26924,30.44211 9.99349,41.18288 l 4.30079,4.75038 -0.0171,-6.96663 c -0.01,-3.99688 0.62071,-8.45862 1.47916,-10.46663 l 1.49629,-3.5 1.13907,6.39778 c 1.88122,10.56618 6.59537,17.75535 15.86713,24.19769 2.29909,1.59749 4.3388,2.90453 4.53268,2.90453 0.19389,0 0.19079,-3.0375 -0.007,-6.75 -0.25633,-4.8141 0.0581,-7.30782 1.09647,-8.69498 1.37169,-1.83253 1.49505,-1.71307 2.13353,2.06603 0.89931,5.32298 4.75712,11.8204 12.06402,20.31856 l 6,6.97819 6.40729,-6.7089 c 3.52401,-3.6899 7.69759,-8.72698 9.27463,-11.19352 z M 548,578.5 c 0,-7.975 -0.34987,-14.5 -0.77749,-14.5 -3.53469,0 -9.15628,8.70684 -9.20055,14.25 L 538,581 h -16 -16 v -3.04966 C 506,572.87669 500.48048,564 497.32569,564 496.28866,564 496,567.01212 496,577.83333 c 0,7.60834 0.3,14.13334 0.66667,14.5 0.36666,0.36667 12.06666,0.66667 26,0.66667 H 548 Z m -52.9401,-64.70346 c 2.40238,-4.67522 7.4014,-8.85605 12.34433,-10.32394 3.07487,-0.91314 9.16384,-1.46889 16.02727,-1.46283 9.59074,0.008 11.76084,0.33212 16.25413,2.42417 6.23967,2.90516 10.32235,8.45727 11.0652,15.04776 0.2801,2.48506 0.84782,4.5183 1.26161,4.5183 1.15299,0 6.18165,-16.60709 5.81277,-19.19661 -0.19146,-1.34401 -1.14778,-2.43128 -2.32521,-2.6436 -4.29914,-0.77521 -20.68643,-7.37377 -26.56626,-10.69724 l -6.19725,-3.5029 -10.11825,4.95556 c -5.56503,2.72556 -13.83074,6.1578 -18.36824,7.62721 -7.0409,2.2801 -8.25,2.99576 -8.25,4.88311 0,2.90806 2.8004,12.28465 4.80078,16.07447 l 1.58349,3 0.74778,-4.20346 c 0.41127,-2.31191 1.27881,-5.23691 1.92785,-6.5 z m -4.85539,-28.20226 c 3.46252,-1.32315 10.05127,-3.89439 14.64166,-5.71387 l 8.34618,-3.30814 -0.34618,-7.60926 C 512.21785,455.15188 505.61723,449 491.42699,449 h -7.65268 l 0.39364,-6.96648 c 0.34124,-6.0392 0.7789,-7.3686 3.28801,-9.98755 4.81036,-5.02093 7.70848,-4.91367 21.9853,0.8137 l 12.59624,5.05318 4.73125,-2.06562 C 534.90671,432.29427 545.22944,429 548.22481,429 555.41546,429 560,434.80159 560,443.90113 V 449 h -6.9349 c -3.8142,0 -8.2017,0.47863 -9.75,1.06362 -4.00221,1.51214 -8.2637,5.78064 -10.41924,10.43638 -1.92629,4.16059 -2.50128,12.99603 -0.99997,15.36579 1.37854,2.17596 24.08976,11.20257 29.75572,11.82646 2.83339,0.31198 6.7062,0.2756 8.60626,-0.0808 5.68759,-1.067 12.09786,-6.02165 15.32381,-11.84415 2.58556,-4.66666 2.91832,-6.24122 2.91832,-13.80903 0,-7.32998 -0.38334,-9.28066 -2.70212,-13.75 L 583.09576,443 h 2.4029 c 1.32159,0 4.78755,0.49729 7.70212,1.10508 C 611.14976,447.84811 625,462.12397 625,476.8815 c 0,5.35518 1.68053,2.68752 3.98624,-6.3277 3.78531,-14.80042 2.08678,-35.6497 -3.85275,-47.29215 -3.73856,-7.32817 -9.7626,-13.89793 -15.25155,-16.63319 -6.95169,-3.46417 -8.48447,-3.36284 -9.80832,0.64846 -3.03178,9.18639 -11.70687,15.00786 -22.57362,15.14815 l -7,0.0904 -0.31037,3.74228 c -0.1707,2.05825 -0.6207,3.72941 -1,3.71369 -0.37929,-0.0157 -2.71463,-3.44513 -5.18963,-7.6209 -2.475,-4.17577 -7.1517,-10.76068 -10.39266,-14.63314 -3.24096,-3.87246 -5.04096,-6.68857 -4,-6.25802 1.04096,0.43055 4.03828,1.01136 6.66071,1.2907 6.83256,0.72778 12.69782,-1.80599 18.10683,-7.82211 C 579.29471,389.45591 580,389.08879 580,392 c 0,2.44343 1.08498,2.4853 15.07593,0.58173 5.73324,-0.78005 14.12446,-1.72582 18.64716,-2.1017 l 8.22309,-0.68343 -1.50847,-2.91706 c -0.82966,-1.60439 -4.42137,-6.00489 -7.98157,-9.77889 -10.03431,-10.6369 -22.28437,-16.28899 -38.13546,-17.59546 -9.84318,-0.81129 -21.46011,1.3223 -29.98001,5.50619 -7.12954,3.50111 -15.92865,11.85082 -19.41579,18.42416 -1.3318,2.51045 -2.68749,4.56446 -3.01265,4.56446 -0.32516,0 -1.15093,-1.2375 -1.83505,-2.75 -2.47875,-5.48022 -9.4442,-13.32961 -15.29642,-17.23756 -8.84838,-5.90873 -17.08363,-8.16613 -29.78076,-8.16334 -21.68829,0.005 -38.12816,8.14141 -49.10317,24.30283 L 421.92548,390 l 3.78726,0.0312 c 3.33546,0.0275 8.96833,0.63985 32.53726,3.5373 5.56289,0.68387 5.75,0.63074 5.75,-1.6326 0,-2.05359 0.64156,-1.66957 5.25,3.14248 7.05185,7.3634 13.88387,9.35188 24.03448,6.99531 l 3.78448,-0.87861 -6.90644,7.27068 c -4.66743,4.9136 -8.24232,9.9397 -11.02709,15.50351 -4.16235,8.31612 -4.49981,8.43263 -5.57576,1.92506 l -0.59615,-3.60568 -6.73176,0.0359 c -4.98798,0.0266 -7.80761,-0.52132 -10.88503,-2.1153 -4.71476,-2.44206 -9.83308,-8.16724 -11.55991,-12.93052 -1.00394,-2.76926 -1.52693,-3.13759 -3.72731,-2.62504 -4.79879,1.11781 -8.73917,3.41989 -12.89267,7.53229 -5.53736,5.48255 -8.40203,10.61414 -11.61925,20.81399 -4.00868,12.70906 -3.79765,27.24314 0.63159,43.5 l 1.08981,4 1.3199,-6.33432 c 3.30106,-15.84212 15.8953,-26.90331 34.65281,-30.43465 3.15794,-0.59453 5.96474,-0.85792 6.23735,-0.58532 0.2726,0.2726 -0.37138,2.96245 -1.43106,5.97743 -4.4446,12.64568 -3.32861,22.68419 3.39508,30.53931 7.22683,8.44293 16.94512,10.44725 28.76144,5.93183 z m -111.05979,-85.35391 2.64472,-3.70841 -3.45246,-6.85567 c -1.89885,-3.77061 -3.71379,-9.06222 -4.0332,-11.75911 -1.09152,-9.21623 4.48834,-18.04332 13.22926,-20.92809 3.84035,-1.26742 24.9397,-0.85129 30.96187,0.61066 2.68442,0.65166 2.386,0.19419 -2.87837,-4.41253 -17.47316,-15.29037 -41.91144,-12.83021 -51.40575,5.17493 -2.42236,4.59379 -2.70931,6.19678 -2.70982,15.13785 -5e-4,8.88271 0.3045,10.61451 2.7298,15.5 2.60618,5.24986 10.17926,15.02841 11.59704,14.97439 0.3697,-0.0141 1.86231,-1.6944 3.31691,-3.73402 z m 300.5816,-11.09229 c 3.56345,-7.25631 4.36614,-19.3429 1.79807,-27.07466 -2.15161,-6.47789 -8.83645,-13.4113 -16.16555,-16.76668 -7.60771,-3.48292 -17.18826,-2.98454 -26.47032,1.377 -7.08345,3.32844 -18.92071,13.24479 -13.38852,11.21587 1.65,-0.60513 8.67394,-1.34218 15.60876,-1.63789 11.93527,-0.50894 12.90146,-0.40366 18.08857,1.97108 7.8284,3.58396 10.30267,7.85823 10.30267,17.7977 0,6.4606 -0.45515,8.44966 -3.20359,14 l -3.20358,6.4695 3.20358,3.32534 3.20359,3.32535 3.72632,-4.17727 c 2.04947,-2.29749 4.97447,-6.7189 6.5,-9.82534 z"
       id="path1" />
  </g>
</svg>
