<?xml version="1.0" encoding="UTF-8" standalone="no"?>
<!-- Created with Inkscape (http://www.inkscape.org/) -->

<svg
   version="1.1"
   id="svg1"
   fill="currentColor"
   stroke="currentColor"
   width="848.71002"
   height="841.63715"
   viewBox="0 0 848.71002 841.63715"
   xmlns="http://www.w3.org/2000/svg"
   xmlns:svg="http://www.w3.org/2000/svg">
  <defs
     id="defs1" />
  <g
     id="g1"
     transform="translate(-88.163132,-92.324906)">
    <path
       d="M 481.16101,932.89863 C 460.69559,931.42629 431.92799,926.73531 410.5,921.3763 346.20641,905.29688 290.485,877.5971 237.05465,835.15453 225.54353,826.01064 198.56392,799.77538 188.04807,787.5 139.85598,731.24438 109.86077,669.25148 95.553787,596.33653 86.246426,548.90195 85.693677,489.98312 94.101182,441.5 110.8607,344.85378 166.68969,250.68764 243.32404,189.80747 270.97754,167.83886 294.87801,152.53471 323.5,138.46853 447.65558,77.452654 579.09962,76.935443 698.98217,136.99107 742.37425,158.7285 779.29543,185.04696 813.57314,218.67474 872.90231,276.879 913.49042,353.03379 929.93363,437 c 8.66189,44.23136 9.26551,102.6214 1.52645,147.65847 C 915.79837,675.80099 876.60585,751.58823 813.37581,813 782.14773,843.33008 743.77613,870.1369 704.5,889.06184 633.98222,923.04037 556.23831,938.29988 481.16101,932.89863 Z M 520.8811,864.3494 c 6.25744,-2.02092 12.2292,-6.97986 15.87595,-13.18336 L 539.5,846.5 l 0.5,-26.44716 0.5,-26.44715 8.74489,-1.26102 c 29.92551,-4.31526 62.26075,-17.06398 86.99335,-34.29862 12.15671,-8.47126 33.47124,-29.8763 41.0587,-41.23306 11.20667,-16.7739 19.71155,-36.63785 24.36553,-56.90802 2.66576,-11.61057 2.39022,-42.13056 -0.50231,-55.63864 C 695.2131,576.49367 682.79834,553.71662 662.54977,533.42881 636.59878,507.42753 615.16438,496.8409 556.5,481.04997 c -6.6,-1.77655 -13.0125,-3.62991 -14.25,-4.11859 L 540,476.04288 V 394.93354 313.8242 l 4.25,0.68396 c 13.65808,2.198 27.96073,9.35733 39.10146,19.57263 9.07233,8.31872 15.06061,17.06458 23.49758,34.31811 5.88702,12.0389 7.96562,15.25576 13.31273,20.60287 8.4564,8.4564 16.33732,12.1842 27.07233,12.80564 14.31249,0.82854 26.33048,-4.45027 35.409,-15.55313 7.58273,-9.27352 10.99071,-24.22849 8.52219,-37.39715 -3.6953,-19.71307 -21.21695,-46.43761 -42.90871,-65.44562 C 639.49531,275.7342 624.34382,265.08134 614,259.32606 c -15.88287,-8.8372 -38.08418,-16.67889 -60,-21.19249 l -13.5,-2.78036 v -26.4266 c 0,-24.94115 -0.12098,-26.68835 -2.15234,-31.08294 C 533.91762,168.25977 522.77704,161 512.5,161 c -6.63273,0 -14.44338,3.34614 -19.23507,8.24044 -7.47892,7.63908 -7.70464,8.74103 -8.07703,39.43117 l -0.3297,27.17161 -7.1791,1.15692 c -18.97879,3.05848 -45.38201,11.90393 -61.52447,20.61157 -45.83558,24.72483 -77.10985,64.48817 -86.82152,110.38829 -2.49105,11.77338 -2.48751,39.87853 0.007,52.374 5.02749,25.18777 14.89231,46.32065 30.17644,64.64536 15.26716,18.30435 34.61354,32.82039 56.98386,42.75631 10.43524,4.63488 44.66833,16.30544 59.74497,20.36794 l 8.74498,2.35639 0.005,82.79531 0.005,82.79532 -3.75,-0.65579 c -17.42554,-3.04733 -35.9208,-13.44534 -47.42832,-26.66415 -7.79691,-8.95638 -10.56102,-13.34225 -19.28066,-30.59307 -11.81338,-23.37143 -21.41974,-32.23079 -38.3655,-35.38217 -15.71886,-2.92323 -33.08704,4.94065 -42.03214,19.0311 -19.53804,30.7766 8.17174,85.53312 60.45342,119.4603 24.03361,15.59614 52.44798,26.25248 82.09384,30.78794 l 8.19064,1.25307 0.30936,26.08607 0.309,26.08607 3.10548,5.47512 c 3.78045,6.66513 8.58201,10.70678 15.59948,13.13065 6.61631,2.28531 10.19267,2.33756 16.67614,0.24363 z M 540.52551,716.19218 C 540.23648,715.90315 540,681.76667 540,640.33333 V 565 h 2.44838 c 3.59984,0 18.14453,4.78138 25.05162,8.2354 20.28237,10.14258 37.02713,29.48225 41.91365,48.40894 2.0467,7.9274 2.0458,23.4408 -0.002,32.4438 -6.15417,27.05783 -24.90678,48.29199 -51.4732,58.2847 -6.91193,2.59986 -16.52419,4.70819 -17.41305,3.81934 z M 474,459.14538 c -30.90951,-10.10255 -51.4901,-32.71789 -55.23327,-60.69403 -2.12021,-15.84626 2.28049,-35.04807 11.10415,-48.45135 5.52299,-8.38951 14.99229,-18.43374 21.78384,-23.10645 6.16879,-4.24424 17.72177,-9.39584 24.34528,-10.85584 3.025,-0.66679 6.2875,-1.42837 7.25,-1.69241 1.65524,-0.45408 1.75,3.53073 1.75,73.58731 0,58.60764 -0.26091,74.05941 -1.25,74.02916 -0.6875,-0.021 -5.075,-1.2884 -9.75,-2.81639 z"
       id="path1" />
  </g>
</svg>
