<?xml version="1.0" encoding="UTF-8" standalone="no"?>
<!-- Created with Inkscape (http://www.inkscape.org/) -->

<svg
   version="1.1"
   id="svg1"
   width="613.50739"
   height="609.33246"
   fill="currentColor"
   stroke="currentColor"
   viewBox="0 0 613.50739 609.33246"
   xmlns="http://www.w3.org/2000/svg"
   xmlns:svg="http://www.w3.org/2000/svg">
  <defs
     id="defs1" />
  <g
     id="g1"
     transform="translate(-216.99259,-189.22074)">
    <path
       d="M 498,798.02966 C 458.18343,795.20256 411.90707,781.22778 376,761.18746 350.05794,746.70878 331.11017,732.16714 307.40033,708.54001 275.4084,676.6597 255.56572,647.55253 239.15269,608.42779 230.15485,586.97908 221.38854,554.8231 219.54385,536.5 c -0.33223,-3.3 -1.0289,-10.275 -1.54815,-15.5 -2.50103,-25.16666 -0.19712,-62.86365 5.48405,-89.73111 9.61035,-45.44934 29.13595,-85.72576 60.89843,-125.61823 10.52057,-13.21344 36.64358,-39.54201 48.62182,-49.00442 33.62911,-26.56588 73.88563,-46.38657 118,-58.09843 46.77935,-12.41939 97.46591,-12.43638 146.5,-0.0491 21.91142,5.53539 39.07192,11.78765 59,21.49606 21.14488,10.3012 34.04786,18.21294 52.63488,32.27422 58.1047,43.95681 100.69694,109.55532 115.72305,178.23102 4.89772,22.38465 5.64207,31.026 5.64207,65.5 0,34.41142 -0.723,41.81971 -6.61085,67.73905 -12.42194,54.68351 -41.82529,106.26964 -85.3703,149.77625 -21.17419,21.15552 -54.22508,44.10445 -81.01885,56.25555 -30.23068,13.70975 -59.41429,21.99912 -94.5,26.84195 -12.67631,1.74969 -49.12326,2.54415 -65,1.41686 z m 15,-87.43749 v -63.28353 l -12.50885,-0.63397 c -6.87986,-0.34869 -14.50486,-0.3604 -16.94444,-0.026 -7.89994,1.08281 -7.76457,0.16661 1.41065,-9.54786 L 493.55296,628 H 503.27648 513 v -59 -59 h -56.53958 -56.53959 l -6.71041,-6.2644 C 389.51969,500.29018 384.925,496.24517 383,494.74669 l -3.5,-2.72451 66.75,-0.0111 L 513,492 V 447.5 403 h -44 c -24.2,0 -44,-0.36832 -44,-0.8185 0,-1.64927 18.4622,-17.68395 20.44924,-17.76046 1.12792,-0.0434 16.78826,-0.15592 34.80076,-0.25 L 513,384 v -30.92742 -30.92742 l 2.63486,-2.07258 c 3.16644,-2.49072 7.0821,-2.65956 10.24827,-0.44189 4.69809,3.29067 5.11687,6.26462 5.11687,36.33719 V 384 l 12.75,0.0153 c 7.0125,0.008 13.39606,0.42413 14.1857,0.92379 1.62194,1.02632 2.05237,0.30599 -6.45985,10.8109 l -5.87474,7.25 H 538.30056 531 v 44.55226 44.55226 l 5.25,-0.30226 c 2.8875,-0.16624 5.2703,-0.75226 5.29511,-1.30226 0.35326,-7.83101 7.199,-22.45375 14.81115,-31.63715 9.84031,-11.87147 23.13926,-21.16872 38.70122,-27.05588 7.57109,-2.86417 9.57794,-3.19968 19.44252,-3.2504 12.95357,-0.0666 15.69924,1.01847 26.83174,10.60386 11.66785,10.04635 12.2581,10.23344 34.16826,10.83015 18.74459,0.51049 19.07199,0.55727 24.35541,3.47973 8.30543,4.59406 12.14156,9.90968 23.7154,32.86179 14.77472,29.29978 17.93759,33.45951 33.39447,43.9196 7.36322,4.98289 10.04363,12.96281 6.59451,19.63268 -0.79212,1.53179 -7.97737,8.48422 -15.96723,15.44984 -21.14524,18.4346 -24.68483,23.73763 -29.06637,43.54735 -4.08673,18.47688 -4.28653,18.76075 -35.89868,51.00517 -20.89501,21.31293 -25.15049,24.11394 -36.62751,24.10873 -7.56058,-0.003 -11.57045,-1.94634 -14.79932,-7.17076 -3.89116,-6.29604 -4.68616,-11.58072 -3.30292,-21.95597 3.40369,-25.53008 4.03683,-32.2981 4.06823,-43.48775 0.0815,-29.02514 -7.55437,-50.35817 -20.8105,-58.14061 -4.91853,-2.88758 -9.50414,-3.30039 -22.27656,-2.00541 -6.17176,0.62574 -16.23114,-0.98505 -22.21832,-3.5578 -9.83825,-4.22758 -19.94614,-17.64025 -24.06056,-31.92717 L 540.94413,510 H 535.97207 531 v 58.98839 58.9884 l 39.09126,0.2616 39.09126,0.26161 -7.77478,8.75 -7.77477,8.75 h -20.66092 c -11.36351,0 -25.45593,0.29338 -31.31649,0.65197 L 531,647.30393 v 63.48943 63.48942 l 10.25,-0.66297 c 5.6375,-0.36463 15.53356,-1.51798 21.99125,-2.56299 19.00935,-3.07618 27.71049,-9.05576 58.78706,-40.39953 l 21.47169,-21.6563 10.83333,-5e-4 c 6.74098,-3e-4 10.70742,0.37528 10.5,0.99425 -0.59368,1.77169 -35.0843,37.14121 -41.10103,42.14838 -3.20987,2.67129 -5.35976,4.85688 -4.77754,4.85688 2.0204,0 19.59862,-7.29972 29.54524,-12.26927 45.94391,-22.95457 81.69235,-55.0681 113.33656,-101.81245 C 765.77645,637.09833 769,632.03583 769,631.66828 769,631.30072 760.41107,631 749.91349,631 h -19.08651 l 3.11898,-4.25 c 1.71544,-2.3375 5.15531,-6.6125 7.64414,-9.5 l 4.52516,-5.25 h 16.83341 16.83341 l 5.00853,-12.25 c 11.74972,-28.7378 17.15381,-51.07051 19.72142,-81.5 L 805.20816,510 H 795.153 c -9.60525,0 -10.36408,0.16137 -16.95956,3.60655 -8.91538,4.65699 -14.58419,5.35089 -20.46334,2.50484 -5.37688,-2.6029 -8.72557,-7.12479 -16.00434,-21.61139 -3.03982,-6.05 -8.73152,-16.85 -12.64822,-24 C 721.77888,457.17617 718,447.29348 718,441.52952 c 0,-4.08909 -3.05456,-8.0626 -7.26564,-9.45148 -1.7789,-0.5867 -8.00585,-1.69312 -13.83767,-2.4587 -5.83183,-0.76558 -11.68183,-1.95912 -13,-2.6523 -3.70983,-1.95088 -8.84523,-6.61741 -15.24594,-13.85396 -15.01193,-16.97228 -19.13807,-20.29126 -23.25972,-18.70964 -1.34808,0.51731 -1.04377,1.3163 1.85015,4.85785 3.53552,4.32672 6.75882,9.86466 6.75882,11.61232 0,2.29592 -5.19293,6.94 -8.44168,7.54947 -5.31605,0.9973 -9.36242,-1.34268 -16.89822,-9.77209 C 622.30847,401.54616 621.53639,401 617.84436,401 c -5.40102,0 -7.07667,1.02898 -16.43575,10.09278 C 592.77097,419.45791 590.07212,421 584.06976,421 c -7.04707,0 -12.68089,-6.88573 -11.82762,-14.45588 0.79787,-7.07874 3.26208,-10.83131 9.52706,-14.50815 3.15194,-1.84983 6.7433,-3.97505 7.9808,-4.7227 2.95244,-1.78376 2.88351,-5.17277 -0.22568,-11.09651 -4.66952,-8.89651 -10.25637,-13.20676 -17.12644,-13.21302 -2.6074,-0.002 -5.34022,-0.83548 -7.5,-2.28638 -2.78032,-1.86778 -3.45184,-3.00962 -3.69475,-6.28257 -0.51444,-6.93126 5.18383,-13.2928 13.96025,-15.5852 7.53888,-1.96914 11.64602,-0.15305 21.84681,9.66021 12.44154,11.9689 18.26646,12.9838 37.99381,6.61985 17.70246,-5.71074 24.13936,-11.97505 24.828,-24.16232 0.32968,-5.83442 0.0948,-7.04048 -1.72519,-8.86052 C 656.94807,320.94807 655.14662,320 654.10359,320 c -2.37083,0 -6.80177,4.9812 -11.07552,12.45093 -5.14878,8.99914 -11.18005,11.58301 -17.72374,7.59307 -7.23376,-4.4107 -9.18331,-11.77233 -5.73274,-21.64725 3.10454,-8.88466 7.76174,-16.47674 14.70594,-23.97334 4.71848,-5.09383 6.65165,-6.44684 10.54616,-7.38111 5.75918,-1.38161 9.16534,-0.69995 22.17631,4.43802 9.00178,3.55476 9.95277,3.72614 18.13344,3.26779 6.9965,-0.39201 9.98278,-1.10567 15.75,-3.76395 3.91411,-1.80413 7.11656,-3.62192 7.11656,-4.03953 0,-1.15761 -9.0938,-9.08299 -18.47095,-16.09771 C 670.27603,256.44442 645.64857,242.76196 626,235.55162 l -9.5,-3.48617 5.5,4.58784 c 6.57641,5.48572 42,41.35292 42,42.52596 C 664,279.63066 658.96587,280 652.81305,280 H 641.62611 L 624.06305,262.71015 C 614.40337,253.20074 603.35,242.72076 599.5,239.42132 587.61383,229.2349 575.31446,221.8594 566.5,219.63237 558.90065,217.71235 540.52796,215 535.12166,215 H 531 v 10.86071 10.86071 l 5.0642,0.59978 c 13.17431,1.5603 21.65265,12.52284 16.14453,20.87498 -1.60265,2.43015 -9.42493,9.48054 -26.70873,24.07318 -3.3,2.78618 -8.925,6.42045 -12.5,8.07617 -8.21873,3.8064 -18.13449,10.50808 -29,19.59997 -9.66786,8.08975 -14.23672,10.02752 -18.99537,8.05642 -4.0089,-1.66054 -6.37352,-6.215 -5.72747,-11.03163 0.27326,-2.03732 2.3768,-7.87934 4.67452,-12.98227 7.06044,-15.68025 5.72642,-21.58936 -6.67527,-29.56855 -5.4561,-3.51044 -7.00552,-6.37834 -5.87642,-10.87701 1.34886,-5.3743 7.18581,-9.32064 17.05845,-11.53315 C 477.48628,239.98613 500.19616,237 506.55485,237 H 513 v -11.12921 -11.12921 l -6.83549,0.67355 c -10.68769,1.05314 -24.61817,4.18756 -30.39578,6.83918 -6.9939,3.20984 -23.28459,15.5861 -35.44316,26.92665 -18.82545,17.55889 -21.42181,20.0559 -21.12463,20.31635 0.16448,0.14415 2.59741,1.4163 5.4065,2.827 11.88724,5.96965 15.8258,12.30223 15.21119,24.45719 -0.45852,9.06789 -2.77288,14.60964 -7.23859,17.33282 -4.36041,2.65897 -9.82458,2.44035 -13.27428,-0.53111 -2.60536,-2.24417 -2.80576,-2.94705 -2.80576,-9.84061 0,-14.50041 -3.1272,-14.51887 -32.08435,-0.18936 -18.5265,9.16788 -21.91851,11.2122 -25.83923,15.57298 -2.73779,3.04509 -4.7732,6.40581 -5.17419,8.54322 -1.56349,8.33413 4.77249,17.14507 12.99559,18.07193 6.65224,0.74981 9.6476,-0.96065 18.22245,-10.40568 12.94137,-14.25467 18.40058,-15.38918 32.14245,-6.67972 10.18615,6.45588 19.20295,18.342 19.22596,25.34403 0.0132,4.01236 -3.21053,9.18394 -6.95321,11.15454 -2.90201,1.52797 -4.82491,1.71958 -11.84307,1.18012 l -8.37853,-0.64402 -7.59473,7.90468 c -4.17709,4.34757 -12.0555,11.10979 -17.50758,15.02715 -27.40007,19.68717 -44.94079,45.29223 -42.97499,62.73274 0.79256,7.03153 -2.99757,12.70068 -8.59753,12.8599 -5.13694,0.14605 -8.72792,-2.12606 -13.26695,-8.39438 -5.40046,-7.45792 -8.40393,-9.65776 -14.28681,-10.4641 -14.64755,-2.00767 -25.89969,13.54734 -19.69002,27.21957 2.44482,5.38293 6.34179,7.10515 12.54365,5.5435 5.93852,-1.49534 9.09719,-1.41095 12.4699,0.33314 4.4096,2.2803 5.56147,6.25496 4.08319,14.08955 -1.58063,8.37702 -0.95361,13.73195 2.45044,20.92752 3.34988,7.08107 2.87407,10.08207 -1.91585,12.08342 -5.6335,2.35383 -8.94039,0.9482 -18.12719,-7.7052 L 288.06752,510 H 265.4841 242.90069 l 0.6286,6.25 c 3.44796,34.28224 10.57076,62.31275 21.98043,86.5 l 4.36343,9.25 h 16.68285 16.68286 l 9.13057,8.65868 c 5.02181,4.76228 9.28057,9.03728 9.4639,9.5 C 322.01667,630.62141 312.67917,631 301.08333,631 289.4875,631 280,631.2685 280,631.59667 c 0,1.06537 11.06251,17.60186 17.29911,25.85909 13.85243,18.34056 34.02282,39.48303 50.37559,52.80335 11.5501,9.40825 33.85208,23.76061 48.86725,31.44833 13.02724,6.66991 36.38066,16.70328 37.1312,15.95275 0.18006,-0.18007 -2.17147,-2.04842 -5.22563,-4.1519 -18.09158,-12.46014 -34.90313,-39.62805 -47.89411,-77.39814 -10.70964,-31.13729 -14.88606,-38.16708 -35.164,-59.18842 -21.29867,-22.0795 -27.90721,-34.34484 -27.74729,-51.49853 0.09,-9.652 1.6182,-16.68042 5.51491,-25.36363 10.5985,-23.61712 25.81282,-27.81774 52.49742,-14.49436 5.19368,2.59316 12.76523,7.5662 17.5,11.49411 4.59005,3.80786 11.29628,9.38286 14.90272,12.38887 9.24519,7.70599 16.19881,11.64635 25.97194,14.71735 4.65899,1.46399 12.23142,3.83218 16.82761,5.26264 10.62136,3.30565 16.37422,7.38751 19.63554,13.93212 6.19978,12.44136 1.88868,27.16512 -21.26885,72.6397 -7.14211,14.025 -14.21348,29.325 -15.71415,34 -3.19841,9.96392 -4.3459,23.87163 -2.62981,31.8735 3.30973,15.43273 16.88811,30.72609 38.47323,43.33248 7.49492,4.37727 14.99589,6.18124 31.59542,7.59866 4.70355,0.40163 9.3394,0.80693 10.3019,0.90065 1.65003,0.16068 1.75,-3.44484 1.75,-63.11312 z M 260.05504,484.78167 c -3.46683,-7.64593 -8.24597,-23.39654 -10.0448,-33.10467 -0.69534,-3.75264 -1.61629,-6.45264 -2.04656,-6 -0.96149,1.01149 -3.66858,23.50316 -4.33748,36.0376 l -0.49174,9.2146 9.68277,0.2854 c 5.32552,0.15697 9.79925,0.24392 9.94161,0.19322 0.14237,-0.0507 -1.07434,-3.03247 -2.7038,-6.62615 z m 545.05268,6.77728 c 0.46601,-0.46602 -0.94941,-23.73397 -1.47579,-24.26036 -0.169,-0.16899 -1.77212,0.4235 -3.56249,1.31666 -4.95082,2.46979 -10.62168,1.38133 -18.09155,-3.47249 C 773.42375,459.58439 769,459.81932 769,465.83197 c 0,5.55236 4.98388,10.60711 15.88326,16.1091 4.84262,2.44455 6.58785,3.94221 7.70245,6.60982 1.3869,3.31933 1.64131,3.44911 6.76104,3.44911 2.92596,0 5.51839,-0.19847 5.76097,-0.44105 z m -83.93475,-82.65152 c 2.54392,-1.36146 2.28401,-3.09652 -0.92297,-6.16139 -6.60145,-6.30892 -16.97435,-8.43082 -23.06408,-4.71803 -6.35803,3.87637 -2.4436,10.22053 7.37793,11.95751 5.47606,0.96846 13.79394,0.42855 16.60912,-1.07809 z M 365.68004,280.43106 c 4.17765,-0.86292 9.89618,-2.47373 12.70784,-3.57958 C 384.95881,274.26707 397.96164,265.48746 405,258.88278 418.15403,246.53925 432.78096,232 432.04491,232 c -1.68824,0 -28.77141,11.34401 -37.44364,15.68358 -5.0057,2.50484 -12.88079,7.00934 -17.5002,10.00999 C 365.69145,265.10496 346,279.89799 346,281.05797 c 0,1.46778 11.27836,1.10851 19.68004,-0.62691 z"
       id="path1" />
  </g>
</svg>
