<?xml version="1.0" encoding="UTF-8" standalone="no"?>
<!-- Created with Inkscape (http://www.inkscape.org/) -->

<svg
   version="1.1"
   id="svg1"
   width="677.25635"
   height="687.08813"
   fill="currentColor"
   stroke="currentColor"
   viewBox="0 0 677.25635 687.08813"
   xmlns="http://www.w3.org/2000/svg"
   xmlns:svg="http://www.w3.org/2000/svg">
  <defs
     id="defs1" />
  <g
     id="g1"
     transform="translate(-174.16747,-175.70599)">
    <path
       d="M 492,861.92775 C 450.68984,859.36577 405.89845,847.34064 368.5,828.77174 325.83366,807.58725 295.52017,785.23367 264.58718,752.145 229.9283,715.07078 203.48344,668.38331 189.54379,619.65851 174.82812,568.22124 170.77495,521.32457 176.95487,474 186.88355,397.96812 216.8792,336.94224 272,280.63152 c 20.07408,-20.50743 32.13463,-30.58734 54,-45.13187 41.81641,-27.81568 75.28809,-42.1012 125,-53.34928 27.78418,-6.2866 65.753,-8.1666 96.62718,-4.78444 35.23567,3.85995 75.61706,15.80022 107.87282,31.89663 62.26437,31.07143 109.42258,73.1127 145.4131,129.6349 7.2604,11.40229 21.06891,38.38678 25.89434,50.60254 10.77042,27.26575 18.55893,56.92162 22.84876,87 2.10116,14.73238 2.39896,57.43371 0.51609,74 -7.06327,62.14542 -25.49499,115.47055 -55.40387,160.28987 -20.98109,31.44077 -54.90395,66.30127 -85.76842,88.1391 -53.33862,37.73919 -113.79129,59.14469 -178.07569,63.05427 -17.95563,1.09201 -20.47968,1.08841 -38.92431,-0.0555 z m 52.5,-62.43951 c 63.49531,-8.83637 120.82836,-38.06304 166,-84.62185 14.72532,-15.17752 22.38551,-24.6508 33.04501,-40.86639 24.77256,-37.68488 39.21475,-80.54279 43.94559,-130.41061 4.01785,-42.35227 -1.16709,-82.07297 -16.106,-123.38458 C 748.65217,357.34125 695.01676,298.60561 631.04893,266.52454 586.473,244.16887 536.46884,233.80645 493,237.91651 c -61.6743,5.83141 -123.77202,34.52036 -167.8735,77.55703 -44.71604,43.6364 -69.4682,87.31573 -81.50711,143.83293 -5.32356,24.99171 -6.09194,32.60226 -6.07728,60.19353 0.0145,27.33361 1.07745,37.48945 6.59373,63 23.37801,108.11389 113.45918,194.30907 224.78252,215.08566 23.8386,4.44907 52.16047,5.162 75.58164,1.90258 z m -43.15331,-26.583 C 474.55983,768.42999 453.55187,743.63248 453.56128,716.5 c 0.006,-16.72692 5.27624,-30.08041 16.35342,-41.43397 19.33423,-19.81664 49.43577,-23.72157 73.70487,-9.56138 6.26335,3.65444 16.22134,13.61243 19.87578,19.87578 7.60327,13.03121 10.3737,30.09661 7.12334,43.8785 -7.13428,30.25007 -36.96279,49.04416 -69.272,43.64631 z M 459.50616,614.25 c -0.94101,-6.4625 -3.88202,-25.7 -6.53558,-42.75 -2.65355,-17.05 -5.7896,-37.975 -6.96898,-46.5 -1.17939,-8.525 -4.82607,-33.275 -8.10374,-55 -9.22705,-61.15875 -14.67129,-98.82975 -15.39481,-106.52326 -2.43435,-25.88542 10.50923,-55.70847 32.02315,-73.78393 7.78686,-6.54232 23.21958,-14.63377 33.9738,-17.81263 10.14322,-2.99825 30.38216,-3.69307 41.56569,-1.427 39.76672,8.05777 70.48762,42.37478 72.55385,81.04682 0.44078,8.24967 -0.0993,14.28832 -3.08562,34.5 -1.99096,13.475 -6.75933,46.325 -10.5964,73 -3.83706,26.675 -8.30024,57.275 -9.91818,68 -2.3628,15.66256 -7.04029,48.06609 -13.74946,95.25 l -0.53322,3.75 h -51.75979 -51.75979 z"
       id="path1" />
  </g>
</svg>
