<?xml version="1.0" encoding="UTF-8" standalone="no"?>
<!-- Created with Inkscape (http://www.inkscape.org/) -->

<svg
   version="1.1"
   id="svg1"
   fill="currentColor"
   stroke="currentColor"
   width="1024"
   height="1024"
   viewBox="0 0 1024 1024"
   xmlns="http://www.w3.org/2000/svg"
   xmlns:svg="http://www.w3.org/2000/svg">
  <defs
     id="defs1" />
  <g
     id="g1">
    <path
       d="m 318.92142,823.69007 c -7.63244,-2.85057 -12.19526,-8.07688 -13.87026,-15.88713 -1.88938,-8.80987 0.31841,-330.53052 2.46449,-359.12732 0.40321,-5.37293 0.10245,-7.75053 -1.41412,-11.179 -4.28982,-9.69785 -17.16763,-10.16833 -21.64217,-0.79067 -1.47658,3.09458 -1.95062,7.70456 -2.5713,25.0055 -3.91037,108.9977 -4.04651,111.70251 -5.82788,115.78855 -2.43238,5.57931 -6.60153,10.22537 -11.34925,12.64747 -3.21744,1.64142 -5.41732,1.9818 -10.83111,1.6759 -8.73591,-0.49363 -14.00247,-3.92052 -18.19679,-11.84045 -2.89473,-5.46596 -2.90179,-5.52313 -2.2832,-18.48292 0.34128,-7.15 2.16871,-29.2 4.06096,-49 1.89224,-19.8 4.61329,-50.175 6.04678,-67.5 1.43348,-17.325 3.09306,-33.525 3.68795,-36 3.36913,-14.01703 13.83924,-26.34487 27.98188,-32.94673 4.57743,-2.13676 10.99275,-4.37288 14.25626,-4.96915 9.33155,-1.70494 130.88447,-1.40349 140.71004,0.34895 16.22496,2.89382 30.67495,13.30994 37.36634,26.93514 4.16548,8.48186 5.06407,13.15445 6.46777,33.63179 0.58438,8.525 1.98787,25.85 3.11887,38.5 l 2.05637,23 -6.90391,7.01127 c -7.8959,8.01868 -13.60856,18.40612 -15.39262,27.98873 -0.61438,3.3 -1.23904,6.48362 -1.38814,7.07471 -0.1803,0.71481 -2.93749,0.42252 -8.23335,-0.87282 l -7.96228,-1.94754 -0.70859,-21.12717 c -0.38972,-11.61995 -1.04645,-32.64521 -1.4594,-46.7228 -0.69604,-23.72828 -0.90784,-25.84969 -2.90323,-29.07829 -5.13295,-8.3053 -17.60292,-7.82204 -21.71404,0.84152 -1.68722,3.55555 -1.71642,6.32017 -0.54788,51.87708 l 1.23431,48.12139 -5.92433,5.92433 c -8.26667,8.26667 -10.68485,14.5663 -10.72185,27.93159 -0.0258,9.33854 0.19652,10.47748 3.26078,16.70095 2.26699,4.60425 5.14035,8.35477 9.25,12.07379 L 415,604.69157 v 100.47608 c 0,113.09747 0.4395,106.40721 -7.46908,113.69708 -8.15525,7.51725 -18.37765,8.05636 -27.29015,1.43923 -1.79258,-1.3309 -4.26758,-4.30625 -5.5,-6.61189 L 372.5,809.5 372,696.95554 C 371.53246,591.7181 371.38577,584.23677 369.74058,581.72635 364.5604,573.82181 353.73533,574.73252 348.65818,583.5 347.80785,584.96839 347.3671,615.1443 347,697.02747 l -0.5,111.52747 -2.55476,4.9636 c -4.51616,8.77439 -16.12757,13.49412 -25.02382,10.17153 z m 301.33023,-0.79455 c -4.70137,-2.32713 -8.86127,-6.74082 -10.86938,-11.53249 -1.03699,-2.47442 -1.33683,-16.94216 -1.41962,-68.5 L 607.8577,677.5 628.92885,677.20396 650,676.90791 l -0.022,65.79605 c -0.0205,61.47946 -0.14144,66.05902 -1.84302,69.80462 -4.80794,10.58341 -17.74812,15.40381 -27.88337,10.38694 z m 67.23977,0.29549 c -5.03932,-2.3597 -10.07265,-8.02136 -11.49009,-12.92443 -0.74911,-2.59124 -0.99722,-23.89344 -0.79511,-68.26658 l 0.29378,-64.5 20.77748,-0.27037 20.77747,-0.27037 -0.27747,66.27037 L 716.5,809.5 l -2.77658,4.72342 c -5.29211,9.00276 -17.35224,13.1256 -26.232,8.96759 z m -199.09566,-1.21088 c -2.25733,-1.1247 -4.61983,-3.1765 -5.25,-4.55957 C 482.37051,815.71908 482,805.70484 482,786.45295 V 758 h 12 12 v 27.59887 c 0,23.12701 -0.25701,28.14047 -1.58615,30.94144 -3.05009,6.42758 -9.58283,8.64613 -16.01809,5.43982 z m 41.76813,0.33049 c -6.55564,-3.23023 -6.63087,-3.61354 -6.97021,-35.51399 L 522.88736,758 H 535.44368 548 l -0.004,28.25 c -0.004,26.57095 -0.12369,28.44674 -2.02189,31.56018 -1.97267,3.23555 -7.13404,6.21251 -10.69225,6.16705 -0.98017,-0.0125 -3.28337,-0.7625 -5.11823,-1.66661 z M 459.41596,730.25 c 0.3029,-0.9625 2.58451,-11.2 5.07024,-22.75 2.48573,-11.55 6.56252,-30.225 9.05954,-41.5 2.49701,-11.275 5.18791,-23.425 5.97978,-27 1.51462,-6.838 1.8837,-13.77001 0.87334,-16.40297 -0.33062,-0.86159 -6.72659,-6.1859 -14.21325,-11.83178 -21.32911,-16.08484 -41.37179,-32.50161 -43.35865,-35.51467 -3.33918,-5.06384 -1.51715,-13.25788 3.70954,-16.68254 3.00671,-1.97007 9.61322,-2.46389 11.69673,-0.87429 0.69672,0.53156 10.71677,8.36929 22.26677,17.41718 31.75624,24.8768 34.24875,26.49887 44.38635,28.88576 7.00049,1.64826 20.0948,0.80557 26.66703,-1.71616 6.86897,-2.6356 13.45483,-7.25198 37.44662,-26.24834 22.79591,-18.04949 26.90219,-20.49422 31.97788,-19.03853 7.85535,2.25288 12.02851,10.50869 8.84442,17.497 -0.64773,1.42162 -5.93523,6.32594 -11.75,10.89849 -13.55319,10.65779 -43.91946,33.45868 -46.15059,34.65275 -2.72078,1.45612 -3.97134,6.42347 -2.95982,11.75666 0.49044,2.58579 4.4894,20.22644 8.88657,39.20144 4.39718,18.975 9.17771,39.9 10.62339,46.5 1.44568,6.6 2.81681,12.5625 3.04695,13.25 0.33146,0.99019 -11.33227,1.25 -56.11757,1.25 -53.38695,0 -56.50533,-0.0975 -55.98527,-1.75 z m 118.02901,-83.77851 c -2.90423,-6.567 -3.08132,-9.84773 -0.65967,-12.22149 0.98192,-0.9625 11.14884,-8.48277 22.59315,-16.71171 22.88656,-16.45639 29.32514,-22.60976 32.74206,-31.29163 3.39684,-8.63089 3.78153,-22.74542 0.83799,-30.74666 -4.56728,-12.41495 -17.71019,-21.5 -31.103,-21.5 -4.73353,0 -5.95356,-0.30209 -5.54282,-1.37244 0.28966,-0.75484 1.48782,-4.69234 2.66257,-8.75 1.17476,-4.05766 4.66781,-15.63601 7.76235,-25.72968 l 5.62642,-18.35211 13.19444,-6.26958 c 25.70185,-12.21269 52.34443,-32.46047 67.63855,-51.4038 12.72824,-15.76524 23.23675,-35.54573 24.48555,-46.08995 0.32781,-2.76784 1.09584,-5.02702 1.70673,-5.02039 1.81251,0.0197 9.63039,4.77496 16.95498,10.31304 12.11147,9.15742 18.91207,20.19735 22.23425,36.09456 0.81381,3.89419 4.81238,19.90535 8.88572,35.58035 4.07334,15.675 10.5762,41.18463 14.4508,56.68807 3.87461,15.50343 8.62879,34.31509 10.56485,41.80369 1.93606,7.48859 3.52011,15.79007 3.52011,18.44774 0,10.98794 -9.52855,21.37324 -19.72864,21.50253 l -4.57301,0.058 -3.77066,-11.5 c -2.07387,-6.325 -7.67946,-24.775 -12.45686,-41 -8.13069,-27.61343 -18.70028,-62.88832 -25.52308,-85.18064 -3.31256,-10.82318 -6.69943,-15.30695 -12.36518,-16.36985 -5.56274,-1.04357 -12.66534,4.04776 -14.20508,10.18259 -0.34679,1.38172 1.4513,9.03795 4.48275,19.08752 5.41754,17.95964 18.05331,60.34474 29.15011,97.78038 3.74976,12.65 9.83019,32.9 13.51208,45 10.88088,35.75853 10.09079,32.20585 8.01825,36.05432 -3.63512,6.75 0.77919,6.44568 -93.49684,6.44568 h -85.1539 z m -73.08026,-71.56055 c -5.07898,-1.472 -12.52988,-7.04162 -16.60305,-12.41094 -8.99717,-11.86021 -9.12852,-29.71314 -0.30654,-41.6674 12.65326,-17.14589 38.29779,-18.49498 52.99014,-2.78766 7.20789,7.70581 9.05392,12.5923 9.0498,23.95506 -0.003,8.37108 -0.33569,10.17763 -2.79934,15.20236 -3.50053,7.13951 -11.02088,14.0273 -18.2816,16.74389 -5.89471,2.20549 -18.08147,2.69434 -24.04941,0.96469 z m 64.26142,-60.53897 c -4.34533,-8.26917 -10.9925,-16.10205 -18.15467,-21.39305 l -5.24613,-3.87555 3.95109,-13.30168 C 551.34953,468.48576 555.5477,454.625 558.5057,445 c 2.95801,-9.625 6.52506,-22.21174 7.92679,-27.97053 2.99162,-12.2906 6.06877,-19.00627 12.10298,-26.4139 4.85464,-5.95958 14.37299,-13.52202 21.67915,-17.22433 l 4.74407,-2.404 0.56612,2.75638 c 2.31381,11.26568 6.2883,21.27739 13.00377,32.75638 5.81242,9.93537 9.13951,14.38295 16.69039,22.3113 2.9455,3.09275 4.68721,5.68145 4.16973,6.19743 C 638.06448,436.32912 621.80368,446 620.90778,446 c -0.42515,0 -1.05156,-0.87766 -1.39202,-1.95035 -0.9606,-3.02657 -7.0703,-6.29157 -11.65483,-6.22829 -5.07753,0.0701 -8.08734,2.02864 -10.30757,6.70744 -1.58877,3.34808 -9.2887,27.15049 -19.72381,60.9712 -2.20608,7.15 -4.36174,13.62708 -4.79036,14.39351 -0.54529,0.97504 -1.8705,-0.68303 -4.41306,-5.52154 z M 653.5327,411.27126 c -3.10974,-3.72419 -7.75537,-9.91264 -10.32364,-13.75209 C 638.2943,390.17178 632.04533,376.06324 632.01682,372.25 L 632,370 h 30.07946 30.07945 l -0.69942,3.25 c -2.52762,11.74515 -12.25414,26.31046 -26.11611,39.10845 l -6.15662,5.68407 z M 342.1906,340.97502 c -10.62405,-2.7832 -16.67516,-6.41605 -25.73748,-15.45176 C 303.15444,312.26363 297.69647,299.32488 297.67179,281 c -0.0117,-8.7022 0.43938,-11.86976 2.63463,-18.5 9.8976,-29.8934 39.13131,-47.55028 69.69358,-42.09424 25.16076,4.49175 45.26029,24.33948 50.43389,49.80208 1.93088,9.50313 1.94663,14.3322 0.0755,23.16381 -4.95108,23.36906 -23.65471,42.70084 -46.50941,48.07138 -8.92954,2.09832 -22.79173,1.89437 -31.8094,-0.46801 z m 304.01111,0.003 c -14.71412,-3.85486 -27.20675,-13.17118 -36.07896,-26.90571 -10.86662,-16.82195 -12.092,-40.77875 -3.05442,-59.71531 3.53655,-7.41016 10.6605,-16.60777 16.97502,-21.91615 14.10999,-11.86175 38.78775,-16.18966 57.53506,-10.09033 17.00194,5.53148 30.6608,17.82764 37.84275,34.06731 3.06536,6.93132 5.57884,18.59135 5.57884,25.88023 0,7.09105 -3.23884,19.61003 -7.16694,27.70212 -4.06714,8.37854 -16.77964,21.23648 -25.51911,25.81108 -13.4463,7.03834 -31.32279,9.04136 -46.11224,5.16676 z"
       id="path1" />
  </g>
</svg>
