<?xml version="1.0" encoding="UTF-8" standalone="no"?>
<!-- Created with Inkscape (http://www.inkscape.org/) -->

<svg
   version="1.1"
   id="svg1"
   fill="currentColor"
   stroke="currentColor"
   width="803.99255"
   height="723.69592"
   viewBox="0 0 803.99255 723.69592"
   xmlns="http://www.w3.org/2000/svg"
   xmlns:svg="http://www.w3.org/2000/svg">
  <defs
     id="defs1" />
  <g
     id="g1"
     transform="translate(-124.26522,-162.84474)">
    <path
       d="M 327.5,886.39301 C 257.42799,883.32784 208.15689,871.63765 177.01525,850.68861 152.75087,834.36591 133.23637,803.48825 126.59586,770.91036 120.73981,742.18093 126.0757,698.7662 140.84184,655 157.80113,604.73338 182.7679,562.21462 219.23227,521.5 235.24777,503.61774 253.77979,484.63972 257,482.82334 c 3.36938,-1.90053 19,-1.33387 19,0.68881 0,0.74792 -2.527,5.10115 -5.61557,9.67385 -7.22439,10.69591 -8.05853,15.29374 -3.58602,19.76625 3.56006,3.56007 9.31709,4.13289 12.81921,1.27551 2.02391,-1.6513 13.45114,-19.02605 18.40074,-27.97776 l 2.34992,-4.25 h 64.11453 64.11452 l 5.45134,6.93605 c 6.95788,8.85294 16.3202,25.59233 19.02951,34.0239 2.5609,7.9697 6.40164,12.04005 11.36087,12.04005 4.18892,0 9.15974,-3.89683 10.03102,-7.86371 1.17047,-5.32916 -6.57706,-23.34177 -15.97793,-37.14783 L 453.05261,482 h 10.30328 10.30328 l 6.17039,5.58388 c 18.55192,16.78852 47.89242,50.59208 63.28905,72.91612 29.89144,43.3405 52.45956,99.40455 60.45682,150.18776 2.24305,14.24352 2.94705,38.12325 1.46989,49.85879 -4.42043,35.11879 -21.32659,66.93601 -46.09768,86.75533 -10.15948,8.12859 -27.7673,17.27688 -43.44764,22.57358 -11.60264,3.91929 -36.20587,9.44134 -47.5,10.66109 -3.025,0.3267 -7.975,1.02951 -11,1.5618 -13.57635,2.38894 -43.81551,3.98652 -81.5,4.30576 -22,0.18636 -43.6,0.18137 -48,-0.0111 z m 56.45258,-69.91299 c 1.18822,-1.18513 1.66348,-4.69679 2.04742,-15.12813 l 0.5,-13.58474 7.5,-1.89696 c 12.72252,-3.21788 21.42097,-7.99329 29.42239,-16.15277 C 435.03396,757.87648 440,746.19214 440,730.71284 c 0,-24.40851 -11.96935,-41.99868 -36.15972,-53.14036 -4.03716,-1.85945 -13.44692,-4.9558 -20.9106,-6.88079 -7.46368,-1.92499 -16.78477,-4.45728 -20.71355,-5.62732 -16.06574,-4.78459 -24.29164,-16.72275 -19.73818,-28.64582 3.55827,-9.31719 10.64703,-14.59451 22.15745,-16.49541 12.58755,-2.07879 25.48637,1.74107 38.1367,11.29384 8.18572,6.18136 9.87798,7.02886 12.42244,6.22127 1.16545,-0.36989 6.54845,-5.18325 11.96223,-10.69635 10.81954,-11.01803 11.95262,-13.79053 7.79574,-19.07514 -5.60353,-7.12374 -27.15226,-18.47258 -42.20251,-22.22635 L 386,583.75685 v -11.65592 c 0,-17.17374 -1.49866,-18.49163 -20.39954,-17.93896 -11.08857,0.32424 -11.67333,0.45101 -14.33038,3.10674 -2.69297,2.69163 -2.784,3.14613 -3.27008,16.32704 l -0.5,13.55834 -7.14708,2.77774 c -15.46476,6.01043 -27.40129,16.4611 -33.74021,29.5402 -4.45226,9.18636 -6.00329,16.12143 -5.93298,26.52797 0.12237,18.11044 10.07029,35.49105 25.67287,44.85461 8.47419,5.08561 15.72587,7.69899 35.28546,12.71627 22.20296,5.69534 29.66384,9.1364 34.05478,15.70656 4.1729,6.24388 5.10444,12.34638 2.80414,18.36965 -4.03342,10.56135 -12.20725,15.43323 -27.08481,16.14345 -16.42642,0.78416 -31.05155,-4.56917 -45.1444,-16.52451 -7.58962,-6.43847 -10.71312,-8.22384 -13.23423,-7.56455 -1.01098,0.26438 -6.15711,4.87666 -11.43584,10.24953 -8.6921,8.84709 -9.5977,10.12316 -9.5977,13.52404 0,3.05651 0.69774,4.40011 3.75,7.22122 12.3979,11.45902 28.61035,20.7151 43.25,24.69249 l 8.5,2.30933 0.5,12.45226 c 0.53986,13.44485 1.86253,17.31735 6.26265,18.3357 3.73133,0.86356 22.03763,1.06389 25.18993,0.27566 1.62392,-0.40606 3.64892,-1.43282 4.5,-2.28169 z m 310.90284,68.41314 c -8.37472,-0.90035 -15.7536,-6.99706 -17.7777,-14.68863 -0.62411,-2.37163 -0.87065,-90.41697 -0.6852,-244.70453 0.2305,-191.77157 0.0328,-241.64798 -0.9679,-244.17222 -2.64848,-6.68079 -3.15665,-6.77301 -40.37789,-7.32778 -32.69934,-0.48737 -33.62571,-0.55634 -36.67344,-2.73031 C 594.73495,368.67445 592,363.48448 592,359.17547 c 0,-3.63522 1.71517,-5.95484 24.4258,-33.03395 22.37019,-26.67317 43.76594,-52.17063 55.61775,-66.28005 25.11822,-29.90289 45.10008,-53.88687 51.45645,-61.76255 17.36541,-21.51611 27.71107,-32.97685 30.713,-34.02333 8.7363,-3.04549 14.48886,-0.64851 22.8971,9.54075 37.0672,44.91872 107.10436,128.90717 128.73904,154.38366 9.57475,11.275 18.5788,22.25303 20.009,24.39562 4.48063,6.71246 2.51705,15.3427 -4.47617,19.67345 -2.87199,1.77855 -5.19991,1.93281 -29.5,1.95479 -14.51009,0.0131 -28.14034,0.43171 -30.28945,0.9302 -2.14911,0.4985 -5.07411,2.07296 -6.5,3.49881 l -2.59252,2.59245 -0.5,245.3913 -0.5,245.3913 -3.0444,4.33604 c -1.67443,2.38482 -4.88152,5.35169 -7.12688,6.59304 l -4.08247,2.25701 -68.37312,0.24299 c -37.60522,0.13365 -70.91319,-0.0301 -74.01771,-0.36384 z m 81.3788,-55.81113 c 2.80468,-2.50598 3.26578,-3.57714 3.26578,-7.58658 0,-3.87542 -0.4767,-5.07866 -2.80576,-7.08203 -2.73075,-2.34889 -3.31898,-2.41987 -22,-2.65447 -33.83498,-0.42491 -31.2983,-0.61016 -34.42185,2.51378 -2.29983,2.3001 -2.77239,3.63588 -2.77239,7.83658 0,4.3085 0.41853,5.42386 2.80576,7.47727 2.80371,2.41165 2.82407,2.41342 27.73423,2.41342 h 24.92846 z m 0.49484,-62.35476 c 2.21732,-2.21875 2.77094,-3.68365 2.77094,-7.33203 0,-3.88601 -0.48227,-4.99021 -3.26578,-7.47727 L 772.96845,749 h -24.51941 c -26.91515,0 -28.05745,0.2262 -30.46233,6.03208 -1.77645,4.28873 -0.47671,9.37782 3.18114,12.4557 l 3.09984,2.60835 24.84522,-0.29807 24.84521,-0.29806 z m -7.98518,-55.62021 c 6.20495,-0.88382 9.78504,-3.78244 10.7008,-8.66389 0.72611,-3.87049 -1.34505,-8.7843 -4.38929,-10.41353 C 773.88219,691.40177 763.32084,691 747.98882,691 h -25.14267 l -3.04774,3.04775 c -2.73193,2.73192 -2.99444,3.52072 -2.53329,7.61201 0.31487,2.79352 1.34261,5.39371 2.6491,6.70225 2.24811,2.25164 0.38666,2.09352 39.58578,3.36249 2.2,0.0712 6.35975,-0.20663 9.24388,-0.61744 z m 6.95709,-67.61016 c 2.64063,-1.84957 4.682,-7.6772 3.75906,-10.7312 -0.3766,-1.24614 -1.84335,-3.5032 -3.25947,-5.0157 L 773.62582,625 h -24.26586 c -16.68363,0 -25.08515,0.3733 -26.8879,1.19469 C 719.60606,627.50052 717,631.69404 717,635 c 0,2.80853 2.58196,7.65713 4.74998,8.91989 1.05806,0.61626 11.64589,1.03132 26.77751,1.0497 20.68664,0.0251 25.3997,-0.23029 27.17348,-1.47269 z m -0.75973,-78.96652 c 3.76782,-1.94841 5.38267,-6.61377 4.02915,-11.64034 C 777.1469,546.11813 776.62165,546 748.33326,546 c -24.82217,0 -25.26378,0.0362 -27.87587,2.283 -1.93681,1.66597 -2.79639,3.54495 -3.18044,6.95225 -0.47486,4.21297 -0.22846,4.96709 2.52146,7.717 L 722.84615,566 h 24.62659 c 19.70814,0 25.19417,-0.29351 27.4685,-1.46962 z M 774,501.72737 c 1.375,-0.68374 3.33792,-2.95507 4.36205,-5.0474 1.66823,-3.40828 1.71769,-4.1881 0.47519,-7.49211 -2.54174,-6.75886 -4.90326,-7.28065 -31.51661,-6.96382 -21.73401,0.25875 -23.35524,0.40665 -26,2.37179 -5.62055,4.17625 -5.30035,13.71545 0.56742,16.90453 3.53823,1.92299 48.30909,2.11802 52.11195,0.22701 z m 2.33935,-64.33945 c 4.78558,-4.78558 4.11991,-13.46621 -1.25317,-16.3418 -2.66194,-1.42463 -50.40318,-1.48202 -53.05319,-0.0638 -5.79106,3.09928 -6.64264,12.37617 -1.53906,16.76609 C 723.0599,439.95559 723.61071,440 748.4194,440 h 25.30787 z m -515.24569,22.30564 c -6.4519,-2.26071 -9.37382,-10.06453 -6.07574,-16.22704 C 258.07835,437.74805 252.96615,438 365.93456,438 h 104.03389 l 3.26577,2.91797 c 2.86345,2.55849 3.26578,3.53414 3.26578,7.91944 0,5.93081 -2.75871,9.58427 -8.42574,11.15853 -5.49918,1.52763 -202.57956,1.23971 -206.9806,-0.30238 z M 276.1761,409.75 c -8.02828,-14.68342 -45.46027,-88.3745 -46.79602,-92.12573 -5.30505,-14.89834 5.83599,-27.86527 21.27717,-24.76424 6.63141,1.33178 13.20411,4.65996 26.03306,13.1822 13.70956,9.10724 19.64007,11.36666 29.80969,11.35699 10.06876,-0.01 14.28739,-2.07325 27.28314,-13.34644 5.10573,-4.42897 11.63073,-9.28354 14.5,-10.78792 4.61101,-2.4176 6.32013,-2.73697 14.71686,-2.75005 8.4406,-0.0132 10.11334,0.29705 15,2.7817 3.025,1.53808 9.54781,6.15952 14.49513,10.26987 C 403.14872,312.41761 409.10766,315 418.87858,315 c 9.30739,0 14.00189,-1.62246 29.38327,-10.15512 16.59626,-9.2066 23.91059,-11.785 33.52799,-11.81906 11.90468,-0.0422 18.25843,4.55648 20.12891,14.56866 0.61785,3.30721 0.49697,6.02908 -0.40016,9.01002 -1.16866,3.88315 -19.5996,40.60683 -41.98014,83.6455 L 450.82828,417 h -85.34409 -85.3441 z"
       id="path1" />
  </g>
</svg>
