<?xml version="1.0" encoding="UTF-8" standalone="no"?>
<!-- Created with Inkscape (http://www.inkscape.org/) -->

<svg
   version="1.1"
   id="svg1"
   fill="currentColor"
   stroke="currentColor"
   width="657.03998"
   height="653.59991"
   viewBox="0 0 657.03998 653.59991"
   xmlns="http://www.w3.org/2000/svg"
   xmlns:svg="http://www.w3.org/2000/svg">
  <defs
     id="defs1" />
  <g
     id="g1"
     transform="translate(-183.97269,-184)">
    <path
       d="m 200.98671,837.10436 c -6.73505,-0.96067 -11.09314,-3.95853 -14.25037,-9.8026 l -2.76365,-5.11558 0.003,-310.84309 c 0.002,-182.39101 0.37668,-312.13367 0.90745,-313.96619 1.51973,-5.24694 4.05276,-8.166 9.39707,-10.82918 l 5.1126,-2.54772 312.05365,0.006 c 213.04718,0.004 313.24236,0.33569 315.80026,1.04606 2.06063,0.57227 5.32755,2.66834 7.25982,4.65793 C 841.53464,196.94631 841,170.49313 841,511 c 0,343.54625 0.6346,314.73307 -7.07732,321.33419 -2.21951,1.89982 -5.2476,3.81205 -6.72908,4.2494 -3.1982,0.94415 -619.64458,1.45681 -626.20689,0.52077 z M 768,510.5 V 258 H 512 256 V 510.5 763 H 512 768 Z M 306.41996,718.11432 c -1.69401,-1.03301 -3.83151,-3.46183 -4.75,-5.39739 -1.54252,-3.25064 -1.66984,-18.65536 -1.66841,-201.86806 10e-4,-186.84114 0.103,-198.55078 1.75,-201.82894 0.96165,-1.91403 3.2775,-4.50153 5.14633,-5.75 L 310.29577,301 h 201.45098 c 224.34713,0 205.84904,-0.60256 210.48749,6.85646 L 724.5,311.5 l 0.30036,195 c 0.1652,107.25 0.008,197.46 -0.34902,200.46668 -0.54084,4.55282 -1.28185,6.09912 -4.43272,9.25 L 716.23529,720 512.86765,719.996 C 315.65949,719.992 309.40671,719.9354 306.41996,718.11406 Z M 581.5,608.85314 c 11,-11.61767 20.11985,-21.42187 20.26634,-21.78712 0.14649,-0.36524 -19.27987,-20.44202 -43.16969,-44.61505 L 515.16062,498.5 l -21.21469,21.13732 -21.2147,21.13733 26.36695,26.86267 c 50.20287,51.14674 61.33144,62.36263 61.86542,62.35077 0.29502,-0.007 9.5364,-9.51728 20.5364,-21.13495 z M 691.96881,334.94171 C 690.94597,333.03054 688.11576,333 512,333 c -175.87903,0 -178.94728,0.033 -179.96482,1.93426 -0.69726,1.30284 -1.03109,41.04681 -1.02265,121.75 l 0.0125,119.81574 9.77383,-10 c 5.37561,-5.5 22.03075,-22.825 37.01141,-38.5 14.98067,-15.675 28.86871,-29.7375 30.86231,-31.25 2.92648,-2.22024 4.67466,-2.75 9.07494,-2.75 2.9976,0 6.94113,0.7075 8.76338,1.57221 1.82226,0.86472 8.03818,6.41749 13.81318,12.33948 l 10.49998,10.76728 26.19544,-26.86939 c 14.40749,-14.77816 27.50283,-27.54546 29.10077,-28.37179 4.41233,-2.2817 12.64816,-2.13608 17.3797,0.30731 2.2,1.13609 10.05385,8.29571 17.45299,15.91026 C 564.1166,503.49332 624.25111,564 624.77883,564 c 0.27695,0 3.9361,-3.53081 8.13145,-7.84624 5.08414,-5.22966 8.91801,-8.27202 11.49648,-9.12299 4.93637,-1.62915 12.81295,-0.73562 16.37858,1.858 1.49306,1.08605 9.23966,8.53622 17.21466,16.55594 l 14.5,14.5813 0.25399,-121.57129 c 0.1727,-82.66339 -0.0786,-122.19272 -0.78518,-123.51301 z m -86.27749,120.55751 c -16.89219,-4.64379 -29.9216,-18.72536 -33.58624,-36.29844 -4.4414,-21.29794 6.17583,-43.35701 25.13639,-52.22505 18.885,-8.83269 41.41831,-4.75147 55.04804,9.97026 8.29299,8.95742 12.71049,20.1233 12.71049,32.12762 0,22.89117 -13.32434,40.93289 -34.36839,46.53626 -6.3731,1.69696 -18.56166,1.64289 -24.94029,-0.11065 z"
       id="path1" />
  </g>
</svg>
