<?xml version="1.0" encoding="UTF-8" standalone="no"?>
<!-- Created with Inkscape (http://www.inkscape.org/) -->

<svg
   version="1.1"
   id="svg1"
   width="565.3645"
   height="549.5"
   fill="currentColor"
   stroke="currentColor"
   viewBox="0 0 565.3645 549.5"
   xmlns="http://www.w3.org/2000/svg"
   xmlns:svg="http://www.w3.org/2000/svg">
  <defs
     id="defs1" />
  <g
     id="g1"
     transform="translate(-230.09645,-230.5)">
    <path
       d="m 341.90894,778.10362 c -10.82053,-3.46197 -19.2827,-11.25137 -24.6318,-22.67349 L 314.5,749.5 314,647.5 313.5,545.5 326,532.96612 c 10.30406,-10.33199 89.91927,-88.84869 168.27794,-165.9561 9.22786,-9.08051 17.41714,-16.65104 18.19839,-16.82341 0.7866,-0.17354 24.53585,22.58936 53.22206,51.01166 28.49089,28.22877 73.07648,72.31804 99.0791,97.97617 l 47.27749,46.65114 -0.27749,101.33721 L 711.5,748.5 l -2.32263,5.75209 c -4.70565,11.65373 -13.90184,20.00447 -26.26833,23.85335 C 677.26095,779.86332 673.04085,780 624.41091,780 H 572 v -99.89424 -99.89425 l -2.8199,-3.01872 c -1.55095,-1.66029 -4.68386,-3.52062 -6.96203,-4.13407 -2.84561,-0.76624 -18.99923,-1.02824 -51.60775,-0.83704 -46.20743,0.27094 -47.54043,0.33322 -50.28797,2.3494 -1.55229,1.1391 -3.60915,3.6141 -4.5708,5.5 -1.62943,3.19552 -1.74855,10.11665 -1.75,101.67892 L 454,780 400.75,779.9462 c -48.31261,-0.0488 -53.76841,-0.21964 -58.84106,-1.8426 z m 198.69058,-299.61223 2.5086,-2.5086 -0.30406,-22.08146 C 542.50347,432.07171 542.47308,431.7981 540.13922,429.90994 537.95956,428.14654 535.90367,428 513.34376,428 h -24.43467 l -2.45454,2.45455 L 484,432.90909 v 22.04546 c 0,20.71212 0.12096,22.16641 2,24.04545 1.89353,1.89353 3.33333,2 27.04545,2 h 25.04546 z M 539.91334,697.7182 C 536.48629,695.08699 536,692.26251 536,674.98882 v -17.14267 l 2.92308,-2.92307 c 3.07748,-3.07748 5.31696,-3.54271 9.46392,-1.96604 4.76604,1.81204 5.613,5.36862 5.613,23.57022 v 16.62659 l -2.92308,2.92307 c -3.16318,3.16319 -8.21414,3.90578 -11.16358,1.64128 z M 254.5,540.60118 c -6.16883,-1.95095 -9.71519,-4.07359 -14.39716,-8.61729 -11.10295,-10.77504 -13.34227,-30.13826 -4.82114,-41.68801 1.22326,-1.65802 7.62279,-8.10764 14.2212,-14.33249 34.18441,-32.2491 98.01949,-94.5573 180.22228,-175.91152 45.42736,-44.95842 66.66638,-65.3107 69.9733,-67.05187 4.04798,-2.13136 6.07919,-2.5 13.77483,-2.5 12.78559,0 14.50028,1.17639 41.52669,28.49006 24.32304,24.58156 156.92507,154.70986 205.18754,201.35971 34.23867,33.09463 35.34345,34.58717 35.27068,47.65023 -0.10416,18.69634 -13.99157,32.64821 -33.64313,33.79929 -7.01856,0.41111 -8.26495,0.17871 -14.37453,-2.68031 -7.41316,-3.46904 2.33575,5.86225 -119.75061,-114.62071 C 546.20649,344.08497 521.22562,319.75425 518.63893,318.28544 517.46252,317.61742 514.7,317.07087 512.5,317.07087 c -2.2,0 -4.96825,0.54655 -6.15167,1.21457 -1.18342,0.66801 -31.55842,30.24902 -67.5,65.73559 -98.54048,97.29299 -150.43479,147.9646 -154.89156,151.24215 -8.52634,6.27034 -19.95828,8.34197 -29.45677,5.338 z M 696,360.71857 c -7.425,-7.29416 -26.47846,-25.96491 -42.34102,-41.49055 l -28.84102,-28.22843 0.34102,-10.41726 c 0.31681,-9.67769 0.55444,-10.72485 3.34721,-14.7498 1.96688,-2.83468 4.88108,-5.28327 8.42931,-7.08253 L 642.35863,256 H 667 691.64137 l 5.42245,2.75 c 6.04265,3.06454 11.25664,9.14197 12.89057,15.02526 1.19818,4.31427 1.48111,100.23034 0.29561,100.21509 -0.4125,-0.005 -6.825,-5.97761 -14.25,-13.27178 z"
       id="path1" />
  </g>
</svg>
