<?xml version="1.0" encoding="UTF-8" standalone="no"?>
<!-- Created with Inkscape (http://www.inkscape.org/) -->

<svg
   version="1.1"
   id="svg1"
   width="509.54855"
   height="696.67731"
   fill="currentColor"
   stroke="currentColor"
   viewBox="0 0 509.54855 696.67731"
   xmlns="http://www.w3.org/2000/svg"
   xmlns:svg="http://www.w3.org/2000/svg">
  <defs
     id="defs1" />
  <g
     id="g1"
     transform="translate(-271.5,-190.27939)">
    <path
       d="m 487.4532,885.67392 c -1.67573,-0.64566 -4.65067,-2.18446 -6.61097,-3.41956 -1.9603,-1.2351 -4.74628,-3.9514 -6.19107,-6.03623 -1.44478,-2.08483 -3.33288,-5.86259 -4.19577,-8.39503 -1.40426,-4.12129 -1.5101,-17.70567 -1.00865,-129.46376 C 469.75487,669.6867 470.2595,575.925 470.56814,530 c 0.30863,-45.925 0.27462,-85.44494 -0.0756,-87.82208 -0.3502,-2.37715 -1.50429,-5.18965 -2.56464,-6.25 C 466.86756,434.86756 464.96101,434 463.69113,434 c -1.26988,0 -3.18238,0.63857 -4.25,1.41905 -1.88693,1.37943 -1.95509,3.7041 -2.44113,83.25 -0.48784,79.84121 -0.54863,81.89746 -2.5,84.56642 -1.1,1.5045 -3.82958,3.642 -6.06572,4.75 -2.23615,1.10799 -5.51311,2.01453 -7.28212,2.01453 -1.76902,0 -4.67147,-0.60797 -6.4499,-1.35104 -1.77843,-0.74308 -4.66443,-2.98078 -6.41333,-4.97267 -1.74891,-1.99189 -3.65187,-5.32142 -4.2288,-7.39896 C 423.36112,593.7602 423.01509,560.3054 423.02294,496 c 0.01,-78.46753 0.27114,-97.72337 1.39968,-103.04681 0.76334,-3.60075 2.84405,-9.62876 4.62378,-13.39557 2.12335,-4.49408 5.63771,-9.37726 10.22174,-14.20305 4.80019,-5.05335 8.90155,-8.28769 13.10885,-10.33765 3.36766,-1.64085 8.90106,-3.68311 12.29646,-4.53835 5.30435,-1.33608 14.38479,-1.51442 64.5,-1.26678 L 587.5,349.5 l 6.30768,2.70338 c 3.46922,1.48686 9.22395,4.78439 12.78827,7.32784 3.56433,2.54345 8.25403,6.86802 10.42156,9.61015 2.16754,2.74214 5.25519,7.76961 6.86146,11.17216 1.60628,3.40256 3.44155,8.66147 4.07839,11.68647 0.84526,4.01495 1.07484,32.65705 0.85027,106.0781 L 628.5,598.6562 l -2.80793,3.68113 c -1.54436,2.02462 -4.56394,4.57698 -6.71016,5.6719 -2.14623,1.09492 -5.50961,1.99077 -7.47419,1.99077 -1.96458,0 -5.02,-0.617 -6.78984,-1.37112 -1.76983,-0.75412 -4.34288,-2.59017 -5.71788,-4.08011 l -2.5,-2.70899 -0.5,-82.00861 -0.5,-82.0086 -2.36078,-1.91129 C 591.84078,434.86008 589.90783,434 588.84376,434 c -1.06407,0 -3.08977,1.1551 -4.50155,2.56688 l -2.56689,2.56689 0.74136,98.18311 c 0.40775,54.00072 0.7958,149.93312 0.86234,213.18312 l 0.12098,115 -2.38935,5.28768 c -1.37573,3.04451 -4.26278,6.93673 -6.80547,9.17489 -2.42887,2.13798 -6.49632,4.59602 -9.03879,5.46233 -2.54247,0.8663 -6.23001,1.55535 -8.19453,1.53121 -1.96452,-0.0241 -5.26027,-0.64643 -7.32389,-1.38286 -2.06362,-0.73643 -5.28005,-2.50445 -7.14763,-3.92892 -1.86758,-1.42447 -4.37375,-4.61053 -5.56926,-7.08012 l -2.17365,-4.49018 -0.17872,-120.00886 c -0.17665,-118.62362 -0.20184,-120.03199 -2.18218,-122.01271 -1.10191,-1.10212 -3.44638,-2.29243 -5.20994,-2.64514 -2.6954,-0.53908 -3.691,-0.15675 -6.24653,2.39877 L 518,630.84615 v 118.88058 118.88058 l -2.54888,5.11494 c -1.40189,2.81322 -4.09472,6.294 -5.98407,7.73508 -1.88935,1.44108 -5.29893,3.27771 -7.57684,4.08141 -2.27791,0.80369 -5.77259,1.42702 -7.76594,1.38518 -1.99335,-0.0418 -4.99533,-0.60434 -6.67107,-1.25 z M 331.5,878.17588 c -2.2,-1.0393 -5.28274,-3.18564 -6.85053,-4.76965 -1.56779,-1.58401 -3.77464,-4.68592 -4.90411,-6.89312 l -2.05359,-4.01311 0.70907,-203.04528 0.70907,-203.04528 -2.12754,-2.70472 C 315.44442,451.74953 313.94799,451 311.58241,451 c -2.01827,0 -3.97632,0.77779 -5.10905,2.02944 -1.74521,1.92844 -1.84963,6.00952 -2.09791,81.99908 -0.24523,75.05295 -0.37239,80.15839 -2.06837,83.03963 -0.99389,1.6885 -3.15708,3.8811 -4.80708,4.87246 -1.65,0.99136 -4.25436,2.09809 -5.78747,2.45939 -1.5331,0.3613 -4.55014,0.18227 -6.70453,-0.39785 -2.15438,-0.58011 -5.30369,-2.22152 -6.99845,-3.64757 -1.69476,-1.42604 -3.85272,-4.00171 -4.79547,-5.7237 C 271.62878,612.73522 271.5,605.25007 271.5,516 v -96.5 l 2.40034,-7.32758 c 1.32019,-4.03016 4.05363,-9.88016 6.07432,-13 2.02068,-3.11983 6.24842,-8.02042 9.39498,-10.8902 3.14657,-2.86978 8.96312,-6.81311 12.92569,-8.76297 3.96257,-1.94985 10.35467,-4.20654 14.20467,-5.01485 5.4908,-1.15281 15.81084,-1.47342 47.86663,-1.48704 38.4648,-0.0163 40.8348,0.0855 40.32493,1.73264 -0.29793,0.9625 -1.81292,5.125 -3.36663,9.25 l -2.82493,7.5 -0.27791,99.87321 c -0.18054,64.88305 0.08,101.84453 0.74376,105.5 0.56191,3.09473 2.56899,8.77679 4.46018,12.62679 1.90388,3.87585 5.5887,9.14946 8.25624,11.81611 2.64975,2.64886 6.72943,6.02386 9.06594,7.5 l 4.24821,2.68389 -0.008,114.5 -0.008,114.5 -2.36777,5 c -1.30227,2.75 -3.88538,6.43969 -5.74023,8.19932 -1.85485,1.75962 -5.04551,3.89712 -7.09034,4.75 -2.04484,0.85287 -6.09484,1.5408 -9,1.52872 -2.92926,-0.0122 -7.06769,-0.83313 -9.2907,-1.84302 -2.20472,-1.00158 -5.49736,-3.51669 -7.31698,-5.58913 -1.81963,-2.07244 -3.79842,-4.95558 -4.39731,-6.40698 -0.7609,-1.84401 -1.11725,-36.17617 -1.18301,-113.97544 L 378.5,640.82695 375.69424,638.41347 C 374.15107,637.08606 371.64201,636 370.11855,636 c -1.6024,0 -3.6864,0.97554 -4.94424,2.31445 L 363,640.6289 362.9561,751.06445 c -0.0356,89.64116 -0.29602,111.14204 -1.38286,114.18758 -0.73643,2.06362 -2.49128,5.26279 -3.89966,7.10927 -1.40839,1.84649 -4.2736,4.18317 -6.36714,5.19264 -2.09355,1.00946 -6.50645,1.98753 -9.80645,2.17348 -4.3589,0.24562 -7.09406,-0.17875 -10,-1.55154 z m 311,0.16923 c -1.65,-0.86615 -4.74289,-3.21063 -6.8731,-5.20996 -2.1302,-1.99933 -4.71223,-5.48767 -5.73783,-7.75185 -1.78418,-3.93888 -1.86633,-9.07436 -1.90169,-118.89188 -0.0203,-63.12634 0.0867,-114.84254 0.23783,-114.92489 0.15113,-0.0823 2.07479,-1.31094 4.27479,-2.7302 2.2,-1.41927 5.94443,-4.55055 8.32096,-6.95841 2.37653,-2.40786 5.83584,-7.52792 7.68737,-11.37792 1.85152,-3.85 3.86507,-9.925 4.47454,-13.5 0.77491,-4.54537 1.01644,-36.72154 0.8032,-107 -0.2904,-95.71063 -0.39502,-100.73828 -2.19522,-105.5 -1.03965,-2.75 -2.72291,-6.19447 -3.74056,-7.65437 C 646.83263,375.38573 646,373.89408 646,373.53086 c 0,-0.36322 20.1375,-0.50105 44.75,-0.3063 42.97398,0.34006 45.00797,0.44144 51.25,2.55437 3.575,1.21014 8.75,3.51201 11.5,5.11526 2.75,1.60326 6.8864,4.54567 9.19201,6.5387 2.3056,1.99302 6.18377,6.64845 8.61816,10.34539 2.43438,3.69695 5.49798,9.42172 6.80799,12.72172 l 2.38184,6 0.27427,96.44024 0.27428,96.44025 -2.58602,5.28562 c -1.42231,2.9071 -3.8432,6.18082 -5.37975,7.27495 -1.53655,1.09412 -4.813,2.52938 -7.28098,3.18946 -4.03534,1.07929 -4.95249,0.97494 -9.10682,-1.03613 -2.64217,-1.27906 -5.4918,-3.6476 -6.65727,-5.53338 C 748.03217,615.31598 748,614.00895 748,535.76682 748,456.85594 747.9847,456.25029 745.92742,453.63486 744.4135,451.71022 742.9372,451 740.45047,451 c -2.42906,0 -3.8276,0.64593 -4.88168,2.25467 -1.2921,1.97199 -1.4588,27.76795 -1.32958,205.75 l 0.14773,203.49533 -2.10584,4 c -1.15821,2.2 -3.60778,5.43969 -5.44347,7.19932 -1.8357,1.75962 -5.01068,3.89712 -7.05551,4.75 -2.04484,0.85287 -5.92738,1.55068 -8.62788,1.55068 -2.70049,0 -6.42745,-0.63412 -8.28212,-1.40916 -1.85466,-0.77504 -4.666,-2.42705 -6.24741,-3.67114 -1.58141,-1.24408 -3.93952,-4.54746 -5.24023,-7.34084 l -2.36494,-5.07886 -0.01,-111.06144 c -0.01,-110.37973 -0.0223,-111.07487 -2.04873,-113.25 C 685.78474,636.92595 683.71619,636 682.07183,636 c -1.56764,0 -3.91261,0.86015 -5.21105,1.91144 L 674.5,639.82288 674,752.2403 l -0.5,112.41742 -3.03435,4.92114 c -2.08739,3.38536 -4.58401,5.77207 -8,7.64778 -3.86753,2.12366 -6.29251,2.72295 -10.96565,2.70996 -3.49243,-0.01 -7.25378,-0.67483 -9,-1.59149 z M 358,345.44497 c -3.575,-0.76782 -10.14354,-3.19467 -14.59674,-5.393 -6.29524,-3.10765 -9.65985,-5.6425 -15.12196,-11.39269 -4.73975,-4.98971 -8.34212,-10.02681 -11.07319,-15.48332 -2.22638,-4.44818 -4.59243,-10.69498 -5.25789,-13.88178 -0.75305,-3.60631 -1.00181,-9.75896 -0.65879,-16.29418 0.39541,-7.53326 1.23735,-12.38705 2.97985,-17.17871 1.33581,-3.67329 3.88076,-8.9415 5.65546,-11.70712 1.7747,-2.76563 6.0188,-7.64026 9.43133,-10.83252 3.41254,-3.19226 9.39647,-7.48138 13.29762,-9.53138 3.90116,-2.05 9.96206,-4.47269 13.46866,-5.38375 3.58656,-0.93184 10.09406,-1.64326 14.87565,-1.62627 4.675,0.0166 10.75,0.55416 13.5,1.19453 2.75,0.64038 8.375,2.80657 12.5,4.81377 5.49079,2.67178 9.521,5.67232 15.04402,11.20045 5.00822,5.01286 8.7821,9.93859 11.22734,14.65411 2.02583,3.90672 4.36187,9.98172 5.1912,13.5 0.82933,3.51829 1.51453,9.86224 1.52266,14.09767 0.008,4.23543 -0.47576,10.08543 -1.07531,13 -0.59955,2.91457 -2.90685,9.10352 -5.12732,13.75323 -3.22363,6.75031 -5.61599,10.01377 -11.87124,16.19381 -5.69414,5.62568 -9.82905,8.6994 -15.13784,11.25282 -4.01711,1.93216 -10.22202,4.20079 -13.78868,5.0414 -3.56665,0.84062 -9.18483,1.49927 -12.48483,1.46368 -3.3,-0.0356 -8.925,-0.69294 -12.5,-1.46075 z m 314.06869,0.46666 c -2.43723,-0.47809 -7.28203,-1.8179 -10.76623,-2.97737 -3.4842,-1.15946 -9.07395,-3.93718 -12.42166,-6.17269 -3.34771,-2.23552 -8.4886,-6.97645 -11.42419,-10.53541 -2.9356,-3.55896 -6.90092,-9.45328 -8.81184,-13.0985 -1.91092,-3.64521 -4.18773,-9.39262 -5.05959,-12.772 -0.87185,-3.37939 -1.57737,-9.45439 -1.56782,-13.5 0.01,-4.04562 0.66174,-10.39643 1.4493,-14.11293 0.78756,-3.7165 3.1352,-10.0165 5.21698,-14 2.44002,-4.66899 6.2781,-9.73577 10.80071,-14.25838 4.44389,-4.44389 9.58168,-8.35334 14.01565,-10.66481 3.85,-2.00705 9.925,-4.41048 13.5,-5.34097 3.575,-0.93049 10.325,-1.72782 15,-1.77184 4.675,-0.044 10.975,0.51174 14,1.23505 3.025,0.7233 8.875,2.93841 13,4.92245 5.50373,2.64719 9.51056,5.6074 15.05369,11.12156 5.04791,5.02154 8.75159,9.8363 11.16481,14.51421 1.98612,3.85 4.32446,9.76496 5.19632,13.14434 0.87185,3.37939 1.58518,9.76974 1.58518,14.20078 0,4.43104 -0.49054,10.44109 -1.09009,13.35566 -0.59955,2.91457 -2.91329,9.12422 -5.14165,13.79922 -3.21001,6.73446 -5.63189,10.06577 -11.65991,16.03826 -5.39139,5.34172 -9.79374,8.62545 -15.10835,11.26941 -4.125,2.05213 -10.65,4.3896 -14.5,5.19438 -3.85,0.80477 -9.475,1.42173 -12.5,1.37102 -3.025,-0.0507 -7.49409,-0.48336 -9.93131,-0.96144 z M 509.60806,320.47798 c -2.69056,-0.73875 -7.64056,-2.70846 -11,-4.37714 -3.35943,-1.66868 -8.69187,-5.07769 -11.84987,-7.57559 -3.15799,-2.4979 -7.78934,-7.12545 -10.29189,-10.28344 -2.50254,-3.158 -6.34265,-9.34181 -8.53357,-13.74181 -2.25756,-4.53384 -4.69129,-11.46616 -5.6171,-16 -1.3991,-6.85153 -1.46611,-9.52403 -0.46684,-18.61607 0.64173,-5.83885 2.04994,-13.18302 3.12935,-16.3204 1.07942,-3.13737 3.64526,-8.48514 5.70188,-11.88392 2.05661,-3.39879 7.02332,-9.43088 11.03712,-13.40465 5.54521,-5.48991 9.27729,-8.16428 15.54034,-11.13605 4.53338,-2.15106 10.3756,-4.41766 12.98269,-5.03688 2.60709,-0.61923 8.00709,-1.37884 12,-1.68801 4.59477,-0.35578 10.38016,0.002 15.75983,0.97352 5.5988,1.01151 11.3269,2.93603 16.78231,5.6385 5.24539,2.59844 10.71542,6.37094 14.91792,10.28841 3.64959,3.40205 8.80958,9.50507 11.46665,13.56225 2.65707,4.05719 5.78914,10.35719 6.96016,14 1.46284,4.55062 2.27604,10.22209 2.59857,18.1233 0.34531,8.4592 0.0431,13.31805 -1.14284,18.37566 -0.88675,3.78161 -3.39792,10.30661 -5.58039,14.5 -2.18246,4.19339 -5.80082,9.84109 -8.0408,12.55045 -2.23998,2.70936 -6.86019,7.16893 -10.26713,9.91014 -3.40695,2.74122 -8.89445,6.24462 -12.19445,7.78534 -3.3,1.54072 -8.68204,3.49366 -11.9601,4.33986 -3.68872,0.95221 -9.97683,1.50447 -16.5,1.44913 -5.79694,-0.0492 -12.74127,-0.69385 -15.43184,-1.4326 z"
       id="path1" />
  </g>
</svg>
