<?xml version="1.0" encoding="UTF-8" standalone="no"?>
<!-- Created with Inkscape (http://www.inkscape.org/) -->

<svg
   version="1.1"
   id="svg1"
   fill="currentColor"
   stroke="currentColor"
   width="419.54297"
   height="676.17578"
   viewBox="0 0 419.54297 676.17578"
   xmlns="http://www.w3.org/2000/svg"
   xmlns:svg="http://www.w3.org/2000/svg">
  <defs
     id="defs1" />
  <g
     id="g1"
     transform="translate(-304.70508,-193.76172)">
    <path
       id="path1"
       d="m 522.5,193.76172 -16,0.53906 -16,0.53906 -13,2.57618 c -33.21302,6.58136 -56.54282,15.87254 -81.64062,32.51172 -46.28055,30.68274 -77.02543,74.70572 -88.39453,126.57226 l -1.53321,7 -0.61328,17.66211 -0.61328,17.66211 1.24219,6.3125 c 3.08465,15.67912 14.16797,28.36392 28.28515,32.36914 l 5.73438,1.62695 30.29101,-0.3164 30.29102,-0.31641 6.58008,-3.24219 6.58203,-3.24023 4.72852,-5.05664 c 2.60095,-2.78063 6.08173,-8.04035 7.73632,-11.68945 l 3.00977,-6.63477 0.92969,-9.56836 c 1.92824,-19.82203 2.86045,-25.07131 5.8125,-32.71289 10.59885,-27.43578 31.17556,-45.68416 59.57226,-52.83203 l 7,-1.76172 11,0.0762 11,0.0742 8,2.03906 c 31.35005,7.98552 55.67947,33.55792 62.10742,65.28125 l 1.66211,8.20508 -0.51758,12.53125 -0.51757,12.53125 -3.28125,9.86328 C 586.12464,439.88461 576.4334,453.30355 561,465.22266 l -6.5,5.01953 -23.5,11.47656 c -27.55438,13.45682 -37.08866,19.5004 -48.30469,30.61719 -13.65839,13.53754 -22.42252,28.41519 -28.96289,49.16406 l -3.15234,10 -0.35156,40.99219 -0.35352,40.99219 1.18164,4.21679 c 2.01097,7.18246 8.94502,13.88989 16.9375,16.38477 1.37856,0.43032 22.30595,0.69886 46.50586,0.59765 l 44,-0.18359 4.06836,-2.17773 c 2.23752,-1.19767 5.69941,-3.9824 7.69336,-6.18946 l 3.625,-4.01367 1.55664,-5.24023 L 577,651.63672 V 631.0293 610.41992 l 1.5293,-5.86718 c 2.26273,-8.68727 8.22272,-19.24886 14.45898,-25.61915 6.27716,-6.412 13.75568,-11.37583 33.01172,-21.9121 31.10789,-17.02118 43.7561,-26.99592 62.16406,-49.02149 18.38023,-21.99239 31.07635,-53.61808 34.89063,-86.91016 l 1.19336,-10.41015 -0.54102,-19.58985 -0.54101,-19.58984 -3,-13 c -9.45666,-40.99044 -27.04093,-72.72533 -56.54297,-102.04101 -15.20832,-15.11221 -22.06034,-20.4181 -40.60547,-31.44727 -28.24066,-16.79526 -58.43185,-26.93522 -89.75391,-30.14648 z m -20,518.78516 -8,1.79492 c -10.16024,2.28091 -24.19854,9.142 -32.26758,15.76953 -10.77402,8.84925 -19.62926,22.19416 -24.80859,37.38867 l -2.72656,8 -0.46875,13.50586 -0.46875,13.50586 1.64648,6.42773 c 4.39015,17.13641 14.49511,32.94406 28.09375,43.94727 10.41291,8.4255 19.62092,12.73355 33.5,15.67383 l 6.5,1.37695 12.5,-0.39453 12.5,-0.39453 6,-1.63086 c 3.3,-0.8974 10.50004,-3.81595 16,-6.48438 l 10,-4.85156 6.26953,-5.69336 c 7.77641,-7.06109 13.96658,-15.0276 18.20703,-23.43554 4.65251,-9.22487 5.94659,-13.33432 7.5586,-24.00782 l 1.42773,-9.45703 -1.04297,-9.54297 C 589.25426,750.48802 565.54262,722.90516 533,714.34375 l -6.5,-1.71094 -12,-0.043 z" />
  </g>
</svg>
