<?xml version="1.0" encoding="UTF-8" standalone="no"?>
<!-- Created with Inkscape (http://www.inkscape.org/) -->

<svg
   version="1.1"
   id="svg1"
   width="586.0993"
   height="699.86707"
   fill="currentColor"
   stroke="currentColor"
   viewBox="0 0 586.0993 699.86707"
   xmlns="http://www.w3.org/2000/svg"
   xmlns:svg="http://www.w3.org/2000/svg">
  <defs
     id="defs1" />
  <g
     id="g1"
     transform="translate(-198.27941,-162)">
    <path
       d="m 411.24086,860.01487 c -1.79253,-1.09812 -4.15334,-3.4632 -5.24626,-5.25573 -1.92972,-3.16499 -1.98724,-5.16567 -1.99128,-69.25914 l -0.004,-66 h -57.30283 -57.30283 l -7.6048,-3.75918 C 272.5486,711.17328 265.21088,703.64226 261.8206,695.24666 L 259.5,689.5 l -0.2848,-64.20285 -0.28481,-64.20284 -25.91141,-0.29716 -25.91141,-0.29715 -3.57311,-3.46489 c -3.78007,-3.6656 -6.0764,-9.75225 -4.98115,-13.20308 0.7319,-2.30599 34.39782,-67.45647 49.16959,-95.15325 l 9.50475,-17.82122 0.23779,-29.67878 c 0.24508,-30.5867 0.6384,-34.63746 5.41605,-55.77904 9.33536,-41.30981 31.66689,-80.09679 64.76107,-112.48158 20.09466,-19.66393 37.76173,-31.99579 63.72482,-44.4808 C 413.23073,177.92381 432.34937,171.70285 458.5,166.59327 478.1057,162.76251 486.50859,162 509.11781,162 c 23.44185,0 35.52338,0.9914 54.88219,4.50357 45.54898,8.26371 92.05242,29.56583 125.5,57.48855 52.07284,43.47146 83.86835,99.31056 93.10351,163.50788 2.54213,17.67142 2.33084,45.77626 -0.48491,64.5 -4.49035,29.85919 -11.09895,51.94958 -22.629,75.6413 -19.48712,40.04178 -48.7697,72.60177 -94.7396,105.3432 L 653,641.35327 V 745.1564 c 0,114.84717 0.30666,109.34848 -6.36374,114.1065 L 643.5,861.5 529,861.75573 c -112.91022,0.25218 -114.54525,0.22801 -117.75914,-1.74086 z m 184.7399,-243.08142 c 24.08512,-3.9076 68.88961,-34.72046 94.12217,-64.72954 35.28545,-41.96495 53.74814,-96.48423 49.91687,-147.40169 -3.92597,-52.17615 -28.44078,-101.59889 -68.57197,-138.24358 -23.85277,-21.78048 -42.9244,-33.8177 -71.16249,-44.91477 -30.30415,-11.909 -63.76114,-17.42704 -99.1475,-16.35232 -34.07191,1.0348 -61.31671,7.77617 -91.63784,22.67458 -40.34654,19.82444 -69.81676,47.79591 -87.51551,83.06477 -18.48398,36.83363 -22.02443,81.99919 -9.06251,115.61056 12.20401,31.64606 40.40232,57.63317 71.2049,65.6213 l 8.62689,2.23724 6.02791,9 c 10.08808,15.06204 24.77602,27.72955 40.6637,35.07011 11.69072,5.40145 20.64938,7.50493 34.55462,8.11337 16.69617,0.73057 30.74204,-1.72809 46,-8.05206 1.12296,-0.46544 2.88247,2.07015 7,10.08756 9.91692,19.30964 27.15594,50.61891 29.72692,53.98964 3.8061,4.99005 15.98209,12.13934 23.42601,13.75489 7.9863,1.73325 8.0327,1.73463 15.82783,0.46994 z M 588.27069,576.75 c -0.53581,-0.6875 -5.17402,-9.35 -10.30713,-19.25 -5.13311,-9.9 -14.08794,-27 -19.89962,-38 -14.15694,-26.79539 -13.50572,-25.17087 -10.78934,-26.91509 1.22397,-0.78592 3.9129,-2.22239 5.9754,-3.19214 2.0625,-0.96976 3.75,-2.28733 3.75,-2.92794 0,-1.52143 -4.96371,-8.23542 -8.62123,-11.66122 -4.45249,-4.1704 -12.07765,-7.1242 -18.37877,-7.11949 -3.0499,0.002 -9.44772,1.18724 -14.36187,2.66 -9.50847,2.84967 -19.23979,3.44961 -25.90968,1.59735 -2.11977,-0.58867 -6.4451,-3.43295 -9.87616,-6.49442 C 474.68792,460.83896 473.15102,460 469.87384,460 c -5.58828,0 -8.27866,2.9452 -7.56317,8.27952 1.0454,7.7941 6.91528,12.78191 17.36207,14.75307 8.68432,1.63862 14.15237,6.24462 15.01074,12.64427 0.47466,3.53883 0.17952,4.55105 -1.94706,6.67762 -3.58473,3.58474 -9.78604,4.96109 -19.73642,4.38042 -12.56885,-0.73349 -20.66274,-4.26303 -29.0531,-12.66934 -7.33241,-7.34636 -10.25684,-12.74543 -11.94439,-22.05169 -3.97301,-21.90987 11.77071,-42.0165 34.22938,-43.71505 9.4514,-0.7148 18.58344,1.85538 27.26811,7.67453 6.49122,4.34943 9.39109,4.83828 17.13447,2.88847 5.12814,-1.29128 6.36553,-3.29768 6.36553,-10.32158 0,-15.11513 12.49719,-33.58458 27.5,-40.64194 27.33328,-12.85764 57.82794,1.71148 67.71546,32.3517 2.02676,6.28067 2.37982,6.75 5.07792,6.75 1.95325,0 4.36562,-1.29034 7.39082,-3.95322 7.89847,-6.95252 12.36331,-8.54678 23.93577,-8.54678 9.68298,0 10.42784,0.15796 17.25,3.65818 L 673,421.81636 v -2.79516 c 0,-1.58793 -1.4977,-4.89553 -3.46767,-7.65819 C 658.44,395.80728 658.11193,394.50037 663,385.34034 c 4.94034,-9.25799 3.38003,-18.28744 -4.32989,-25.05684 -8.13479,-7.14244 -19.75651,-5.81846 -24.19046,2.75585 -1.52073,2.94077 -1.48459,3.08561 1.36912,5.48685 9.09816,7.6556 6.57682,20.057 -5.06665,24.92075 -7.22465,3.01791 -13.5261,1.48947 -20.7441,-5.03157 -6.78636,-6.13107 -8.52247,-10.39182 -8.53085,-20.93641 -0.006,-8.18053 0.2983,-9.64152 3.27144,-15.68084 2.24009,-4.55025 4.86838,-7.99083 8.29745,-10.86181 6.64544,-5.56388 9.33616,-10.82537 9.21661,-18.02235 C 622.06003,308.90931 611.20516,299 596.09678,299 c -6.36244,0 -8.10403,-0.90245 -15.59678,-8.08183 -5.88152,-5.63554 -13.12787,-9.46769 -19.75,-10.44456 l -4.75,-0.7007 v 15.51285 15.51285 l 12.75,0.64782 c 7.0125,0.3563 13.84463,0.8808 15.1825,1.16555 3.79123,0.80693 9.72493,7.40208 11.03416,12.26419 1.03604,3.84756 0.91375,4.79755 -1.1539,8.96375 -3.89837,7.85501 -7.3722,9.12389 -25.03248,9.14363 L 554.06056,343 l -3.37902,7.25 c -4.35863,9.35183 -11.2633,18.41261 -17.97982,23.59437 -2.93147,2.26162 -10.0261,6.3222 -15.76584,9.02351 -11.68636,5.5 -14.35526,7.88939 -18.83428,16.86177 -5.20389,10.42444 -11.18847,12.44163 -22.10223,7.44985 -3.57535,-1.6353 -8.9941,-3.28481 -12.04167,-3.66558 -11.88453,-1.48488 -26.30813,3.70607 -35.3098,12.70774 -5.0314,5.0314 -6.60537,7.73771 -14.99714,25.7862 C 410.4721,448.84432 407.13282,451 399.72138,451 393.48301,451 379.69004,445.94687 372.5849,441.05841 362.1101,433.85156 351.818,418.93794 349.08071,407 c -2.52076,-10.99362 -0.61137,-25.57969 4.60255,-35.15938 l 2.61744,-4.8091 -2.28565,-7.69925 c -3.93827,-13.2661 -1.84696,-29.85447 5.32761,-42.25888 9.87423,-17.07194 24.20613,-27.20797 43.73877,-30.93361 l 9.41229,-1.79529 3.49549,-5.92225 c 5.00007,-8.47139 15.1621,-18.23858 23.51079,-22.59729 9.33148,-4.8718 17.42903,-6.82938 28.14434,-6.80386 9.61799,0.0229 18.17031,2.36971 26.29746,7.21615 l 4.26521,2.54347 6.35799,-2.88285 c 14.78612,-6.70435 34.03945,-9.5903 51.935,-7.78473 15.6654,1.58056 29.8308,7.14977 42.19942,16.59095 3.13362,2.39195 6.52501,3.96452 9.79668,4.54266 2.75214,0.48634 8.8289,2.72158 13.5039,4.96719 17.58521,8.44696 28.95056,24.5019 30.83474,43.55784 0.61334,6.20312 0.86037,6.75512 3.16526,7.07275 5.62927,0.77576 17.14425,7.15145 22.99475,12.73188 7.6391,7.28647 11.62107,13.5449 14.61338,22.96775 2.56175,8.06699 3.22183,20.07515 1.44423,26.27328 -0.82209,2.86646 -0.4974,4.12424 2.45064,9.4934 4.41721,8.04492 6.497,16.27757 6.497,25.71777 0,9.31168 -1.83047,15.76719 -7.02609,24.77888 -3.588,6.22329 -3.97391,7.56659 -3.97391,13.83248 0,20.85133 -12.72518,41.57022 -31.08264,50.60813 -4.07955,2.00848 -9.44236,4.11332 -11.91736,4.6774 -6.80733,1.55149 -18.84123,1.2677 -24.5,-0.57776 -5.46278,-1.78155 -28.49892,-2.55216 -28.49961,-0.95338 -2.1e-4,0.49189 5.42881,11.22519 12.0645,23.85178 6.63569,12.62658 11.92319,23.08942 11.75,23.25075 C 620.46684,561.82111 589.68187,578 589.41299,578 c -0.0924,0 -0.60649,-0.5625 -1.1423,-1.25 z m 58.35719,-93.36624 C 656.41578,479.29825 663,470.10798 663,460.5315 c 0,-4.18383 -0.53646,-5.72664 -3.05274,-8.77932 -3.33462,-4.04546 -9.16469,-6.41639 -13.25402,-5.39004 -1.36837,0.34344 -4.41537,2.23475 -6.77111,4.20292 -7.12837,5.95558 -11.55586,7.73431 -20.42213,8.20454 -10.29307,0.54589 -17.74774,-2.05042 -24.78361,-8.63166 -5.76417,-5.3917 -8.63082,-10.03651 -12.26343,-19.87037 -4.22247,-11.43065 -11.51676,-16.60379 -20.92352,-14.83907 -7.36255,1.38122 -13.49041,9.82342 -13.48033,18.5715 l 0.005,4.5 8.17311,3.87026 c 12.71864,6.02272 22.46559,17.27701 29.7751,34.37974 l 2.24379,5.25 19.12685,0.0451 c 14.01626,0.0331 19.92844,0.41215 22.12686,1.41879 4.14312,1.8971 12.4844,1.85808 17.12788,-0.0801 z M 395.10722,409.75 c 4.61197,-9.19153 9.15798,-14.95448 15.63332,-19.81823 3.1677,-2.37932 6.10975,-4.61011 6.53788,-4.95732 0.42813,-0.34721 0.0973,-3.521 -0.73522,-7.05287 -4.20517,-17.84034 0.9242,-35.75671 13.86287,-48.42158 7.46077,-7.30289 15.94514,-11.72591 28.59393,-14.90639 l 9.5,-2.38874 0.27429,-16.62758 0.2743,-16.62759 -2.7743,0.58158 c -8.22894,1.72503 -11.72578,3.04001 -15.81465,5.94709 -5.77431,4.10538 -8.83971,8.18823 -13.15527,17.52163 -1.90731,4.125 -4.21855,8.33538 -5.1361,9.35641 -3.03111,3.37294 -9.16354,5.86757 -13.05817,5.31197 -1.98555,-0.28326 -5.75288,-0.83364 -8.37184,-1.22307 -12.17105,-1.80981 -25.40076,9.69256 -27.75,24.12682 -1.3334,8.1927 -0.72612,9.6581 4.7358,11.42787 6.615,2.1434 10.77594,7.55678 10.77594,14.01949 0,6.12256 -2.38478,9.47451 -9.59617,13.488 -9.20781,5.1246 -12.3986,15.39757 -7.87737,25.36176 1.82721,4.02693 8.30801,11.13075 10.15456,11.13075 0.43461,0 2.2014,-2.8125 3.9262,-6.25 z m 92.60565,-47.43486 c 2.63292,-1.59615 8.31135,-4.42181 12.61874,-6.27923 10.16845,-4.38483 16.65463,-10.23162 20.88782,-18.82877 l 3.28057,-6.6625 0.35257,-24.27232 C 525.07746,290.78974 524.84898,282 524.22163,282 c -2.09129,0 -14.92476,5.28179 -18.86327,7.76343 l -4.14164,2.60964 -0.37272,13.57168 c -0.33947,12.36126 -0.61778,14.07258 -3.12052,19.188 -3.18947,6.51904 -10.93138,14.18698 -17.06174,16.89873 -2.34999,1.03951 -7.62274,2.40461 -11.71723,3.03354 -12.41114,1.90642 -17.24606,4.74218 -21.18469,12.42517 -1.92985,3.76452 -2.89679,13.70617 -1.47168,15.13128 0.31562,0.31562 2.87705,0.0799 5.69208,-0.52381 6.33778,-1.35921 12.98727,-1.26659 19.51978,0.27189 l 5,1.17755 3.21287,-4.16493 c 1.76707,-2.29071 5.36707,-5.47087 8,-7.06703 z"
       id="path1" />
  </g>
</svg>
