<?xml version="1.0" encoding="UTF-8" standalone="no"?>
<!-- Created with Inkscape (http://www.inkscape.org/) -->

<svg
   version="1.1"
   id="svg1"
   fill="currentColor"
   stroke="currentColor"
   width="410.93143"
   height="651.52222"
   viewBox="0 0 410.93143 651.52222"
   xmlns="http://www.w3.org/2000/svg"
   xmlns:svg="http://www.w3.org/2000/svg">
  <defs
     id="defs1" />
  <g
     id="g1"
     transform="translate(-312.06707,-196)">
    <path
       d="m 458,846.95042 c -37.57937,-1.89519 -63.49059,-5.06697 -70.86932,-8.67507 -4.49796,-2.19944 -5.28589,-5.47232 -1.85813,-7.71827 15.73459,-10.30971 130.51866,-14.8731 214.22745,-8.51691 27.6849,2.10218 45.56341,5.23301 50.5,8.8434 9.8797,7.22556 -7.18181,11.6539 -58.5,15.18377 -20.09986,1.38254 -111.59532,1.98778 -133.5,0.88308 z m 51.5,-66.84628 C 504.6388,777.85347 502.4661,775.49736 492.8052,762 454.71925,708.78965 398.76713,621.39257 367.00474,565.5 c -7.27049,-12.79395 -28.17724,-53.68803 -32.84376,-64.24314 -5.69093,-12.87223 -14.02071,-38.44824 -18.00846,-55.29374 -3.78578,-15.99236 -5.23035,-48.24807 -3.09338,-69.07227 1.22856,-11.972 8.34475,-40.88784 12.83377,-52.14862 23.83115,-59.78072 77.03153,-106.50689 139.20914,-122.2681 C 484.44479,197.571 496.88673,196 516.37561,196 c 22.10747,0 30.87738,0.98831 49.42151,5.56946 38.0971,9.41154 70.48929,27.76832 98.12983,55.61056 22.35832,22.52147 37.60981,47.0044 47.85455,76.81998 17.99824,52.38082 14.4224,104.70969 -11.34344,166 -17.53173,41.70349 -63.32235,119.97727 -120.6568,206.24891 -25.01224,37.63613 -43.56412,64.64476 -47.14342,68.63344 -2.93051,3.26567 -11.394,7.1007 -15.63784,7.08592 -1.925,-0.007 -5.3,-0.84557 -7.5,-1.86413 z m 29.58757,-269.49047 c 14.53737,-2.78799 30.03546,-9.04834 42.65795,-17.23139 3.16496,-2.05182 10.47948,-8.50282 16.25448,-14.33555 15.98869,-16.14854 24.22006,-31.51616 29.75256,-55.54673 4.55958,-19.80467 3.32953,-45.15744 -3.10856,-64.07107 -11.197,-32.89421 -38.6091,-59.78327 -72.144,-70.76744 -13.01689,-4.2636 -21.68328,-5.6642 -34.81538,-5.6266 -32.61022,0.0934 -58.93426,11.64088 -82.19561,36.05657 -17.43724,18.30257 -27.13339,38.8237 -30.59521,64.75235 -1.38799,10.3959 -0.66066,29.86888 1.48118,39.65619 10.43945,47.70386 48.39846,82.35606 96.91267,88.47009 9.18415,1.15743 26.01771,0.51963 35.79992,-1.35642 z M 358.01498,395.25 c 2.87561,-2.59571 3.09798,-3.3391 3.96344,-13.25 1.50542,-17.23947 5.58446,-31.66812 14.05423,-49.71356 20.94557,-44.62597 61.62602,-77.18768 106.00025,-84.84542 10.51738,-1.815 12.17023,-2.46524 14.41582,-5.67126 3.3327,-4.75811 0.54598,-12.54411 -5.19664,-14.51919 -3.7654,-1.29505 -21.79609,1.82985 -33.61034,5.82501 -27.4182,9.27184 -50.79343,24.86553 -70.34059,46.92442 -24.03697,27.12561 -38.23812,56.74433 -43.74605,91.23923 -1.9517,12.22304 -1.96649,18.06454 -0.0551,21.76073 2.97835,5.75949 9.50611,6.77139 14.515,2.25004 z"
       id="path1" />
  </g>
</svg>
