<?xml version="1.0" encoding="UTF-8" standalone="no"?>
<!-- Created with Inkscape (http://www.inkscape.org/) -->

<svg
   version="1.1"
   id="svg1"
   fill="currentColor"
   stroke="currentColor"
   width="697.29376"
   height="729.42987"
   viewBox="0 0 697.29376 729.42987"
   xmlns="http://www.w3.org/2000/svg"
   xmlns:svg="http://www.w3.org/2000/svg">
  <defs
     id="defs1" />
  <g
     id="g1"
     transform="translate(-179.76567,-155.49754)">
    <path
       id="path1"
       d="m 361.50005,155.50074 c -104.4358,0 -98.38029,-0.36603 -111.75977,6.73242 -7.17714,3.80779 -18.50111,15.53371 -22.0957,22.88086 -5.70489,11.66029 -5.60806,9.39719 -5.62696,132.63672 l -0.0176,113.25 h 23.98242 23.98047 l 0.26953,-104.25 0.26758,-104.25 2.39257,-5.29493 c 2.84164,-6.28889 8.58131,-11.52451 14.39844,-13.13281 3.06904,-0.84855 23.96949,-1.08443 77.20899,-0.86914 l 73,0.29688 6.56835,3.21484 c 10.50774,5.14219 15.16426,10.05545 27.73243,29.27148 16.60601,25.38973 25.00793,32.91768 43.69922,39.15235 l 7,2.33594 101.5,0.52734 101.5,0.52734 7.5,2.75977 c 21.48269,7.90539 40.68308,30.05743 43.95507,50.71094 0.59757,3.77197 1.03311,26.01572 1.03711,53 l 0.006,46.5 24.53125,-0.28516 24.5293,-0.2832 -0.2793,-61.7168 -0.27929,-61.71484 -2.32618,-6.44727 c -1.27966,-3.54531 -3.97788,-8.94531 -5.99609,-12 -4.85988,-7.35567 -46.97923,-48.90528 -53.71289,-52.98633 -10.32105,-6.25519 -6.24247,-6.04169 -116.26758,-6.05469 -112.50346,-0.0133 -108.92458,0.19545 -120.06641,-7.00585 -6.83052,-4.4148 -10.76529,-9.1144 -23.44335,-28.00391 -14.56717,-21.70411 -27.33056,-32.83901 -43.1875,-37.67383 -5.63138,-1.71702 -11.77535,-1.82812 -100,-1.82812 z m 49.14062,77.49804 -41.57031,0.006 c -26.44982,0.004 -42.97322,0.39519 -45.42578,1.07617 -2.12008,0.58868 -5.83747,2.90018 -8.26172,5.13477 -11.72169,10.80467 -8.16622,30.78605 6.61719,37.18945 2.94577,1.27597 10.30878,1.51871 46.5,1.53321 48.1418,0.0192 47.77433,0.0689 54.15234,-7.19532 4.19724,-4.7804 5.64958,-9.65097 5.16211,-17.30664 -0.52591,-8.2592 -4.20874,-13.7673 -11.82813,-17.6875 z m 321.39648,74.85157 -37.26757,0.36132 c -25.47758,0.24734 -38.1226,0.73231 -39.9668,1.53125 -4.62383,2.0031 -10.6118,8.19116 -12.36328,12.77735 -2.57986,6.75521 -1.68039,15.93488 2.07422,21.1582 3.26387,4.54068 7.79206,8.00192 12.13476,9.27734 1.56835,0.46062 19.05161,0.7706 38.85157,0.6875 l 36,-0.15234 0.26953,-22.82031 z m -339.22851,0.17578 c -7.04136,-0.0534 -16.19894,0.0436 -28.30859,0.18554 -35.76521,0.41922 -40.37057,0.65724 -43.5,2.2461 -10.30326,5.23102 -14.81706,15.7779 -11.55469,27 2.38431,8.20172 7.85461,13.87568 15.05469,15.61328 5.00671,1.20828 83.06587,1.06604 87.93554,-0.16016 11.38419,-2.86655 18.47272,-15.4456 15.45508,-27.42969 -0.90563,-3.59652 -2.55448,-6.22991 -6.30859,-10.07421 -5.57418,-5.70812 -7.64932,-7.22069 -28.77344,-7.38086 z m 186.69141,0.47461 -43.5,0.0293 c -23.92492,0.0164 -44.73002,0.35962 -46.23243,0.76367 -3.81589,1.02633 -9.48258,6.2534 -12.04687,11.11133 -1.61308,3.05594 -2.16921,5.89111 -2.19141,11.17383 -0.0258,6.15542 0.36259,7.71366 2.98242,11.95117 4.4079,7.12962 7.99979,8.84881 19.98829,9.57422 5.49996,0.3328 26.27497,0.5578 46.16601,0.5 l 36.16602,-0.10351 4.31836,-3.03711 c 8.35313,-5.87331 11.89289,-14.15496 9.99609,-23.39063 -1.47281,-7.17118 -5.03524,-12.33487 -10.875,-15.76758 z m 152.5,74.5 -36.75,0.004 c -21.08874,0.003 -38.26418,0.42783 -40.30274,0.99414 -4.41404,1.22625 -9.6688,6.23135 -12.07617,11.50196 -5.22535,11.44015 0.73508,26.8278 12.1582,31.38671 1.45741,0.58165 17.74279,1.01143 39.72071,1.04883 l 37.25,0.0645 v -22.5 z m -197.21875,0.0215 c -39.82877,0.0202 -43.60334,0.16815 -47.32227,1.85742 -10.63409,4.83042 -15.62944,20.15593 -10.07227,30.90235 2.08958,4.04076 7.36108,9.19447 11.08008,10.83398 2.4115,1.06309 12.1961,1.29145 47.69727,1.11133 l 44.66601,-0.22656 4.31055,-3.03125 c 2.37123,-1.66701 5.6448,-5.18606 7.27344,-7.82032 6.93284,-11.21362 1.72445,-26.93375 -10.63281,-32.0957 -3.16985,-1.32412 -10.09802,-1.54995 -47,-1.53125 z m -164.69532,0.19336 c -38.4539,-0.24587 -45.15009,-0.0702 -48.68554,1.27539 -7.77113,2.95778 -12.6652,11.02211 -12.625,20.80469 0.014,3.4121 0.49071,7.39235 1.05859,8.84375 1.51349,3.86819 6.94016,9.68825 11.06641,11.86914 3.37379,1.7832 6.31435,1.90586 46.88086,1.94726 47.18705,0.0482 47.47455,0.0165 53.56054,-5.75976 10.40611,-9.87645 9.09019,-27.77244 -2.64062,-35.9043 l -4.02735,-2.79101 z m 154.91407,77.02148 -304.5,0.26368 -6.78516,2.63867 c -16.24107,6.31583 -27.9669,19.21329 -32.18359,35.40234 -1.337,5.13309 -1.54635,23.59689 -1.64844,145.41992 l -0.11719,139.53907 2.20117,6.5 c 3.28443,9.70168 7.66104,16.74514 14.98438,24.11523 11.72928,11.80422 22.99367,15.88477 43.85351,15.88477 h 13.01563 l 0.35742,15.25 c 0.31653,13.5388 0.61173,15.73179 2.63281,19.54492 5.27979,9.96124 13.59434,16.33416 24.35547,18.66992 4.42177,0.95977 14.38314,1.39958 32.99414,1.45508 30.5521,0.0911 34.83371,-0.65619 44.16992,-7.70508 9.69927,-7.32301 13.60479,-18.32666 13.65039,-38.46484 l 0.0195,-8.75 H 528.3711 684.74415 l 0.51562,13.75 c 0.35215,9.36976 1.06763,15.28545 2.24609,18.57031 2.5101,6.99644 10.95556,15.69517 18.7129,19.27734 l 6.28125,2.90235 31,-0.002 c 30.44269,-3.4e-4 31.10729,-0.0432 36.99218,-2.41211 4.08219,-1.64321 7.77678,-4.19471 11.58789,-8.00586 7.80617,-7.80613 9.51536,-12.81902 10.42774,-30.58593 l 0.71875,-13.99414 9.05469,0.32422 c 14.86266,0.53388 23.83221,-1.11138 34.3789,-6.3086 7.34026,-3.61716 10.3501,-5.8125 15.14649,-11.04687 6.60896,-7.21257 12.399,-17.9997 14.10156,-26.26953 1.54093,-7.48461 1.53238,-276.98599 -0.01,-284.4004 -3.9281,-18.89427 -22.05789,-36.80016 -41.27929,-40.76953 -3.54901,-0.73285 -98.53891,-0.97556 -309.61914,-0.79297 z m 318.2871,33.04493 c 1.51577,-1.5e-4 3.07155,0.36928 4.58204,1.15039 6.5783,3.40175 6.36008,1.65 6.89453,55.35547 0.51612,51.86377 0.30082,54.92401 -4.1543,59.10937 -5.41578,5.0879 -15.08969,2.89946 -17.47852,-3.95312 -1.44715,-4.15141 -1.58773,-97.86325 -0.15429,-102.86133 1.57119,-5.47843 5.76327,-8.80033 10.31054,-8.80078 z M 239.87309,508.1316 c 3.04755,0.42024 6.0464,2.10017 7.84571,4.77343 2.02764,3.0126 2.99631,21.97433 1.7832,34.91993 -0.63616,6.78881 -1.05569,7.92873 -4.00586,10.8789 -4.62089,4.62089 -9.40583,4.58636 -14.0957,-0.10351 l -3.40039,-3.40039 v -19.1504 c 0,-20.46059 0.5426,-23.21432 5.21679,-26.48828 1.0782,-0.75519 2.32291,-1.22048 3.63477,-1.41992 0.98389,-0.14958 2.00563,-0.14936 3.02148,-0.01 z m 97.92578,0.87304 c 63.919,-0.004 62.93231,-0.0815 66.64063,5.21289 2.00727,2.86579 2.00727,9.70062 0,12.56641 -0.85839,1.22551 -2.86191,2.9008 -4.45117,3.72266 -2.46919,1.27683 -11.5948,1.49414 -62.7168,1.49414 -54.73034,0 -60.03696,-0.14614 -62.29883,-1.70508 -3.32298,-2.29027 -4.70805,-4.24717 -5.38281,-7.60742 -0.8051,-4.00934 1.73907,-9.30844 5.59961,-11.66211 3.22162,-1.96419 4.89567,-2.01749 62.60937,-2.02149 z m 195.27735,38.1875 66.57812,0.3086 8.92188,4.41601 c 15.55007,7.69662 26.65296,21.764 29.48633,37.36133 0.66725,3.67362 0.9264,22.24763 0.71093,51 -0.32503,43.37057 -0.42778,45.45563 -2.48633,50.92383 -3.27131,8.6897 -7.16266,14.70264 -13.7871,21.29883 -6.85684,6.82753 -13.52278,10.74963 -22.03516,12.96679 -8.50214,2.21458 -135.09835,2.17119 -143.35352,-0.0488 -16.75825,-4.50688 -30.52929,-18.29155 -35.55859,-35.5918 -1.4203,-4.88576 -1.58802,-11.78527 -1.33789,-54.95703 l 0.28516,-49.36914 4.28125,-8.75782 c 7.36109,-15.05407 20.80644,-25.86142 35.71875,-28.71093 4.24344,-0.81084 25.49005,-1.05711 72.57617,-0.83985 z m -3.84571,30.83985 c -29.3647,-0.0206 -58.83627,0.27284 -61.53125,0.89843 -5.82104,1.35126 -10.47463,5.0528 -13.21679,10.51563 -2.08132,4.14624 -2.48243,6.37038 -2.48242,13.75 v 8.80469 h 77.63867 77.63867 l -0.51563,-9.03321 c -0.43946,-7.70748 -0.9413,-9.72138 -3.41992,-13.73047 -3.21722,-5.20375 -7.73485,-8.69579 -13.22461,-10.2207 -2.26469,-0.62906 -31.52202,-0.96377 -60.88672,-0.98437 z m 77.26954,64.46875 -8.75,0.0234 c -4.8125,0.0137 -39.57516,0.12625 -77.25,0.25 l -68.5,0.22657 0.0215,18.25 c 0.0188,15.58715 0.29197,18.84351 1.87109,22.32031 2.09275,4.60762 8.13432,10.0542 12.60743,11.36719 4.72717,1.38754 119.67246,1.29805 125.21484,-0.0977 6.33067,-1.59409 11.73672,-7.14513 13.77148,-14.14453 1.19998,-4.1277 1.50034,-9.20894 1.28907,-21.78906 z m 237.1914,59.29882 c 2.98533,0 4.37504,0.69674 6.9082,3.46094 l 3.17188,3.46094 0.74609,19.88867 c 0.4105,10.93924 0.52742,27.11824 0.25977,35.95313 -0.54323,17.9315 -1.38495,20.53843 -7.44922,23.07226 -4.10538,1.71534 -4.11901,1.71598 -8.32812,-0.38672 -6.78406,-3.38898 -6.99605,-4.66688 -6.99805,-42.03125 -0.002,-36.05007 0.3012,-38.40549 5.39062,-41.74023 1.40834,-0.92278 4.24336,-1.67774 6.29883,-1.67774 z m -604.04883,16.70508 c 2.49812,0.23647 4.92666,1.38282 6.72461,3.51953 3.37706,4.01345 4.06688,10.64117 3.30469,31.74805 -0.63566,17.60282 -1.23126,20.37062 -5.03906,23.45508 -1.22658,0.99357 -3.83262,1.72851 -6.13281,1.72851 -4.23982,0 -7.50114,-1.96119 -9.38282,-5.64062 -1.57015,-3.07033 -1.52285,-45.33073 0.0547,-48.79297 1.95015,-4.28012 6.30721,-6.4117 10.4707,-6.01758 z m 558.27149,32.64063 c 3.45087,0.38656 6.82263,2.37316 9.12695,6.15234 3.40914,5.59116 1.9541,12.20022 -3.65625,16.61328 -7.86752,6.18863 -20.98421,-2.35324 -18.81055,-12.25 1.61615,-7.35826 7.58835,-11.15989 13.33985,-10.51562 z m -459.71289,0.85937 c 57.05018,0.004 59.41998,0.0771 62.5,1.95508 3.26067,1.98817 6.29883,6.61354 6.29883,9.58984 0,3.40221 -3.23689,8.33479 -6.47852,9.87305 -2.91259,1.38211 -10.77651,1.57813 -63.55469,1.57813 h -60.23047 l -3.36914,-3.57227 c -3.81024,-4.04007 -4.42059,-8.48915 -1.84961,-13.46094 3.15685,-6.10465 1.62473,-5.96689 66.6836,-5.96289 z m 368.09765,0 c 53.60497,-0.004 53.47827,-0.0158 57.14063,5.21289 2.00727,2.86579 2.00727,9.70062 0,12.56641 -0.85839,1.22551 -2.86191,2.9008 -4.45117,3.72266 -2.4565,1.27026 -10.35471,1.48116 -52.68946,1.41406 -27.38969,-0.0434 -50.47386,-0.3248 -51.29882,-0.625 -2.80369,-1.02019 -6.90033,-5.5662 -7.50782,-8.33203 -0.86636,-3.94454 1.81968,-9.57343 5.69727,-11.9375 3.20284,-1.95269 4.92416,-2.01749 53.10937,-2.02149 z" />
  </g>
</svg>
