<?xml version="1.0" encoding="UTF-8" standalone="no"?>
<!-- Created with Inkscape (http://www.inkscape.org/) -->

<svg
   version="1.1"
   id="svg1"
   width="578.5"
   height="619.6366"
   viewBox="0 0 578.5 619.6366"
   xmlns="http://www.w3.org/2000/svg"
   xmlns:svg="http://www.w3.org/2000/svg">
  <defs
     id="defs1" />
  <g
     id="g1"
     transform="translate(-224.5,-196.39603)">
    <path
       style="fill:#000000"
       d="m 241.36682,814.5731 c -6.26535,-1.96018 -11.00659,-6.13984 -14.09212,-12.42295 L 224.5,796.5 v -54 c 0,-58.30912 0.12636,-60.06607 5.53418,-76.94816 4.15153,-12.96025 4.1187,-12.93057 11.46582,-10.36455 12.46201,4.35241 30.04293,2.16469 41.45526,-5.15858 5.9351,-3.80854 15.63893,-13.95417 19.26576,-20.14288 6.08306,-10.37995 8.59584,-24.70468 6.48914,-36.99288 l -0.78983,-4.60704 5.85544,-1.64296 c 7.12575,-1.99938 10.39561,-2.02434 20.72423,-0.15816 11.65125,2.10514 28.08828,1.88765 39.5,-0.52264 10.21448,-2.15743 13.27022,-2.03355 26.08412,1.05744 18.35457,4.42752 38.25782,15.88341 50.56066,29.10165 13.53455,14.54159 24.36573,35.79187 28.99086,56.87876 1.70104,7.75537 1.86436,13.62481 1.86436,67 v 58.5 l -2.81686,4.79216 c -3.51957,5.98763 -9.29291,10.24396 -15.783,11.63584 -7.84003,1.68138 -216.09108,1.34776 -221.53332,-0.3549 z m 336.85497,-0.0309 c -6.22502,-1.96124 -10.66094,-5.77574 -13.61841,-11.71061 L 562,797.60731 V 690.72032 C 562,622.24818 561.65207,583.95313 561.03191,584.16667 560.49946,584.35 546.96798,595.75 530.96196,609.5 c -16.00603,13.75 -30.5675,26.21867 -32.35883,27.70815 l -3.25697,2.70814 -4.80552,-9.4899 c -14.00828,-27.66346 -36.83351,-48.96924 -63.63142,-59.39556 l -6.8662,-2.67145 6.72849,-5.10168 c 12.79495,-9.7014 25.44591,-16.3466 49.28492,-25.888 l 8.82949,-3.53394 11.80704,-14.66317 c 26.79467,-33.27631 50.14663,-58.95007 63.80704,-70.15112 18.40017,-15.08748 41.72968,-26.37158 63.87603,-30.89579 8.61291,-1.7595 10.19615,-1.80288 19.74388,-0.54096 13.58123,1.79503 22.34654,1.75906 36.0181,-0.14779 10.82009,-1.50915 11.56688,-1.48933 21.64358,0.5744 51.64894,10.57782 91.00338,50.59223 99.69776,101.36966 1.30866,7.64292 1.52065,27.39854 1.52065,141.71249 0,130.2401 -0.0389,132.93544 -1.99357,138.15978 -2.27459,6.07938 -7.62539,11.80317 -13.50643,14.44791 -3.75566,1.68895 -10.13898,1.81075 -104.5,1.99389 -81.92718,0.15901 -101.29063,-0.054 -104.77821,-1.15283 z M 246.04717,632.69508 c -5.35163,-1.70607 -10.57918,-7.5758 -11.99202,-13.46519 -4.14902,-17.29506 10.19881,-37.05889 28.25642,-38.9226 24.04155,-2.4813 31.97083,27.43872 12.08761,45.61086 -8.03468,7.34324 -18.63078,9.87601 -28.35201,6.77693 z m 89.80201,-72.18824 c -15.4814,-2.94512 -31.20411,-10.24315 -43.3063,-20.10152 -12.5423,-10.21689 -24.90681,-30.15926 -29.70186,-47.90532 -3.19966,-11.84164 -3.23738,-35.6253 -0.0749,-47.24255 12.20955,-44.85177 53.24334,-73.39717 99.38717,-69.13928 35.31006,3.25821 65.09202,25.73152 78.20208,59.01086 17.82795,45.25553 -3.26549,98.16808 -47.03105,117.97668 -16.49052,7.46372 -40.73499,10.5857 -57.47511,7.40113 z M 639,388.11061 c -28.62727,-6.2777 -51.88189,-24.73414 -65.02801,-51.61061 -8.09647,-16.55276 -9.48022,-22.93937 -9.42492,-43.5 0.0401,-14.90915 0.37556,-18.68439 2.2659,-25.5 9.37694,-33.80855 35.47649,-58.97651 71.20908,-68.66735 11.96523,-3.24502 35.61214,-3.24962 47.47795,-0.009 11.32137,3.09171 28.59693,11.99083 37.24194,19.18435 44.6358,37.1415 48.24115,102.56398 7.90089,143.36898 -11.98831,12.12642 -27.84576,21.34204 -44.35905,25.77944 -11.3213,3.04222 -35.53437,3.53097 -47.28378,0.95443 z"
       id="path1" />
  </g>
</svg>
