<?xml version="1.0" encoding="UTF-8" standalone="no"?>
<!-- Created with Inkscape (http://www.inkscape.org/) -->

<svg
   version="1.1"
   id="svg1"
   fill="currentColor"
   stroke="currentColor"
   width="776.99695"
   height="784.86169"
   viewBox="0 0 776.99695 784.86169"
   xmlns="http://www.w3.org/2000/svg"
   xmlns:svg="http://www.w3.org/2000/svg">
  <defs
     id="defs1" />
  <g
     id="g1"
     transform="translate(-130.99961,-128.88238)">
    <path
       d="m 186.5,912.13316 c -21.19432,-6.11822 -38.22917,-20.54046 -48.09635,-40.71989 -7.99782,-16.35639 -7.44865,1.15314 -7.16078,-228.31021 L 131.5,438.14652 l 2.06179,-2.76147 c 4.69637,-6.29013 6.44735,-6.88505 20.26408,-6.88505 12.18016,0 12.88286,0.11561 18.02968,2.96638 5.65939,3.13467 9.96601,7.6466 12.88073,13.49482 1.66052,3.33174 1.7932,14.48018 2.26756,190.5388 0.56507,209.72467 -0.18424,190.72203 8.02114,203.41735 7.48817,11.58567 17.20369,19.02259 30.97502,23.71042 5.32466,1.81254 14.6654,1.87223 293,1.87223 276.2512,0 287.73476,-0.0719 293.5,-1.83871 17.48126,-5.35714 29.73361,-17.19382 37.35743,-36.09004 C 851.35397,822.86196 851.54445,805.96346 852,636.5 l 0.5,-186 2.20147,-4.7197 c 2.89251,-6.20118 9.79831,-13.62533 14.79853,-15.90929 3.07255,-1.40345 6.50175,-1.83218 14.78984,-1.84905 12.31841,-0.0251 16.82929,1.53187 20.87595,7.2054 L 907.5,438.5 907.79334,643 c 0.21315,148.59399 -0.0146,206.1177 -0.83325,210.41741 -5.00889,26.30885 -23.4966,47.84905 -49.28167,57.41851 L 850.5,913.5 l -329,0.1826 c -309.37611,0.1717 -329.35788,0.0793 -335,-1.54944 z m 74.04168,-92.8626 C 254.53929,817.74586 251,812.64446 251,805.51754 c 0,-5.94674 2.0094,-10.62276 5.61357,-13.06314 2.67509,-1.8113 5.06803,-1.97762 32.68196,-2.27157 29.04733,-0.3092 29.91044,-0.26154 34.37176,1.89815 8.13967,3.94035 10.66247,14.43407 5.28549,21.98533 -4.02661,5.65486 -5.90981,5.9457 -37.67066,5.81769 -15.83017,-0.0638 -29.66336,-0.33985 -30.74044,-0.61344 z m 454.49234,-1.02211 c -9.45184,-4.76807 -9.76065,-21.53056 -0.48357,-26.24845 2.36781,-1.20415 8.57062,-1.56321 31.44955,-1.82051 18.47459,-0.20776 29.78651,0.0604 32.15726,0.76236 2.01149,0.59557 5.04899,2.66796 6.75,4.6053 2.68685,3.06016 3.09225,4.27251 3.089,9.23765 -0.003,3.96706 -0.62104,6.7277 -2.02189,9.02538 -3.56882,5.85355 -5.64527,6.18999 -38.19225,6.18827 -25.88763,-0.001 -29.68391,-0.20424 -32.7481,-1.75 z M 507.76257,809.43461 C 502.99319,806.84677 502,803.41956 502,789.54966 502,778.33333 501.78751,776.78751 500,775 c -1.1,-1.1 -3.09459,-2 -4.43242,-2 -4.32069,0 -25.39505,-5.88172 -34.33691,-9.58321 -13.5702,-5.6174 -21.92346,-11.03275 -31.88863,-20.67315 -10.70142,-10.35265 -17.50184,-19.75906 -23.99563,-33.19101 -7.10331,-14.69269 -7.00347,-22.45906 0.32613,-25.36795 C 411.36487,681.92556 446.78782,674 451.1925,674 c 6.50595,0 9.10145,2.54655 15.12007,14.83487 6.17813,12.61402 14.58151,22.30831 22.87405,26.38795 7.61869,3.74812 9.35301,4.09469 11.20801,2.2397 1.4075,-1.40751 1.60537,-5.58317 1.60537,-33.87896 0,-29.48919 -0.15098,-32.40514 -1.75,-33.79841 -0.9625,-0.83866 -7.6,-3.44777 -14.75,-5.79802 C 452.36277,633.09468 433.56602,621.49759 421.49865,604.5 411.78024,590.81105 408,578.92315 408,562.05014 c 0,-14.65972 3.37771,-26.70235 11.14539,-39.73695 4.32427,-7.25637 18.72145,-22.47007 25.82564,-27.29031 13.31265,-9.03272 32.07819,-16.15753 51.26682,-19.46472 2.15468,-0.37136 4.16654,-1.44526 4.75,-2.53545 0.55668,-1.04018 1.01215,-7.11816 1.01215,-13.50663 0,-18.05809 2.30575,-20.51915 19.21788,-20.51234 15.81113,0.006 18.78212,3.45618 18.78212,21.80915 0,12.84312 0.47707,13.60418 9.58192,15.28611 14.19248,2.62174 31.15477,9.40806 43.62391,17.45316 13.57026,8.75555 27.35269,25.01706 35.35424,41.71349 5.59717,11.67933 4.33177,17.51782 -4.3474,20.05871 -15.52835,4.54601 -43.42887,10.83819 -45.6199,10.28828 -4.17813,-1.04864 -7.38625,-4.7279 -11.45944,-13.14232 -4.51814,-9.33361 -10.74628,-16.01041 -18.18417,-19.49413 -8.67911,-4.06508 -8.40479,-4.99631 -8.72916,29.63232 -0.154,16.44032 -0.0482,30.84332 0.23521,32.00667 0.41836,1.71753 3.38494,3.10061 15.78,7.35695 24.73672,8.49433 43.68221,18.30538 54.76479,28.36031 11.13477,10.10228 20.56339,25.44233 23.62034,38.42949 2.22221,9.44088 1.41552,28.14423 -1.62767,37.73807 -10.53829,33.22253 -40.01759,56.85774 -81.15675,65.06791 -11.80354,2.35564 -11.82444,2.38436 -11.89236,16.33708 -0.0664,13.64145 -1.20335,17.69188 -5.84144,20.81038 -2.99424,2.01323 -4.59795,2.27987 -13.5,2.24459 -6.97452,-0.0276 -10.94962,-0.49989 -12.83955,-1.52535 z m 45.88853,-93.97047 c 9.80894,-5.74801 16.31896,-17.50965 14.90615,-26.9309 -1.26623,-8.44388 -9.94787,-18.15528 -21.02306,-23.51669 C 539.93402,661.33737 540,661.10585 540,691.45578 c 0,14.41599 0.3375,26.54972 0.75,26.96386 1.26699,1.27201 8.5239,-0.39047 12.9011,-2.9555 z M 502,557.66482 C 502,539.34774 501.67,532.07 500.8,531.2 c -1.89793,-1.89793 -5.98177,-1.41206 -11.58019,1.37775 -8.11136,4.04207 -13.81333,12.17984 -14.88285,21.24064 -1.25257,10.61152 3.89989,19.07884 16.06562,26.40148 C 502.44532,587.46848 502,588.33456 502,557.66482 Z m -242.5078,198.4929 c -7.22942,-3.32459 -7.68328,-5.26879 -7.31371,-31.32932 0.31789,-22.41607 0.34885,-22.70068 2.74725,-25.25152 1.33416,-1.41896 4.03416,-3.02673 6,-3.57282 1.96743,-0.54654 15.7123,-0.98554 30.57426,-0.97652 40.28156,0.0244 39.49053,-0.60187 39.49626,31.27212 0.004,22.39268 -0.27034,23.82953 -5.48031,28.70034 l -2.67407,2.5 -29.67094,0.2504 c -27.03294,0.22813 -30.02727,0.0865 -33.67874,-1.59268 z m 455.40568,-0.42765 c -6.48734,-4.33383 -6.98792,-6.6141 -6.67574,-30.40972 0.41251,-31.44302 -1.05758,-30.31656 39.5677,-30.3188 C 788.82053,694.9993 787.5,693.93522 787.5,727 c 0,24.24308 -0.28146,25.31737 -7.61292,29.05761 -3.5097,1.79051 -6.06646,1.94239 -32.69936,1.94239 -28.37259,0 -28.95303,-0.0408 -32.28984,-2.26993 z M 256.23531,659.57869 252.5,656.15738 252.19849,633.80301 c -0.29688,-22.0108 -0.26561,-22.40776 2.03462,-25.82869 3.68183,-5.47563 6.07255,-5.85517 37.26689,-5.91632 30.8107,-0.0604 32.49534,0.22526 36.92892,6.26196 1.89456,2.57961 2.09782,4.45472 2.38483,22 0.17257,10.54902 0.0384,20.64918 -0.29808,22.44479 -0.33726,1.79962 -2.17591,4.82882 -4.09708,6.75 L 322.93333,663 h -31.48135 -31.48135 z m 458.07431,1.34401 c -5.64473,-3.61574 -6.51282,-7.86848 -6.13798,-30.06962 0.49893,-29.55077 -1.23734,-28.24165 38.01048,-28.65927 42.31296,-0.45025 41.05315,-1.39143 41.21482,30.79068 0.0897,17.85316 -0.12624,20.93507 -1.66387,23.74858 -3.32843,6.09028 -4.41145,6.26872 -37.93341,6.25008 -28.79216,-0.016 -30.45839,-0.11852 -33.49004,-2.06045 z m -456.69474,-92.011 c -5.2663,-4.14247 -5.61611,-5.99217 -5.60014,-29.61204 0.0162,-23.95674 0.27508,-25.23055 5.89771,-29.01964 3.33159,-2.24516 3.8336,-2.28002 32.8343,-2.28002 33.38826,0 34.8172,0.26479 38.30313,7.09777 1.74642,3.42327 1.95012,5.97139 1.95012,24.39451 0,23.0773 -0.63346,26.09446 -6.18982,29.48209 -3.12941,1.90794 -4.9821,2.01836 -33.92532,2.02189 -29.53538,0.004 -30.70878,-0.0699 -33.26998,-2.08456 z m 455.94421,-0.99397 c -1.96929,-1.72905 -3.95776,-4.69251 -4.52922,-6.75 -0.5603,-2.01725 -1.02053,-12.21773 -1.02274,-22.66773 -0.005,-21.34904 0.65889,-24.06691 6.89075,-28.23007 3.34185,-2.2325 3.88604,-2.26987 33,-2.26619 41.12485,0.005 39.20887,-1.5433 39.44768,31.8814 0.13985,19.57338 -0.0236,21.90901 -1.7311,24.72932 C 781.79233,570.92769 781.36222,571 747.6305,571 h -30.56091 z m -455.4376,-95.62764 c -4.75625,-2.3431 -7.11323,-6.67765 -7.11775,-13.08975 -0.005,-7.03147 2.13152,-10.90468 7.31258,-13.25696 3.79806,-1.72438 6.85671,-1.90134 33.18368,-1.91986 25.64696,-0.0181 29.40074,0.18175 32.46598,1.72803 9.76669,4.9269 9.88575,20.7971 0.1988,26.49845 -2.65508,1.56267 -6.16825,1.74756 -32.81907,1.72723 -25.78878,-0.0197 -30.30495,-0.24901 -33.22422,-1.68714 z m 456.88783,-0.14543 C 711.17934,470.09062 707,463.26011 707,459.05461 c 0,-4.47817 4.15055,-11.38004 8,-13.30306 3.09378,-1.54551 6.86582,-1.74607 32.5,-1.72803 26.0615,0.0183 29.413,0.20798 33.07586,1.87159 9.37644,4.2586 10.15187,20.64237 1.23432,26.07926 -3.1256,1.90562 -4.98391,2.01836 -33.32578,2.02189 -27.33003,0.003 -30.32513,-0.16226 -33.47508,-1.8516 z M 137.29855,370.04048 C 130.83543,366.09969 131,367.72696 131,307.75976 c 0,-60.20173 0.003,-60.23383 6.53428,-73.29033 4.88213,-9.75951 11.37103,-17.67258 19.2597,-23.48679 15.67485,-11.55289 35.89593,-14.54517 38.81384,-5.74361 0.41226,1.24353 0.79397,22.28597 0.84824,46.76097 0.10531,47.4972 0.20186,48.56019 5.31955,58.56927 5.41743,10.59532 15.78121,19.87703 27.39483,24.53457 6.75754,2.71005 21.36542,3.67095 28.95459,1.9046 7.92413,-1.8443 16.35779,-6.67104 22.88456,-13.09726 6.63047,-6.52833 9.88978,-11.71788 13.13332,-20.91118 2.23919,-6.34665 2.3018,-7.57796 2.65391,-52.19235 l 0.36062,-45.69236 2.55764,-2.55764 C 302.16024,200.11249 302.77541,200 313.70211,200 c 11.41885,0 14.56748,0.72412 17.01609,3.91334 0.91038,1.18574 1.22623,11.86523 1.25,42.2643 0.0175,22.3727 0.49779,44.1977 1.06732,48.5 2.76502,20.88693 19.15001,38.36867 39.70812,42.36604 8.33683,1.62103 20.36693,0.75483 27.49938,-1.98005 11.9989,-4.60087 23.13595,-15.60232 28.51967,-28.17245 L 431.5,300.5 l 0.5,-47.67081 0.5,-47.6708 2.42431,-2.5792 L 437.34863,200 h 79.74896 79.74896 l 3.07672,2.58889 3.07673,2.5889 v 41.82314 c 0,46.34962 0.55194,52.20652 5.92235,62.84524 4.80351,9.51571 13.53358,18.11898 23.52872,23.18698 8.01924,4.06613 9.01112,4.3156 18.90933,4.75582 8.6466,0.38455 11.62799,0.10562 17.30649,-1.61917 15.45956,-4.6957 28.30156,-17.38208 33.57669,-33.1698 2.06572,-6.18239 2.19834,-8.73977 2.71413,-52.33791 l 0.54229,-45.83792 2.80576,-2.41208 C 710.93095,200.15524 711.87665,200 723,200 c 11.12352,0 12.06901,0.15521 14.69424,2.41219 l 2.80576,2.41218 0.54351,46.83782 c 0.6063,52.24875 0.54957,51.79028 7.78445,62.91188 C 758.76118,329.84361 773.64515,338 791.57617,338 c 10.53531,0 19.05234,-2.597 27.26816,-8.31458 9.62972,-6.70154 16.65007,-16.13881 20.22313,-27.18542 0.94568,-2.92368 1.44702,-16.60319 1.86318,-50.83788 l 0.56936,-46.83788 2.80576,-2.41212 c 5.10494,-4.38873 16.29016,-2.7671 30.19424,4.37754 9.42561,4.84338 21.67971,17.1278 26.73636,26.80254 6.79974,13.00973 6.76406,12.61982 6.7599,73.8679 -0.004,53.44139 -0.0624,55.13604 -2.02189,58.35008 -4.09806,6.72161 29.16386,6.1902 -387.19225,6.18608 -373.42062,-0.004 -378.32326,-0.0288 -381.48357,-1.95578 z m 101.81693,-62.5416 c -5.28321,-1.64757 -10.69086,-6.55735 -13.21563,-11.99888 -1.75379,-3.77987 -1.85713,-8.01989 -1.87789,-77.04424 L 224,145.41153 l 3.25,-5.41233 c 7.75321,-12.91165 26.85594,-14.9656 36.19291,-3.8915 C 269.2072,142.94443 269,139.87236 269,218.5 c 0,80.62208 0.33553,76.47679 -6.78138,83.78032 -2.34721,2.40876 -5.47929,4.31355 -8.63268,5.25 -5.96419,1.77118 -8.70925,1.76521 -14.47046,-0.0314 z m 135.77055,-0.004 c -5.62592,-1.80025 -12.26689,-8.60286 -13.80454,-14.14054 -0.7137,-2.57032 -1.07219,-27.38659 -1.07591,-74.47897 -0.006,-76.78514 -0.10301,-75.36078 5.59556,-82.21687 8.9916,-10.81804 26.35281,-10.26124 35.05678,1.12432 1.7589,2.30081 3.64172,6.38678 4.25,9.22305 1.45463,6.78275 1.46951,137.62541 0.0164,143.99377 -3.01447,13.21085 -16.74286,20.74966 -30.03826,16.49524 z m 273.1075,0.62327 c -7.0242,-2.28477 -11.24757,-5.78395 -14.62656,-12.11851 -1.76421,-3.30736 -1.88324,-7.43534 -2.16249,-75 -0.21744,-52.6081 0.0158,-72.6256 0.88277,-75.76005 0.64807,-2.34303 2.92681,-6.24646 5.06388,-8.6743 5.10531,-5.79995 10.68202,-7.93662 19.28484,-7.38883 8.00372,0.50964 13.51258,3.95256 18.04037,11.27487 l 3.02366,4.88983 0.27652,69.45995 c 0.17711,44.49009 -0.0931,71.48001 -0.75162,75.07924 -1.33417,7.29187 -5.29606,12.8682 -11.35967,15.98865 -5.08569,2.61718 -13.31874,3.66504 -17.6717,2.24915 z m 135.75444,-0.54526 c -5.76064,-2.05577 -10.3062,-6.03751 -12.8956,-11.29606 L 768.5,291.5 768.505,218 c 0.005,-81.50801 -0.44781,-75.88143 6.6599,-82.69932 9.12326,-8.75125 24.53899,-8.36586 32.28131,0.80702 6.84949,8.11508 6.50773,3.82692 6.53205,81.9608 0.0246,78.97956 0.14406,77.47833 -6.69772,84.15608 -6.34095,6.18892 -15.40491,8.24907 -23.53235,5.34867 z"
       id="path1" />
  </g>
</svg>
