<?xml version="1.0" encoding="UTF-8" standalone="no"?>
<!-- Created with Inkscape (http://www.inkscape.org/) -->

<svg
   version="1.1"
   id="svg1"
   fill="currentColor"
   stroke="currentColor"
   width="591.65649"
   height="636.75031"
   viewBox="0 0 591.65649 636.75031"
   xmlns="http://www.w3.org/2000/svg"
   xmlns:svg="http://www.w3.org/2000/svg">
  <defs
     id="defs1" />
  <g
     id="g1"
     transform="translate(-222.19952,-183.17464)">
    <path
       d="m 504.5,817.92133 c -4.95,-1.06586 -32.625,-6.76131 -61.5,-12.65654 l -52.5,-10.7186 -80.5,-0.29588 c -76.05821,-0.27956 -80.63794,-0.3965 -83,-2.11949 -1.375,-1.00299 -3.05718,-2.90524 -3.73818,-4.22722 -0.97721,-1.89698 -1.18798,-61.0344 -1,-280.57307 L 222.5,229.16107 l 2.42431,-2.58054 c 1.75248,-1.8654 3.44193,-2.58053 6.09635,-2.58053 2.01962,0 18.02867,2.94468 35.57568,6.54374 41.22748,8.45615 143.91784,29.34033 194.40366,39.53597 21.725,4.38737 40.7375,8.24552 42.25,8.57366 l 2.75,0.59663 0.0153,254.125 c 0.008,139.76875 0.34592,254.62471 0.75,255.23547 0.40408,0.61075 2.27176,1.89837 4.1504,2.86137 4.49619,2.30476 11.32272,1.59225 14.64462,-1.52852 l 2.4358,-2.28831 0.25194,-254.03652 0.25193,-254.03651 3.5,-0.7601 c 3.37706,-0.7334 21.23055,-4.29234 102.5,-20.4325 20.9,-4.15076 47.45,-9.49786 59,-11.88245 11.55,-2.3846 32.25,-6.64297 46,-9.46305 13.75,-2.82009 33.1642,-6.90863 43.14266,-9.08565 21.41305,-4.67174 24.23559,-4.82718 28.05158,-1.54484 l 2.80576,2.41339 0.29031,275.33661 c 0.15968,151.43514 0.0183,277.25754 -0.31408,279.60535 -0.33242,2.3478 -1.66136,5.4978 -2.95321,7 l -2.34882,2.73126 -80.8371,0.52923 -80.8371,0.52923 -33,6.64817 c -18.15,3.65649 -46.275,9.37855 -62.5,12.71569 -16.225,3.33713 -31.3,6.03814 -33.5,6.00224 -2.2,-0.0359 -8.05,-0.93736 -13,-2.00323 z m -80.77724,-50.5455 c 2.43668,-1.51965 4.15486,-6.56521 3.46484,-10.17479 -0.65857,-3.44509 -5.88935,-8.20167 -9.01452,-8.1973 -7.55684,0.0106 -13.05803,8.4505 -9.71801,14.90938 2.86768,5.54547 9.51185,7.05237 15.26769,3.46271 z m 152.90533,-0.49616 c 5.10668,-4.79748 3.77927,-12.80583 -2.69943,-16.28577 -4.23,-2.27208 -7.95675,-1.65672 -11.51478,1.90131 -3.3542,3.3542 -3.44493,11.21812 -0.16388,14.2032 1.2375,1.12586 2.925,2.31441 3.75,2.64121 2.69698,1.06832 8.23744,-0.21406 10.62809,-2.45995 z m 45.82354,1.70499 c 6.66458,-2.78464 7.70564,-10.62739 2.14837,-16.18466 -3.7393,-3.7393 -6.20034,-4.17516 -10.63273,-1.88307 -8.05793,4.16691 -7.03478,16.69463 1.53273,18.76724 3.26633,0.79017 3.42438,0.77427 6.95163,-0.69951 z m -169.7746,-54.18017 c 5.98674,-4.44401 6.30385,-13.91457 0.61572,-18.38885 C 450.7694,694.03077 449.43542,694 365.91219,694 c -58.85557,0 -85.54714,0.33218 -87.19987,1.08521 -7.80224,3.55494 -7.34683,17.66864 0.6758,20.9435 1.16153,0.47415 39.99154,0.77415 86.28891,0.66669 83.7399,-0.19439 84.19169,-0.20628 87,-2.29091 z m 303.45141,1.02909 C 759.48037,713.70023 762,708.76468 762,703.93212 c 0,-2.22869 -0.9807,-4.11282 -3.4,-6.53212 l -3.4,-3.4 h -85.14966 c -73.99208,0 -85.53237,0.19791 -88.07036,1.51035 -3.81032,1.9704 -4.97998,4.32473 -4.97998,10.02391 0,3.9728 0.50495,5.17069 3.4,8.06574 l 3.4,3.4 h 84.64966 c 74.8835,0 84.99913,-0.18072 87.67878,-1.56642 z M 452.75029,664.95549 c 5.87108,-3.74904 6.50147,-12.85758 1.25309,-18.10595 L 451.15385,644 H 365.47692 279.8 l -3.4,3.4 c -2.85139,2.85139 -3.4,4.12047 -3.4,7.86514 0,4.81592 2.56385,9.15792 6.38812,10.81855 1.2441,0.54023 36.83322,0.79208 86.61188,0.6129 71.37864,-0.25693 84.84943,-0.52729 86.75029,-1.7411 z m 303.98936,0.24171 c 4.76316,-2.67223 6.53746,-9.82686 3.76606,-15.18616 -3.30519,-6.39153 2.45152,-6.01141 -90.97822,-6.0073 -82.06559,0.004 -85.13711,0.0706 -88.1744,1.9226 -4.086,2.4915 -5.94677,7.74478 -4.40162,12.42661 1.22673,3.71702 4.48513,7.16281 7.54853,7.98262 1.1,0.29438 39.8,0.44138 86,0.32668 65.25895,-0.16203 84.49968,-0.48889 86.23965,-1.46505 z M 450.45434,607.58353 c 4.47504,-1.8698 7.02908,-5.92448 6.89731,-10.94989 -0.0857,-3.26983 -0.77868,-4.63688 -3.71384,-7.32676 L 450.02937,586 l -84.26468,0.007 c -81.60971,0.006 -84.35709,0.0675 -87.19726,1.93975 -5.70977,3.76391 -7.11218,10.00776 -3.55737,15.83822 1.10142,1.80651 3.01224,3.69049 4.24626,4.18662 1.2658,0.5089 38.32325,0.92967 85.0258,0.96543 69.25754,0.053 83.33598,-0.16803 86.17222,-1.35308 z m 305.11377,-0.0475 c 5.62002,-2.34819 7.9443,-9.71063 4.91496,-15.56872 -3.22186,-6.23041 0.79595,-5.96763 -91.18341,-5.96353 -82.28747,0.004 -83.85939,0.0402 -87.10984,2.02189 -4.29162,2.61654 -6.44487,7.59826 -5.18418,11.99405 1.06863,3.72608 3.59079,6.84655 6.49436,8.03496 1.1,0.45022 39.47695,0.84711 85.28212,0.88197 70.95829,0.054 83.80061,-0.15325 86.78599,-1.40062 z m -306.3636,-49.57601 c 6.67704,-1.85444 9.64819,-8.95682 6.83845,-16.34698 -2.2018,-5.79119 0.67533,-5.61334 -90.7433,-5.60926 -81.99027,0.004 -83.87037,0.0469 -87.07459,2.00046 -7.94091,4.84157 -6.6258,17.37226 2.08784,19.89332 4.5557,1.31807 164.15816,1.3771 168.8916,0.0625 z m 307.53514,-0.73962 c 2.8012,-1.6005 5.26152,-6.24381 5.25661,-9.9207 -0.005,-3.78922 -3.41531,-9.12828 -6.60522,-10.34109 -1.66996,-0.63491 -33.11908,-0.89571 -87.43414,-0.72507 l -84.82611,0.2665 -2.95705,2.83329 c -3.59374,3.44333 -4.59812,7.71573 -2.81608,11.9789 2.11029,5.04843 4.18844,6.13148 13.04044,6.79618 4.45605,0.3346 43.2019,0.5596 86.1019,0.5 61.37012,-0.0853 78.4775,-0.38119 80.23965,-1.38801 z M 451.90881,501.5472 c 5.02409,-2.59806 6.90701,-11.12693 3.57811,-16.20747 C 451.9137,479.88627 453.85202,480 364.48246,480 c -89.22029,0 -86.14271,-0.17854 -89.92176,5.21679 -0.85838,1.22552 -1.5607,4.19809 -1.5607,6.60572 0,3.64499 0.56893,4.94642 3.4,7.77749 l 3.4,3.4 h 84.64966 c 72.0671,0 85.06727,-0.21595 87.45915,-1.45284 z m 304.12392,-0.0641 C 759.29706,499.79503 762,495.36256 762,491.69754 c 0,-3.09153 -3.85453,-8.80881 -7.03002,-10.42735 -1.93919,-0.98839 -20.66845,-1.20642 -87.15458,-1.01456 l -84.68461,0.24437 -3.01681,2.89054 c -1.65924,1.5898 -3.29908,4.17574 -3.64409,5.74654 -0.948,4.31623 1.26751,9.73186 4.8832,11.93658 3.03673,1.85168 6.09855,1.91899 87.44657,1.9226 73.40024,0.003 84.67893,-0.19239 87.23307,-1.51319 z M 452.02002,450.48965 C 455.79827,448.53584 457,446.16659 457,440.6715 c 0,-3.54146 -0.5975,-5.09962 -2.90121,-7.56574 L 451.19758,430 H 365.49879 279.8 l -3.4,3.4 c -2.89737,2.89737 -3.4,4.0914 -3.4,8.07692 0,3.8359 0.52564,5.20257 2.92308,7.6 L 278.84615,452 h 85.12659 c 73.97149,0 85.50931,-0.19792 88.04728,-1.51035 z m 305.86925,-1.04993 c 5.40859,-4.55103 5.0916,-12.9498 -0.65949,-17.47361 C 754.78879,430.04602 752.72346,430 669.0015,430 h -85.72877 l -2.75392,2.75 c -5.55046,5.54256 -5.71386,12.2252 -0.40808,16.68972 L 583.15345,452 H 669 754.84655 Z M 473.06988,385.73189 c 6.36649,-4.29037 6.36649,-13.17341 0,-17.46378 L 469.70423,366 H 368.07462 c -93.76492,0 -101.82094,0.13075 -104.10211,1.68964 -6.89306,4.71054 -7.24988,14.01454 -0.69841,18.21057 3.20563,2.05311 3.86443,2.0662 104.82802,2.08294 L 469.70423,388 Z m 297.70505,0.26391 c 5.9219,-3.61058 6.77051,-11.90491 1.73337,-16.94205 L 769.95455,366.5 H 665.89524 561.83594 l -2.91797,3.26578 c -4.66623,5.22241 -3.56974,13.64517 2.1921,16.83871 1.93889,1.07464 21.64008,1.33062 104.38993,1.35634 100.2129,0.0311 102.05738,-0.003 105.27493,-1.96503 z M 473.67704,327.40417 c 5.87688,-4.36312 5.17376,-13.83528 -1.34394,-18.10522 -2.60282,-1.70519 -8.02149,-1.78919 -103.96794,-1.61164 -112.74354,0.20862 -105.98947,-0.22405 -109.00064,6.9827 -1.83584,4.39378 -1.05125,8.37053 2.31573,11.73752 2.55244,2.55243 2.56121,2.5535 23.68657,2.89162 11.62325,0.18603 58.11285,0.30733 103.31022,0.26954 81.81175,-0.0684 82.1896,-0.078 85,-2.16452 z m 295.32787,1.31475 c 7.15346,-1.85364 9.0881,-12.56541 3.21696,-17.81175 l -2.90162,-2.59283 -31.13342,-0.71415 c -17.12338,-0.39279 -63.43294,-0.40465 -102.91012,-0.0264 -77.73699,0.74491 -75.65971,0.58183 -78.1915,6.1385 -1.68291,3.6936 -1.31007,9.78842 0.75478,12.33841 1.13761,1.40488 3.52344,2.55806 6.25,3.0209 5.89012,0.99987 200.99113,0.66405 204.91492,-0.35271 z M 498,255.83026 c -15.84787,-3.36168 -86.59787,-17.72131 -206.43164,-41.89798 -16.46239,-3.32132 -30.29989,-6.26636 -30.75,-6.54454 -1.44017,-0.89008 -0.93474,-16.26201 0.63448,-19.29655 2.29357,-4.43528 6.5274,-5.67316 14.64341,-4.28142 10.01149,1.71678 113.01652,22.78114 157.40375,32.18881 21.38412,4.53227 41.45028,8.68883 73,15.12142 11.8661,2.41935 15.90302,2.19027 35,-1.98613 7.7,-1.68394 19.625,-4.17685 26.5,-5.53979 22.00975,-4.36333 95.93747,-19.49875 113,-23.13479 9.075,-1.93389 25.275,-5.26419 36,-7.40066 10.725,-2.13648 25.68419,-5.27368 33.24265,-6.97157 16.59179,-3.72707 18.82322,-3.79418 22.45159,-0.67519 2.6724,2.29722 2.82196,2.8871 3.14666,12.41023 l 0.34091,9.99836 -5.34091,1.07681 c -2.93749,0.59224 -16.3659,3.35039 -29.8409,6.12922 -19.89762,4.10331 -53.25019,10.87422 -99.5,20.19949 -16.1253,3.25132 -120.42136,23.7928 -122.5,24.12681 -1.375,0.22095 -10.825,-1.36419 -21,-3.52253 z"
       id="path1" />
  </g>
</svg>
