<?xml version="1.0" encoding="UTF-8" standalone="no"?>
<!-- Created with Inkscape (http://www.inkscape.org/) -->

<svg
   version="1.1"
   id="svg1"
   width="655.31665"
   height="615.45276"
   fill="currentColor"
   stroke="currentColor"
   viewBox="0 0 655.31665 615.45276"
   xmlns="http://www.w3.org/2000/svg"
   xmlns:svg="http://www.w3.org/2000/svg">
  <defs
     id="defs1" />
  <g
     id="g1"
     transform="translate(-195.0825,-214.39598)">
    <path
       d="m 427.58122,827.9858 c -8.89353,-3.47268 -10.65646,-6.04304 -27.0821,-39.4858 -43.20034,-87.95635 -64.65758,-130.62358 -65.93719,-131.11461 -0.78161,-0.29993 -4.9403,0.45248 -9.24152,1.67204 -9.67326,2.74271 -28.52145,3.74172 -37.59989,1.99289 -23.19356,-4.4679 -40.57179,-13.50505 -55.81488,-29.02524 -19.28199,-19.6325 -31.90649,-45.26214 -35.96415,-73.01268 -1.7169,-11.74191 -0.761,-32.40548 1.98549,-42.92013 6.99397,-26.77574 24.89413,-48.79823 48.45113,-59.60923 6.30287,-2.89258 38.95844,-13.67586 117.98315,-38.95953 13.12369,-4.19888 23.97478,-7.49689 24.11353,-7.32892 0.36849,0.44609 6.68532,20.02296 12.03728,37.30541 2.55483,8.25 10.50864,33.225 17.67514,55.5 7.1665,22.275 16.40045,51.075 20.51988,64 4.11943,12.925 9.24555,28.72128 11.39139,35.10285 2.14584,6.38157 3.90152,12.31214 3.90152,13.17905 0,1.06416 -1.86788,2.10294 -5.75,3.19773 -15.03218,4.23921 -25.35417,7.69039 -25.06672,8.38112 0.34199,0.82181 52.84134,97.31081 71.57771,131.55327 6.29391,11.50272 12.07247,22.69679 12.84124,24.87573 3.94062,11.1689 -0.81266,23.23641 -11.22593,28.50014 -2.13197,1.07767 -11.5263,4.46376 -20.8763,7.52464 -35.07255,11.4816 -38.93263,12.18012 -47.91878,8.67127 z M 336.35351,636.08054 c 33.98593,-11.08635 77.12787,-24.90929 84.3452,-27.02472 7.84691,-2.29995 11.30413,-5.34195 11.29755,-9.94068 -0.005,-3.76597 -3.26979,-8.57158 -6.8221,-10.043 -2.7577,-1.14228 -4.28674,-0.86926 -15.36827,2.74406 -55.62309,18.13688 -101.674,33.10453 -103.48619,33.6355 -2.02718,0.59397 -2.43577,-0.18953 -5.81801,-11.15643 C 298.50095,607.80787 291.20532,585.4 284.28918,564.5 277.37304,543.6 269.80613,520.56399 267.47382,513.30886 l -4.24055,-13.19115 22.13336,-7.12024 C 297.53999,489.08133 316.05,483.16516 326.5,479.85042 385.74835,461.05683 386,460.94449 386,453.28822 386,448.83765 381.44736,444 377.259,444 c -1.59217,0 -12.76428,3.18175 -24.82692,7.07055 -60.378,19.4649 -92.59505,30.32399 -98.93208,33.34606 -16.42003,7.83058 -29.8976,23.98823 -32.83568,39.36523 -0.55669,2.91354 -0.32054,3.39864 2.10431,4.32276 6.91016,2.63346 8.11219,2.42488 9.83872,-1.70729 C 235.22927,520.12218 241.95213,511 243.95485,511 c 0.4466,0 1.02577,1.0125 1.28705,2.25 0.26128,1.2375 8.16971,26.08153 17.57428,55.20897 9.40457,29.12743 16.98445,53.07373 16.84418,53.21401 -0.14028,0.14027 -3.34646,-1.7757 -7.12486,-4.25772 l -6.86981,-4.51275 -3.56476,3.67009 -3.56476,3.6701 5.8,5.39862 c 11.37134,10.58442 26.68672,15.81613 47.51734,16.23188 5.2564,0.1049 9.487,-0.89536 24.5,-5.79266 z M 691.5,644.56118 c -2.2,-0.72971 -9.82946,-4.12592 -16.95435,-7.54713 -52.76939,-25.33871 -103.77586,-36.53184 -154.7089,-33.95015 -14.49603,0.73477 -37.06782,4.16886 -43.41798,6.60565 -0.77105,0.29587 -1.60362,-0.0712 -1.85016,-0.8158 -1.20768,-3.64727 -18.34588,-57.18658 -25.08143,-78.35375 -6.53209,-20.52774 -19.29934,-59.98344 -37.03507,-114.45257 -2.40917,-7.39891 -4.28396,-13.53308 -4.16621,-13.63148 0.11776,-0.0984 3.1391,-1.64276 6.7141,-3.4319 13.8671,-6.93993 42.38102,-26.029 61,-40.83736 14.50535,-11.53664 40.23348,-37.84239 50.51264,-51.64669 12.46966,-16.74601 18.31487,-26.33776 28.25659,-46.36787 4.74119,-9.55232 9.90632,-18.65384 11.47807,-20.22559 7.63656,-7.63656 19.97939,-5.15526 25.23328,5.07268 0.71219,1.38643 4.31006,12.19578 7.99527,24.02078 3.68522,11.825 11.49964,36.54376 17.36537,54.93057 l 10.66498,33.43057 10.55695,3.62325 c 31.05413,10.6581 51.02371,30.47654 59.16419,58.71643 2.96673,10.29179 3.17641,31.12424 0.4207,41.79918 -2.67388,10.35797 -11.6196,27.9131 -18.01394,35.35065 -4.79294,5.5749 -5.35517,6.67428 -4.60263,9 0.47149,1.45714 3.16994,10.52435 5.99655,20.14935 2.82661,9.625 8.20555,27.175 11.9532,39 3.74765,11.825 9.30977,29.375 12.36027,39 7.06664,22.29678 7.71114,25.22551 6.50919,29.57863 -1.06512,3.85754 -6.04462,10.06527 -8.66227,10.79887 -4.75719,1.33322 -8.06588,1.38522 -11.68841,0.18368 z m -6.88906,-44.16389 C 682.72564,593.85378 677.02839,575.225 671.95039,559 666.87239,542.775 660.81822,523.425 658.49668,516 626.58336,413.93135 618.82675,389.30026 612.04723,368.5 600.5952,333.364 589.35958,298.22748 585.04587,284.06017 c -2.25071,-7.39191 -4.2779,-13.62553 -4.50485,-13.85249 -0.6129,-0.61289 -7.12055,12.65114 -8.55114,17.4291 -1.20204,4.01464 -0.86382,5.31383 11.45462,44 6.98128,21.92477 14.43514,45.26322 16.56412,51.86322 2.12899,6.6 9.04265,28.425 15.3637,48.5 6.32105,20.075 16.9713,53.825 23.66722,75 6.69591,21.175 14.80045,46.825 18.01007,57 3.20963,10.175 7.32399,22.76985 9.14304,27.98855 l 3.30735,9.48855 9,5.65629 c 4.95,3.11097 9.12122,5.5449 9.26938,5.40875 0.14815,-0.13616 -1.27314,-5.60134 -3.15844,-12.14485 z M 457.24373,431.4104 c 42.31558,-18.93589 77.61814,-48.57939 101.4292,-85.16994 8.58274,-13.18914 9.19179,-16.22189 4.25015,-21.16354 -6.18382,-6.18382 -11.91672,-4.07494 -18.04629,6.63843 -4.5728,7.99241 -16.26246,22.70635 -26.33965,33.15409 -20.71305,21.47466 -44.65598,38.27286 -70.03714,49.13757 -12.19459,5.22004 -15.97798,8.66014 -15.14817,13.77367 0.31293,1.92836 1.56523,4.56658 2.78288,5.86272 3.53363,3.76137 9.00752,3.18232 21.10902,-2.233 z M 813,549.34032 c -3.82219,-1.26708 -13.36696,-5.46733 -37.45213,-16.4811 -28.11798,-12.8579 -32.73034,-15.9845 -34.06348,-23.09071 -1.58038,-8.42418 4.75092,-18.26069 13.4266,-20.85999 3.93264,-1.17825 4.98382,-1.08958 10.68923,0.90162 5.64188,1.96904 40.21967,17.90813 57.39492,26.45696 9.90807,4.93166 13.22729,12.47811 9.45713,21.50137 -1.80523,4.32053 -4.92647,7.8999 -8.45227,9.6929 -3.04316,1.54755 -8.95403,2.55721 -11,1.87895 z M 760.98983,438.75 c -5.49055,-3.73684 -7.35465,-7.09353 -7.78073,-14.01077 -0.32542,-5.2832 -0.0261,-6.76144 1.9533,-9.64728 4.85898,-7.08404 6.2572,-7.54044 33.90716,-11.06781 9.03674,-1.15284 21.53268,-2.75489 27.76875,-3.56011 19.92631,-2.57294 24.52123,-1.82794 29.5118,4.78492 3.48698,4.62051 4.84763,10.30299 3.58753,14.98265 -1.38211,5.13277 -6.02722,10.17906 -10.64272,11.56189 C 834.76531,433.1506 774.33529,441 768.417,441 c -2.62767,0 -5.31933,-0.81542 -7.42717,-2.25 z m -27.69752,-76.4137 c -10.43524,-6.76633 -11.25847,-20.72257 -1.66511,-28.22848 3.54464,-2.77335 54.61051,-35.66227 58.47432,-37.66032 6.5968,-3.41133 15.9309,-0.37784 20.61447,6.69951 3.55317,5.36922 3.89174,14.1896 0.71113,18.52652 -2.07583,2.83049 -53.33919,37.56592 -60.99284,41.328 -5.81411,2.85787 -12.08378,2.61457 -17.14197,-0.66523 z m -53.86305,-59.22911 c -7.86821,-3.57366 -12.77226,-12.4157 -10.3903,-18.73379 0.5958,-1.58037 4.81702,-8.4984 9.38047,-15.3734 4.56345,-6.875 14.01245,-21.19953 20.99777,-31.83228 11.7214,-17.8418 13.05337,-19.48833 17.27621,-21.3563 11.24073,-4.97231 24.21006,3.78855 24.28463,16.4044 0.0188,3.18578 -2.95415,8.1783 -20.84206,35 -11.47521,17.2063 -21.93771,32.25355 -23.25,33.43833 -2.26102,2.04133 -8.62633,4.35392 -11.88598,4.31831 -0.825,-0.009 -3.33183,-0.84838 -5.57074,-1.86527 z"
       id="path1" />
  </g>
</svg>
