<?xml version="1.0" encoding="UTF-8" standalone="no"?>
<!-- Created with Inkscape (http://www.inkscape.org/) -->

<svg
   version="1.1"
   id="svg1"
   fill="currentColor"
   stroke="currentColor"
   width="712.95972"
   height="705.51691"
   viewBox="0 0 712.95972 705.51691"
   sodipodi:docname="openGym.svg"
   inkscape:version="1.3 (0e150ed, 2023-07-21)"
   xmlns:inkscape="http://www.inkscape.org/namespaces/inkscape"
   xmlns:sodipodi="http://sodipodi.sourceforge.net/DTD/sodipodi-0.dtd"
   xmlns="http://www.w3.org/2000/svg"
   xmlns:svg="http://www.w3.org/2000/svg">
  <sodipodi:namedview
     id="namedview1"
     pagecolor="#ffffff"
     bordercolor="#999999"
     borderopacity="1"
     inkscape:showpageshadow="2"
     inkscape:pageopacity="0"
     inkscape:pagecheckerboard="0"
     inkscape:deskcolor="#d1d1d1"
     inkscape:zoom="0.23046875"
     inkscape:cx="355.79661"
     inkscape:cy="351.45763"
     inkscape:window-width="1312"
     inkscape:window-height="449"
     inkscape:window-x="0"
     inkscape:window-y="25"
     inkscape:window-maximized="0"
     inkscape:current-layer="svg1" />
  <defs
     id="defs1" />
  <g
     id="g1"
     transform="translate(-154.62723,-160.8433)">
    <path
       d="M 482.5,865.32762 C 436.26915,861.44227 391.69914,848.67207 349.64858,827.26304 313.49569,808.85666 286.83555,789.56389 257.91501,760.87948 206.55485,709.93867 171.00568,641.51434 159.00527,570.5 c -3.36336,-19.90317 -4.27901,-35.97644 -3.72967,-65.47044 0.55263,-29.67095 2.60754,-46.96044 8.32323,-70.02956 11.14933,-44.99984 33.28271,-91.53619 61.90117,-130.14973 8.14321,-10.98725 25.38791,-30.60996 29.44093,-33.50077 1.29712,-0.92516 3.86008,-0.13218 13.08605,4.04885 37.51631,17.00166 64.40987,33.90154 90.03597,56.5785 26.41446,23.37458 44.14087,46.17469 58.35325,75.05525 13.01943,26.4564 17.93319,46.47066 18.958,77.2179 l 0.45829,13.75 -106.66625,0.002 c -120.97061,0.002 -111.60388,-0.65707 -115.97858,8.15767 -2.75198,5.54506 -2.27278,10.39773 1.46548,14.8404 5.326,6.3296 0.23439,6.07556 115.72941,5.77412 L 435.2651,526.5 l -0.57158,16 c -0.92229,25.81741 -7.02642,48.75878 -19.80242,74.42428 -14.20855,28.5433 -31.86501,50.85533 -59.3911,75.05107 -19.13954,16.82387 -30.11715,24.1274 -58.22044,38.73472 -9.57379,4.9762 -17.24067,9.64343 -18.71021,11.38988 -3.51238,4.17422 -4.30503,9.3785 -2.06262,13.5424 1.86931,3.47111 8.37333,7.35765 12.31281,7.35765 3.77119,0 43.61468,-21.47685 57.18046,-30.82201 11.63796,-8.01712 27.95386,-21.44364 27.31481,-22.47763 -0.3431,-0.55516 -0.15529,-0.7198 0.41737,-0.36588 0.57267,0.35392 1.56846,0.008 2.21289,-0.76829 0.94376,-1.13717 0.72265,-1.49758 -1.1367,-1.85281 -1.57738,-0.30136 -1.17634,-0.48414 1.26645,-0.5772 3.20822,-0.12221 4.95697,-1.54629 17.05207,-13.88618 15.23578,-15.54412 21.54363,-23.17715 31.60935,-38.25 24.27954,-36.35724 38.25798,-80.28769 38.26292,-120.25 L 463,527 h 16.5 16.5 l 0.023,93.25 c 0.0126,51.2875 0.002,110.03913 -0.0226,130.55917 -0.0298,24.38207 0.33978,38.74031 1.06663,41.4396 0.61171,2.27173 2.60189,5.62011 4.42261,7.44083 2.6952,2.6952 4.09012,3.3104 7.50611,3.3104 5.07587,0 9.0877,-2.20486 11.61875,-6.38554 1.81868,-3.00402 1.89516,-7.83965 2.15676,-136.36446 L 523.04244,527 H 540.02122 557 v 9.53941 c 0,51.88644 26.11973,111.64513 67.09463,153.50418 5.81285,5.93828 13.96299,13.20871 27.54242,24.56955 18.64239,15.59664 43.73659,31.61031 69.39296,44.28262 7.9144,3.90911 8.84142,4.1432 12.84516,3.24362 5.31207,-1.19354 8.80541,-4.34121 10.27993,-9.26271 0.98358,-3.28289 0.82782,-4.32947 -1.26682,-8.51223 -2.07858,-4.15067 -3.29602,-5.20946 -9.38828,-8.16484 -22.57293,-10.95018 -44.95839,-24.81457 -61.05177,-37.81228 -11.64985,-9.40892 -38.23317,-36.53137 -46.0973,-47.03219 -19.02656,-25.40579 -32.50465,-54.78186 -38.27268,-83.41691 -1.76234,-8.74902 -3.92938,-29.45471 -4.04908,-38.68822 L 584,527 687.75,526.9565 c 57.0625,-0.024 105.71705,-0.42351 108.12123,-0.88789 2.98818,-0.5772 5.51935,-1.99248 8,-4.47312 3.35202,-3.35202 3.62877,-4.07895 3.62877,-9.53154 0,-4.90711 -0.42169,-6.3598 -2.5,-8.61221 C 799.74194,497.75312 804.94826,498 690.03212,498 H 584 l 0.009,-5.25 c 0.0243,-14.55009 2.12425,-33.03755 5.09203,-44.82971 14.88601,-59.14787 56.63451,-111.8396 118.39919,-149.43434 12.01283,-7.31192 43.87298,-23.21627 52.25795,-26.08676 l 5.25795,-1.8 4.59428,4.45041 c 6.70163,6.49176 23.78218,27.10421 32.08596,38.72066 14.4037,20.14984 31.32622,51.10401 40.30774,73.72974 30.42768,76.65165 33.12658,151.0194 8.36512,230.5 -14.32828,45.99164 -40.06254,91.65217 -71.61019,127.05863 -60.26986,67.64186 -142.90435,109.77374 -234.25881,119.4388 -12.56438,1.32927 -50.08371,1.83167 -62,0.83019 z M 368.75,705.33772 c 0.6875,-0.27741 1.8125,-0.27741 2.5,0 0.6875,0.27741 0.125,0.50439 -1.25,0.50439 -1.375,0 -1.9375,-0.22698 -1.25,-0.50439 z M 462.65294,480.75 c -0.8963,-23.37206 -2.80149,-34.24696 -9.76,-55.71035 -6.55161,-20.20832 -16.18362,-39.53686 -30.1688,-60.53965 -10.63208,-15.96715 -16.7873,-23.51058 -31.7156,-38.86858 -18.92486,-19.46959 -42.85344,-37.94426 -69.63183,-53.76105 -7.63349,-4.50876 -35.34935,-18.59508 -42.19699,-21.44622 -2.18842,-0.91119 -1.76981,-1.4195 7.36667,-8.94512 26.08891,-21.48915 59.21941,-41.08806 90.96538,-53.81211 31.23854,-12.52067 54.75214,-18.92276 89.48823,-24.36513 16.55795,-2.59426 69.34459,-2.59441 86,-2.4e-4 50.63502,7.88666 90.68486,21.38316 129.5,43.64055 17.47668,10.02148 41.34099,26.2554 50.96566,34.66987 l 8.85549,7.742 -16.18115,7.76006 c -17.68724,8.48234 -41.7854,22.5105 -55.32291,32.20488 -47.42999,33.96519 -84.76988,82.40758 -102.26645,132.67393 -7.6526,21.98534 -10.46926,36.8133 -11.25626,59.25716 L 556.70704,498 H 539.85352 523 L 522.996,361.75 C 522.992,230.2087 522.9273,225.39356 521.11406,222.41996 518.97466,218.91117 513.59325,216 509.24675,216 c -3.41657,0 -8.66102,3.28268 -11.61531,7.27044 -2.04658,2.7625 -2.05186,3.12362 -1.84247,126 0.11549,67.77626 -0.065,128.96706 -0.40103,135.97956 L 494.77692,498 h -15.73123 -15.73123 z"
       id="path1" />
  </g>
</svg>
