<?xml version="1.0" encoding="UTF-8" standalone="no"?>
<!-- Created with Inkscape (http://www.inkscape.org/) -->

<svg
   version="1.1"
   id="svg1"
   width="499.84225"
   height="396.89227"
   fill="currentColor"
   stroke="currentColor"
   viewBox="0 0 499.84225 396.89227"
   xmlns="http://www.w3.org/2000/svg"
   xmlns:svg="http://www.w3.org/2000/svg">
  <defs
     id="defs1" />
  <g
     id="g1"
     transform="translate(-262.08304,-272.01234)">
    <path
       d="M 384,668.35216 C 348.43829,663.01118 322.68995,647.2238 304.73256,619.75 L 299.66702,612 h -11.88317 c -13.28623,0 -15.56901,-0.71341 -20.59333,-6.43579 -5.07787,-5.78337 -5.3531,-8.41898 -5.00392,-47.91791 0.35577,-40.24572 0.38406,-40.42812 7.19924,-46.41192 4.54028,-3.98642 11.591,-4.68876 16.36416,-1.63009 2.23859,1.4345 2.25,1.57358 2.25,27.41876 V 563 h 21.98315 21.98316 l 2.50227,4.93799 c 2.87523,5.67401 7.29618,9.39161 13.03142,10.95823 5.35998,1.46411 323.35694,1.54902 328.61763,0.0878 5.9882,-1.66336 10.14343,-5.14714 12.82683,-10.7541 L 691.44738,563 H 713.72369 736 v -25.42742 -25.42742 l 2.75,-2.17093 c 2.1821,-1.72262 3.70454,-2.08022 7.37224,-1.73165 6.01443,0.57159 10.59169,3.90954 13.25382,9.66527 2.02626,4.38096 2.13755,6.30938 2.41979,41.93172 0.29062,36.67993 0.25716,37.41948 -1.89411,41.86341 -1.472,3.04074 -3.6822,5.4702 -6.74163,7.41044 C 748.78739,611.88651 748.13179,612 736.48456,612 h -12.12388 l -5.66195,8.3353 c -18.22561,26.83106 -40.64458,41.27025 -72.54597,46.72406 -10.85002,1.85491 -16.83617,1.93462 -135.50213,1.80446 C 442.36778,668.78892 385.375,668.55867 384,668.35216 Z M 503.35488,556.00668 c -139.01385,-0.48528 -145.23079,-0.58422 -147.17331,-2.34226 -1.1155,-1.00957 -3.23793,-3.58125 -4.71651,-5.71483 C 346.6565,541.01083 342.99689,540 322.68428,540 H 305 l 0.0309,-24.75 c 0.0349,-27.97613 0.69885,-34.77676 5.04929,-51.71778 4.558,-17.74925 6.29394,-22.38146 15.37702,-41.03222 10.13876,-20.81843 18.85715,-33.97653 33.89535,-51.15603 12.75349,-14.56947 23.55819,-24.45787 37.73471,-34.53459 l 9.41275,-6.69061 0.5,55.69061 c 0.5279,58.79789 0.4871,58.31711 5.23024,61.63934 4.2848,3.00118 13.34105,1.08937 15.69756,-3.31382 0.59863,-1.11855 1.23876,-26.39957 1.62657,-64.23965 0.35171,-34.31739 0.93336,-62.66589 1.29255,-62.99668 1.45495,-1.33987 23.39704,-9.95916 30.03757,-11.79935 L 468,303.12742 v 100.96841 c 0,105.96314 -0.032,105.14673 4.25587,108.70256 2.70928,2.24677 8.17474,2.56564 12.09445,0.70561 2.71464,-1.28818 3.86581,-2.6218 4.62622,-5.35945 0.65438,-2.35593 1.01428,-42.11337 1.01788,-112.44421 0.006,-120.61715 -0.53845,-111.2658 6.87006,-117.95894 8.23504,-7.43987 20.92766,-7.65854 29.60012,-0.50997 7.59314,6.25891 6.97762,-3.57895 7.5354,120.43827 l 0.5,111.1697 2.40993,2.56499 c 3.12397,3.32497 7.77235,4.17303 12.362,2.25535 7.1489,-2.987 6.72807,3.83367 6.72807,-109.04637 V 303.12742 l 6.83836,1.895 c 3.76109,1.04226 12.31109,4.20631 19,7.03123 L 594,317.18987 v 61.00393 c 0,54.39048 0.17723,61.37744 1.63484,64.44912 4.35062,9.16824 17.55992,8.23169 20.40278,-1.44657 0.73954,-2.51769 0.98636,-20.83581 0.77407,-57.44674 -0.17143,-29.56271 -0.16595,-53.75021 0.0122,-53.75 0.17812,2.1e-4 4.90312,3.13671 10.5,6.97 34.43964,23.58763 64.40454,62.35858 79.17962,102.44881 C 716.01334,465.22217 719,483.75775 719,516.9733 v 22.87087 l -18.92955,0.32792 c -21.51503,0.3727 -21.43011,0.34442 -28.27645,9.41688 -4.4296,5.86991 -7.96093,7.36522 -16.794,7.11127 -3.575,-0.10278 -71.8153,-0.41488 -151.64512,-0.69356 z"
       id="path1" />
  </g>
</svg>
