<?xml version="1.0" encoding="UTF-8" standalone="no"?>
<!-- Created with Inkscape (http://www.inkscape.org/) -->

<svg
   version="1.1"
   id="svg1"
   width="579.72607"
   height="483.50085"
   fill="currentColor"
   stroke="currentColor"
   viewBox="0 0 579.72607 483.50085"
   xmlns="http://www.w3.org/2000/svg"
   xmlns:svg="http://www.w3.org/2000/svg">
  <defs
     id="defs1" />
  <g
     id="g1"
     transform="translate(-221.15574,-221.11578)">
    <path
       d="m 285.5,703.99009 c -24.47094,-2.65571 -44.71229,-14.9511 -54.9556,-33.3822 -5.80987,-10.45388 -6.54648,-15.33469 -6.52755,-43.25223 l 0.0168,-24.85566 2.16609,3.5 c 8.3219,13.44666 21.28391,23.45863 37.77774,29.17987 14.14302,4.90582 9.13527,4.80834 247.02248,4.80834 189.06581,0 223.92753,-0.21734 232,-1.44637 19.86646,-3.02467 33.90496,-10.08354 45.7395,-22.99885 3.31527,-3.61804 6.69563,-7.95722 7.51189,-9.64262 l 1.48411,-3.06435 0.51762,2.70774 c 0.28469,1.48925 0.58779,11.53865 0.67357,22.33199 0.25037,31.50319 -2.60724,40.79504 -17.03324,55.38566 -6.36951,6.44219 -9.27216,8.51854 -17.0772,12.21582 -5.17184,2.44993 -13.20875,5.47223 -17.8598,6.71622 l -8.45645,2.26181 -223,0.14726 c -122.65,0.081 -226.15,-0.1946 -230,-0.61243 z m -12,-83.50606 c -23.21006,-4.30909 -38.14742,-16.0442 -44.03522,-34.59499 -0.61548,-1.93922 -0.0354,-1.68512 3.79128,1.66071 9.08585,7.94418 23.01969,14.76085 36.99748,18.0998 6.55136,1.56496 17.41854,1.78469 113.29117,2.29073 l 106.0447,0.55972 6.55517,5.21664 c 3.60534,2.86915 7.12782,5.90665 7.82773,6.75 1.14229,1.37637 -10.23218,1.52228 -111.09987,1.42517 -87.54897,-0.0843 -113.91876,-0.39527 -119.37244,-1.40778 z m 244.43889,0.0896 c 0.68052,-0.81998 4.28526,-3.98449 8.01053,-7.03225 L 532.72264,608 h 100.41491 c 63.40598,0 103.53801,-0.38323 108.88868,-1.0398 20.94783,-2.57047 37.84465,-9.7869 48.5969,-20.75517 3.27908,-3.34495 3.56042,-3.46207 2.89484,-1.20503 -4.96887,16.84998 -18.10069,28.37009 -39.01797,34.22918 l -8,2.24087 -114.89921,0.29723 c -101.72909,0.26316 -114.75739,0.12634 -113.6619,-1.19365 z M 483.5,572.83328 C 468.65,560.70004 447.95,544.01621 437.5,535.7581 418.46562,520.71619 411,514.44542 411,513.49932 c 0,-0.96336 199.95054,-0.38837 200.54698,0.5767 0.31888,0.51596 -0.1637,1.22341 -1.0724,1.57211 -2.25736,0.86623 -39.0699,30.09415 -68.35431,54.27102 -17.61264,14.54079 -30.77868,25.09051 -31.23455,25.02771 C 510.67357,594.91763 498.35,584.96652 483.5,572.83328 Z m -203.59175,14.6338 c -26.32478,-4.10327 -45.25071,-17.19537 -53.30359,-36.87301 -1.92386,-4.70106 -2.12405,-7.62084 -2.59468,-37.84512 -0.28049,-18.01307 -0.45155,-32.75057 -0.38013,-32.75 0.0714,5.8e-4 2.01832,2.5023 4.32645,5.55939 8.37652,11.09462 27.34421,22.00867 44.34737,25.51756 8.26406,1.70544 13.97105,1.89916 56.29629,1.91096 l 47.09996,0.0131 4.40004,3.16973 c 4.02725,2.90118 28.06683,21.89456 30.39671,24.01608 0.5974,0.54397 -25.84294,0.78166 -66,0.59332 L 277.5,540.46491 l -7,-2.32826 c -13.06035,-4.34399 -25.25955,-13.18788 -29.46685,-21.3622 l -2.20004,-4.27445 0.43554,7 c 0.80598,12.95374 8.46429,23.35202 22.05372,29.94404 13.356,6.47877 14.45163,6.55461 94.88547,6.56792 l 72.29216,0.0119 10.09549,7.73805 c 18.07401,13.85347 30.30809,23.72238 30.3568,24.48804 0.0262,0.4125 -40.56479,0.70642 -90.20229,0.65314 -70.06822,-0.0752 -92.17129,-0.39632 -98.84175,-1.43606 z M 556.46341,585.75 c 2.1555,-1.7875 11.34541,-9.19664 20.42203,-16.46476 l 16.50294,-13.21476 76.05581,-0.28524 L 745.5,555.5 l 7.89139,-2.7904 C 772.62607,545.90822 781.49319,535.375 783.45261,517 l 0.58649,-5.5 -2.1264,4.24121 c -2.88654,5.75733 -12.50606,14.44098 -20.18523,18.22142 -13.46369,6.62816 -10.59101,6.39541 -83.69105,6.7808 -36.55497,0.19272 -66.25497,0.14497 -66,-0.10611 0.25497,-0.25108 7.80202,-6.51665 16.77123,-13.92348 l 16.30764,-13.46697 47.69236,-0.17326 c 51.67036,-0.18771 54.59362,-0.43593 70.20836,-5.96155 4.29822,-1.52102 10.3985,-4.30597 13.55618,-6.18877 5.92832,-3.53484 16.49406,-13.15482 20.23453,-18.42329 l 2.12992,-3 0.0143,28.5 c 0.0201,39.95693 -1.74887,46.92945 -15.37434,60.60007 -10.70326,10.73874 -25.11561,16.86557 -45.55039,19.36393 C 732.76663,588.60703 695.982,589 641.04837,589 H 552.54431 Z M 276.23325,492.43267 c -7.98891,-1.75832 -20.4091,-6.71249 -26.33108,-10.50295 -5.90278,-3.77817 -15.76212,-14.07737 -19.32743,-20.1897 -5.42881,-9.30711 -5.88768,-12.19953 -6.50301,-40.9914 -0.31445,-14.71326 -0.49937,-26.75076 -0.41094,-26.75 0.0884,7.6e-4 1.14897,2.04266 2.35673,4.53756 5.11848,10.57338 19.87895,22.57904 34.86565,28.35852 16.84239,6.49511 2.41463,6.16187 254.14422,5.87011 L 743.5,432.5 l 8,-2.2659 c 19.54583,-5.53611 34.83049,-15.98801 43.40332,-29.67988 L 798,395.60844 l 0.0833,3.94578 c 0.0458,2.17018 0.21622,5.07078 0.37862,6.44578 0.16241,1.375 -0.0377,11.725 -0.44461,23 -0.82846,22.95372 -1.58226,26.05136 -8.99617,36.96883 -7.75953,11.42641 -20.39595,19.80986 -38.02117,25.2246 l -7.5,2.30411 -230.5,0.15721 c -192.65847,0.13139 -231.52882,-0.0692 -236.76675,-1.22208 z m 4.10336,-72.46889 c -2.28987,-0.45645 -7.01487,-1.72257 -10.5,-2.81358 -37.87469,-11.85661 -56.29376,-40.85678 -45.73507,-72.00823 6.21858,-18.34677 28.06771,-40.15223 56.14846,-56.03624 5.55529,-3.14237 5.75059,-3.39394 5.76736,-7.42912 0.0253,-6.08458 2.55994,-17.09099 5.1788,-22.48838 1.25113,-2.57853 5.69801,-8.15947 9.88195,-12.40209 6.4143,-6.50425 9.23916,-8.50577 18.01454,-12.76402 11.60449,-5.63108 27.75518,-10.14126 42.90735,-11.98214 6.89217,-0.83736 49.57824,-1.06862 155.5,-0.84245 l 146,0.31173 10.28032,2.27781 c 22.71161,5.03219 36.79149,11.9074 48.44765,23.65698 8.71576,8.78562 12.7353,17.85171 14.34253,32.34962 0.63623,5.73909 0.97228,6.43369 3.81361,7.88272 10.96905,5.59402 26.92176,17.53083 37.11589,27.77241 16.00495,16.07945 22.3788,28.02162 23.26663,43.59284 0.79627,13.96547 -2.50009,24.35494 -10.99562,34.65603 -8.97925,10.88759 -22.1096,18.80887 -39.7845,24.0012 l -9.48651,2.78684 -228,0.154 c -125.4,0.0847 -229.87353,-0.21947 -232.16339,-0.67593 z m 455.44135,-27.55295 c 13.75596,-2.84137 25.59367,-10.50581 30.30456,-19.62099 2.34648,-4.54024 2.52031,-12.82977 0.39535,-18.85255 -4.97448,-14.09919 -27.61631,-34.01227 -58.65668,-51.58748 -5.41212,-3.06436 -10.07795,-5.95624 -10.36852,-6.4264 -0.29057,-0.47015 0.48087,-2.78275 1.71432,-5.13911 3.01701,-5.76366 3.07238,-14.71665 0.12545,-20.2843 -4.19827,-7.9318 -11.73382,-13.40024 -23.94219,-17.37447 C 657.57937,247.3405 663.43684,247.53971 510.5,247.51905 l -141,-0.019 -10.38335,2.29611 c -25.01674,5.53205 -37.04456,14.70798 -37.95161,28.953 -0.33579,5.27344 0.0284,7.12587 2.32251,11.81496 1.4964,3.05854 2.56137,5.71114 2.36659,5.89466 -0.19478,0.18353 -4.98924,2.85898 -10.65436,5.94545 -26.79076,14.59615 -50.1803,33.95739 -57.68908,47.7535 -3.12873,5.74851 -4.25269,14.06404 -2.58425,19.11945 3.65143,11.06395 17.69823,21.0056 33.37566,23.62169 2.85884,0.47706 102.97936,0.91998 222.49005,0.98428 194.96886,0.10489 218.08256,-0.0464 224.9858,-1.47227 z M 544.22251,367.4433 C 541.46363,365.51091 541.3773,362.6227 544,360 c 1.72969,-1.72969 3.33333,-2 11.86514,-2 8.4661,0 10.23881,0.29393 12.5,2.07258 3.21921,2.53223 3.37385,5.2964 0.41235,7.37072 C 567.12369,368.60167 563.98208,369 556.5,369 c -7.48208,0 -10.62369,-0.39833 -12.27749,-1.5567 z m -208,-1 C 334.98151,365.57407 334,363.83262 334,362.5 c 0,-4.22425 3.36334,-5.5 14.5,-5.5 11.05961,0 14.5,1.28166 14.5,5.40172 0,4.5135 -2.73338,5.59828 -14.10623,5.59828 -7.83848,0 -11.00398,-0.38889 -12.67126,-1.5567 z m 129.9429,-11.03999 c -3.02699,-2.12019 -2.58759,-6.39277 0.83459,-8.1154 1.49328,-0.75167 6.44453,-1.26436 12.29545,-1.27317 9.11802,-0.0137 9.96789,0.15769 12.28877,2.47857 2.15275,2.15275 2.33098,2.80155 1.30484,4.75 -1.84264,3.49885 -2.68399,3.72504 -13.91655,3.74138 -8.0415,0.0117 -11.06581,-0.36174 -12.8071,-1.58138 z m -74.51042,-2.23205 c -2.30458,-2.54653 -2.06425,-5.7712 0.56752,-7.61456 C 393.87631,344.39833 397.01792,344 404.5,344 c 11.05961,0 14.5,1.28166 14.5,5.40172 0,4.57018 -2.69476,5.59828 -14.67375,5.59828 -9.4024,0 -11.25873,-0.26791 -12.67126,-1.82874 z m 230.66038,0.82176 c -3.45556,-1.39228 -4.75905,-4.66694 -2.95417,-7.42153 1.78434,-2.72324 5.38683,-3.57667 15.0138,-3.55675 9.27534,0.0192 12.125,1.42587 12.125,5.98526 0,2.66639 -0.56275,3.72564 -2.5,4.70573 -2.85037,1.44205 -18.31022,1.64687 -21.68463,0.28729 z M 675,345 c -3.89362,-3.89362 -1.7752,-8.38874 4.50895,-9.56766 1.89456,-0.35542 7.00923,-0.48434 11.36594,-0.28649 6.02867,0.27377 8.4235,0.81421 10.0232,2.26192 2.82198,2.55386 2.64733,5.01804 -0.53295,7.51965 -2.2807,1.794 -4.02806,2.07258 -13,2.07258 -9.03181,0 -10.62241,-0.25727 -12.36514,-2 z M 531.25,326.50913 C 528.62238,325.36706 528,324.52365 528,322.10498 528,317.37209 530.95712,316 541.15741,316 c 9.74775,0 13.19848,0.92794 14.83719,3.98991 1.50042,2.80356 0.5086,5.45979 -2.56087,6.85833 -3.53825,1.61213 -18.21044,1.38785 -22.18373,-0.33911 z M 411,310.29056 c -4.83236,-1.77682 -6.29608,-5.80765 -3.1446,-8.65969 2.21725,-2.0066 12.82701,-3.2055 19.50501,-2.20407 5.32267,0.79818 7.63959,2.67719 7.63959,6.19566 0,3.58608 -5.02984,5.39688 -14.71788,5.29859 -4.28017,-0.0434 -8.45712,-0.32714 -9.28212,-0.63049 z m 179.16541,-1.88725 c -3.02699,-2.12019 -2.58759,-6.39277 0.83459,-8.1154 1.47873,-0.74435 6.39207,-1.26445 12.02749,-1.27317 C 613.60999,298.99837 617,300.3292 617,304.5 c 0,4.22425 -3.36334,5.5 -14.5,5.5 -7.58993,0 -10.61385,-0.39144 -12.33459,-1.59669 z M 498,297.71209 c -3.22584,-1.6238 -3.77767,-5.69834 -1.09994,-8.12165 1.46109,-1.32226 4.21587,-1.93962 10.29733,-2.30767 10.35239,-0.62653 14.8125,0.45889 16.79949,4.08838 1.43236,2.61639 1.37105,2.86056 -1.30264,5.18724 -2.56347,2.23076 -3.64294,2.44034 -12.5,2.42687 -5.76953,-0.009 -10.70637,-0.52422 -12.19424,-1.27317 z M 386.272,280.78932 c -4.55635,-2.19906 -3.62449,-8.09094 1.50686,-9.52751 1.49663,-0.419 6.84237,-0.7564 11.87943,-0.74979 7.5714,0.01 9.52074,0.34002 11.25,1.90499 2.72406,2.46523 2.66535,6.06779 -0.1308,8.02629 -2.63943,1.84873 -20.85892,2.106 -24.50549,0.34602 z"
       id="path1" />
  </g>
</svg>
