<?xml version="1.0" encoding="UTF-8" standalone="no"?>
<!-- Created with Inkscape (http://www.inkscape.org/) -->

<svg
   version="1.1"
   id="svg1"
   fill="currentColor"
   stroke="currentColor"
   width="1024"
   height="1024"
   viewBox="0 0 1024 1024"
   xmlns="http://www.w3.org/2000/svg"
   xmlns:svg="http://www.w3.org/2000/svg">
  <defs
     id="defs1" />
  <g
     id="g1">
    <path
       d="m 432.3898,798.93345 c -50.56443,-3.2289 -96.75055,-20.09809 -129.5775,-47.32736 -20.17446,-16.73428 -44.95294,-54.89681 -55.67708,-85.75092 -19.5401,-56.21825 -19.53458,-130.5367 0.0144,-194.12278 30.3321,-98.65973 97.61547,-173.85517 192.87835,-215.55954 51.1759,-22.40389 109.44098,-32.27208 157.41263,-26.66054 42.91136,5.01961 83.39204,21.77918 113.37274,46.9379 33.12036,27.79342 55.77071,76.12702 65.39657,139.54979 2.05191,13.51963 1.70875,71.26847 -0.51401,86.5 -8.70089,59.623 -28.07376,110.25129 -58.73666,153.5 -32.58263,45.95642 -72.24499,80.36841 -122.00516,105.85453 -34.08395,17.45709 -70.28631,29.22196 -106.5648,34.63094 -8.6374,1.2878 -40.13435,3.75852 -42.8893,3.36437 -0.55,-0.0787 -6.44959,-0.49106 -13.1102,-0.91639 z m 48.0255,-66.88928 c 9.03182,-2.09483 13.99687,-12.15864 10.07551,-20.4223 -2.88562,-6.08098 -6.1382,-7.64218 -19.28336,-9.25576 -28.40961,-3.4873 -50.45543,-11.36715 -71.96543,-25.72267 -13.624,-9.0925 -33.77574,-28.38602 -53.74202,-51.45329 -6.6,-7.62505 -13.125,-14.72467 -14.5,-15.77694 -3.68,-2.81625 -14.79461,-2.70239 -18.67667,0.19132 -6.83356,5.09379 -8.78247,14.39816 -4.32333,20.64017 4.79372,6.71036 26.91543,31.33754 38.16623,42.48888 34.92584,34.61709 74.87547,54.57318 118.44855,59.16875 10.97617,1.15763 11.40439,1.16148 15.80052,0.14184 z m -197.98673,-78.6156 c 1.23202,-1.23201 1.57195,-3.8779 1.57386,-12.25 0.01,-43.72856 11.9151,-106.1694 27.96618,-146.67857 11.75431,-29.66513 32.9036,-64.64872 52.89803,-87.5 32.31674,-36.93421 66.58158,-63.05019 109.63336,-83.56036 39.51929,-18.82727 94.29969,-32.24172 144.8076,-35.46002 28.82777,-1.83687 29.59927,-1.93709 30.69668,-3.98761 1.52969,-2.85826 0.26529,-4.63362 -4.82582,-6.77603 -19.53354,-8.21996 -41.59668,-11.73529 -68.67516,-10.94203 -19.52549,0.572 -28.32476,1.84796 -50.35483,7.3018 C 465.2918,288.64164 407.24531,321.59257 362.5,366.47316 342.15623,386.87843 320.45082,415.02677 306.95953,438.5 c -21.99078,38.26133 -37.60479,83.38752 -42.00084,121.38703 -1.76486,15.25548 -0.70599,48.73282 1.94879,61.61297 3.95352,19.18119 9.53573,33.5 13.06005,33.5 0.48929,0 1.59676,-0.70714 2.46104,-1.57143 z m 153.17036,-6.334 c 6.92731,-3.14601 10.39278,-9.99478 8.94968,-17.68715 -0.58234,-3.10415 -5.48974,-8.56552 -32.15023,-35.77954 -17.30465,-17.66392 -33.13596,-33.12903 -35.18069,-34.36692 -6.83514,-4.13803 -16.46491,-1.93562 -21.31434,4.87477 -3.04613,4.2779 -3.72333,12.37793 -1.409,16.85334 2.66539,5.15429 62.25552,63.97746 67.00565,66.14324 5.0823,2.31723 8.93614,2.30692 14.09893,-0.0377 z m 66.41667,-59.91856 c 3.95786,-2.07184 7.9844,-8.91629 7.9844,-13.57218 0,-6.50663 -3.73115,-10.89917 -39.71827,-46.75872 -30.50531,-30.39717 -36.40844,-35.83972 -40.03173,-36.90829 -11.70215,-3.45116 -23.49362,8.01728 -20.32851,19.77161 0.92719,3.44331 6.49378,9.42145 37.61928,40.40048 20.09209,19.99755 37.52741,36.91291 38.74515,37.5897 3.33889,1.85566 11.71827,1.57727 15.72968,-0.5226 z M 686.82449,523.3251 c 4.09738,-2.99269 5.98835,-7.88289 7.27732,-18.81977 2.81307,-23.86879 -0.62526,-53.30053 -9.09703,-77.86958 -11.98727,-34.7644 -31.24945,-60.73136 -71.66345,-96.60806 -19.07059,-16.92953 -24.24919,-18.89912 -33.47958,-12.73341 -6.77145,4.5232 -8.74317,14.32643 -4.13723,20.56996 1.06944,1.44967 11.35642,11.23315 22.85996,21.74107 23.17179,21.1663 33.72913,32.5072 42.11451,45.24028 10.15187,15.41545 18.0897,35.22071 21.91972,54.69069 1.75782,8.93594 2.41082,30.99182 1.43768,48.55939 -0.49471,8.93069 1.24722,12.97036 6.94361,16.10277 4.34618,2.38994 11.92965,1.97142 15.82449,-0.87334 z M 560.03399,522.75 c 5.01187,-2.52967 8.93926,-8.36134 8.92334,-13.25 -0.005,-1.65 -0.78548,-4.65832 -1.73355,-6.68515 -2.56356,-5.48047 -70.90211,-74.36467 -75.81002,-76.41533 -9.43871,-3.94374 -21.52906,2.37383 -23.10284,12.07194 -1.44127,8.88151 -1.87117,8.33425 36.01944,45.85324 19.3433,19.15358 37.17024,36.14108 39.61542,37.75 5.43096,3.57354 9.96875,3.76402 16.08821,0.6753 z m 54.94608,-64.50155 c 7.19278,-3.61378 10.59662,-12.93227 7.34385,-20.10482 C 620.17437,433.40374 564.0076,375.54407 557,370.8508 c -3.98244,-2.66719 -5.16287,-2.96824 -10.26344,-2.61753 -6.08166,0.41818 -9.52602,2.26475 -13.06441,7.00403 -2.77716,3.7197 -3.34228,11.55929 -1.14235,15.8471 2.10546,4.10368 61.48066,63.76111 66.4702,66.78615 4.32734,2.62357 11.18743,2.7858 15.98007,0.3779 z"
       id="path1" />
  </g>
</svg>
