<?xml version="1.0" encoding="UTF-8" standalone="no"?>
<!-- Created with Inkscape (http://www.inkscape.org/) -->

<svg
   version="1.1"
   id="svg1"
   width="607.85901"
   height="673.43939"
   fill="currentColor"
   stroke="currentColor"
   viewBox="0 0 607.85901 673.43939"
   xmlns="http://www.w3.org/2000/svg"
   xmlns:svg="http://www.w3.org/2000/svg">
  <defs
     id="defs1" />
  <g
     id="g1"
     transform="translate(-214.96677,-181.5)">
    <path
       d="m 259.1906,852.97502 c -10.45667,-2.73935 -16.63154,-6.38843 -25.30586,-14.95466 -7.86857,-7.77051 -12.64995,-15.59042 -16.52225,-27.02202 C 215.56719,805.69835 215.49038,795.99412 215.23338,542 L 214.96677,278.5 263.73338,230 312.5,181.5 l 0.25619,77.33127 c 0.1409,42.5322 0.60219,77.1822 1.02508,77 0.42288,-0.1822 7.10723,-6.90709 14.8541,-14.94421 l 14.08522,-14.61293 0.73175,-9.35398 c 0.40246,-5.14469 0.5946,-32.76887 0.42699,-61.38707 L 343.57457,183.5 373.03728,182.79396 C 389.24178,182.40564 486.2,182.22611 588.5,182.39501 l 186,0.30708 5.7753,2.1038 c 16.56693,6.03492 29.13076,16.69343 36.3827,30.8652 2.28689,4.46907 4.65554,10.53383 5.26365,13.47725 0.79616,3.85358 1.03186,85.5508 0.84201,291.85166 L 822.5,807.5 l -2.23834,5.93216 C 814.42665,828.8964 802.7049,842.17078 789,848.83464 c -5.09349,2.47665 -11.10497,4.53724 -15,5.14164 -4.24777,0.65913 -93.29751,0.99215 -257,0.9611 -243.49364,-0.0462 -250.70444,-0.10106 -257.8094,-1.96236 z M 769.62615,809.5 c 4.49619,-3.09349 6.50045,-5.34371 8.8438,-9.92912 L 781.5,793.64175 781.76116,576.819 782.02232,359.99625 519.26116,360.24812 256.5,360.5 v 217 217 l 2.71557,5.14882 c 3.27908,6.21723 8.71164,10.9275 14.78443,12.81876 3.81425,1.18788 41.4782,1.37332 247.1562,1.21693 L 763.8124,813.5 Z M 288,587 V 391 H 394 500 V 587 783 H 394 288 Z m 175.81018,155.97437 c 6.04578,-3.68602 8.15879,-14.23261 4.16419,-20.78455 -3.85936,-6.3301 -2.17018,-6.1902 -74.69225,-6.18608 -63.4798,0.004 -65.89417,0.0721 -68.98357,1.95578 -8.6228,5.25763 -8.87226,20.11468 -0.42575,25.35677 2.35948,1.46434 9.45467,1.63282 69.6272,1.65336 65.46174,0.0223 67.076,-0.0235 70.31018,-1.99528 z m 1.89898,-68.34664 c 3.38636,-3.10337 3.70848,-3.88084 4.0396,-9.75 0.42899,-7.60381 -1.55267,-11.60773 -7.03183,-14.20777 -3.17649,-1.50734 -9.83408,-1.66782 -68.36806,-1.648 -61.48067,0.0208 -65.06556,0.12035 -69.02091,1.91621 -4.91876,2.23327 -6.98335,5.036 -7.88882,10.70925 -0.8634,5.40963 0.91372,10.63026 4.70434,13.81985 L 325.15345,678 h 68.43796 68.43796 z M 463,611.24845 c 8.87386,-4.43299 9.37393,-20.00164 0.81018,-25.22282 -3.23249,-1.97079 -4.87087,-2.01815 -69.81018,-2.01815 -64.15434,0 -66.61272,0.0687 -69.69567,1.94852 -1.75761,1.07168 -3.99154,3.16318 -4.96428,4.64777 -2.41181,3.68089 -2.3358,11.92451 0.14861,16.11754 3.82004,6.44721 1.26125,6.23098 74.01134,6.25437 60.85917,0.0196 66.27262,-0.11498 69.5,-1.72723 z m 1.27427,-65.50787 c 4.29798,-2.8173 6.00709,-7.17406 5.51003,-14.04584 -0.38767,-5.35955 -0.81525,-6.335 -4.09391,-9.33966 L 462.02937,519 h -67.56434 c -75.89017,0 -72.03016,-0.37395 -75.52165,7.31632 -2.3871,5.25774 -2.40191,9.07745 -0.0553,14.24396 3.56376,7.84611 -0.0346,7.50345 75.65695,7.20451 62.04032,-0.24502 67.24544,-0.39613 69.72919,-2.02421 z m -0.24154,-65.25751 c 8.0881,-4.18251 7.94894,-19.47541 -0.22255,-24.45744 -3.23326,-1.97126 -4.87214,-2.01824 -70.52538,-2.02189 L 326.06959,454 l -3.52085,3.09135 c -6.60933,5.80307 -7.09309,15.5643 -1.06987,21.58752 L 324.8,482 h 68.14966 c 58.9596,0 68.54523,-0.20456 71.08307,-1.51693 z M 531.99086,782.75 c -0.005,-0.1375 -0.0594,-88.225 -0.1208,-195.75 L 531.75839,391.5 640.87919,391.24558 750,390.99115 V 586.99558 783 H 641 c -59.95,0 -109.00411,-0.1125 -109.00914,-0.25 z m 181.71059,-39.70952 c 4.25104,-2.59201 6.49696,-7.21041 6.45007,-13.26363 -0.0423,-5.45691 -1.75477,-8.81529 -5.87068,-11.51292 -2.49263,-1.63371 -7.71453,-1.78638 -70.73608,-2.06802 -46.33254,-0.20705 -69.21782,0.038 -71.72106,0.76807 -7.13952,2.08214 -11.35217,10.87468 -8.84704,18.4653 0.63,1.90891 2.70863,4.84324 4.61919,6.52074 L 571.06959,745 640.7848,744.996 c 67.38068,-0.004 69.82241,-0.0691 72.91665,-1.95578 z m 1.80895,-68.35088 c 7.64092,-7.64092 6.20505,-19.64538 -2.84108,-23.75265 -3.95585,-1.7961 -7.5886,-1.89415 -70.95144,-1.91499 -73.09526,-0.024 -70.86809,-0.19745 -76.01457,5.91879 -2.33314,2.77278 -2.70331,4.10594 -2.70331,9.73598 0,6.08529 0.22828,6.75155 3.4,9.92327 l 3.4,3.4 h 71.2 71.2 z m -2.92729,-63.29606 C 717.46725,609.07586 720,604.42256 720,597.76682 c 0,-4.06038 -0.5458,-6.19097 -2.0883,-8.15194 C 713.33147,583.79205 716.17261,584 641.19754,584 h -68.90177 l -3.38332,2.28002 c -1.86082,1.254 -3.94573,3.3915 -4.63314,4.75 -1.72555,3.41014 -1.59355,12.46163 0.23326,15.99429 3.15668,6.10434 0.44127,5.89181 75.8363,5.93565 61.20939,0.0356 69.22451,-0.13821 72.23424,-1.56642 z m -2.59353,-64.04146 c 1.78177,-0.35635 4.76302,-2.17135 6.625,-4.03333 3.15078,-3.15078 3.38542,-3.83463 3.38542,-9.86677 0,-5.98523 -0.262,-6.76727 -3.42283,-10.21667 L 713.15434,519.5 642.56566,519.23027 c -79.86991,-0.30519 -75.11793,-0.75733 -78.76814,7.49456 -1.52127,3.43909 -1.8722,5.71367 -1.40613,9.11404 0.77854,5.68002 2.52348,8.37809 6.7725,10.47175 2.99333,1.47494 10.233,1.64618 70.46111,1.66661 36.91875,0.0125 68.58281,-0.26879 70.36458,-0.62515 z m 3.91158,-66.80097 c 4.07109,-2.10524 6.45535,-6.33165 6.51227,-11.54385 0.0622,-5.6943 -1.9756,-9.80129 -6.31131,-12.71993 L 710.70423,454 h -69.44782 c -62.49407,0 -69.72506,0.16377 -72.21658,1.63554 -4.99039,2.9479 -6.59108,7.2857 -6.16778,16.71446 0.0805,1.79264 1.38937,4.11142 3.52795,6.25 l 3.4,3.4 h 70.64966 c 59.73615,0 71.08247,-0.22381 73.4515,-1.44889 z M 782,263.67814 c 0,-20.78863 -0.99842,-24.7718 -7.95238,-31.72576 -8.6326,-8.6326 6.27195,-7.95501 -174.47576,-7.93204 L 439.5,224.04067 410.70996,252.52034 381.91993,281 H 581.95996 782 Z"
       id="path1" />
  </g>
</svg>
