<?xml version="1.0" encoding="UTF-8" standalone="no"?>
<!-- Created with Inkscape (http://www.inkscape.org/) -->

<svg
   version="1.1"
   id="svg1"
   fill='currentColor'
   stroke='currentColor'
   width="635.82959"
   height="538.5"
   viewBox="0 0 635.82959 538.5"
   xmlns="http://www.w3.org/2000/svg"
   xmlns:svg="http://www.w3.org/2000/svg">
  <defs
     id="defs1" />
  <g
     id="g1"
     transform="translate(-199.00434,-228.5)">
    <path
       id="path1"
       d="m 517.50021,228.5 c -260.22053,0 -271.2367,0.0728 -276.95703,1.83789 -23.04786,7.11169 -37.82544,24.96953 -40.5957,49.05859 -1.00085,8.70292 -1.32919,82.88762 -0.37109,83.84571 0.31675,0.31677 143.30478,0.50557 317.75,0.41797 L 834.50021,363.5 V 320 c 0,-47.55237 -0.0567,-48.12864 -5.98242,-60.5 -5.80181,-12.11268 -19.5473,-23.92273 -33.42578,-28.7207 l -6.5918,-2.2793 z m -318,163 V 530 668.5 l 2.33204,7.5 c 4.45948,14.34442 15.01904,27.82195 26.80859,34.2168 8.70731,4.72295 15.03096,5.7832 34.49805,5.7832 h 17.71679 l -0.54687,5.30664 -0.54883,5.30664 12.25391,9.69336 C 300.2047,742.78606 305.10636,746 306.79904,746 c 1.87496,0 5.47414,-2.87488 13.86914,-11.07812 12.978,-12.68158 10.70065,-12.12676 26.83203,-6.53907 l 9,3.11719 1.12696,8 c 0.61996,4.4 1.58915,11.79929 2.15429,16.44336 0.74373,6.1116 1.52146,8.80453 2.81446,9.75 1.29701,0.94839 6.24803,1.30664 18.07226,1.30664 15.79169,0 16.32913,-0.0683 17.73828,-2.25 0.88417,-1.36893 2.04553,-8.26355 2.96485,-17.60742 0.83106,-8.44679 1.68134,-15.52705 1.88867,-15.73438 0.20733,-0.20733 4.84609,-1.66736 10.30859,-3.24218 5.46249,-1.57484 10.96156,-3.19132 12.22071,-3.59375 1.96913,-0.62934 3.95715,0.89889 14.21093,10.92773 10.22918,10.00478 12.24576,11.55741 14.20508,10.93555 2.88399,-0.91534 25.70093,-19.02648 26.45899,-21.00196 0.76917,-2.00439 -0.84851,-5.61599 -8.38477,-18.72851 -3.93318,-6.84341 -6.11626,-11.64422 -5.60937,-12.33203 0.45648,-0.6194 3.53008,-4.98792 6.83007,-9.70899 6.95807,-9.95439 5.77073,-9.60259 24.21289,-7.16601 13.56537,1.79226 15.4472,1.29432 17.69336,-4.68164 3.32292,-8.84066 8.35904,-27.99518 7.86133,-29.89844 -0.34511,-1.31973 -4.76929,-4.13369 -13.39062,-8.51758 l -12.87696,-6.54883 v -12.75 -12.75 l 11.3125,-6.67578 c 11.73273,-6.92483 15.6875,-9.92963 15.6875,-11.91797 0,-0.64051 -2.11966,-7.63315 -4.71093,-15.53906 -3.38952,-10.34139 -5.28339,-14.68299 -6.75,-15.47266 -2.63752,-1.4201 -7.69796,-1.08953 -20.03907,1.30664 -5.50028,1.06796 -10.54295,1.94136 -11.20703,1.94336 -1.13819,0.003 -9.90091,-10.34952 -13.67383,-16.15429 -1.71417,-2.63734 -1.68273,-2.73592 4.22657,-13 9.44756,-16.40985 9.77393,-17.24755 7.84375,-20.19336 -2.09331,-3.19483 -25.33037,-20.64362 -27.52149,-20.66602 -0.91768,-0.009 -6.84299,5.34898 -13.16797,11.90625 l -11.5,11.92188 -4.5,-1.97071 c -2.47499,-1.08395 -7.62327,-2.83685 -11.43945,-3.89453 -3.81619,-1.05768 -7.27169,-2.26478 -7.67969,-2.68359 -0.408,-0.4188 -1.49736,-7.28675 -2.41992,-15.26172 -0.92256,-7.97497 -2.31338,-15.5125 -3.0918,-16.75 -1.37334,-2.1833 -1.89825,-2.25 -17.70117,-2.25 -11.7032,0 -16.78156,0.36189 -18.04687,1.28711 -1.3369,0.97758 -2.21619,4.57027 -3.65235,14.92187 -2.77281,19.98605 -1.28045,17.74762 -14.69531,22.04493 l -11.62695,3.72461 -11.2461,-10.99024 C 312.3799,489.17362 309.58697,487 307.28732,487 c -4.12314,0 -26.763,16.77769 -27.70507,20.53125 -0.66135,2.63502 -0.82935,2.69461 -5.88086,2.03125 -7.85929,-1.03207 -13.05285,-4.53694 -16.17383,-10.91602 l -2.6211,-5.35742 0.29688,-27.06054 0.29687,-27.06055 3.04493,-4.33399 c 1.67442,-2.3835 5.04943,-5.45898 7.5,-6.83398 l 4.45507,-2.5 54,-0.29492 c 56.12015,-0.30683 66.64702,0.17087 84.69727,3.84765 32.75217,6.67156 69.37604,24.93626 92.41406,46.08985 29.18974,26.8021 49.69076,61.44834 58.20117,98.35742 6.95642,30.16955 5.12189,66.60555 -4.95312,98.37891 -3.40123,10.72634 -14.26224,34.16204 -18.26367,39.4082 -1.42741,1.87143 -2.59571,3.70735 -2.59571,4.08008 0,0.37317 57.48771,0.54339 127.75,0.38086 115.03897,-0.26612 128.20627,-0.45658 132.33594,-1.92383 22.00321,-7.81755 35.79946,-23.53367 39.49414,-44.99219 1.20669,-7.00842 1.39181,-29.69145 1.17578,-142.83203 l -0.25586,-134.5 h -317.5 z M 581.91623,464 h 25.01367 l 3.50391,3.07617 c 6.3609,5.58495 5.57416,14.51097 -1.66992,18.92774 -3.02272,1.84294 -5.06727,1.98828 -27.76368,1.98828 -22.35776,0 -24.7735,-0.16663 -27.63281,-1.91016 -8.80959,-5.37182 -8.46705,-15.87565 0.67188,-20.60156 C 556.34236,464.2895 561.7868,464 581.91623,464 Z m 70.84961,0 59.36719,0.004 c 57.11769,0.004 59.48823,0.077 62.56836,1.95507 3.52106,2.14692 6.30092,6.67027 6.29492,10.24219 -0.006,3.64001 -3.72694,8.78859 -7.48633,10.35938 -2.87045,1.19935 -13.09705,1.42975 -61.22852,1.37695 -31.78007,-0.0349 -58.71842,-0.44311 -59.86328,-0.90625 -3.93514,-1.59212 -7.41797,-6.8639 -7.41797,-11.22656 0,-3.36067 0.65405,-4.69309 3.88282,-7.92188 z m -297.27149,67.52344 c 3.92842,-0.14307 6.41828,1.28062 7.17188,4.2832 1.17066,4.66434 -1.47839,7.42943 -9.98047,10.41602 -20.86335,7.32882 -40.00013,26.47967 -47.24219,47.27734 -3.95999,11.37225 -4.59606,29.03067 -1.51367,41.9668 2.09762,8.80327 2.10123,9.01382 0.25391,11.5 -2.61025,3.51296 -7.41748,3.88918 -10.48633,0.82031 -5.30785,-5.30785 -7.06343,-36.65085 -2.92773,-52.28711 6.98648,-26.41448 23.23726,-45.96506 48.91992,-58.85547 6.50931,-3.26709 11.87627,-4.97802 15.80468,-5.12109 z m 46.04493,24.57617 c 4.52105,0.007 9.05785,0.64548 14.0332,1.91797 10.17225,2.60163 17.13861,6.85284 24.875,15.17578 10.07578,10.83972 15.41184,23.59208 16.2832,38.92383 1.10644,19.46824 -4.31517,35.37661 -17.91992,52.58203 -8.55237,10.81586 -24.67364,20.99349 -39.31055,24.8164 -7.10295,1.85519 -23.93182,2.70353 -31.02343,1.56446 -16.54042,-2.65675 -29.38928,-9.17801 -42.22657,-21.43164 -6.77031,-6.46253 -7.88077,-9.87512 -4.69336,-14.42578 2.95671,-4.22129 6.76916,-3.0108 15.28321,4.84961 14.40936,13.30308 34.33924,20.56638 41.29687,15.05078 3.13366,-2.48419 4.22527,-6.0376 2.91407,-9.48633 -0.69548,-1.82925 -3.46865,-3.71323 -10.3086,-6.9961 -11.9855,-5.75246 -18.62195,-11.67666 -23.09765,-20.62304 -4.81632,-9.62736 -6.27942,-18.64482 -4.77344,-29.41016 2.25335,-16.10762 7.12031,-25.74055 18.24414,-36.10742 7.83185,-7.29888 16.22172,-11.90163 26.48047,-14.52539 4.91605,-1.25731 9.42231,-1.88193 13.94336,-1.875 z M 724.34006,558 c 24.8987,0 46.95087,16.88743 53.07617,40.64453 7.05429,27.36032 -9.47101,55.57165 -37.34766,63.75977 -8.36255,2.45629 -22.03723,2.09464 -30.24023,-0.80078 -10.63144,-3.75266 -14.82813,-7.46576 -14.82813,-13.11719 0,-1.92456 1.62733,-4.2073 5.97071,-8.37891 7.91321,-7.60019 11.08798,-14.49341 11.77929,-25.57422 0.62536,-10.0238 -1.27372,-17.07762 -6.68554,-24.82812 -5.97036,-8.55043 -10.75392,-9.54926 -17.47461,-3.64844 -4.61179,4.04923 -8.259,10.48876 -10.17578,17.9707 -1.9142,7.47185 -1.24055,14.23964 2.17382,21.84375 3.09666,6.89655 3.04937,9.48289 -0.22265,12.05664 -4.80218,3.77741 -8.62897,1.84351 -12.71875,-6.42773 -5.89063,-11.91331 -5.66954,-27.2558 0.58203,-40.5 4.82087,-10.21325 14.9837,-19.61957 27.94531,-25.86523 C 707.7992,559.53305 713.84943,558 724.34006,558 Z m -68.76172,0.0254 c 7.5443,0.32629 12.42187,2.91834 12.42187,7.35547 0,5.14678 -1.98325,6.07837 -14.18945,6.66797 -9.9695,0.48157 -12.16319,0.92744 -18.01953,3.66797 -8.16608,3.82135 -14.3589,10.05106 -18.91602,19.02929 -3.16857,6.2426 -3.375,7.26394 -3.375,16.70118 0,8.82787 0.32778,10.75272 2.69532,15.80468 3.77158,8.04806 11.45806,15.85147 19.08203,19.37305 5.69513,2.63064 7.18419,2.875 17.56054,2.875 10.70757,0 11.44319,0.13161 13.25,2.36133 2.54231,3.13732 2.41069,5.44597 -0.5,8.83203 -2.31011,2.6874 -2.82693,2.81553 -12.25,3.01562 -16.98767,0.36072 -27.58522,-3.76696 -38.85546,-15.13281 C 603.44917,637.44908 599.00021,626.93829 599.00021,612 c 0,-14.25366 5.0244,-26.65542 15.21875,-37.56641 6.7477,-7.22205 14.61708,-11.70705 25.37696,-14.45898 5.96867,-1.52653 11.45585,-2.14499 15.98242,-1.94922 z" />
  </g>
</svg>
