<?xml version="1.0" encoding="UTF-8" standalone="no"?>
<!-- Created with Inkscape (http://www.inkscape.org/) -->

<svg
   version="1.1"
   id="svg1"
   fill="currentColor"
   stroke="currentColor"
   width="509.39325"
   height="461.60278"
   viewBox="0 0 509.39325 461.60278"
   xmlns="http://www.w3.org/2000/svg"
   xmlns:svg="http://www.w3.org/2000/svg">
  <defs
     id="defs1" />
  <g
     id="g1"
     transform="translate(-256.40697,-261.39722)">
    <path
       d="m 281.68498,721.98314 c -4.74877,-1.42538 -9.35229,-5.67451 -12.0816,-11.15152 C 267.26935,706.14783 267,704.45973 267,694.51555 c 0,-13.88418 1.95039,-18.72985 8.96189,-22.26555 4.04673,-2.04065 5.88437,-2.25 19.75,-2.25 H 311 v 26.5 26.5 l -13.25,-0.086 c -7.2875,-0.0473 -14.51676,-0.46618 -16.06502,-0.93091 z M 329,696.5 V 670 H 346.5 364 V 696.5 723 H 346.5 329 Z m 54,0 V 670 h 17 17 v 26.5 26.5 h -17 -17 z m 52,-0.0765 v -26.57646 l 19.32647,0.32646 c 19.04239,0.32166 19.38603,0.36591 23.37885,3.01048 6.49411,4.30124 8.29468,9.22268 8.29468,22.67154 0,11.94642 -1.09859,15.75622 -6.05789,21.00824 -4.89114,5.17983 -9.0155,6.09046 -27.69211,6.11424 L 435,723 Z m 115.01027,25.26096 c -5.00003,-1.59229 -11.64372,-8.60953 -13.03182,-13.76453 -0.64736,-2.4041 -1.00104,-8.89763 -0.81245,-14.91624 0.29972,-9.56456 0.60713,-11.07095 2.99476,-14.67492 4.59799,-6.94034 7.61179,-7.78363 29.08924,-8.13942 L 587,669.87878 V 696.43939 723 l -16.75,-0.10209 c -9.21283,-0.0562 -18.32031,-0.60216 -20.23973,-1.21341 z M 605,696.5 V 670 H 621.5 638 V 696.5 723 H 621.5 605 Z m 52,0 V 670 H 674.5 692 V 696.5 723 H 674.5 657 Z m 54,-0.0673 v -26.5673 l 16.33155,0.3173 c 16.1303,0.31339 16.37676,0.35182 20.00105,3.11899 5.57469,4.25632 6.93816,7.77713 7.43471,19.19831 0.53732,12.359 -1.63724,19.34289 -7.7393,24.85573 -5.1723,4.67286 -9.21721,5.63206 -23.77801,5.63869 L 711,723 Z M 276.15149,626.75 c -2.27492,-24.77891 -6.45584,-74.77972 -10.13856,-121.25 -1.13326,-14.3 -3.38004,-42.2 -4.99284,-62 -5.70275,-70.01148 -5.83573,-76.37668 -1.94865,-93.27652 7.21522,-31.36963 30.89902,-61.64455 59.45036,-75.99517 25.87429,-13.00507 51.38681,-16.02931 77.9782,-9.24347 16.97707,4.33237 39.86707,17.97726 51.48792,30.69233 13.30185,14.55434 23.5749,34.68723 26.91266,52.74283 0.57673,3.11981 1.07805,21.90974 1.13574,42.56793 l 0.10326,36.98277 -5.08628,5.16714 c -2.79745,2.84193 -6.40132,7.90708 -8.0086,11.2559 -3.09349,6.44539 -3.46649,6.3114 -4.52878,-1.62678 -1.01932,-7.61707 -6.75247,-17.84471 -13.50981,-24.10082 -15.84755,-14.67203 -41.36081,-14.14825 -56.67675,1.16356 -5.71964,5.7181 -11.59907,17.92579 -12.12243,25.1703 -0.35354,4.89364 -0.11213,5.76643 2.18972,7.91667 1.55033,1.44821 3.79428,2.41666 5.59953,2.41666 5.32959,0 7.75656,-2.14384 10.47217,-9.2505 3.65284,-9.55937 6.66794,-13.47353 12.6906,-16.47475 13.28925,-6.62231 29.5974,0.79987 32.88274,14.96562 0.50083,2.15946 0.92133,23.99809 0.93445,48.53028 l 0.0239,44.60397 2.45225,2.64603 c 3.63172,3.91869 9.46214,3.7249 12.95886,-0.43071 C 458.91472,536.9479 459,536.40468 459,523.43261 c 0,-12.95809 0.12057,-13.72862 3.54782,-22.67328 1.9513,-5.09263 6.41798,-16.97103 9.92595,-26.39644 7.73166,-20.77386 10.2094,-25.75934 15.18983,-30.56354 6.12167,-5.90506 12.42268,-8.28736 21.8364,-8.25593 8.58298,0.0286 15.75858,2.49832 22.73546,7.82503 7.82686,5.97564 12.83911,19.82649 10.68539,29.52802 -1.06727,4.80759 -6.62546,19.03232 -24.46177,62.60353 -5.85385,14.3 -15.37611,37.7 -21.16059,52 -13.72281,33.92463 -19.75512,48.47892 -23.52113,56.75 L 470.70392,651 H 452.85196 435 v -17.07692 -17.07693 l -2.92308,-2.92307 c -3.92128,-3.92129 -9.14115,-4.03584 -12.62467,-0.27706 -2.40715,2.59736 -2.45225,2.96521 -2.45225,20 V 651 h -16.93554 -16.93554 l -0.31446,-17.58879 -0.31446,-17.58879 -2.80576,-2.41121 c -2.9725,-2.5545 -7.47639,-3.13335 -10.74963,-1.38157 C 364.80856,614.24319 364,617.99128 364,634.95034 V 651 h -17 -17 v -8.34638 c 0,-4.5905 -0.29284,-12.47198 -0.65076,-17.5144 -0.5646,-7.95409 -0.97989,-9.49714 -3.13637,-11.65362 -2.74476,-2.74477 -8.49463,-3.35733 -11.29953,-1.2038 C 311.50421,614.89925 311,617.75348 311,634.43426 V 651 h -16.31107 -16.31107 z m 274.55254,23 c -0.28047,-0.6875 -3.41869,-8 -6.97382,-16.25 -3.55513,-8.25 -10.39274,-24.3741 -15.19469,-35.83134 l -8.73082,-20.83134 15.24371,-36.16866 c 20.47583,-48.58291 25.07676,-60.183 25.69323,-64.77909 0.28693,-2.13926 0.92982,-3.88957 1.42863,-3.88957 0.52461,0 0.87374,12.96261 0.82822,30.75 -0.0433,16.9125 -0.0607,31.50297 -0.0386,32.42327 0.0221,0.92031 1.20511,3.05781 2.629,4.75 2.15835,2.56505 3.31043,3.07673 6.92742,3.07673 3.49591,0 4.74106,-0.51173 6.41111,-2.63486 2.02838,-2.57867 2.07279,-3.61829 2.08235,-48.75 l 0.01,-46.11514 2.36123,-5.07086 c 2.94583,-6.32633 8.43876,-10.94647 14.84013,-12.48213 12.6571,-3.03639 23.61889,3.74362 29.18775,18.05299 2.62164,6.73642 5.15971,9 10.09135,9 9.45293,0 11.19686,-8.38025 4.51998,-21.72026 -17.29283,-34.55001 -63.6887,-33.18124 -76.9528,2.27025 -1.08253,2.89331 -2.36364,8.56569 -2.84693,12.60528 -0.84613,7.07244 -0.92394,7.23351 -2.09877,4.34473 -2.67883,-6.58695 -6.5225,-13.23273 -10.2251,-17.67941 L 546,430.14119 l 0.0131,-37.8206 c 0.0115,-33.01104 0.2506,-38.9651 1.88044,-46.82059 4.93622,-23.79147 18.45228,-45.83483 37.39899,-60.99407 32.09756,-25.68123 77.89914,-30.41848 114.99021,-11.89343 12.82033,6.40308 23.00057,13.89635 32.9204,24.23139 22.71114,23.66177 34.22728,53.35811 32.41078,83.57669 -0.70982,11.80821 -7.67322,103.03589 -10.15795,133.07942 -0.81877,9.9 -2.81634,35.1 -4.43905,56 -1.62271,20.9 -3.72288,47.7875 -4.66705,59.75 L 744.63323,651 H 727.31662 710 V 633.45225 615.9045 l -2.64602,-2.45225 c -3.76592,-3.49013 -8.65512,-3.30495 -12.4309,0.47083 L 692,616.84615 V 633.92308 651 H 674.5 657 v -16.04966 c 0,-16.95906 -0.80856,-20.70715 -4.94461,-22.9207 -3.56944,-1.9103 -8.527,-1.22078 -11.13108,1.54817 -2.34528,2.49377 -2.43456,3.14574 -2.73877,20 L 637.87108,651 H 621.43554 605 v -16.04966 c 0,-12.35939 -0.34727,-16.72121 -1.51035,-18.97036 -4.1978,-8.11765 -15.26995,-5.99845 -17.0059,3.25493 -0.35683,1.9021 -0.49916,9.82794 -0.31627,17.61298 l 0.33252,14.15461 -17.64301,-0.001 c -13.17481,-9.3e-4 -17.77216,-0.31782 -18.15296,-1.25125 z"
       id="path1" />
  </g>
</svg>
