<?xml version="1.0" encoding="UTF-8" standalone="no"?>
<!-- Created with Inkscape (http://www.inkscape.org/) -->

<svg
   version="1.1"
   id="svg1"
   fill="currentColor"
   stroke="currentColor"
   width="179.53587"
   height="177.74702"
   viewBox="0 0 179.53587 177.74702"
   xmlns="http://www.w3.org/2000/svg"
   xmlns:svg="http://www.w3.org/2000/svg">
  <defs
     id="defs1" />
  <g
     id="g1"
     transform="translate(-10.21243,-11.185837)">
    <path
       d="m 51.5,187.85634 c -2.10573,-1.0616 -39.361262,-46.46483 -40.886482,-49.82826 -1.4448697,-3.18624 0.995241,-7.14307 7.624551,-12.3638 6.117711,-4.81785 8.089469,-5.32339 12.797175,-3.28113 1.019359,0.44221 3.881929,-1.30931 8.518829,-5.21243 l 6.983585,-5.87844 -0.367772,-4.62412 c -0.321814,-4.04629 0.0037,-4.99564 2.605305,-7.597197 2.778989,-2.77899 2.90487,-3.228608 1.928278,-6.887416 -0.882558,-3.306509 -0.740502,-4.439913 0.914818,-7.298944 1.077788,-1.861531 2.911958,-3.810456 4.075932,-4.330942 1.696514,-0.758619 2.014954,-1.570965 1.605325,-4.095213 -0.682814,-4.207691 1.84668,-8.862162 5.678824,-10.449488 2.268096,-0.939476 2.923529,-1.742694 2.503068,-3.06745 -1.058074,-3.333695 2.155884,-8.892026 6.092703,-10.536934 4.086952,-1.707638 7.620682,-0.969691 12.053435,2.517114 l 2.53369,1.993 3.764532,-3.957345 c 4.602234,-4.837953 8.242789,-5.141347 18.761904,-1.563565 4.4761,1.52242 7.54294,2.074009 8.42515,1.515312 1.90549,-1.206727 8.60031,-1.132971 10.94254,0.120552 2.59792,1.390364 5.22836,6.705678 4.69619,9.489555 -0.33705,1.763145 0.2701,2.597582 2.75077,3.780529 1.86493,0.889323 3.90118,3.030873 4.91673,5.170982 1.72313,3.631239 1.65605,4.414011 -0.92379,10.77929 -0.49026,1.209634 -0.24051,1.75 0.80883,1.75 2.18419,0 6.69588,5.735142 6.69588,8.511626 0,1.296996 -0.42431,3.474184 -0.9429,4.838196 -0.70663,1.858579 -0.59444,2.613738 0.44771,3.013648 2.48242,0.9526 4.74229,6.6735 4.16246,10.53738 -0.50565,3.36963 -0.21829,3.85424 4.50613,7.59915 10.78534,8.54923 9.42705,8.01399 12.90682,5.08595 4.34333,-3.65467 6.91103,-3.2517 13.78935,2.16405 6.77804,5.33679 8.99223,9.10478 7.37189,12.54506 -0.89458,1.89937 -30.8955,39.15083 -37.79798,46.93289 -4.85434,5.47294 -8.79624,4.5027 -18.75065,-4.61519 -4.1599,-3.81032 -4.8139,-7.5672 -2.01334,-11.56556 1.92282,-2.74521 2.35017,-2.27976 -15.26397,-16.62506 l -9.08448,-7.39858 -7.915519,-0.87755 C 94.061985,143.66336 90.05,143.58194 89.5,143.96509 c -1.761611,1.22719 -21.947115,17.29411 -23.405344,18.62979 -1.192003,1.09183 -0.926342,1.83279 1.75,4.88097 3.584927,4.08301 4.100106,8.22495 1.405344,11.2987 -3.104135,3.54069 -12.379372,10.2275 -14.089798,10.15777 C 54.247091,188.8951 52.6,188.4109 51.5,187.85634 Z m 10,-9.27149 c 4.68851,-4.10152 4.90083,-4.4896 3.408127,-6.22943 -0.87553,-1.02048 -9.53499,-11.61448 -19.243244,-23.54223 C 35.956629,136.88545 27.656545,126.90577 27.220252,126.63612 26.047949,125.9116 16,134.03102 16,135.70285 c 0,2.15458 37.221378,47.30033 38.978195,47.27658 C 55.815188,182.96812 58.75,180.99056 61.5,178.58485 Z M 165.27836,160.03331 C 175.57526,147.40164 184,136.45195 184,135.70068 c 0,-1.14872 -2.63638,-3.58169 -9.67419,-8.92779 -1.18421,-0.89956 -6.19827,4.81705 -30.3479,34.60014 l -10.4381,12.87303 4.9801,4.3564 c 2.73905,2.39602 5.66785,4.36566 6.50845,4.37697 0.8406,0.0113 9.9531,-10.31444 20.25,-22.94612 z M 148.80777,147.03347 C 155.51349,138.80188 161,131.63767 161,131.113 c 0,-0.52467 -3.25745,-3.66224 -7.23878,-6.97237 -6.12054,-5.08871 -7.47222,-5.81938 -8.75,-4.72993 -12.75684,10.87671 -26.96129,22.08532 -29.15972,23.00969 l -2.79388,1.17474 11.22119,9.19761 c 6.17166,5.05869 11.47218,9.19979 11.77896,9.20244 0.30677,0.003 6.04427,-6.73012 12.75,-14.96171 z m -73.131,0.79582 12.176771,-9.79084 10.823229,0.60977 c 8.52525,0.4803 11.56635,0.28645 14.32323,-0.91299 4.52093,-1.96693 31.26074,-24.33333 32.27091,-26.99285 C 146.2456,108.17622 143.66177,104 141.09939,104 c -1.01997,0 -2.42565,-0.68819 -3.12372,-1.52932 -1.04713,-1.26171 -0.91965,-1.91788 0.72854,-3.749995 4.48593,-4.986495 3.54516,-9.208075 -2.2962,-10.303921 -4.59673,-0.862351 -5.27788,-2.851408 -2.58111,-7.53716 2.81681,-4.894316 2.74615,-7.45802 -0.25984,-9.427623 -1.85671,-1.216563 -2.90695,-1.340446 -4.43426,-0.523053 -4.75703,2.545885 -7.73138,-0.598418 -4.16107,-4.398836 2.25834,-2.403895 2.66497,-6.493396 0.82827,-8.330092 -2.45536,-2.455364 -5.72784,-1.078172 -14.27403,6.007098 -7.94869,6.589918 -8.64423,7.451594 -8.12211,10.062186 C 104.55026,80.001279 99.132903,87 93.54966,87 92.687274,87 92,87.852972 92,88.923275 c 0,2.663242 -4.474115,7.72792 -7.497052,8.486629 C 82.568678,97.895375 82,98.682208 82,100.87303 82,103.73994 78.096066,109 75.968294,109 c -0.71681,0 -0.901199,1.02899 -0.50645,2.82628 C 76.852628,118.15847 72.021168,124 65.393093,124 c -3.56054,0 -5.057504,-0.70653 -9.461176,-4.46544 l -5.231392,-4.46543 -3.600262,2.87166 c -1.980145,1.57941 -5.393142,4.43124 -7.584438,6.3374 l -3.984175,3.46573 10.394882,12.87804 c 13.290949,16.46593 15.141705,18.44879 16.476493,17.65255 0.603336,-0.35991 6.576522,-5.06026 13.273745,-10.44522 z M 68.8,117.8 c 0.66,-0.66 1.2,-2.42105 1.2,-3.91345 0,-2.09705 -1.382851,-3.86894 -6.087446,-7.8 -6.552672,-5.47528 -8.246171,-5.99959 -11.083813,-3.43156 -3.014394,2.72799 -2.139807,4.8957 4.341672,10.76111 6.107324,5.52681 9.287773,6.72571 11.629587,4.3839 z m 7,-15 c 2.724505,-2.7245 1.264526,-5.650835 -5.892483,-11.810684 -7.385219,-6.356263 -10.996895,-7.421418 -13.20391,-3.894093 -1.755487,2.80568 0.205353,6.269014 6.581687,11.624909 C 69.553375,103.9851 73.370498,105.2295 75.8,102.8 Z M 86.020215,89.962227 c 0.599821,-1.120775 0.82423,-2.876977 0.498687,-3.902672 C 85.692037,83.454334 69.314484,70 66.970093,70 c -2.411879,0 -5.233107,4.151022 -4.362747,6.419142 0.358994,0.935524 4.260767,4.823931 8.670608,8.640905 8.677695,7.511052 12.640759,8.828873 14.742261,4.90218 z M 97.5,76.430553 c 0,-2.344266 -1.678876,-4.249129 -9.857258,-11.1841 -7.60392,-6.447849 -10.438323,-8.288631 -12.399138,-8.052525 -3.177294,0.382583 -4.740623,2.765015 -3.872374,5.901295 0.633702,2.289053 16.952505,16.679894 20.470039,18.051637 C 94.453479,82.16555 97.5,79.626408 97.5,76.430553 Z m 7.36538,-13.607379 C 107.68942,60.52592 110,58.3581 110,58.005796 110,56.78876 98.790007,53.835889 96.424065,54.429702 c -1.305429,0.327642 -3.026919,1.827494 -3.825534,3.333005 -1.37728,2.596383 -1.291267,2.904596 1.670887,5.987293 1.717604,1.7875 3.64906,3.25 4.292126,3.25 0.643066,0 3.479796,-1.879572 6.303836,-4.176826 z M 27.25,66.373943 C 23.117555,64.022525 21,62.190883 21,60.967821 c 0,-3.303224 1.877089,-3.152075 8.983438,0.723377 6.784481,3.699921 8.621208,5.521447 7.460789,7.399044 C 36.426733,70.736582 33.587462,69.980045 27.25,66.373943 Z M 162,62.113966 c 0,-1.275054 2.30212,-3.253699 7.10641,-6.107875 6.43378,-3.822237 7.25385,-4.074403 8.6641,-2.664154 2.05344,2.053446 0.7649,3.600615 -6.33666,7.608488 C 165.16012,64.491096 162,64.880855 162,62.113966 Z M 57.485143,37.976464 c -4.539685,-7.191325 -5.982671,-10.878936 -4.742348,-12.119259 1.922646,-1.922646 3.860258,-0.259212 7.703808,6.613697 2.982964,5.334038 3.474989,6.918647 2.509484,8.08201 -1.832813,2.208405 -2.711673,1.79452 -5.470944,-2.576448 z m 75.931237,-1.333768 c -0.51563,-1.34372 5.99952,-13.533158 7.91057,-14.800176 1.48741,-0.986143 3.67305,0.159994 3.67305,1.926123 0,0.855067 -1.6685,4.406922 -3.70778,7.893012 -3.63557,6.214912 -6.66672,8.13195 -7.87584,4.981041 z M 95.606989,28.418213 C 94.318713,25.061019 94.959586,13.27843 96.5,12 99.373605,9.6151199 101,12.521184 101,20.040657 101,28.053334 100.41362,30 98,30 97.017688,30 95.940833,29.288196 95.606989,28.418213 Z"
       id="path1" />
  </g>
</svg>
