<?xml version="1.0" encoding="UTF-8" standalone="no"?>
<!-- Created with Inkscape (http://www.inkscape.org/) -->

<svg
   version="1.1"
   id="svg1"
   width="555.95258"
   height="476.79501"
   fill="currentColor"
   stroke="currentColor"
   viewBox="0 0 555.95258 476.79501"
   xmlns="http://www.w3.org/2000/svg"
   xmlns:svg="http://www.w3.org/2000/svg">
  <defs
     id="defs1" />
  <g
     id="g1"
     transform="translate(-238.1492,-295.14008)">
    <path
       d="m 489.5,769.83086 c -2.2,-1.14441 -6.97792,-4.47078 -10.6176,-7.39193 -9.5479,-7.663 -22.12563,-15.6504 -32.9099,-20.89922 -17.66501,-8.59774 -44.27487,-15.90891 -67.18309,-18.45882 -12.40328,-1.38061 -44.21669,-1.39321 -58.36573,-0.0231 -11.57805,1.12113 -34.32811,5.41059 -50.92368,9.60151 -15.40505,3.89027 -22.59232,2.25731 -28.59018,-6.49574 L 238.5,722.64674 238.21419,544.57337 c -0.1572,-97.94035 -0.0193,-179.56272 0.3065,-181.38303 0.79206,-4.42573 6.80532,-10.91529 11.33913,-12.23729 2.10366,-0.6134 10.18273,-0.93303 19.14018,-0.75724 l 15.5,0.30419 0.27337,17.19425 0.27338,17.19426 -4.77338,0.30574 L 275.5,385.5 l -0.25339,144.36722 -0.25338,144.36723 2.75338,-0.5901 c 58.30411,-12.4956 107.706,-7.10935 163.08811,17.78137 5.5109,2.4768 12.23983,5.86925 14.95315,7.53878 2.71333,1.66952 5.31947,3.0355 5.79143,3.0355 1.34677,0 -10.24681,-11.50045 -19.18021,-19.02612 -31.27232,-26.34444 -69.08267,-40.26116 -124.56817,-45.84936 -9.8188,-0.98889 -13.57632,-2.96088 -16.20763,-8.50596 -1.47673,-3.11197 -1.62295,-17.85279 -1.61955,-163.26969 0.004,-156.77626 0.0413,-159.91041 1.95578,-163.05032 3.5934,-5.89338 6.79228,-6.82964 22.38697,-6.55229 32.20904,0.57285 74.96402,10.79712 109.50048,26.18555 34.01155,15.15455 59.25154,34.2542 79.35019,60.04603 1.48344,1.90364 2.84912,3.24989 3.03485,2.99166 11.12608,-15.46929 30.04824,-33.72321 45.76799,-44.15168 37.61313,-24.95253 93.96412,-42.51401 145.5,-45.3443 11.37419,-0.62466 12.22919,-0.53555 16.39466,1.70865 2.58647,1.39349 5.15805,3.79109 6.25,5.82715 1.78488,3.32809 1.85534,9.50967 1.85534,162.76492 0,156.42888 -0.0355,159.37504 -1.96655,163.1602 -2.74443,5.37952 -8.11156,7.69068 -19.72352,8.49322 -18.81835,1.30059 -46.24957,6.991 -63.30993,13.13319 -16.98011,6.1133 -35.81111,16.23732 -50.60606,27.20711 -8.66955,6.42808 -27.77093,24.18839 -26.92483,25.03448 0.28525,0.28525 1.30889,-0.16177 2.27476,-0.99338 3.46858,-2.98641 21.00915,-11.77902 32.27277,-16.17747 23.35013,-9.11821 47.55714,-15.11309 71.48336,-17.70288 19.62206,-2.12391 49.62215,-0.24121 72.35456,4.54069 4.0019,0.84183 7.69677,1.5306 8.21082,1.5306 C 756.64056,674 757,618.42824 757,529.5 V 385 H 752.5 748 V 367.5 350 h 16.03984 c 13.79973,0 16.55799,0.26573 19.75,1.90268 4.46057,2.28752 7.70564,5.6173 9.12475,9.36297 0.71489,1.88692 1.07813,59.6035 1.14324,181.65147 0.10366,194.29824 0.45939,181.55646 -5.21282,186.71591 -7.00236,6.36935 -13.79453,6.91291 -31.37058,2.51049 -32.66856,-8.18276 -52.30037,-10.52703 -82.80496,-9.88788 -25.90356,0.54275 -37.73356,2.18486 -59.08782,8.20193 -23.32433,6.57219 -41.65489,16.13152 -63.58165,33.15766 -10.39613,8.07259 -11.58608,8.34379 -36.5,8.31861 -20.31168,-0.0205 -22.30697,-0.18191 -26,-2.10298 z M 497,552.61395 V 420.22791 l -4.19227,-6.27798 C 486.82556,404.99157 468.21884,386.49955 456.45559,377.82189 440.00074,365.68328 423.80893,356.93726 405,350.02809 386.67267,343.29584 355.4806,335.93248 340.5,334.80188 l -4,-0.30188 -0.25365,133.204 -0.25364,133.20401 3.75364,0.55269 c 43.14115,6.3522 81.28648,20.4944 112.25376,41.61754 11.29111,7.7018 26.85034,21.61736 36.59288,32.72723 4.34886,4.9592 8.01951,9.05673 8.15701,9.10563 0.1375,0.0489 0.25,-59.48482 0.25,-132.29715 z m 70.40478,99.75865 C 586.03287,637.36806 606.63587,625.75157 631,616.51601 c 14.3081,-5.42369 39.43524,-12.00797 51.96394,-13.61656 4.69483,-0.60278 9.54856,-1.28532 10.78606,-1.51676 L 696,600.9619 V 467.41356 c 0,-126.71096 -0.0896,-133.52297 -1.75,-133.05291 -0.9625,0.27249 -4.675,0.78512 -8.25,1.13919 -11.00148,1.08958 -35.93414,6.48874 -46.99187,10.17606 -22.64582,7.55151 -41.10905,16.24144 -56.13854,26.42223 -14.54451,9.85227 -35.32336,29.89155 -44.21535,42.64161 L 535,419.97949 v 132.10668 132.10668 l 12.15478,-12.64986 c 6.68513,-6.95742 15.79763,-15.5841 20.25,-19.17039 z"
       id="path1" />
  </g>
</svg>
