<?xml version="1.0" encoding="UTF-8" standalone="no"?>
<!-- Created with Inkscape (http://www.inkscape.org/) -->

<svg
   version="1.1"
   id="svg1"
   width="794.37262"
   height="788.43457"
   fill="currentColor"
   stroke="currentColor"
   viewBox="0 0 794.37262 788.43457"
   sodipodi:docname="update.svg"
   inkscape:version="1.3 (0e150ed, 2023-07-21)"
   xmlns:inkscape="http://www.inkscape.org/namespaces/inkscape"
   xmlns:sodipodi="http://sodipodi.sourceforge.net/DTD/sodipodi-0.dtd"
   xmlns="http://www.w3.org/2000/svg"
   xmlns:svg="http://www.w3.org/2000/svg">
  <defs
     id="defs1" />
  <sodipodi:namedview
     id="namedview1"
     pagecolor="#ffffff"
     bordercolor="#999999"
     borderopacity="1"
     inkscape:showpageshadow="2"
     inkscape:pageopacity="0"
     inkscape:pagecheckerboard="0"
     inkscape:deskcolor="#d1d1d1"
     inkscape:zoom="0.23046875"
     inkscape:cx="394.84746"
     inkscape:cy="399.18644"
     inkscape:window-width="1312"
     inkscape:window-height="449"
     inkscape:window-x="0"
     inkscape:window-y="25"
     inkscape:window-maximized="0"
     inkscape:current-layer="g1" />
  <g
     inkscape:groupmode="layer"
     inkscape:label="Image"
     id="g1"
     transform="translate(-117.50042,-111.14824)">
    <path
       d="M 490.5,899.39249 C 459.30801,896.33547 447.97237,894.62539 424.15135,889.3832 325.51702,867.67717 244.0158,813.44897 185.36091,730.5 154.60761,687.00909 131.29189,629.92822 122.66104,577 c -4.56098,-27.97002 -5.16105,-35.93501 -5.16062,-68.5 4.3e-4,-32.58446 1.02975,-46.59393 5.14311,-70 8.78924,-50.01298 28.96982,-101.69154 55.87976,-143.09723 9.21563,-14.17988 25.03285,-35.3638 35.0205,-46.90277 17.94802,-20.7358 47.63935,-47.87651 68.70381,-62.80184 20.44185,-14.48418 57.66983,-34.77893 80.2524,-43.74941 53.32925,-21.18399 112.47168,-32.36404 162,-30.62382 78.76975,2.76763 149.40456,26.18329 216.5,71.77042 58.46546,39.7236 106.24173,96.95006 135.99634,162.89654 22.34455,49.52323 33.28889,97.66883 34.6849,152.58342 0.68391,26.90265 -0.39939,44.12976 -4.25412,67.6512 -14.29394,87.22127 -49.70159,158.0053 -108.42947,216.76321 C 747.48642,834.52729 682.49996,870.99616 612,887.92839 c -35.37024,8.495 -56.26192,11.1464 -91,11.549 -14.575,0.16892 -28.3,0.13071 -30.5,-0.0849 z m 64,-60.81211 c 43.28505,-5.76905 74.25419,-14.81702 110.73701,-32.35301 64.67743,-31.08814 113.61354,-77.62395 148.01005,-140.75022 17.41203,-31.95548 31.50021,-76.26448 36.39835,-114.47715 2.37054,-18.4937 2.87549,-61.50982 0.93651,-79.78025 C 847.38285,441.07578 838.94285,407.55968 827.35922,379 804.66769,323.05355 761.52815,269.70593 709.98055,233.84608 665.31511,202.77391 614.87056,182.34234 561.68906,173.78353 549.02187,171.74492 544.12143,171.50449 516,171.54186 c -35.82469,0.0476 -44.9073,0.96816 -74.40408,7.54105 -59.18577,13.18861 -113.56116,41.33961 -158.58243,82.10063 -28.69014,25.97527 -54.86274,60.85614 -72.91302,97.17296 -35.07592,70.5721 -43.49676,161.15819 -22.23066,239.1435 6.16556,22.60985 12.25968,38.80524 21.94653,58.32382 23.40314,47.15632 61.27673,91.80154 101.68366,119.86426 21.50271,14.93369 45.20219,28.44669 65.39487,37.28692 11.39854,4.99022 35.00747,12.99967 48.54975,16.47075 17.34788,4.44651 48.2043,9.33994 69.05538,10.9513 10.19032,0.7875 49.35909,-0.39845 60,-1.81667 z M 496,768.38916 C 428.8472,762.35175 373.43181,738.34915 330.13137,696.54491 286.59874,654.5165 260.46395,601.8684 253.47504,542.122 c -3.04977,-26.07171 -1.67411,-59.42248 3.57095,-86.57183 1.89114,-9.78889 7.43427,-28.21032 9.00522,-29.92697 0.44732,-0.4888 2.40686,0.11482 4.42819,1.36407 1.99419,1.23247 3.77181,2.07703 3.95028,1.8768 0.17846,-0.20024 1.34138,-2.38907 2.58425,-4.86407 1.24287,-2.475 3.4716,-6.3 4.95274,-8.5 1.48113,-2.2 2.9998,-4.52801 3.3748,-5.17336 0.44218,-0.76095 -3.58297,-3.51888 -11.45212,-7.84671 -16.51958,-9.08533 -29.90314,-17.17055 -32.7717,-19.7979 -3.59279,-3.2907 -7.09811,-11.52892 -7.09811,-16.68203 0,-5.94793 3.76422,-13.85187 8.42755,-17.69578 2.0378,-1.67972 13.45835,-8.13729 25.379,-14.35014 11.92065,-6.21285 27.97391,-14.65442 35.67391,-18.75903 26.09595,-13.91088 94.08771,-48.9412 101.56452,-52.32748 12.57162,-5.69375 22.56302,-4.40156 32.33974,4.18252 7.59426,6.66784 7.44658,5.81892 15.03862,86.44991 1.39824,14.85 4.1206,42.06011 6.04969,60.46692 4.03098,38.46244 4.30882,47.67197 1.61702,53.59846 -4.60107,10.13008 -13.15244,15.70301 -24.10959,15.7122 -7.54922,0.006 -12.18181,-2.10863 -46.48433,-21.22191 -22.90051,-12.76012 -20.52044,-12.79212 -25.56652,0.34381 -4.90132,12.75908 -6.96968,23.53625 -7.60016,39.60052 -1.10915,28.26051 4.64108,55.1586 17.06633,79.83185 10.42885,20.70892 32.34871,45.34853 51.10366,57.44444 21.98291,14.17775 43.64071,22.49558 66.80338,25.65629 11.33252,1.54641 38.55714,1.32221 49.20746,-0.40521 13.36298,-2.16741 41.38437,-10.89489 42.84021,-13.34292 0.51453,-0.86519 -4.0258,-30.80217 -9.88605,-65.18445 -7.72227,-45.30686 -7.99001,-47.74123 -6.00605,-54.60981 3.20842,-11.10772 14.12611,-18.5387 25.03957,-17.04285 6.41957,0.8799 14.33764,5.25115 55.95816,30.89228 l 15.97566,9.84212 1.80252,-5.29087 c 4.45311,-13.07103 6.06959,-24.59478 6.07258,-43.29087 0.003,-15.61389 -0.34713,-19.67048 -2.6375,-30.60155 -6.54776,-31.25007 -19.61282,-56.38629 -40.65466,-78.21657 -27.52239,-28.55366 -61.20591,-45.01464 -101.57478,-49.63911 -4.92771,-0.5645 -9.52198,-1.03005 -10.20948,-1.03457 -0.9836,-0.006 -1.25,-10.90944 -1.25,-51.15919 v -51.15099 l 12.75,0.59421 c 37.98273,1.77018 82.72396,15.25594 116.91812,35.24107 47.21933,27.59782 82.64319,65.0674 104.90832,110.9667 8.42489,17.36783 12.877,29.69658 17.80554,49.30701 6.21285,24.72065 7.12311,33.17123 7.07612,65.69299 -0.0366,25.36964 -0.32176,30.62006 -2.27757,41.9414 -2.12321,12.29032 -5.03187,25.15244 -7.31153,32.33164 l -1.03931,3.27304 -7.30522,-4.03257 -7.30521,-4.03257 -4.22049,8.25953 c -2.32127,4.54274 -5.0706,9.454 -6.10963,10.9139 -1.03903,1.4599 -1.88914,3.04332 -1.88914,3.5187 0,0.47538 8.6625,6.2081 19.25,12.73938 10.5875,6.53128 21.39879,13.21452 24.02509,14.85165 6.04086,3.76562 11.0703,9.60766 12.56435,14.59434 1.51937,5.07121 1.46734,6.74552 -0.40566,13.0526 -2.72878,9.1888 -6.42354,11.87075 -39.95692,29.00386 -16.48727,8.4238 -48.3043,24.75565 -70.70451,36.29299 -45.81797,23.59878 -52.22808,26.27016 -61.29086,25.54269 -14.50752,-1.16453 -23.48088,-10.10924 -27.02003,-26.93379 -0.83348,-3.96225 -1.68747,-7.37613 -1.89774,-7.58641 -0.43877,-0.43876 -12.3137,4.64827 -20.85265,8.93294 -5.77688,2.89873 -5.78758,2.9125 -5.14424,6.62073 1.03514,5.96657 6.12189,20.65634 9.4049,27.15994 1.66555,3.29944 3.02827,6.19755 3.02827,6.44026 0,0.8966 -22.01827,5.6687 -33.07847,7.16921 -11.2519,1.52653 -41.13721,2.62546 -49.92153,1.8357 z"
       id="path1" />
  </g>
</svg>
