<?xml version="1.0" encoding="UTF-8" standalone="no"?>
<!-- Created with Inkscape (http://www.inkscape.org/) -->

<svg
   version="1.1"
   id="svg1"
   fill="currentColor"
   stroke="currentColor"
   width="715.19794"
   height="408.01166"
   viewBox="0 0 715.19794 408.01166"
   sodipodi:docname="walks.svg"
   inkscape:version="1.3 (0e150ed, 2023-07-21)"
   xmlns:inkscape="http://www.inkscape.org/namespaces/inkscape"
   xmlns:sodipodi="http://sodipodi.sourceforge.net/DTD/sodipodi-0.dtd"
   xmlns="http://www.w3.org/2000/svg"
   xmlns:svg="http://www.w3.org/2000/svg">
  <sodipodi:namedview
     id="namedview1"
     pagecolor="#ffffff"
     bordercolor="#999999"
     borderopacity="1"
     inkscape:showpageshadow="2"
     inkscape:pageopacity="0"
     inkscape:pagecheckerboard="0"
     inkscape:deskcolor="#d1d1d1"
     inkscape:zoom="0.23046875"
     inkscape:cx="351.45763"
     inkscape:cy="208.27119"
     inkscape:window-width="1312"
     inkscape:window-height="449"
     inkscape:window-x="0"
     inkscape:window-y="25"
     inkscape:window-maximized="0"
     inkscape:current-layer="svg1" />
  <defs
     id="defs1" />
  <g
     id="g1"
     transform="translate(-159.28497,-303.26124)">
    <path
       d="M 386,710.00368 223.5,709.48386 216,707.19432 C 198.42543,701.82929 183.62222,691.95247 174.0794,679.22455 163.60821,665.2584 159.73318,653.67593 159.78549,636.5 c 0.044,-14.44485 2.396,-23.27119 10.72041,-40.23016 3.57175,-7.27658 6.4941,-13.63717 6.4941,-14.13462 0,-0.49746 2.93304,0.65298 6.51786,2.55652 8.28605,4.39992 20.59553,8.89769 31.32535,11.44602 16.12599,3.82992 28.82125,4.98053 60.65679,5.49753 17.05,0.27689 31.51438,0.66464 32.14307,0.86166 0.84377,0.26442 0.79022,2.04153 -0.20449,6.78691 -4.14389,19.76878 -15.95977,38.59064 -30.14729,48.02249 -21.30399,14.16286 -48.90065,17.00219 -75.58068,7.77624 l -5.78939,-2.00197 2.05135,2.88086 c 4.23266,5.94423 12.69083,11.59057 23.90786,15.95998 L 228.5,684.5 426,684.81953 c 142.31349,0.23024 201.27224,-4.3e-4 211,-0.82553 47.60786,-4.03803 101.80071,-20.4481 137.24067,-41.55768 34.3909,-20.48472 58.43072,-43.5984 75.25853,-72.3592 1.0295,-1.75953 0.30763,-1.25637 -11.55259,8.0524 -51.56647,40.47316 -126.31421,67.58062 -206.44661,74.8684 -14.36848,1.30676 -61.83127,1.28094 -76.5,-0.0416 -27.57769,-2.48646 -59.55526,-7.29896 -106,-15.95261 -75.33949,-14.03735 -94.02449,-14.27312 -106.07159,-1.33843 -1.96438,2.1091 -4.3468,5.0868 -5.29428,6.61712 l -1.72268,2.78238 6.79428,-0.78238 c 12.86258,-1.48118 43.94732,-0.86237 55.29427,1.10074 21.46659,3.7139 35.7988,7.89256 47.45986,13.83728 l 4.95986,2.52849 -3.41861,0.75086 c -1.88023,0.41296 -16.93717,0.44024 -33.45986,0.0606 -32.02231,-0.73575 -68.85329,0.42239 -92.84441,2.91948 -7.80826,0.81271 -16.35968,1.69401 -19.00314,1.95845 l -4.80631,0.4808 4.58953,-5.10466 C 315.68534,647.01127 328,620.55806 328,605.84004 c 0,-2.99605 0.38463,-3.83685 1.75,-3.82552 5.85271,0.0486 38.51584,2.13397 47.75,3.04865 21.89993,2.16927 49.48586,6.6449 92,14.92637 53.07992,10.33961 72.2156,12.82221 105.5,13.68725 25.80628,0.67069 49.55844,-0.70154 70.5,-4.07299 l 14,-2.2539 -15,-0.71962 c -42.04963,-2.01733 -71.00155,-6.2319 -148.17329,-21.56981 -82.46628,-16.3902 -117.15324,-21.27004 -158.74508,-22.33262 l -8.91838,-0.22785 -1.70237,-10 c -3.05581,-17.95023 -6.66462,-27.50547 -16.46813,-43.60354 -12.14252,-19.93889 -27.3607,-36.22827 -48.99275,-52.44132 -19.22438,-14.40853 -43.40495,-27.69447 -67.02163,-36.82484 -4.9381,-1.90911 -8.96678,-3.84442 -8.95261,-4.3007 0.20415,-6.57576 8.59935,-39.73882 11.8663,-46.8748 5.62657,-12.29004 15.71497,-18.98062 27.53269,-18.25955 12.57103,0.76704 18.86539,5.96477 29.6646,24.49631 12.21948,20.96875 25.68196,31.7073 46.91065,37.41901 11.50248,3.09482 30.91082,3.12467 41.79149,0.0643 25.00369,-7.03274 44.22777,-25.02868 52.40261,-49.05486 2.75724,-8.10362 3.22561,-16.90277 2.24201,-42.11999 -0.39424,-10.10735 -0.29171,-10.74978 2.74169,-17.17961 3.90609,-8.27964 10.40414,-15.49877 16.3222,-18.13346 5.50817,-2.4522 13.97769,-2.55766 19.52635,-0.24312 5.68215,2.37023 9.01884,5.88386 24.2692,25.55619 7.46148,9.625 16.32103,20.875 19.68787,25 3.36685,4.125 6.44528,8.03547 6.84096,8.68994 0.45291,0.74913 -1.97442,3.33423 -6.55248,6.97839 -3.99955,3.18365 -10.55368,8.64397 -14.56473,12.13405 -4.01106,3.49008 -8.51106,6.53745 -10,6.77193 -1.48895,0.23448 -4.07156,0.65317 -5.73914,0.93042 -6.98686,1.16162 -14.22252,12.06999 -12.9606,19.53922 2.27689,13.4768 19.55884,19.7442 29.33758,10.63944 3.73438,-3.47699 5.48911,-7.77049 5.57507,-13.64115 L 472.5,402.58447 486,391.87156 c 7.425,-5.8921 13.95675,-10.7486 14.51501,-10.79223 0.55825,-0.0436 6.63325,5.57722 13.5,12.49079 L 526.5,406.14024 516.17105,416.07012 C 506.64635,425.22682 505.53429,426 501.88893,426 c -5.44933,0 -9.84344,2.04522 -13.60944,6.33446 -8.21363,9.35481 -6.05215,21.98854 4.69047,27.41554 5.7574,2.90855 10.44295,2.84519 16.60302,-0.2245 6.56084,-3.2694 8.84395,-7.17029 8.89092,-15.19088 l 0.0361,-6.16538 11.7317,-10.10684 11.73171,-10.10684 7.26829,6.11735 c 3.99757,3.36455 10.23891,8.21605 13.86966,10.78111 l 6.60135,4.66375 -8.10135,8.60074 c -7.78582,8.26574 -8.24611,8.58262 -11.81774,8.13563 -5.09692,-0.63788 -12.175,2.923 -15.82458,7.96111 -8.77979,12.12014 -0.43943,27.82047 14.75112,27.7683 9.95505,-0.0342 17.53628,-7.74144 17.10821,-17.39259 l -0.21773,-4.90904 10.44968,-9.28659 c 9.73982,-8.65575 10.58554,-9.18822 12.44968,-7.83836 1.1,0.79653 7.72005,4.89031 14.71122,9.09728 l 12.71123,7.64905 -7.62263,8.09835 c -7.39327,7.85467 -7.74656,8.08868 -11.74123,7.7769 -5.33068,-0.41606 -12.99601,4.51723 -15.93125,10.2531 -6.49656,12.6952 3.27572,26.5704 17.86159,25.36083 C 608.20661,519.98661 614,513.54249 614,503.53917 v -5.56016 l 9.60373,-9.40296 9.60372,-9.40296 8.64628,4.28406 c 4.75545,2.35623 11.6925,5.32858 15.41568,6.60523 3.72317,1.27665 6.64073,2.70719 6.48347,3.17897 -0.15726,0.47178 -3.40304,4.66453 -7.21284,9.31724 -6.47751,7.91061 -7.12591,8.42213 -9.99389,7.88409 -11.62927,-2.18167 -21.63227,14.1442 -15.9732,26.06982 2.73628,5.76627 8.48187,8.9875 16.03069,8.9875 7.01756,0 10.20771,-1.70211 14.20737,-7.58036 1.8432,-2.70893 2.26429,-4.54101 2.08024,-9.05068 l -0.23077,-5.65423 10.69188,-12.00284 10.69187,-12.00284 4.72789,1.43179 c 2.60033,0.78748 7.79693,2.13369 11.54799,2.99157 5.17573,1.18371 6.68588,1.90959 6.26339,3.01058 -0.30619,0.79793 -4.81985,7.20333 -10.03034,14.23421 -5.2105,7.03088 -9.95503,14.0496 -10.54341,15.59715 -3.29029,8.65412 7.90783,16.31133 15.32353,10.47813 1.43165,-1.12613 8.72218,-10.51121 16.20119,-20.85573 l 13.5982,-18.80822 19.18367,-0.61035 c 10.55101,-0.33569 26.15866,-1.52 34.68366,-2.63179 26.60332,-3.46949 39.46324,-2.3608 53.33864,4.59845 19.91227,9.98706 35.55714,34.63584 35.644,56.15775 0.0448,11.10619 -5.94696,26.37563 -15.74737,40.13059 -12.44471,17.46624 -39.56766,40.57965 -66.41912,56.60048 -43.85233,26.16435 -107.77193,45.36464 -161.31615,48.45646 -9.35,0.5399 -31.625,0.88078 -49.5,0.75752 -17.875,-0.12327 -105.625,-0.45805 -195,-0.74396 z M 247.14466,652.01041 c 3.49544,-1.09428 8.83034,-3.45678 11.85534,-5.25 L 264.5,643.5 238,642.86254 c -27.29999,-0.6567 -34.51663,-1.40792 -46.43449,-4.83362 -3.81397,-1.0963 -7.12922,-1.79855 -7.36721,-1.56055 -0.238,0.238 -0.0383,2.59167 0.44378,5.23038 0.85374,4.67306 1.02364,4.85604 6.54221,7.04572 8.64636,3.43074 19.87794,5.06693 35.46037,5.16579 11.50296,0.073 15.33162,-0.28184 20.5,-1.89985 z m 29.99839,-24.24301 c 0.90368,-1.17441 2.39162,-3.40252 3.30654,-4.95135 L 282.11307,620 254.80654,619.997 C 239.78794,619.995 223.45,619.50616 218.5,618.90969 c -8.31434,-1.00187 -22.83807,-3.94631 -26.59667,-5.39202 -1.20291,-0.4627 -2.112,0.62589 -3.68639,4.4143 -1.14935,2.76564 -1.78085,5.20239 -1.40333,5.415 1.67898,0.94555 11.21208,3.65432 16.68639,4.74133 6.59792,1.31011 52.58527,2.90369 64.5,2.23508 6.18251,-0.34693 7.78863,-0.79596 9.14305,-2.55616 z m 261.7032,-44.18789 c 2.44726,-1.26553 25.30118,-26.22401 32.40375,-35.38774 3.74623,-4.83338 3.68654,-9.40907 -0.17308,-13.26869 C 568.83163,532.67779 567.23681,532 564.19898,532 c -3.82181,0 -4.42568,0.51306 -17.94945,15.25 -15.78257,17.19839 -18.46843,20.32963 -20.10096,23.43426 -2.36256,4.49293 -0.54439,10.42281 3.9615,12.92023 3.11268,1.72523 5.36409,1.71879 8.73618,-0.025 z m -47.41226,-15.73139 c 2.19887,-1.00187 33.11067,-35.00508 39.31601,-43.24791 3.42473,-4.54921 2.99291,-9.0573 -1.27654,-13.32675 -3.12891,-3.12891 -3.94636,-3.45974 -7.25,-2.93413 -2.59553,0.41295 -4.78369,1.75429 -7.22346,4.428 -14.33022,15.70432 -34.71353,38.89119 -35.71456,40.62681 -0.66802,1.15822 -1.23052,3.69323 -1.25,5.63335 -0.0749,7.452 6.66465,11.8888 13.39855,8.82063 z m -42.01257,-20.10653 c 7.21614,-7.53431 39.0197,-43.81894 40.82332,-46.57525 2.74653,-4.19731 2.23016,-7.89144 -1.64474,-11.76634 -1.87,-1.87 -4.36735,-3.4 -5.54966,-3.4 -3.23462,0 -7.4491,2.51027 -10.66979,6.35525 -1.5843,1.8914 -9.86625,11.24773 -18.40433,20.79183 C 431.99175,537.72193 432,537.71088 432,542.59148 c 0,5.7032 3.66564,9.40852 9.30778,9.40852 3.44319,0 4.6333,-0.62462 8.11364,-4.25841 z m -96.12196,-38.68738 c 23.09185,-5.79545 44.75515,-19.02773 60.61227,-37.0229 12.01872,-13.63924 17.65293,-23.95802 16.42735,-30.08591 -0.72822,-3.64111 -5.59383,-7.9454 -8.98155,-7.9454 -4.25609,0 -6.07262,1.70989 -13.03058,12.26563 -7.97526,12.09905 -17.59986,21.83751 -28.74451,29.08457 -26.3684,17.14662 -57.04459,22.57816 -84.58186,14.97609 -1.94013,-0.5356 -0.35763,1.75621 7.07204,10.24185 l 9.57146,10.93186 8.42796,0.5 c 11.50553,0.68258 22.73812,-0.31325 33.22742,-2.94579 z M 268.5,581.97749 c -39.79627,-1.18662 -60.00283,-5.99877 -82.88052,-19.7378 l -7.89234,-4.73969 0.64751,-33 c 0.67017,-34.15436 2.37166,-65.38999 3.63994,-66.82114 1.50235,-1.69528 32.88652,13.29815 50.02005,23.89652 22.57469,13.96413 45.68797,35.17751 57.22861,52.52445 9.6935,14.57047 17.74994,33.8931 18.92928,45.40017 l 0.30747,3 -8,0.0965 c -4.4,0.0531 -18.8,-0.22547 -32,-0.61906 z"
       id="path1" />
  </g>
</svg>
