<svg version="1.2" xmlns="http://www.w3.org/2000/svg" viewBox="0 0 225 50" width="225" height="50"><style>.a{fill:none}.b{fill:#fffffe}</style><filter id="f0"><feFlood flood-color="#000000" flood-opacity="1" /><feBlend mode="normal" in2="SourceGraphic"/><feComposite in2="SourceAlpha" operator="in" /></filter><g filter="url(#f0)"><path class="a" d="m0.1 23.8h2.9v2.5h-2.9z"/><path class="b" d="m0.1 26.3h2.9v-2.5h-2.9z"/><path class="b" d="m23.6 3.2h2.4v-3h-2.4z"/><path class="b" d="m46.4 26.3h3.1v-2.5h-3.1z"/><path class="b" d="m23.6 49.9h2.4v-3h-2.4z"/><path fill-rule="evenodd" class="b" d="m26 36v10.9c11-0.6 19.9-9.5 20.4-20.6h-10.8c-0.6 5-4.6 9.1-9.6 9.7z"/><path fill-rule="evenodd" class="b" d="m26 3.2v11c5 0.5 9 4.6 9.6 9.6h10.8c-0.6-11.1-9.4-19.9-20.4-20.6z"/><path class="b" d="m35.6 23.8h-9.6v-9.7h-2.4v9.7h-9.6v2.5h9.6v9.7h2.4v-9.7h9.6v-2.5"/><path fill-rule="evenodd" class="b" d="m60.1 10.5h6.3c5.7 0 10.1 2.3 10.1 8.1 0 4.6-3.5 7.6-8.6 7.6h-7.8zm6.2 10.9h0.4c2 0 3.6-0.8 3.6-2.9 0-2.2-1.4-3.1-3.6-3.1h-0.4z"/><path class="b" d="m78.5 26.2h6.3v-15.7h-6.3z"/><path fill-rule="evenodd" class="b" d="m86.9 10.5h7.5c3.9 0 7.2 1.5 7.2 5.5 0 2.3-1 3.3-3.3 4v0.2c0.3 0.2 0.7 0.4 1 0.9l3.7 5.1h-7.2l-2.7-5h-0.1v5h-6.1zm6.1 6.9h0.4c1.1 0 2.1-0.1 2.1-1.3 0-1.2-1-1.3-2-1.3h-0.5z"/><path class="b" d="m104 10.5h11.5v4.3h-5.2v1.5h4.8v4.1h-4.8v1.5h5.4v4.3h-11.7v-15.7"/><path fill-rule="evenodd" class="b" d="m130.4 16.9c-1-0.9-2.3-1.6-3.7-1.6-1.8 0-3.4 1.4-3.4 3.1 0 1.7 1.7 3 3.5 3 1.4 0 2.6-0.5 3.6-1.4l-0.2 5.8c-1 0.5-3.3 0.6-4.4 0.6-4.9 0-8.7-3.4-8.7-7.9 0-4.6 3.9-8.2 8.9-8.2 1.4 0 2.9 0.2 4.2 0.6z"/><path class="b" d="m132 10.5h13.1v5.1l-3.5-0.1v10.7h-6.2v-10.7l-3.4 0.1v-5.1"/><path class="b" d="m155.6 12.3v4.4h5.9v1.8h-5.9v7.7h-2.2v-15.7h8.3v1.8h-6.1"/><path fill-rule="evenodd" class="b" d="m181 18.4c0 4.6-4.1 8.1-9 8.1-5 0-9-3.5-9-8.1 0-4.5 4.1-8.2 9-8.2 4.9 0 9 3.7 9 8.2zm-2.2 0c0-3.5-2.8-6.4-6.8-6.4-4 0-6.8 2.9-6.8 6.4 0 3.5 3.1 6.3 6.8 6.3 3.7 0 6.8-2.8 6.8-6.3z"/><path fill-rule="evenodd" class="b" d="m195.5 13.5c-1.2-1-2.9-1.5-4.5-1.5-3.9 0-6.8 2.9-6.8 6.4 0 3.4 2.9 6.3 6.7 6.3 1.7 0 3.3-0.5 4.6-1.6v2.3c-1.3 0.7-3 1.1-4.5 1.1-4.9 0-8.9-3.5-8.9-8.1 0-4.6 4-8.2 9.1-8.2 1.5 0 3 0.3 4.3 1.1z"/><path fill-rule="evenodd" class="b" d="m199.9 10.5v9.3c0 2.5 0.8 4.9 4.1 4.9 3.3 0 4.1-2.4 4.1-4.9v-9.3h2.2v9.9c0 3.5-2.4 6.1-6.3 6.1-3.9 0-6.3-2.6-6.3-6.1v-9.9z"/><path fill-rule="evenodd" class="b" d="m220.8 13.5c-0.6-1-1.4-1.5-2.7-1.5-1.4 0-2.9 0.9-2.9 2.3 0 1.2 1.3 1.8 2.4 2.2l1.2 0.4c2.4 0.9 4.3 2.1 4.3 4.7 0 2.9-2.4 4.9-5.5 4.9-2.8 0-4.9-1.8-5.3-4.4l2.2-0.4c-0.1 1.8 1.4 3 3.3 3 1.8 0 3.1-1.4 3.1-3.1 0-1.6-1.4-2.4-2.9-2.9l-1.2-0.5c-2-0.7-3.7-1.8-3.7-3.9 0-2.6 2.4-4.1 5-4.1 1.9 0 3.5 0.9 4.4 2.4z"/><path fill-rule="evenodd" class="b" d="m60.3 39.9v-8h0.9c2.1 3.8 2.4 4.3 2.8 5.2 0.5-0.9 0.8-1.4 2.8-5.2h1v8h-0.9c0-4.6 0-5.7 0-6.6-0.4 0.8-0.8 1.6-2.6 4.9h-0.6c-1.8-3.4-2.1-4-2.6-4.9 0 1.1 0 2.2 0 6.6zm14.2 0.1c-0.5 0-0.9-0.3-1-0.8-0.4 0.5-1 0.8-1.9 0.8-1.2 0-2.1-0.7-2.1-1.7 0-0.8 0.5-1.3 1.1-1.5 0.6-0.3 1.2-0.3 1.9-0.3 0.2 0 0.7 0 0.9 0.1v-0.5c0-0.3-0.1-0.7-0.3-0.9-0.2-0.3-0.6-0.4-1.1-0.4-0.6 0-1.5 0.2-2 0.8v-0.9c0.5-0.5 1.4-0.7 2.1-0.7 0.7 0 1.2 0.2 1.6 0.5 0.4 0.4 0.5 0.8 0.5 1.6 0 0.4 0 1.5 0 2 0 0.4 0 0.7 0.1 0.8 0 0.2 0.2 0.3 0.4 0.3 0.2 0 0.4 0 0.5-0.1v0.7c-0.2 0.1-0.5 0.2-0.7 0.2zm-1.1-2.7c-0.3-0.1-0.7-0.1-0.9-0.1-0.6 0-1 0-1.4 0.2-0.4 0.1-0.7 0.3-0.7 0.9 0 0.5 0.5 1 1.4 1 0.7 0 1.2-0.3 1.6-0.8 0-0.3 0-0.6 0-1.2zm2.8 2.6v-5.8h0.8v1c0.1-0.5 0.7-1.1 1.6-1.1q0.4 0 0.7 0.2v0.9h-0.1q-0.3-0.2-0.7-0.2c-0.8 0-1.3 0.4-1.5 1v4zm4.3 0v-8.5h0.8v5.4l2.6-2.7h1.2l-2.2 2.2 2.4 3.6h-1l-2-3-1 0.8v2.2zm8.3 0.1c-1.9 0-3.1-1.2-3.1-3 0-1.9 1.4-3 2.9-3 1.6 0 2.5 1 2.5 2.7q0 0.3 0 0.6h-4.5c0.1 1.1 0.9 2 2.3 2 0.7 0 1.5-0.3 2-0.8h0.1v0.8c-0.5 0.5-1.4 0.7-2.2 0.7zm1.5-3.5c0-1.1-0.6-1.8-1.8-1.8-0.7 0-1.8 0.5-1.9 1.9h3.7zm4 3.5c-0.5 0-1-0.2-1.2-0.5-0.2-0.3-0.3-0.8-0.3-1.4v-3.3h-0.9v-0.7h0.9c0 0 0 0 0.1-1.6h0.7v1.6h1.6v0.7h-1.6v3.2c0 0.5 0.1 0.7 0.2 0.9 0.1 0.2 0.4 0.3 0.7 0.3 0.3 0 0.6-0.1 0.9-0.2v0.7c-0.3 0.2-0.8 0.3-1.1 0.3zm2.4-5.9h0.8v5.8h-0.8zm0.4-1.3c-0.3 0-0.6-0.2-0.6-0.6 0-0.4 0.3-0.6 0.6-0.6 0.2 0 0.5 0.2 0.5 0.6 0 0.3-0.2 0.6-0.5 0.6zm2.5 7v-5.7h0.8v0.9c0.4-0.6 1.1-1.1 2.1-1.1 1.1 0 1.7 0.5 1.9 1.3 0.1 0.3 0.1 0.7 0.1 1.2v3.4h-0.8v-3.2c0-0.6-0.1-1-0.2-1.2-0.2-0.4-0.5-0.7-1.2-0.7-0.8 0-1.6 0.5-1.9 1.1v4zm6.7 0.8c0.5 0.5 1.4 0.8 2.2 0.8 0.9 0 1.5-0.3 1.7-0.7 0.3-0.3 0.3-0.8 0.3-1.4v-0.6c-0.3 0.6-0.9 1.1-2 1.1-1.5 0-2.8-1-2.8-2.8 0-2.2 1.6-3.1 2.9-3.1 0.9 0 1.7 0.4 2 1v-0.8h0.8v5.2c0 0.9-0.2 1.4-0.4 1.8-0.4 0.7-1.2 1.1-2.5 1.1-1 0-1.8-0.3-2.2-0.6zm4.2-4.8c-0.3-0.8-1-1.2-1.9-1.2-1 0-2.1 0.7-2.1 2.3 0 1.4 1 2 2.1 2 0.9 0 1.6-0.5 1.9-1.2zm9 4c-2.3 0-4.1-1.6-4.1-4.2 0-2.6 2-4.1 4.3-4.1 0.8 0 1.8 0.2 2.3 0.7v0.9h-0.1c-0.5-0.5-1.5-0.8-2.3-0.8-1.8 0-3.3 1.2-3.3 3.3 0 2.2 1.4 3.4 3.3 3.4 1 0 1.8-0.4 2.4-0.9v0.9c-0.5 0.4-1.5 0.8-2.5 0.8zm6.3 0c-1.7 0-2.9-1.3-2.9-3 0-1.8 1.3-3.1 3-3.1 1.7 0 2.9 1.3 2.9 3.1 0 1.7-1.3 3-3 3zm0-5.3c-1.2 0-2.1 1-2.1 2.3 0 1.3 0.9 2.2 2.2 2.2 1.2 0 2.1-1 2.1-2.2 0-1.3-0.9-2.3-2.2-2.3zm4.3 5.1v-5.7h0.8v0.9c0.4-0.6 1.1-1 2.1-1 1 0 1.5 0.4 1.7 1.1 0.4-0.6 1.1-1.1 2.2-1.1 1 0 1.6 0.4 1.8 1.2 0.1 0.3 0.1 0.7 0.1 1.3v3.3h-0.8v-3.2c0-0.6-0.1-1-0.2-1.2-0.1-0.4-0.5-0.6-1.1-0.6-0.8 0-1.5 0.4-1.8 1 0 0.2 0 0.5 0 0.7v3.3h-0.8v-3.2c0-0.6-0.1-1-0.2-1.2-0.2-0.4-0.5-0.6-1.2-0.6-0.8 0-1.5 0.4-1.8 1v4zm10.6 0v-5.7h0.8v0.9c0.4-0.6 1.1-1 2.1-1 1 0 1.5 0.4 1.7 1.1 0.4-0.6 1.1-1.1 2.2-1.1 1 0 1.6 0.4 1.8 1.2 0.1 0.3 0.1 0.7 0.1 1.3v3.3h-0.8v-3.2c0-0.6-0.1-1-0.2-1.2-0.1-0.4-0.5-0.6-1.1-0.6-0.8 0-1.5 0.4-1.8 1 0 0.2 0 0.5 0 0.7v3.3h-0.9v-3.2c0-0.6 0-1-0.1-1.2-0.2-0.4-0.5-0.6-1.2-0.6-0.8 0-1.5 0.4-1.8 1v4zm14.7 0v-0.8c-0.4 0.6-1.1 1-2.1 1-1.1 0-1.7-0.5-1.9-1.2q-0.2-0.6-0.2-1.4v-3.3h0.9v3.2c0 0.5 0 1 0.1 1.2 0.2 0.4 0.6 0.7 1.3 0.7 0.8 0 1.5-0.4 1.8-1v-4.1h0.9v5.7zm2.5 0v-5.7h0.8v0.9c0.4-0.6 1.1-1 2.2-1 1 0 1.6 0.4 1.8 1.2 0.1 0.3 0.1 0.7 0.1 1.3v3.3h-0.8v-3.2c0-0.6-0.1-1-0.2-1.2-0.1-0.4-0.5-0.6-1.2-0.6-0.7 0-1.5 0.4-1.8 1v4zm6.9-5.7h0.8v5.7h-0.8zm0.4-1.3c-0.3 0-0.6-0.2-0.6-0.5 0-0.4 0.3-0.6 0.6-0.6 0.3 0 0.6 0.2 0.6 0.6 0 0.3-0.3 0.5-0.6 0.5zm4.9 7.2c-1.6 0-3-1.1-3-3 0-1.7 1.3-3 3.1-3 0.7 0 1.4 0.2 1.8 0.6v0.9c-0.4-0.5-1.2-0.7-1.8-0.7-1.2 0-2.2 0.8-2.2 2.2 0 1.5 1.1 2.2 2.2 2.2q1.1 0 1.8-0.7v0.9c-0.4 0.4-1.1 0.6-1.9 0.6zm8 0c-0.6 0-1-0.3-1-0.8-0.4 0.5-1.1 0.8-1.9 0.8-1.3 0-2.1-0.7-2.1-1.7 0-0.8 0.5-1.3 1.1-1.5 0.6-0.3 1.1-0.3 1.9-0.3 0.2 0 0.6 0 0.8 0.1v-0.5c0-0.3 0-0.7-0.2-0.9-0.3-0.3-0.7-0.4-1.2-0.4-0.5 0-1.4 0.2-1.9 0.8h-0.1v-0.9c0.6-0.5 1.5-0.7 2.2-0.7 0.6 0 1.2 0.1 1.6 0.5 0.3 0.4 0.5 0.8 0.5 1.6 0 0.4 0 1.5 0 2 0 0.4 0 0.7 0 0.8 0.1 0.2 0.2 0.3 0.5 0.3 0.1 0 0.3 0 0.4-0.1v0.7c-0.1 0.1-0.4 0.2-0.6 0.2zm-1.2-2.7c-0.2-0.1-0.7-0.1-0.9-0.1-0.5 0-0.9 0-1.3 0.1-0.4 0.2-0.7 0.4-0.7 1 0 0.5 0.5 1 1.3 1 0.7 0 1.3-0.3 1.6-0.8 0-0.3 0-0.6 0-1.2zm4.6 2.7c-0.5 0-1-0.2-1.2-0.5-0.2-0.3-0.3-0.8-0.3-1.4v-3.3h-0.9v-0.7h0.9c0 0 0 0 0-1.6h0.8v1.6h1.6v0.7h-1.6v3.2c0 0.5 0.1 0.7 0.2 0.9 0.1 0.2 0.3 0.3 0.7 0.3 0.3 0 0.6-0.1 0.9-0.2v0.7c-0.3 0.2-0.8 0.3-1.1 0.3zm2.3-5.9h0.9v5.8h-0.9zm0.4-1.3c-0.3 0-0.5-0.2-0.5-0.6 0-0.4 0.3-0.6 0.5-0.6 0.3 0 0.6 0.2 0.6 0.6 0 0.3-0.2 0.6-0.6 0.6zm5.2 7.2c-1.8 0-3-1.3-3-3.1 0-1.7 1.3-3 3-3 1.7 0 3 1.3 3 3 0 1.8-1.3 3.1-3 3.1zm0-5.3c-1.3 0-2.2 1-2.2 2.2 0 1.4 1 2.3 2.2 2.3 1.2 0 2.1-1 2.1-2.3 0-1.2-0.9-2.2-2.1-2.2zm4.2 5.1v-5.7h0.9v0.9c0.3-0.6 1-1.1 2.1-1.1 1 0 1.7 0.5 1.8 1.3 0.1 0.3 0.2 0.7 0.2 1.2v3.4h-0.9v-3.2c0-0.6 0-1-0.1-1.2-0.2-0.4-0.6-0.7-1.3-0.7-0.7 0-1.5 0.5-1.8 1.1v4zm6.4-1.4h0.1c0.5 0.5 1.3 0.8 2 0.8 1.1 0 1.3-0.4 1.3-0.8 0-0.5-0.2-0.7-1.1-1l-0.9-0.3c-0.9-0.2-1.3-0.8-1.3-1.5 0-1 0.8-1.7 2.2-1.7 0.6 0 1.4 0.2 1.7 0.5v0.9c-0.4-0.4-1.2-0.6-1.8-0.6-0.9 0-1.3 0.3-1.3 0.8 0 0.4 0.3 0.7 1 0.9l0.9 0.3c1 0.3 1.5 0.8 1.5 1.6 0 0.9-0.6 1.7-2.2 1.7-0.7 0-1.6-0.3-2.1-0.7zm8.2-6.6h0.8v8h-0.8zm3 8v-5.7h0.8v0.9c0.4-0.6 1.1-1 2.1-1 1.1 0 1.7 0.4 1.9 1.2 0.1 0.3 0.1 0.7 0.1 1.3v3.3h-0.8v-3.2c0-0.6-0.1-1-0.2-1.2-0.2-0.4-0.5-0.6-1.2-0.6-0.8 0-1.5 0.4-1.9 1v4zm9 0.2c-1.6 0-2.9-1.2-2.9-3 0-1.8 1.3-3.1 3-3.1 0.8 0 1.5 0.3 1.9 0.7v0.9h-0.1c-0.4-0.5-1.1-0.8-1.8-0.8-1.1 0-2.2 0.8-2.2 2.3 0 1.5 1.1 2.2 2.2 2.2q1.2 0 1.8-0.7h0.1v0.9c-0.5 0.3-1.1 0.6-2 0.6zm4 0c-0.4 0-0.7-0.3-0.7-0.7 0-0.4 0.4-0.6 0.7-0.6 0.3 0 0.6 0.2 0.6 0.6 0 0.4-0.3 0.7-0.6 0.7z"/></g></svg>