<?xml version="1.0" encoding="UTF-8" standalone="no"?>
<!-- Created with Inkscape (http://www.inkscape.org/) -->

<svg
   version="1.1"
   id="svg1"
   fill="currentColor"
   stroke="currentColor"
   width="486.98895"
   height="661.95691"
   viewBox="0 0 486.98895 661.95691"
   xmlns="http://www.w3.org/2000/svg"
   xmlns:svg="http://www.w3.org/2000/svg">
   
  <defs
     id="defs1" />
  <g
     id="g1"
     transform="translate(-259.51105,-185.94821)">
    <path
      
       d="m 407.6193,846.96558 c -4.02448,-1.20498 -7.55449,-4.71707 -9.83081,-9.78088 -1.87975,-4.18161 -1.90607,-5.65313 -0.84959,-47.5 0.59964,-23.75158 1.53645,-64.71646 2.0818,-91.03306 l 0.99155,-47.84836 -3.21013,-4.15164 C 395.03654,644.36824 388.14888,635.975 381.4962,628 374.84352,620.025 361.49035,603.6 351.82248,591.5 333.69471,568.81184 323.41285,556.08575 292.5,518.07522 258.88351,476.74027 259.49064,477.82763 259.51469,459 l 0.0147,-11.5 5.12683,-11 c 2.81976,-6.05 12.19343,-25.4 20.83039,-43 8.63695,-17.6 19.47725,-39.72376 24.08956,-49.16392 12.30196,-25.17882 19.11593,-31.25856 36.02846,-32.14624 8.99171,-0.47194 15.29476,1.13453 58.89539,15.0108 10.45,3.32581 32.15527,9.99422 48.23393,14.8187 16.09591,4.82965 31.30926,9.988 33.85183,11.47805 11.06776,6.48614 17.85102,17.21032 17.71186,28.00204 -0.1171,9.08146 -8.11612,34.38828 -13.11725,41.49955 C 483.99714,433.21307 471.67923,440 460.32446,440 c -2.45568,0 -19.54209,-3.825 -37.96981,-8.5 -18.42771,-4.675 -33.87226,-8.5 -34.32121,-8.5 -0.44896,0 -1.50231,1.6875 -2.3408,3.75 -0.83848,2.0625 -3.99203,8.9772 -7.00788,15.366 l -5.48337,11.616 29.05674,8.86391 c 15.9812,4.87516 30.08654,9.67397 31.34519,10.66402 1.93699,1.52364 14.7748,18.05436 56.49015,72.74007 12.46376,16.33905 34.24745,44.52497 36.69131,47.47487 l 2.46453,2.97487 -0.37465,71.19985 c -0.37181,70.65851 -0.35896,71.22133 1.68987,74.02513 1.1355,1.5539 3.79787,3.68561 5.91638,4.73712 3.49654,1.73549 4.22017,1.78162 7.84488,0.5 2.19617,-0.77651 4.90704,-2.6465 6.02417,-4.15554 1.96616,-2.65594 2.02682,-3.9994 1.89614,-42 -0.0742,-21.59096 -0.15999,-56.18271 -0.19054,-76.87055 L 552,586.2715 545.76482,578.38575 C 542.33547,574.04859 525.43993,552.275 508.21917,530 490.9984,507.725 473.07158,484.6142 468.38177,478.64267 458.36331,465.88616 457.89863,465 461.22786,465 c 3.65739,0 14.5781,-3.76952 20.50699,-7.07843 8.84884,-4.93853 9.95987,-4.49126 23.76515,9.56728 15.50825,15.79275 23.90251,20.71455 52,30.48912 18.81968,6.54701 25.72226,10.16694 30.37028,15.92715 12.00086,14.87247 22.5006,22.92334 36.36775,27.88563 6.05924,2.16827 9.00098,2.60023 17.76197,2.60813 26.02335,0.0235 38.24972,-8.75589 68.44646,-49.14928 8.73734,-11.68771 16.07733,-21.05914 16.31108,-20.82539 1.07166,1.07166 -2.17814,27.7423 -5.24875,43.07579 -5.72046,28.56582 -13.96268,52.37124 -27.00616,78 -12.39312,24.35086 -21.94459,38.49782 -40.87035,60.53418 L 643,668.41397 l 0.0339,14.04301 c 0.0186,7.72366 0.44419,44.8285 0.94566,82.4552 0.79477,59.6336 0.72137,68.86787 -0.57203,71.9634 -2.01721,4.82787 -4.1809,7.07322 -8.90752,9.24369 -3.80728,1.74831 -9.29976,1.83372 -114,1.77282 -60.5,-0.0352 -111.29631,-0.45213 -112.8807,-0.92651 z M 634,521.39685 c -20.51401,-5.48854 -34.8875,-27.52042 -29.66559,-45.47183 0.9548,-3.28231 4.86935,-10.36211 9.91107,-17.92502 7.2651,-10.89812 18.06645,-27.45531 51.98444,-79.68598 7.95685,-12.25283 10.87663,-15.29726 18.29355,-19.07449 9.15822,-4.66403 19.90239,-3.51521 32.44226,3.46889 8.68207,4.8355 22.53524,18.83151 26.53427,26.80786 2.66787,5.32127 3,6.9801 3,14.98372 0,7.32666 -0.41764,9.83667 -2.24625,13.5 -2.19975,4.40683 -14.70724,20.78211 -31.49506,41.23454 -4.63437,5.646 -12.39216,15.44046 -17.23954,21.76546 -14.17972,18.50212 -26.20861,32.43795 -30.91925,35.82087 -7.97552,5.72759 -19.72724,7.48497 -30.5999,4.57598 z m -84.07451,-51.76002 c -10.15464,-3.58486 -16.64695,-7.55164 -22.0687,-13.4839 -9.87827,-10.8084 -13.35125,-22.92924 -9.75215,-34.03538 C 518.74941,420.1279 531.28505,397.8 545.9616,372.5 560.63815,347.2 575.53834,321.3275 579.07312,315.00557 589.55088,296.26615 598.59257,289 611.43333,289 c 13.2541,0 35.4301,12.44248 45.14271,25.3286 7.39497,9.81122 9.36405,21.41101 5.42274,31.94512 -1.10067,2.94181 -6.68789,12.52119 -12.41604,21.28751 -5.72815,8.76632 -16.84602,25.83877 -24.70638,37.93877 -7.86037,12.1 -17.94941,27.625 -22.42009,34.5 -4.47068,6.875 -9.98773,14.83089 -12.26012,17.67976 -10.35376,12.9804 -25.02909,17.33777 -40.27066,11.95707 z m -27.0777,-112.40759 c -8.04969,-12.62761 -18.48174,-21.62168 -31.44775,-27.11288 -3.79502,-1.60722 -13.80514,-4.84012 -22.24472,-7.18422 -8.96799,-2.49087 -15.56774,-4.84331 -15.88145,-5.66084 -0.72291,-1.88387 -0.5902,-2.15737 19.03925,-39.2368 12.55355,-23.71327 18.34251,-33.63752 21.47357,-36.813 11.84741,-12.0155 26.67016,-12.33727 48.40869,-1.05083 17.94738,9.31811 27.53137,21.27801 28.55887,35.63878 0.3556,4.96997 0.0258,8.39806 -1.13934,11.84264 -1.61877,4.78571 -41.50342,75.36736 -42.56626,75.32715 -0.30176,-0.0114 -2.19214,-2.59891 -4.20086,-5.75 z M 415.5,305.4128 c -7.7,-2.42637 -25.42901,-7.58162 -39.39781,-11.45611 -13.96879,-3.87449 -26.23129,-7.4906 -27.25,-8.0358 C 347.83349,285.3757 347,284.07784 347,283.03676 c 0,-1.04107 9.01313,-19.91695 20.02919,-41.94638 17.17904,-34.35392 20.72506,-40.74939 24.91939,-44.94372 10.23347,-10.23348 22.60921,-12.7441 37.6028,-7.62836 16.52473,5.63816 30.6833,14.77311 36.48855,23.54201 5.99815,9.06029 6.40935,20.79219 1.12003,31.95572 -7.48857,15.80522 -34.89691,65.49155 -36.20999,65.6421 -0.79748,0.0914 -7.74997,-1.81896 -15.44997,-4.24533 z"
       id="path1" />
  </g>
</svg>
