<?xml version="1.0" encoding="UTF-8" standalone="no"?>
<!-- Created with Inkscape (http://www.inkscape.org/) -->

<svg
   version="1.1"
   id="svg1"
   fill="currentColor"
   stroke="currentColor"
   width="624.29767"
   height="524.89856"
   viewBox="0 0 624.29767 524.89856"
   xmlns="http://www.w3.org/2000/svg"
   xmlns:svg="http://www.w3.org/2000/svg">
  <defs
     id="defs1" />
  <g
     id="g1"
     transform="translate(-200.70236,-256.9495)">
    <path
       d="m 231.99061,781.38929 c -0.005,-0.48911 -9.7e-4,-46.00179 0.009,-101.13929 l 0.019,-100.25 h -15.46268 -15.46267 l -0.29664,-16.58599 c -0.16316,-9.12229 -0.10915,-16.77229 0.12002,-17 C 201.14583,546.18631 341.65833,546 513.16667,546 H 825 v 17 17 H 810 795 V 680.5 781 H 777.5 760 V 680.5 580 H 742.00478 724.00957 L 723.75478,680.75 723.5,781.5 l -203,-0.28013 c -111.65,-0.15408 -206.4875,-0.26658 -210.75,-0.25 L 302,781 V 680.5 580 H 283.5 265 V 680.5 781 l -11.25,0.009 c -6.1875,0.005 -13.6125,0.29246 -16.5,0.63929 -2.8875,0.34683 -5.25422,0.23042 -5.25939,-0.25869 z M 201,508 v -16 h 312 312 v 16 16 H 513 201 Z m 48.42341,-37.33899 c -0.29424,-0.76678 -0.39613,-18.44169 -0.22643,-39.27758 0.29124,-35.75721 0.42596,-38.16934 2.40047,-42.9775 4.79172,-11.66847 13.67576,-20.42082 25.04238,-24.67117 5.59779,-2.09319 7.61891,-2.2067 45.14135,-2.53519 42.99855,-0.37644 53.31911,0.32628 61.79732,4.20774 6.81277,3.11899 14.28696,10.09217 17.86641,16.66881 5.24783,9.642 5.53037,12.32672 5.54322,52.67388 L 407,472 H 392.5 378 V 446.5 421 h -6.48283 -6.48283 L 364.76717,446.25 364.5,471.5 328.25,471.76247 292,472.02495 V 446.51247 421 h -6.48283 -6.48283 l -0.26717,25.25 -0.26717,25.25 -14.2708,0.27758 c -11.47027,0.22311 -14.37579,0.004 -14.80579,-1.11657 z M 434.19702,432.27704 434.5,392.5 l 3.10264,-6.54737 c 5.23419,-11.0455 12.77595,-17.97389 24.16428,-22.19898 5.40977,-2.00704 7.95187,-2.14924 45.07804,-2.52158 43.60496,-0.43731 53.05964,0.24996 62.10074,4.51418 7.19747,3.39467 16.41193,12.60893 19.62278,19.62237 3.609,7.88308 4.41532,17.79487 4.42393,54.38138 L 593,472 H 578 563 V 446.5 421 h -6.5 -6.5 v 25.51232 25.51232 L 513.25,471.76232 476.5,471.5 l -0.26727,-25.29727 -0.26727,-25.29727 -6.23273,0.29727 L 463.5,421.5 v 25 25 l -14.80298,0.27704 -14.80298,0.27703 z M 619,435.2101 c 0,-29.42387 0.29937,-37.93928 1.49524,-42.5305 3.83748,-14.73308 12.02059,-23.5961 26.67605,-28.89246 6.23233,-2.25231 6.99875,-2.28714 50.32871,-2.28714 38.73994,0 44.65751,0.20483 49.5,1.71339 12.58119,3.91936 22.44971,12.80617 27.1431,24.44294 2.31627,5.74293 2.36196,6.52028 2.65044,45.09367 L 777.08708,472 H 762.54354 748 l -0.19975,-21.75 c -0.10986,-11.9625 -0.22236,-23.325 -0.25,-25.25 L 747.5,421.5 741.25,421.20228 735,420.90457 V 446.45228 472 H 698.5 662 l -0.004,-12.75 c -0.002,-7.0125 -0.29667,-18.4875 -0.65432,-25.5 L 660.69136,421 H 654.84568 649 V 446.5 472 H 634 619 Z M 322.13495,345.98091 c -8.1768,-1.20476 -19.09943,-7.06747 -24.81179,-13.3177 -9.93306,-10.86835 -14.12734,-22.94212 -12.34223,-35.52874 2.96439,-20.90165 15.75104,-35.22898 35.01907,-39.23856 32.05069,-6.66958 60.68639,23.01312 52.50476,54.42449 -5.89967,22.65039 -27.43248,37.04006 -50.36981,33.66051 z m 366.12771,-0.49502 c -13.60737,-2.95631 -24.97583,-12.06396 -31.43436,-25.18309 -2.86405,-5.81772 -3.31982,-7.85177 -3.66063,-16.33688 -0.63831,-15.89217 3.56748,-26.05408 15.16669,-36.64532 6.85384,-6.25824 14.08805,-9.19354 24.56827,-9.96862 22.88925,-1.69282 41.92746,12.2286 47.74569,34.91337 2.45369,9.56667 1.41028,18.82386 -3.20268,28.4146 -6.37645,13.2572 -16.077,21.10759 -30.50953,24.69053 -7.71732,1.91586 -10.31245,1.9319 -18.67345,0.11541 z m -190.04321,-1.87871 c -10.29472,-3.8971 -16.82694,-9.27284 -22.83765,-18.79441 -13.80312,-21.86557 -5.62287,-52.2304 17.06061,-63.3284 17.07295,-8.35301 40.15783,-4.36131 52.42945,9.06581 9.97018,10.90895 14.32332,24.0686 12.28942,37.15116 -2.36828,15.23333 -11.17785,27.22951 -25.02733,34.08025 -6.98943,3.45737 -8.22327,3.73542 -17.57555,3.96076 -8.54098,0.2058 -11.00589,-0.11632 -16.33895,-2.13517 z"
       id="path1" />
  </g>
</svg>
