<?xml version="1.0" encoding="UTF-8" standalone="no"?>
<!-- Created with Inkscape (http://www.inkscape.org/) -->

<svg
   version="1.1"
   id="svg1"
   fill="currentColor"
   stroke="currentColor"
   width="1024"
   height="1024"
   viewBox="0 0 1024 1024"
   xmlns="http://www.w3.org/2000/svg"
   xmlns:svg="http://www.w3.org/2000/svg">
  <defs
     id="defs1" />
  <g
     id="g1">
    <path
       d="m 475,913.38141 c -36.77806,-1.58634 -80.27038,-5.8111 -96.66062,-9.38941 -18.58022,-4.05643 -26.40929,-10.36433 -22.50648,-18.13349 3.84671,-7.65752 13.07228,-11.03455 46.1671,-16.89955 11.21178,-1.98693 39.43306,-3.93986 71.5,-4.94786 51.93101,-1.63241 128.64351,0.94726 147.5,4.96009 2.475,0.5267 9.34968,1.83693 15.27706,2.91163 17.71155,3.21129 28.72294,9.66033 28.72294,16.82217 0,4.52984 -4.83496,9.71661 -11.31033,12.13332 -11.19996,4.17999 -38.21694,8.01057 -75.18967,10.6607 -20.89006,1.49735 -85.27737,2.66839 -103.5,1.8824 z M 224.7414,836.71435 c -2.06723,-1.25147 -4.99223,-4.06166 -6.5,-6.24487 L 215.5,826.5 215.22428,754.57505 214.94857,682.6501 205.19275,672.07505 C 176.58823,641.06849 160.06791,615.25205 146.16942,579.83881 133.26902,546.96874 128.20006,519.87448 127.30384,479 c -0.89106,-40.63989 1.76618,-69.29993 9.13481,-98.5247 11.06264,-43.87562 31.52565,-81.24992 63.84892,-116.61572 17.40312,-19.04125 29.56077,-29.28214 52.71243,-44.40188 27.7516,-18.12385 51.422,-28.30037 83.5,-35.89885 33.91305,-8.03315 29.42135,-7.80778 161.5,-8.10339 64.075,-0.14341 123.16316,0.13744 131.30703,0.62411 55.15644,3.29607 104.98976,21.79493 150.56337,55.89132 40.17395,30.05657 72.84702,71.41573 91.66115,116.02911 10.65475,25.26528 19.01493,59.4162 21.4201,87.5 4.48858,52.41052 -4.327,106.32522 -24.93524,152.5 -12.77845,28.63137 -29.93027,53.3846 -54.86573,79.18135 l -12.11275,12.53114 -0.26897,74.05135 -0.26896,74.05135 -3.0711,3.8424 c -4.45167,5.56971 -8.74288,7.52797 -15.54368,7.09326 -7.1448,-0.45671 -9.11278,-1.92735 -33.04705,-24.6957 -10.08599,-9.59467 -29.96147,-28.49467 -44.16773,-42 -14.20625,-13.50533 -27.03125,-25.09735 -28.5,-25.76005 -2.04739,-0.92377 -41.57398,-1.21542 -169.41409,-1.25 L 340.01269,745 l -7.75634,6.87326 c -4.26599,3.78029 -8.88135,8.10797 -10.25635,9.61706 -2.017,2.2137 -50.0751,48.50571 -71.5,68.87242 -2.75,2.61418 -6.66957,5.627 -8.71016,6.69516 -5.13644,2.68869 -12.27736,2.54479 -17.04844,-0.34355 z M 767,724.37104 v -58.62896 l 14.40222,-14.12104 c 7.92122,-7.76657 17.99185,-18.44724 22.37917,-23.73483 C 857.3005,563.38525 875.12103,469.39439 849.83226,385 c -4.25941,-14.21464 -17.555,-45 -19.4346,-45 -0.65877,0 -40.55446,38.44577 -79.38509,76.5 -44.51024,43.62029 -66.9329,64.91536 -70.28444,66.75 -9.64247,5.2783 -21.18973,-1.29369 -22.48642,-12.79788 l -0.515,-4.56908 9.89079,-9.69152 c 5.43994,-5.33034 20.23893,-19.82223 32.88665,-32.20421 C 787.92024,338.40789 813,313.65924 813,312.97667 813,311.07822 798.60763,294.41766 787.099,282.99376 772.22987,268.2341 759.89885,258.17036 743.64632,247.5306 732.3686,240.14762 710.46175,229.01862 697.5,224.08759 c -3.3,-1.25541 -6.9,-2.65625 -8,-3.11298 -7.58541,-3.14952 -30.06376,-8.85023 -46,-11.666 -15.23836,-2.69247 -56.90671,-2.40546 -76.03107,0.52369 -33.82124,5.18018 -64.16277,17.01452 -92.96893,36.26138 -49.15546,32.84325 -86.13095,81.44294 -102.25869,134.40632 -5.7275,18.80908 -8.23842,31.99116 -10.19068,53.5 -4.91409,54.14076 7.96998,108.22943 36.13825,151.71209 3.30922,5.10835 6.56434,9.28791 7.2336,9.28791 0.66927,0 2.12846,-1.0125 3.24264,-2.25 4.47074,-4.96554 73.90342,-72.1119 88.08147,-85.18106 5.64034,-5.1992 10.12927,-6.7282 16.09477,-5.48211 4.59014,0.95879 9.88581,6.37444 11.4049,11.66328 L 525.5,518.11514 545,499.37055 c 10.725,-10.30953 35.62751,-34.52293 55.3389,-53.80757 19.7114,-19.28464 37.25438,-35.85048 38.9844,-36.81298 4.18833,-2.33018 7.34885,-2.2059 12.71481,0.5 8.16719,4.11847 11.26203,14.7391 6.17826,21.20206 -1.09078,1.3867 -11.59819,11.83006 -23.3498,23.20747 C 623.11496,465.03694 606.075,481.57331 597,490.40702 c -38.29181,37.27369 -50.03724,48.63075 -59.5,57.53263 -5.5,5.17399 -14.275,13.50509 -19.5,18.51353 -5.225,5.00845 -17.6,16.72886 -27.5,26.04535 -9.9,9.3165 -23.98175,22.65459 -31.29277,29.6402 l -13.29277,12.70111 4.79277,4.44659 c 26.37752,24.4723 53.41583,42.56514 81.53356,54.55867 5.35743,2.28519 10.01442,4.1549 10.34887,4.1549 0.33444,0 2.02609,0.65587 3.75921,1.45749 6.4898,3.00172 18.62836,6.49618 33.65113,9.68751 15.33346,3.25732 15.7901,3.29281 42.5,3.30288 25.96368,0.01 46.65353,-1.62395 56.56525,-4.46659 2.44032,-0.69988 3.49933,-0.38835 6.1894,1.82073 8.29058,6.8082 20.42605,17.65249 33.24535,29.70813 C 743.59311,763.10842 765.41838,783 766.21757,783 766.64791,783 767,756.61697 767,724.37104 Z M 553.5,656.1291 c -4.90441,-2.24007 -8.5,-8.13871 -8.5,-13.94443 0,-3.97101 0.51206,-4.5494 28.75,-32.47382 39.58293,-39.14345 48.93179,-48.01808 52.05637,-49.41575 C 635.185,556.09992 647,563.62869 647,573.80014 c 0,6.31641 -0.85417,7.31362 -30.54534,35.6605 -12.07506,11.52835 -27.26298,26.15335 -33.75093,32.5 -16.84291,16.4761 -20.38691,18.1955 -29.20373,14.16846 z m 82,0.0103 c -5.88819,-3.63711 -8.93115,-9.6521 -7.81035,-15.43869 0.65527,-3.38317 8.98419,-12.11184 38.31035,-40.14912 30.91939,-29.56048 38.77132,-37.17155 77.87777,-75.48876 22.20778,-21.75958 41.78278,-40.33151 43.5,-41.27095 11.57711,-6.33352 26.66631,6.88356 21.1441,18.52076 -0.96155,2.02632 -13.56209,15.01372 -29.84306,30.75931 C 763.18047,548.0607 739.7,570.93987 726.5,583.9146 c -45.05677,44.28783 -71.65038,69.59671 -75.76693,72.10665 -4.15168,2.53137 -11.23732,2.58634 -15.23307,0.11819 z m 47,-116.01014 c -5.55046,-3.44725 -7.58427,-6.51458 -8.12726,-12.25725 -0.38639,-4.08646 -0.0553,-6.20964 1.38365,-8.87205 2.25064,-4.16433 9.08868,-8.00734 14.2055,-7.98355 8.89183,0.0413 16.98599,9.4136 15.53697,17.9903 -0.76979,4.55632 -4.31871,9.33161 -8.56832,11.52917 -3.92878,2.03165 -10.81717,1.83755 -14.43054,-0.40662 z m -266,-42.04995 c -9.5118,-2.33191 -14.49038,-12.39591 -10.21864,-20.65655 0.83179,-1.60849 6.39626,-7.59042 12.36549,-13.29317 5.96923,-5.70275 32.08013,-31.46249 58.02421,-57.24387 25.94408,-25.78138 48.36087,-47.3276 49.8151,-47.8805 13.53759,-5.14698 26.52455,8.25564 19.37462,19.99474 -2.27813,3.74034 -8.17463,9.6821 -73.3503,73.91327 -23.09423,22.75956 -43.11923,42.17935 -44.5,43.15509 -3.11083,2.19832 -7.56917,2.97724 -11.51048,2.01099 z m 308.39788,-1.34928 c -12.81411,-8.56038 -6.11695,-27.75987 9.22436,-26.44452 11.09948,0.95167 17.38494,12.21438 11.60396,20.79277 -5.25005,7.79056 -14.05164,10.17886 -20.82832,5.65175 z M 431,357.29377 c -7.22545,-2.6413 -11.30184,-13.95678 -7.59889,-21.09343 1.99814,-3.851 41.94562,-43.00147 45.10095,-44.20112 4.2443,-1.61368 10.71737,-1.17099 13.94001,0.95335 3.80483,2.50812 7.54731,8.72855 7.54907,12.54743 7.6e-4,1.65 -0.92983,4.575 -2.06799,6.5 -2.58528,4.37257 -42.58627,43.78049 -45.73825,45.06012 -2.4766,1.00545 -8.717,1.13581 -11.1849,0.23365 z M 267.79133,766.3265 c 9.18977,-8.62042 19.29617,-18.10229 22.45867,-21.07081 3.1625,-2.96852 5.75,-5.57522 5.75,-5.79267 0,-0.21745 -4.8375,-0.52308 -10.75,-0.67919 L 274.5,738.5 l -0.19819,-41.97454 -0.19818,-41.97454 -2.80182,-2.02482 C 269.76082,651.41244 264,646.63827 258.5,641.91682 220.25457,609.08521 194.74692,560.54566 187.33813,506.5 c -2.47265,-18.0375 -2.44984,-65.61956 0.0398,-83 5.5851,-38.99028 16.10549,-67.25269 34.99055,-94 9.91272,-14.0396 14.21262,-19.22671 25.56126,-30.83535 17.00712,-17.39677 32.4091,-29.13721 53.07027,-40.4538 23.71189,-12.98753 60.25628,-23.56634 86,-24.89513 l 11.5,-0.59358 -2.07243,2.38893 c -10.58226,12.19836 -16.40933,19.2907 -24.60083,29.94258 -42.06682,54.70193 -65.19715,114.02311 -67.50786,173.13392 -0.67303,17.21715 -0.0598,20.44171 4.44939,23.39625 3.64746,2.38991 9.54596,2.31095 12.9328,-0.17312 4.61027,-3.38139 6.29563,-7.90882 6.29738,-16.91683 8.5e-4,-4.40337 0.68217,-13.82461 1.51405,-20.93608 7.53551,-64.41911 32.30967,-115.97935 79.96794,-166.43005 7.61344,-8.05954 22.78653,-21.17994 32.51956,-28.12017 4.125,-2.94136 7.84493,-5.63879 8.26651,-5.99426 0.42158,-0.35548 -2.60943,-3.67977 -6.73558,-7.38731 l -7.50208,-6.74099 -28.50397,0.0842 c -30.42508,0.0899 -37.92358,0.69206 -57.42648,4.61144 -34.2562,6.88425 -72.089,25.05307 -100.20336,48.12163 -15.65633,12.84643 -35.18269,34.1686 -47.11266,51.44555 -22.24196,32.21076 -33.87476,63.07696 -40.45867,107.35213 -2.26533,15.23384 -2.57051,67.11548 -0.49116,83.5 6.28606,49.53185 22.38798,89.57589 50.46422,125.5 10.37752,13.27826 21.06264,24.84081 29.8868,32.34102 L 250,668.48471 v 56.75764 C 250,756.45906 250.2436,782 250.54133,782 c 0.29773,0 8.06023,-7.05307 17.25,-15.6735 z m 57.2,-50.36097 c 0.27977,-0.29397 1.80686,-1.53147 3.39353,-2.75 L 331.26972,711 l 80.61514,-0.0333 c 76.35585,-0.0315 80.50111,-0.12397 78.45692,-1.75 -1.18702,-0.9442 -8.62877,-5.68526 -16.53721,-10.53568 -17.64387,-10.82136 -30.27186,-20.20883 -45.45598,-33.79133 -17.89572,-16.00809 -14.85718,-15.18878 -24.01314,-6.47486 l -7.83545,7.45717 9.48025,9.56399 9.48025,9.56398 -4.98025,0.098 c -2.73914,0.0539 -16.23025,0.0407 -29.98025,-0.0294 l -25,-0.12744 -18,17.17136 c -9.9,9.44425 -18.17423,17.67 -18.38718,18.27943 -0.31158,0.89171 3.67165,-2.10759 5.87851,-4.42641 z"
       id="path1" />
  </g>
</svg>
