<?xml version="1.0" encoding="UTF-8" standalone="no"?>
<!-- Created with Inkscape (http://www.inkscape.org/) -->

<svg
   version="1.1"
   id="svg1"
   fill="currentColor"
   stroke="currentColor"
   width="830.66669"
   height="750.66669"
   viewBox="0 0 830.66669 750.66669"
   xmlns="http://www.w3.org/2000/svg"
   xmlns:svg="http://www.w3.org/2000/svg">
  <defs
     id="defs1" />
  <g
     id="g1">
    <path

       d="m 199.53999,746.89503 c -1.93962,-2.14325 -2.20665,-6.833 -2.20665,-38.75432 0,-22.48375 0.52571,-37.29831 1.38024,-38.89501 1.33664,-2.49753 3.50765,-2.57902 68.7095,-2.57902 73.88636,0 74.47008,-0.0582 78.48837,-7.82875 4.84684,-9.37274 0.30154,-18.62596 -10.48326,-21.34161 -3.99143,-1.00505 -27.40804,-1.4963 -71.32485,-1.4963 h -65.38247 l -2.57731,-5 C 194.64458,628.092 170.7846,603.86537 139.11646,573.09661 109.16907,543.99974 68.422769,504.09973 48.569113,484.42994 16.661441,452.81776 11.999267,447.66073 8.40258,440.00001 6.1646423,435.23335 3.6585418,428.15381 2.8334679,424.26772 1.8193104,419.49104 1.3333334,391.80802 1.3333334,338.81461 l 0,-78.38748 L 18.56893,209.21357 C 28.048508,181.04611 42.445161,137.59421 50.561492,112.6538 58.927019,86.947637 66.772499,65.167774 68.675641,62.367049 77.10001,49.969475 93.927437,46.35513 107.77696,53.968518 c 7.75897,4.265277 12.09994,8.760195 16.62011,17.209524 2.91444,5.447823 2.93905,6.055938 3.31131,81.799298 0.42748,86.9809 1.73979,78.00779 -12.23944,83.68937 -13.23882,5.38066 -22.462793,11.66398 -34.253499,23.3333 -21.90118,21.6757 -31.843239,45.67436 -31.872034,76.93437 -0.0178,19.3216 5.090636,34.70966 16.393184,49.38096 3.256087,4.22657 30.179149,31.44912 59.829029,60.49455 39.11825,38.32078 55.20382,53.23726 58.62873,54.36758 10.12412,3.34126 20.41172,-4.10662 20.41172,-14.7774 0,-5.45871 -0.26242,-5.74404 -53.59692,-58.27615 -63.538748,-62.58284 -61.009148,-59.0663 -61.009148,-84.81217 0,-15.41049 0.166841,-16.36074 4.374099,-24.91309 5.392206,-10.96107 14.839529,-19.82336 25.357059,-23.78679 6.28918,-2.37001 9.67474,-2.77094 19.60218,-2.32132 20.72218,0.93852 18.46774,-0.8288 93.88967,73.60295 96.50654,95.23956 107.01214,105.87458 114.03495,115.43985 9.75255,13.28324 15.2134,24.81775 21.1468,44.66666 2.70938,9.06362 2.80331,12.35804 3.25035,114.00001 l 0.46035,104.66667 -2.8721,2.33333 c -2.66615,2.16601 -8.77477,2.33333 -85.18441,2.33333 -78.04951,0 -82.42659,-0.12627 -84.51896,-2.43832 z m 260.7567,0.36272 -2.96335,-2.07561 V 649.7622 c 0,-103.60347 0.46276,-111.87095 7.46822,-133.42411 4.08358,-12.56362 11.83791,-27.26627 19.74456,-37.43676 3.23588,-4.16239 44.48678,-46.03102 91.66866,-93.0414 97.08776,-96.73485 92.36051,-92.82161 113.11857,-93.64016 16.16237,-0.63733 24.44384,2.64688 36.12194,14.32497 9.4462,9.44621 13.60848,17.75656 15.30721,30.56217 1.1117,8.38042 -1.32134,22.86165 -5.30246,31.55977 -3.63397,7.93965 -4.61356,8.96169 -63.7553,66.51772 -50.10969,48.76615 -50.37966,49.10862 -45.75799,58.04593 2.47743,4.79084 9.23833,9.42396 13.76276,9.43137 7.49601,0.0123 13.61475,-4.93484 48.15806,-38.93664 78.0018,-76.77905 80.75063,-79.89889 87.50196,-99.31234 6.61283,-19.01518 6.48759,-44.8687 -0.31291,-64.5983 -9.16577,-26.59171 -32.14094,-50.8423 -58.64909,-61.90488 -4.9908,-2.0828 -10.44298,-4.64582 -12.11595,-5.6956 l -3.04177,-1.9087 0.3751,-75.51614 0.37511,-75.516136 4.39351,-8.922351 c 7.64457,-15.524573 21.20044,-23.024428 35.73652,-19.771397 8.21238,1.83785 16.36111,7.331318 20.27952,13.671432 1.53155,2.478093 17.21594,48.021872 34.85421,101.208392 l 32.06957,96.70276 -0.0197,76.58577 c -0.0217,84.32993 -0.12671,85.62673 -8.30077,102.51526 -5.37228,11.09975 -19.73509,25.56885 -168.79571,170.04492 -7.58056,7.34741 -15.27383,15.88548 -17.09616,18.97349 l -3.3133,5.61455 -58.90385,0.38545 c -53.69544,0.35136 -59.20989,0.59342 -62.36501,2.73747 -9.40283,6.38968 -8.32192,20.59988 1.93727,25.46818 4.028,1.91141 11.58095,2.17979 61.34515,2.17979 54.74402,0 56.80041,0.0912 58.13183,2.57902 0.85311,1.59404 1.38025,16.24815 1.38025,38.36999 0,30.23568 -0.32217,36.25094 -2.07561,38.75432 l -2.0756,2.96334 h -82.96106 c -72.92827,0 -83.31942,-0.25101 -85.92439,-2.0756 z m -60.29668,-354.3056 c -43.90916,-20.1356 -109.567,-72.76895 -149.25107,-119.64429 -30.23707,-35.71641 -46.9713,-64.43995 -57.20827,-98.19534 -5.28364,-17.42229 -6.53394,-23.94772 -7.6257,-39.79933 -2.1571,-31.3196 6.92249,-61.743591 25.9067,-86.808417 16.24745,-21.451499 39.45596,-36.823888 66.39675,-43.9785423 13.0093,-3.4548755 44.20446,-3.4612685 57.0023,-0.011682 28.27677,7.6218432 52.3921,22.9149302 70.11262,44.4629352 l 8.66667,10.538594 16,-16.310926 c 17.90237,-18.250259 28.47843,-25.717487 46.70499,-32.976049 22.91128,-9.1242102 51.12418,-11.20690914 74.62835,-5.5091253 12.32554,2.9879075 33.94632,13.3206283 44.31787,21.1798233 23.22182,17.596681 39.68654,43.930989 45.86405,73.356743 13.0082,61.962866 -20.00584,136.377726 -89.83744,202.496936 -41.85475,39.62966 -92.74221,77.61541 -122.83281,91.6905 -13.0231,6.09165 -14.54518,6.0657 -28.84501,-0.49183 z m -122.0464,-194.4236 c 6.68447,-5.86904 6.49269,-11.26246 -0.74113,-20.84359 -10.82578,-14.33864 -15.43631,-29.48735 -14.10719,-46.35162 1.02101,-12.95486 4.02915,-21.88677 10.6589,-31.648984 9.73566,-14.335618 24.7709,-22.401207 45.46954,-24.391929 7.7016,-0.740714 9.85864,-1.512991 13,-4.654349 6.08431,-6.084311 3.99069,-16.385066 -4.19008,-20.615507 -8.60337,-4.448975 -34.05344,-0.841634 -48.13558,6.822827 -16.88355,9.189176 -33.28112,27.748563 -39.71907,44.955542 -9.50265,25.3981 -8.61566,52.79287 2.42203,74.80527 11.93384,23.79958 24.39864,31.53125 35.34258,21.92234 z"
       id="path1" />
  </g>
</svg>
