<?xml version="1.0" encoding="UTF-8" standalone="no"?>
<!-- Created with Inkscape (http://www.inkscape.org/) -->

<svg
   version="1.1"
   id="svg1"
   fill="currentColor"
   stroke="currentColor"
   width="1024"
   height="1024"
   viewBox="0 0 1024 1024"
   xmlns="http://www.w3.org/2000/svg"
   xmlns:svg="http://www.w3.org/2000/svg">
  <defs
     id="defs1" />
  <g
     id="g1">
    <path
       d="M 290.89435,841.44358 C 256.60893,835.23646 230.5071,811.06453 220.76564,776.5 l -2.25467,-8 -0.28657,-182.5 -0.28657,-182.5 2.14187,-1.75 c 2.02899,-1.65777 17.51814,-1.75 293.90864,-1.75 245.95268,0 291.94547,0.21532 292.90481,1.37125 0.84378,1.0167 1.06936,49.17287 0.87244,186.25 L 807.5,772.5 804.63342,781 c -6.92321,20.52873 -18.27287,36.01783 -33.99139,46.38869 -12.39024,8.17491 -23.08806,12.13032 -39.33358,14.54318 -4.94103,0.73387 -73.78779,1.04005 -220,0.97839 -176.0673,-0.0742 -214.12156,-0.32746 -220.4141,-1.46668 z m 65.68876,-69.05004 C 363.27464,769.2182 364,766.60096 364,745.63197 364,727.18156 363.97886,727 361.83055,727 c -1.47503,0 -6.88317,4.8014 -16.89553,15 -13.77331,14.02953 -14.96781,15 -18.46251,15 -4.88139,0 -8.55647,-2.38297 -16.47639,-10.68354 -13.44214,-14.08819 -14.57708,-16.88935 -9.07304,-22.39338 3.95658,-3.95658 7.11419,-3.75652 12.32404,0.78083 2.33908,2.03715 5.19971,4.52891 6.35696,5.53723 2.08693,1.81837 2.19898,1.73057 13.75,-10.77442 C 345.69337,706.10835 346.82486,703.82486 343,700 c -1.87321,-1.87321 -3.33333,-2 -23.03212,-2 -23.25307,0 -25.66397,0.47325 -30.26457,5.94075 l -2.70331,3.2127 0.0419,28.17328 c 0.0463,31.10049 0.31838,32.63532 6.50948,36.71641 2.74494,1.80943 4.9067,1.94414 31.29747,1.95027 23.97192,0.006 28.87156,-0.24144 31.73424,-1.59987 z m 125.94239,-0.4093 C 488.27032,768.43375 489,765.40374 489,745.09887 489,728.79915 488.83261,727 487.3161,727 c -0.92615,0 -8.47786,6.70582 -16.78158,14.90183 -9.43703,9.31462 -16.02316,15.0473 -17.56609,15.28983 -4.83748,0.76039 -8.45705,-1.22385 -16.29964,-8.9354 -14.20201,-13.96473 -16.4472,-18.96626 -11.10272,-24.73305 2.22557,-2.40143 3.10633,-2.69636 6.6378,-2.22269 3.09498,0.41512 5.1864,1.64403 8.71829,5.12281 2.55559,2.51717 5.09164,4.57667 5.63565,4.57667 1.01199,0 13.12735,-12.11538 19.75284,-19.75288 4.04811,-4.66644 4.72196,-8.44862 2.03436,-11.41838 C 466.83931,698.16496 464.74797,698 445.16074,698 c -19.83505,0 -21.87106,0.16545 -25.87229,2.10241 -7.49405,3.62781 -7.74269,4.688 -8.11154,34.58815 -0.30147,24.43856 -0.18896,26.49377 1.68197,30.72332 3.73527,8.4442 4.32064,8.57808 37.52309,8.58238 27.21549,0.004 29.07015,-0.11257 32.14353,-2.01202 z m 124.44532,0.53085 c 1.57933,-0.8167 3.91948,-2.9542 5.20034,-4.75 2.12983,-2.98607 2.35843,-4.49269 2.67506,-17.63059 C 615.25939,732.99139 614.5816,727 612.22908,727 c -0.90661,0 -8.44926,6.75 -16.76146,15 -14.92795,14.81625 -15.16753,15 -19.55741,15 -4.32463,0 -4.73042,-0.2895 -15.06817,-10.75 -14.2285,-14.39745 -15.34201,-16.90388 -9.91896,-22.32692 4.89594,-4.89595 8.87478,-3.90209 17.84371,4.4571 l 3.26679,3.0447 9.09165,-8.96244 c 14.45761,-14.25215 16.94733,-18.51481 13.21978,-22.6337 -1.50912,-1.66756 -3.60243,-1.82729 -23.75,-1.81229 -21.04072,0.0157 -22.28588,0.12375 -26.09501,2.26507 -7.17057,4.03097 -7.49689,5.58573 -7.49689,35.71848 0,29.62208 0.33273,31.34633 6.89477,35.73007 3.33343,2.22687 3.93668,2.26993 31.79966,2.26993 23.1619,0 28.93155,-0.27395 31.27328,-1.48491 z m 124.5394,0.0451 c 6.69258,-2.79634 7.48182,-5.62288 7.48604,-26.81018 0.004,-18.04555 -0.0709,-18.75 -1.98385,-18.75 -1.23588,0 -7.0034,5.14339 -15.25,13.59975 C 707.71994,754.9994 705.04639,757 699.84558,757 c -2.8211,0 -4.82222,-1.56848 -15.04966,-11.79592 C 674.52831,734.93648 673,732.98307 673,730.12716 c 0,-2.29304 0.88019,-4.16119 2.92308,-6.20408 4.44252,-4.44253 7.78049,-3.96064 14.38654,2.07692 3.00894,2.75 5.90908,5 6.44477,5 1.59689,0 22.86429,-23.31037 23.48236,-25.73811 0.3624,-1.42347 -0.16412,-3.17113 -1.44653,-4.80146 l -2.01633,-2.56334 -22.81638,0.30146 C 660.89334,698.6354 662.00119,697.35934 662.00713,735 c 0.002,14.2315 0.45419,27.12078 1.02274,29.16773 0.57146,2.05749 2.55993,5.02095 4.52922,6.75 L 671.06959,774 h 28.49732 c 22.5394,0 29.21778,-0.30102 31.94331,-1.43982 z M 371.79966,715.5733 c 4.02644,-2.12732 30.11569,-30.03202 31.32707,-33.507 3.17642,-9.11187 -9.0839,-19.26626 -17.78604,-14.73097 -1.56238,0.81426 -9.25319,7.99716 -17.09069,15.96199 L 354,697.77883 v 5.97573 c 0,8.76347 3.81796,13.02873 11.79966,13.18205 1.81481,0.0349 4.51481,-0.57862 6,-1.36331 z M 510.63855,702.35172 C 526.3746,687.45066 529,684.05701 529,678.61728 c 0,-7.31278 -9.504,-13.76711 -17.07485,-11.59581 -4.08305,1.171 -5.8142,2.68776 -20.22805,17.72301 L 479,697.98897 v 5.10122 c 0,9.04709 5.48981,14.53613 13.40066,13.39879 3.32655,-0.47826 6.0109,-2.55906 18.23789,-14.13726 z m 110.63798,13.8056 c 1.72227,-0.68066 25.47635,-23.77775 30.32273,-29.48405 4.59812,-5.414 2.6665,-14.93312 -3.6981,-18.22438 -3.35306,-1.73394 -10.18292,-1.89288 -13.2169,-0.30758 -2.5933,1.35503 -25.4186,24.05502 -27.92767,27.77434 -1.09701,1.62615 -1.74585,4.50244 -1.75,7.75762 -0.005,4.15209 0.52015,5.79928 2.66185,8.34454 3.8256,4.54647 8.77151,6.05099 13.60809,4.13951 z m 125.14784,-0.68845 c 1.77464,-0.84213 9.56603,-7.92963 17.31419,-15.75 15.53895,-15.68378 16.83485,-18.0174 13.90258,-25.03532 -2.77299,-6.63669 -11.8339,-9.70371 -18.49355,-6.25987 -1.5142,0.78302 -8.44638,7.29996 -15.40483,14.48208 -14.1535,14.60843 -16.00356,17.94269 -13.88299,25.02054 2.3134,7.72145 9.39367,10.94539 16.5646,7.54257 z M 356.75914,649.0054 c 6.59883,-4.02335 7.23295,-6.36766 7.23712,-26.7554 0.003,-17.05473 -0.11675,-18.25 -1.83599,-18.25 -1.01185,0 -8.87007,6.75 -17.4627,15 -20.45786,19.64209 -18.8613,19.49807 -35.00077,3.15733 C 299.237,611.56709 298,609.94332 298,606.80335 298,601.86528 301.7374,598 306.51211,598 c 2.96694,0 4.56515,0.9056 8.99949,5.09942 2.96554,2.80468 5.80741,4.94218 6.31527,4.75 1.89115,-0.71563 21.34649,-22.1752 22.24379,-24.53528 1.27828,-3.36211 0.11231,-7.29609 -2.44737,-8.25747 -1.16781,-0.43861 -11.95241,-0.56672 -23.96579,-0.28468 -21.43236,0.50316 -21.89776,0.5593 -24.78591,2.98952 -5.72905,4.82067 -5.87159,5.67731 -5.87159,35.2877 0,40.31145 -2.37168,37.94331 38,37.94331 26.67835,0 28.70832,-0.12701 31.75914,-1.98712 z m 126.87712,-0.7425 c 5.4704,-3.90206 6.2266,-7.54246 5.6134,-27.02358 -0.5251,-16.68263 -0.61055,-17.23939 -2.64614,-17.24137 -1.39901,-0.001 -6.97946,5.02245 -16.66204,15 C 455.43198,633.94949 455.36783,634 450.88829,634 446.47352,634 446.18563,633.78943 434.6968,622.15733 424.00589,611.33309 423,609.99623 423,606.61188 423,601.60467 426.56989,598 431.52878,598 c 3.02475,0 4.57362,0.90989 9.42345,5.53584 l 5.80375,5.53584 9.75276,-10.28584 c 13.44689,-14.18187 15.41784,-17.76883 12.18951,-22.18383 -1.18693,-1.62322 -3.31325,-1.76978 -24.10671,-1.66163 -25.51873,0.13274 -26.78225,0.41159 -30.745,6.78538 C 411.53287,585.44713 411.5,585.8852 411.5,613 c 0,40.28768 -2.22762,38.18378 40,37.7784 28.19942,-0.27071 29.08658,-0.34016 32.13626,-2.5155 z m 123.29266,0.98555 c 1.8859,-0.96165 4.3609,-3.01779 5.5,-4.56921 1.92004,-2.61505 2.07108,-4.18188 2.07108,-21.48451 0,-17.41309 -0.12489,-18.68792 -1.86371,-19.02446 -1.30943,-0.25344 -6.38691,4.12864 -17.07273,14.73451 C 580.60241,633.75398 580.28313,634 575.97319,634 c -4.26085,0 -4.70578,-0.32443 -16.17727,-11.79592 C 549.76383,612.17199 548,609.94053 548,607.28081 c 0,-4.80883 4.26892,-9.28433 8.83889,-9.26664 3.04829,0.0118 4.62376,0.92177 9.41219,5.43632 l 5.75107,5.42214 10.23105,-10.51576 c 11.33287,-11.64824 13.75048,-14.81698 13.76021,-18.03544 0.0152,-5.03261 -1.3914,-5.32143 -25.91696,-5.32143 -22.01908,0 -22.89428,0.0759 -26.17857,2.26993 -6.55078,4.37621 -6.89459,6.1418 -6.89633,35.41497 -9.5e-4,16.12453 0.40825,27.26648 1.06506,29 1.2853,3.39227 4.69626,7.22892 7.43339,8.36107 1.1,0.45499 14.6,0.85508 30,0.88909 24.76113,0.0547 28.39664,-0.14042 31.42892,-1.68661 z m 126.35374,-0.51238 c 6.26856,-4.1113 7.4952,-10.42055 6.24388,-32.11551 C 738.90793,605.89531 738.55274,604 737.16141,604 c -0.90046,0 -8.22188,6.57371 -16.26984,14.60824 -13.98524,13.96194 -14.8404,14.63167 -19.32863,15.13756 l -4.696,0.5293 -11.93347,-11.93347 C 674.53836,611.94653 673,609.9852 673,607.12716 673,602.50585 677.61903,598 682.35642,598 c 2.86544,0 4.46184,0.92686 8.69033,5.04553 2.84903,2.77505 5.50035,4.91255 5.89182,4.75 0.39147,-0.16254 5.74044,-5.55772 11.8866,-11.98929 9.6906,-10.14061 11.17483,-12.13953 11.17483,-15.05 0,-1.84593 -0.54,-3.89624 -1.2,-4.55624 -0.8627,-0.8627 -7.56714,-1.2 -23.85212,-1.2 -21.84774,0 -22.76916,0.0799 -25.94839,2.25 -6.67582,4.55684 -7.00203,6.20415 -6.97753,35.2344 0.0247,29.28528 0.65345,32.48791 7.1699,36.52246 3.16503,1.95957 4.56471,2.03617 32.35473,1.77066 25.77403,-0.24625 29.34959,-0.47625 31.73607,-2.04145 z m -347.0711,-70.47728 c 18.30998,-18.18122 19.45881,-20.17681 15.87612,-27.57768 -3.33871,-6.89684 -10.15221,-9.37521 -17.3698,-6.31816 -1.76983,0.74963 -9.14681,7.44787 -16.39328,14.88498 -14.9728,15.36672 -16.60199,18.33429 -14.20188,25.86866 1.73226,5.4379 6.46593,8.88341 12.2046,8.88341 3.8666,0 4.68015,-0.64404 19.88424,-15.74121 z m 110.5881,14.31368 c 1.48519,-0.78513 9.07812,-7.90873 16.87318,-15.83021 14.87017,-15.11134 16.52677,-17.82648 14.87994,-24.38798 -0.89745,-3.57574 -5.74757,-7.94324 -9.69848,-8.73342 -7.42698,-1.4854 -9.49954,-0.21517 -23.8543,14.61981 -7.425,7.6734 -14.04655,14.92086 -14.71456,16.10548 -1.672,2.96503 -1.5855,10.17293 0.16265,13.55347 2.70899,5.23861 10.86982,7.57076 16.35157,4.67285 z M 638.2063,577.25537 654,561.37578 v -5.28789 c 0,-4.66205 -0.39542,-5.68331 -3.34106,-8.62895 -3.88425,-3.88425 -7.20746,-4.95382 -12.37799,-3.98382 -3.09205,0.58007 -6.03108,3.09927 -17.74342,15.20887 -7.72064,7.9825 -14.3434,15.25667 -14.71724,16.16482 -1.29545,3.14695 -0.8169,10.34834 0.87837,13.21821 2.33665,3.95563 6.89609,6.10057 11.75764,5.53126 3.56003,-0.4169 5.53818,-2.0538 19.75,-16.34291 z m 106.96403,15.92434 c 0.91869,-0.37384 8.61512,-7.4931 17.10318,-15.82058 11.10745,-10.89732 15.60057,-15.97954 16.03131,-18.13321 1.97323,-9.86616 -7.4959,-18.28214 -17.05136,-15.15491 -4.16916,1.36445 -15.69567,11.97484 -25.88924,23.83159 C 729.3361,574.91426 729,575.57585 729,580.43009 c 0,5.78107 1.62949,8.76323 6.36671,11.65185 3.173,1.9348 6.75975,2.33643 9.80362,1.09777 z M 355.32881,525.63597 c 1.79552,-0.75021 4.48106,-2.80974 5.96788,-4.57672 L 364,517.84655 v -19.36426 c 0,-12.71989 -0.3685,-19.592 -1.07396,-20.028 -0.59641,-0.3686 -8.05247,6.26568 -16.76757,14.91949 -16.85122,16.73272 -19.24825,18.21274 -24.76997,15.29396 -1.58868,-0.83978 -7.591,-6.26905 -13.3385,-12.06506 -9.4456,-9.52531 -10.45,-10.89015 -10.45,-14.20003 0,-2.75648 0.68134,-4.2479 2.75576,-6.03224 4.50912,-3.87858 8.46786,-3.20723 15.43977,2.61836 l 5.97043,4.98876 11.01229,-11.87113 c 6.05677,-6.52912 11.32175,-12.8461 11.69995,-14.03773 0.42551,-1.34065 0.0754,-3.10098 -0.91832,-4.61763 L 341.95389,451 h -22.60891 c -32.51828,0 -31.77917,-0.66761 -32.65943,29.5 -0.76769,26.30985 0.172,37.63858 3.41348,41.15235 4.60711,4.99409 6.41225,5.26646 35.18309,5.30851 20.4301,0.0299 27.55639,-0.28437 30.04669,-1.32489 z m 126.69042,-0.64578 c 6.94248,-3.54179 7.51509,-6.0339 7.17802,-31.24019 -0.17858,-13.35422 -0.36427,-14.75 -1.96226,-14.75 -0.97075,0 -7.38325,5.67261 -14.25,12.6058 -6.86674,6.93319 -14.24001,13.90819 -16.38503,15.5 -6.82172,5.06236 -8.34229,4.44717 -21.75729,-8.8026 C 423.99706,487.59118 423,486.29755 423,482.93806 423,477.52394 426.15052,474 430.99093,474 c 3.11025,0 4.85402,0.86063 9.11765,4.5 2.89953,2.475 5.82307,4.5 6.49674,4.5 1.89902,0 22.15084,-21.89232 22.85791,-24.70954 0.3872,-1.54272 0.0265,-3.4203 -0.94065,-4.89635 L 466.95389,451 l -22.72694,0.004 c -34.12499,0.006 -32.80218,-1.54884 -32.55358,38.25423 0.24936,39.92418 -2.04212,37.68595 38.61647,37.71926 25.8871,0.0212 28.05957,-0.11484 31.72939,-1.98704 z m 125.09577,-0.0489 c 6.54269,-3.33783 7.8366,-7.46265 7.86304,-25.06633 0.0257,-17.08526 -0.51233,-20.875 -2.96336,-20.875 -0.95443,0 -8.24941,6.71577 -16.21107,14.92393 -11.8651,12.23247 -15.12084,15.04496 -18.05274,15.59498 -1.96734,0.36908 -4.45363,0.39282 -5.52507,0.0528 -1.07144,-0.34007 -7.01591,-5.80459 -13.20992,-12.1434 -11.00468,-11.26191 -11.2484,-11.60962 -10.67263,-15.22668 0.76354,-4.79661 4.61306,-8.20159 9.27237,-8.20159 2.84055,0 4.52089,0.96164 8.87357,5.07822 l 5.36947,5.07822 3.43407,-3.32822 c 9.52941,-9.23569 19.68015,-20.87198 20.27506,-23.24229 0.46908,-1.86896 0.13879,-3.25267 -1.10426,-4.62622 C 592.80141,451.12308 591.26447,451 569.9929,451 c -21.93222,0 -22.81165,0.0765 -26.09502,2.26993 -6.71084,4.48314 -6.97536,5.93972 -6.67032,36.73007 0.38674,39.03745 -1.84028,36.90291 38.56228,36.96086 25.61857,0.0367 27.53696,-0.0869 31.32516,-2.01953 z m 124.46086,0.16356 c 6.69668,-3.04151 7.42414,-5.73092 7.42414,-27.447 0,-11.94029 -0.37602,-18.77225 -1.05633,-19.1927 -0.58098,-0.35907 -8.12802,6.32996 -16.7712,14.8645 -15.67613,15.47911 -18.7082,17.57332 -23.3503,16.12778 -2.88072,-0.89706 -21.46147,-18.92885 -23.47398,-22.78046 C 671.35486,480.94826 675.78736,474 682.43524,474 c 2.39676,0 4.57046,1.25219 8.95057,5.15613 l 5.78505,5.15613 7.49097,-7.90613 C 714.32374,466.20873 722,457.15119 722,455.94808 722,455.42664 721.1,454.1 720,453 c -1.87933,-1.87933 -3.33333,-2 -24.09887,-2 -24.52217,0 -26.98372,0.5033 -31.17082,6.37329 -2.15532,3.02158 -2.24006,4.03452 -2.52032,30.12671 -0.2841,26.44911 -0.24329,27.09182 2,31.5 3.94377,7.74973 5.08272,8.00007 36.29001,7.97648 24.11485,-0.0182 27.43554,-0.21822 31.07586,-1.87159 z M 372.6529,466.75 c 1.6728,-1.2375 9.17125,-8.47167 16.66321,-16.07594 10.61537,-10.77448 13.76422,-14.58531 14.26724,-17.26666 1.74614,-9.30775 -8.46405,-17.58206 -17.86651,-14.47896 -2.36966,0.78205 -7.72292,5.68181 -17.50551,16.0225 -11.14186,11.77751 -14.23413,15.65367 -14.771,18.51545 -2.07957,11.08504 10.46253,19.75668 19.21257,13.28361 z m 123.02131,1.18376 c 4.28636,-1.62966 31.07776,-28.65218 32.41033,-32.68991 3.26187,-9.88357 -6.02974,-18.95133 -16.52369,-16.1256 -3.28762,0.88527 -6.49625,3.62823 -17.05515,14.57996 -7.15314,7.41926 -13.55225,14.45981 -14.22026,15.64567 -1.75984,3.1241 -1.57169,10.80243 0.33127,13.51929 2.07937,2.9687 7.26621,6.1283 10.06819,6.13309 1.2017,0.002 3.44689,-0.47607 4.98931,-1.0625 z M 638.17034,452.29153 654,436.37578 v -5.11117 c 0,-6.10853 -3.04567,-10.46452 -8.59791,-12.29692 -6.99152,-2.30741 -9.84938,-0.81739 -22.77496,11.87429 C 606.96386,446.22181 605,448.94067 605,455.24575 c 0,8.86396 5.09807,14.1472 12.92034,13.38963 4.19759,-0.40653 5.21804,-1.23014 20.25,-16.34385 z M 219.2,378.8 c -1.96508,-1.96508 -1.65262,-62.69304 0.37303,-72.49983 3.31431,-16.04562 9.91488,-28.57938 20.92697,-39.73803 11.231,-11.38047 29.14822,-20.59054 40.70864,-20.92565 l 4.70864,-0.13649 0.34886,34 c 0.38331,37.35659 0.55569,38.5983 7.07924,50.99446 4.22223,8.02316 14.61146,18.46164 22.15462,22.25965 34.22536,17.23259 71.19461,1.32046 83.06884,-35.75411 1.4937,-4.66373 1.82633,-10.55565 2.18769,-38.75 L 401.18268,245 h 112.81831 l 112.81832,0 0.42384,33.75 c 0.46324,36.88653 0.63081,38.10051 7.00533,50.75 4.18878,8.31216 16.29257,20.21641 24.75152,24.34348 28.40608,13.85914 62.05033,2.79066 76.09651,-25.03467 C 740.6165,317.87378 741,314.62241 741,278.75852 c 0,-37.72056 -0.78015,-35.17276 9.90708,-32.35445 20.93316,5.52026 39.63805,20.78323 49.13788,40.09593 7.12176,14.47821 7.3118,15.84135 7.71333,55.32673 0.26596,26.15364 0.0525,35.6963 -0.82197,36.75 C 805.91958,379.80182 765.00295,380 513.07756,380 286.77279,380 220.12787,379.72787 219.2,378.8 Z m 114.66025,-46.30748 c -6.31068,-2.02489 -14.10596,-9.2564 -17.55989,-16.28991 L 313.5,310.5 V 255 199.5 l 2.31013,-5 c 4.92526,-10.6601 13.35723,-16.53317 24.81083,-17.28131 13.09481,-0.85535 23.40159,5.01785 29.07289,16.56687 L 372.5,199.5 v 56 56 l -2.79009,5.6816 c -6.49823,13.23271 -21.86832,19.79707 -35.84966,15.31092 z m 341.71633,-0.0826 c -3.58833,-1.1454 -6.61803,-3.26618 -11.17267,-7.82081 -9.84813,-9.84814 -9.53972,-7.45879 -9.19499,-71.23634 0.28521,-52.76768 0.33462,-53.94697 2.45197,-58.52843 3.31142,-7.16516 9.6362,-13.41764 15.96994,-15.78739 14.0153,-5.2438 29.70199,6e-4 36.78197,12.29702 4.49647,7.80941 4.75242,11.73717 4.40929,67.66604 -0.31237,50.9156 -0.38564,52.63734 -2.42775,57.05081 -6.43849,13.91505 -22.33986,20.98045 -36.81776,16.3591 z"
       id="path1" />
  </g>
</svg>
