<?xml version="1.0" encoding="UTF-8" standalone="no"?>
<!-- Created with Inkscape (http://www.inkscape.org/) -->

<svg
   version="1.1"
   id="svg1"
   fill="currentColor"
   stroke="currentColor"
   width="1024"
   height="1024"
   viewBox="0 0 1024 1024"
   xmlns="http://www.w3.org/2000/svg"
   xmlns:svg="http://www.w3.org/2000/svg">
  <defs
     id="defs1" />
  <g
     id="g1">
    <path
       d="m 514.34375,759.94308 c -15.87539,-3.0816 -24.7723,-18.05777 -20.29814,-34.16782 3.69678,-13.31096 20.38901,-21.78095 34.00927,-17.25703 19.78214,6.57057 24.34745,34.85266 7.49732,46.44585 -7.15184,4.9206 -13.6501,6.44616 -21.20845,4.979 z M 388.44439,757.6263 c -6.30817,-2.93743 -12.03276,-9.50109 -13.96692,-16.01412 -1.90366,-6.41032 -1.86403,-10.18559 0.17313,-16.49328 7.6998,-23.84108 41.43634,-24.21164 50.28841,-0.55237 2.49241,6.66158 2.5853,10.58037 0.41039,17.31457 -3.58176,11.09029 -13.39845,18.09936 -25.3494,18.09936 -4.72761,0 -7.87854,-0.64192 -11.55561,-2.35416 z M 628,757.92146 c -5.51953,-2.49558 -10.4757,-7.11718 -13.32068,-12.42146 -3.10449,-5.78811 -3.0137,-17.30928 0.18527,-23.51202 3.23929,-6.2809 6.82485,-9.85774 12.63541,-12.60469 5.62364,-2.65858 13.29869,-3.1231 19.73582,-1.19449 8.34214,2.49937 16.33319,12.54735 18.27325,22.97688 0.92909,4.99466 -1.70962,13.6307 -5.80568,19.00099 -6.90923,9.0586 -21.12762,12.53649 -31.70339,7.75479 z m -350.00647,-4.8558 c -7.51871,-2.28709 -11.80106,-6.11564 -15.04617,-13.45176 -2.12311,-4.79963 -2.14207,-5.37564 -1.49793,-45.48754 0.35882,-22.3445 1.06706,-53.22636 1.57386,-68.62636 0.5068,-15.4 1.43512,-49.825 2.06293,-76.5 0.96825,-41.14041 1.37532,-48.76555 2.68261,-50.25 1.35199,-1.53521 3.58968,-1.75 18.23117,-1.75 15.48969,0 16.82185,0.14566 18.52295,2.02536 1.7438,1.92688 1.87639,7.63972 2.727,117.49637 1.0067,130.0164 1.34769,122.88063 -6.23423,130.46255 -5.67154,5.67154 -15.67907,8.31506 -23.02219,6.08138 z m 24.81334,-56.59212 c -0.30789,-0.30789 -0.86705,0.24711 -1.24258,1.23333 -0.54268,1.4252 -0.42782,1.54006 0.5598,0.5598 0.68342,-0.67834 0.99067,-1.48524 0.68278,-1.79313 z M 297,692.05902 c 0,-0.51754 -0.375,-1.17275 -0.83333,-1.45601 -0.45834,-0.28327 -0.83334,0.14017 -0.83334,0.94098 0,0.8008 0.375,1.45601 0.83334,1.45601 C 296.625,693 297,692.57656 297,692.05902 Z m 452.35819,61.03453 c -5.5606,-1.41005 -10.34728,-5.14597 -13.38953,-10.45028 l -2.94989,-5.14327 -0.009,-94.09501 c -0.009,-90.37785 0.0639,-94.16133 1.84551,-95.77367 1.6161,-1.46255 4.1449,-1.64342 19.64336,-1.40499 17.67361,0.2719 17.80038,0.28981 19.63502,2.77367 1.70832,2.31283 1.9209,6.43056 2.83944,55 0.54608,28.875 1.0191,70.61831 1.05116,92.76291 0.0543,37.51863 -0.0716,40.55171 -1.84695,44.5 -2.25134,5.00675 -5.37223,8.0851 -10.27273,10.13265 -4.56307,1.90658 -12.50811,2.72192 -16.546,1.69799 z M 502,691.99067 c -39.12737,-4.03387 -72.52519,-16.68365 -101.30738,-38.37125 -42.55297,-32.06397 -70.25054,-82.74144 -75.68318,-138.47537 -1.90339,-19.52708 -0.43092,-46.54484 3.46828,-63.63819 0.75204,-3.29677 1.17251,-6.18897 0.93438,-6.42709 -0.23813,-0.23813 -1.66577,0.72989 -3.17253,2.15116 -3.32814,3.13931 -11.57301,8.03798 -16.56949,9.84473 L 306,458.40178 v 10.24009 c 0,5.63205 -0.354,10.45888 -0.78666,10.72628 -0.43266,0.2674 -8.45763,0.63146 -17.83327,0.80902 -13.34475,0.25272 -17.40855,0.0248 -18.71334,-1.04961 C 267.30812,478.00883 267,475.8541 267,467.47181 v -10.2833 l -6.56211,-3.07078 c -12.24913,-5.73206 -25.07186,-20.64316 -29.9355,-34.81094 -2.32483,-6.77221 -2.33837,-7.09638 -2.66605,-63.80679 -0.28366,-49.09347 -0.12177,-57.40366 1.16716,-59.91007 4.66946,-9.08013 17.19439,-9.75807 23.42542,-1.26796 2.02114,2.75392 2.08314,4.16446 2.57108,58.5 0.5379,59.89809 0.42371,58.68316 5.74316,61.10687 1.29302,0.58914 3.02712,1.07116 3.85355,1.07116 2.76634,0 7.00183,-2.82348 8.2086,-5.47206 0.87924,-1.92972 1.1951,-16.93385 1.19624,-56.82499 0.001,-49.60043 0.15002,-54.50014 1.75,-57.70295 3.30607,-6.61802 12.14721,-8.88854 18.35057,-4.71267 6.55182,4.41045 6.34678,2.50659 6.89788,64.0501 l 0.5,55.83742 2.80576,2.41258 c 3.81721,3.28227 7.88152,3.11035 11.92846,-0.50458 L 319.5,409.1657 320,352.83285 c 0.54336,-61.2178 0.3451,-59.24323 6.31382,-62.88262 6.28726,-3.83362 14.55534,-1.49334 18.69158,5.29063 1.91445,3.13995 1.98726,5.13346 1.99086,54.50914 0.002,28.3935 0.39176,51.25 0.87378,51.25 0.47852,0 3.36851,-3.9375 6.42221,-8.75 22.82571,-35.97239 59.40929,-64.41325 100.62795,-78.23032 26.18416,-8.7773 37.21271,-10.50222 66.5798,-10.4134 19.88303,0.0601 23.25094,0.32671 35,2.77034 70.92009,14.75031 125.81654,63.29715 148.44852,131.27818 12.1367,36.45575 12.9375,71.34565 2.5479,111.00831 C 698.1125,584.48653 680.88668,613.53508 653.33356,640 624.42661,667.76527 589.73398,684.3719 548,690.42094 c -13.46965,1.95232 -35.12201,2.6912 -46,1.56973 z m 44.26176,-48.43574 c 30.69717,-5.69877 58.53061,-20.19036 79.50462,-41.39439 16.32621,-16.50525 29.4388,-37.89071 36.58113,-59.66054 6.21406,-18.94048 8.35422,-46.76604 5.19166,-67.5 -5.88041,-38.55239 -30.67774,-77.05042 -64.03917,-99.42124 -18.12743,-12.15552 -38.01303,-20.15905 -59,-23.74626 -10.15828,-1.7363 -14.76258,-1.97105 -30,-1.52955 -11.3204,0.32801 -20.76016,1.14057 -25.438,2.18967 -18.59491,4.17027 -40.40805,13.22373 -53.76684,22.3157 -30.14863,20.51911 -53.54943,54.57204 -61.97875,90.19168 -3.46842,14.65645 -4.37046,43.01652 -1.84803,58.10178 1.94247,11.61677 7.91966,29.64586 13.57668,40.95151 13.61521,27.2102 37.6141,51.44024 64.56551,65.18735 16.93917,8.64017 30.76488,12.85888 52.88943,16.13844 6.37426,0.94487 35.35275,-0.26307 43.76176,-1.82415 z m -45.74425,-20.60642 c -19.34004,-3.02158 -40.24815,-11.51591 -55.66141,-22.61355 -9.93733,-7.15493 -24.54734,-22.26828 -30.8296,-31.89174 -6.05699,-9.27838 -12.2603,-22.01883 -15.31836,-31.46109 -4.35762,-13.45487 -5.21216,-20.26325 -5.14379,-40.98213 0.061,-18.48429 0.22402,-20.09901 3.12971,-31 5.71905,-21.45559 16.24582,-39.83864 31.78235,-55.50196 37.5411,-37.84749 96.73819,-48.05515 145.17216,-25.0328 41.46899,19.71165 67.36296,56.35217 72.35139,102.37873 2.35694,21.74672 -2.50187,48.13609 -12.54888,68.15603 -16.96914,33.81315 -49.00701,57.62734 -89.45108,66.49024 -8.87764,1.94544 -34.79989,2.8148 -43.48249,1.45827 z m 102.68207,-47.15088 c 8.51868,-8.63782 17.21685,-21.59159 21.25054,-31.64744 2.72935,-6.80416 2.83779,-7.54655 1.4607,-10 -1.16164,-2.06961 -2.24543,-2.65019 -4.94722,-2.65019 -3.77579,0 -3.20719,-0.78455 -9.93222,13.70443 -3.42655,7.38248 -9.01387,15.13906 -17.48621,24.27519 -7.36628,7.94341 -7.48875,13.52038 -0.2969,13.52038 2.20992,0 4.44021,-1.6142 9.95131,-7.20237 z M 436.66631,436.16137 c 6.09567,-7.553 16.48922,-18.09695 21.38712,-21.69661 6.46151,-4.74883 23.15055,-12.84745 31.75035,-15.40736 7.65006,-2.2772 8.82328,-3.42284 7.77648,-7.59364 -1.50633,-6.00169 -8.47913,-5.292 -27.58026,2.80713 -15.7593,6.68214 -27.7857,16.42671 -39.38794,31.91465 -6.40633,8.55187 -7.1073,12.27869 -2.71879,14.45493 3.20189,1.5878 4.34964,1.00182 8.77304,-4.4791 z m 296.783,92.56712 c -0.28807,-0.7507 -0.38356,-45.65921 -0.2122,-99.7967 L 733.54867,330.5 735.85695,322 c 6.26954,-23.0869 21.25749,-43.85442 37.55277,-52.03367 7.02703,-3.52715 12.47106,-3.82116 17.15476,-0.92648 6.8619,4.24089 6.52106,-2.9259 6.21285,130.63706 -0.276,119.60265 -0.28718,120.19011 -2.33912,122.93821 -1.13398,1.51872 -3.30344,3.68911 -4.82101,4.82309 -2.59787,1.94123 -4.30541,2.07914 -29.20167,2.35848 -21.6223,0.24261 -26.53794,0.0479 -26.96622,-1.0682 z M 774,514 c 0,-0.55 -0.45,-1 -1,-1 -0.55,0 -1,0.45 -1,1 0,0.55 0.45,1 1,1 0.55,0 1,-0.45 1,-1 z"
       id="path1" />
  </g>
</svg>
