<?xml version="1.0" encoding="UTF-8" standalone="no"?>
<!-- Created with Inkscape (http://www.inkscape.org/) -->

<svg
   version="1.1"
   id="svg1"
   fill="currentColor"
   stroke="currentColor"
   width="310.30762"
   height="307.07916"
   viewBox="0 0 310.30762 307.07916"
   xmlns="http://www.w3.org/2000/svg"
   xmlns:svg="http://www.w3.org/2000/svg">
  <defs
     id="defs1" />
  <g
     id="g1"
     transform="translate(-123.64945,-117.46896)">
    <path
       d="M 265.40945,423.95217 C 227.92741,420.4418 194.54776,404.80969 168.5,378.56822 149.57994,359.50748 138.68556,342.29975 131.10332,319.5 c -5.84408,-17.57313 -7.44843,-27.90449 -7.45386,-48 -0.005,-19.14186 2.04003,-32.45723 7.49976,-48.8275 16.85426,-50.5352 61.57234,-90.09728 115.0263,-101.76377 34.70702,-7.57492 71.46939,-2.55028 103.8701,14.19684 39.51168,20.42262 68.60055,56.91982 79.3609,99.57249 16.61876,65.87465 -13.2942,135.01819 -73.1921,169.18291 -27.28564,15.56326 -60.55477,22.92428 -90.80497,20.0912 z M 299.75,373.28061 C 300.59839,372.15199 301,367.50244 301,358.80887 301,341.12424 302.13462,342 279.22251,342 255.60366,342 257,340.93182 257,359 c 0,12.40934 0.19809,14.0256 1.86211,15.1933 1.40992,0.98938 6.44881,1.23913 20.75,1.02844 16.23293,-0.23916 19.0636,-0.51201 20.13789,-1.94113 z m -0.78518,-57.21487 c 0.56935,-1.06384 1.03769,-3.87634 1.04076,-6.25 0.0136,-10.53139 3.46074,-15.51618 18.59746,-26.89319 10.30297,-7.74388 18.00052,-16.96837 21.63158,-25.92255 1.9089,-4.70735 2.23135,-7.37354 2.23737,-18.5 0.006,-11.01257 -0.33356,-13.9069 -2.22081,-18.93216 -6.91287,-18.40708 -20.54415,-31.5057 -39.76078,-38.20704 -7.20489,-2.51253 -9.31754,-2.78771 -21.4904,-2.79922 -12.53336,-0.0118 -14.11705,0.2064 -22.11775,3.04811 -10.15814,3.608 -21.45744,10.81534 -26.66471,17.00829 -10.53633,12.53073 -15.16128,24.38866 -15.50107,39.7433 C 214.4308,251.2703 214.05046,251 232.5,251 c 10.31116,0 14.61824,-0.36598 15.97399,-1.35732 1.46403,-1.07052 1.99445,-3.23636 2.51026,-10.25 0.74516,-10.13221 2.55797,-14.72656 7.87672,-19.9626 5.52885,-5.44287 10.64731,-7.68148 18.77753,-8.21252 6.08725,-0.3976 7.92807,-0.10285 12.5,2.00148 17.27277,7.95015 22.40046,29.08816 10.05179,41.43682 -1.71131,1.71131 -6.39171,5.2514 -10.40088,7.86686 -10.67221,6.96223 -15.20542,10.87026 -20.32139,17.51884 -5.67316,7.3727 -9.10614,14.75534 -10.98514,23.62365 C 255.3925,318.25077 255.03295,318 279.03624,318 c 17.65589,0 18.9612,-0.12669 19.92858,-1.93426 z"
       id="path1" />
  </g>
</svg>
