<?xml version="1.0" encoding="UTF-8" standalone="no"?>
<!-- Created with Inkscape (http://www.inkscape.org/) -->

<svg
   version="1.1"
   id="svg1"
   fill="currentColor"
   stroke="currentColor"
   width="497.87466"
   height="500.97272"
   viewBox="0 0 497.87466 500.97272"
   xmlns="http://www.w3.org/2000/svg"
   xmlns:svg="http://www.w3.org/2000/svg">
  <defs
     id="defs1" />
  <g
     id="g1"
     transform="translate(-265,-265)">
    <path
       d="M 276.5,764.10414 C 271.84426,761.9486 267.57576,757.68711 266.06362,753.6849 265.32309,751.72492 265,679.19001 265,514.89506 c 0,-229.58168 0.0513,-236.07525 1.89359,-239.6849 1.04148,-2.04059 2.81169,-4.54045 3.9338,-5.55524 5.2705,-4.76641 -5.43598,-4.56431 244.27473,-4.61103 L 749.70423,265 l 3.30506,2.25 c 1.81778,1.2375 4.69683,3.97924 6.39788,6.09276 l 3.09283,3.84276 0.27323,236.65724 c 0.24779,214.62306 0.12472,237.05029 -1.32185,240.8788 -1.88393,4.98604 -6.07079,8.8009 -11.23243,10.23443 -2.51,0.6971 -79.46254,1.02753 -236.71895,1.01647 -224.66508,-0.0158 -233.14309,-0.0826 -237,-1.86832 z M 709.7525,515.75 709.5,319.5 513.75,319.24749 318,318.99499 V 515.49749 712 H 514.0025 710.005 Z M 359.75,672.4391 C 359.3375,672.01426 359,601.31948 359,515.33959 V 359.01252 l 155.00003,-0.25626 155.00003,-0.25626 -2.3e-4,157 -2.3e-4,157 -154.2498,0.35577 c -84.83739,0.19567 -154.5873,0.008 -154.9998,-0.41667 z M 507.49206,437.57079 c 4.42425,-2.09944 8.80166,-1.98025 13.29778,0.36209 2.04059,1.06309 28.0086,26.26309 57.70669,56 C 608.19462,523.6698 632.83212,548 633.24653,548 633.66094,548 634,513.575 634,471.5 V 395 H 514 394 v 77.50038 77.50038 l 55.09093,-55.42959 c 30.30001,-30.48627 56.58052,-56.13644 58.40113,-57.00038 z m -78.26894,12.31062 C 420.019,445.32546 417.26221,433.58928 423.48098,425.43605 432.9792,412.98324 453,419.80895 453,435.5 c 0,6.60363 -2.87496,11.1709 -8.96996,14.25 -5.5559,2.80675 -9.33434,2.84028 -14.80692,0.13141 z"
       id="path1" />
  </g>
</svg>
