<?xml version="1.0" encoding="UTF-8" standalone="no"?>
<!-- Created with Inkscape (http://www.inkscape.org/) -->

<svg
   version="1.1"
   id="svg1"
   fill="currentColor"
   stroke="currentColor"
   width="805.55341"
   height="805.89911"
   viewBox="0 0 805.55341 805.89911"
   xmlns="http://www.w3.org/2000/svg"
   xmlns:svg="http://www.w3.org/2000/svg">
  <defs
     id="defs1" />
  <g
     id="g1"
     transform="translate(-113.17114,-112.03637)">
    <path
       d="m 509.30433,916.044 c -3.70984,-2.26203 -6.04485,-5.50105 -6.51982,-9.044 -0.56859,-4.24131 -1.45349,-4.6983 -10.50716,-5.42629 -20.82714,-1.67467 -53.11459,-7.28051 -66.84835,-11.6064 -1.68905,-0.53202 -3.71405,-0.96868 -4.5,-0.97035 -4.54614,-0.01 -46.7909,-15.13282 -61.679,-22.08038 -3.4375,-1.60412 -9.07152,-4.23707 -12.52005,-5.851 C 306.25674,842.12391 263.40356,810.4395 233.77443,777.54953 196.0562,735.68019 168.97424,690.88382 151.60449,641.63189 141.78858,613.7989 133.52463,572.0755 131.42523,539.75 L 130.72706,529 h -3.39565 c -5.08713,0 -10.03489,-2.47688 -12.36466,-6.18982 -1.65109,-2.63135 -1.99922,-4.51907 -1.6976,-9.2051 0.33765,-5.24579 0.76903,-6.25196 3.91739,-9.13722 2.56758,-2.35301 4.89137,-3.42843 8.47248,-3.92096 l 4.93452,-0.67867 1.25134,-13.68412 C 136.45299,435.79164 149.92017,388.22292 172.24018,343.5 193.22327,301.45586 229.58852,255.20991 267.5,222.35741 278.84153,212.52931 309.50059,190 311.53364,190 c 0.20135,0 2.30116,-1.29994 4.66623,-2.88875 18.20869,-12.23228 59.37674,-31.0258 86.80013,-39.6249 22.9072,-7.18296 55.93297,-14.44982 77.0931,-16.96325 7.37379,-0.87587 15.3194,-1.82945 17.6569,-2.11907 3.10152,-0.38428 4.25593,-0.98292 4.27196,-2.2153 0.0464,-3.56646 3.96098,-10.20791 7.1699,-12.16433 8.09451,-4.9351 17.54282,-0.29291 19.59439,9.62721 l 0.79588,3.84839 6.95894,0.80009 c 16.7357,1.92415 36.89211,4.96698 48.45893,7.3154 14.01535,2.84555 42.85089,10.89669 53.5,14.93768 3.85,1.46095 8.8,3.23882 11,3.95082 19.21222,6.21784 63.37162,30.28945 87.13147,47.49601 20.91403,15.14566 50.93455,42.60208 67.79006,62 8.47641,9.75495 20.62324,25.17374 24.02772,30.5 1.05466,1.65 2.52578,3.61039 3.26915,4.35643 6.52681,6.55015 31.89147,51.9948 38.03392,68.14357 19.36951,50.92324 27.57175,84.11697 29.83646,120.74544 0.38286,6.19217 1.19317,11.63616 1.80326,12.11494 0.60938,0.47824 3.07067,1.1192 5.46954,1.42438 8.09931,1.03036 13.67319,9.64927 11.31987,17.50395 -1.76643,5.89581 -6.25494,9.56207 -12.47214,10.18737 L 900.5,529.5 l -0.25612,5 c -0.996,19.44377 -5.95588,53.28274 -10.69984,73 -6.99015,29.05306 -20.66325,65.47499 -32.83937,87.47637 -21.80713,39.40393 -38.03114,61.25192 -68.8892,92.76939 -29.41331,30.04184 -64.14719,55.34451 -101.16433,73.69541 -45.50338,22.55788 -89.60651,35.103 -142.65114,40.57708 -14.84326,1.53178 -15,1.57981 -15,4.59643 0,1.41712 -0.93548,3.89034 -2.07884,5.49604 -4.17167,5.85856 -11.70192,7.53983 -17.61683,3.93328 z m -6.67659,-70.5717 c -0.32243,-0.84024 -3.3291,-11.07774 -6.68148,-22.75 -6.14949,-21.41112 -12.01645,-40.84969 -16.54587,-54.82021 l -2.46334,-7.59792 -5.66866,-1.26859 c -20.72087,-4.63713 -44.51048,-13.09185 -64.22678,-22.82591 -13.38263,-6.60708 -35.39253,-20.90211 -43.11298,-28.00108 l -5.36508,-4.93321 5.19285,-5.99418 c 2.85606,-3.29681 5.91216,-6.59116 6.79131,-7.3208 0.87916,-0.72963 2.52002,-3.13301 3.64637,-5.34083 2.53394,-4.96693 2.05654,-14.46753 -0.92784,-18.46479 -4.07146,-5.45327 -8.99665,-8.46788 -14.59283,-8.93196 -6.95013,-0.57636 -9.73361,0.90296 -19.80626,10.52631 l -7.96787,7.61246 -3.49458,-3.93079 c -11.21645,-12.61657 -20.76135,-26.96637 -29.45465,-44.28212 -10.25615,-20.42871 -18.31153,-43.3069 -22.38675,-63.58091 -0.87694,-4.36273 -1.767,-8.10481 -1.97792,-8.31573 -1.02003,-1.02002 -84.40112,-28.2597 -86.4894,-28.25512 -3.62926,0.008 1.98557,48.07708 7.88486,67.50308 0.50107,1.65 1.10735,4.35 1.34729,6 0.23993,1.65 1.66575,7.01703 3.16848,11.92674 1.50273,4.90971 2.8059,9.40971 2.89593,10 0.09,0.59029 0.42945,1.52326 0.75427,2.07326 0.32481,0.55 1.151,2.8 1.83597,5 3.7168,11.93755 15.2788,37.0496 23.27103,50.54343 32.52125,54.90787 67.85248,89.63378 125.74619,123.59182 22.74437,13.3409 53.20317,25.67419 80,32.39336 19.39385,4.86291 51.7373,10.14467 66.35699,10.83624 2.18115,0.10318 2.71831,-0.22624 2.27075,-1.39255 z M 319.5,719.13803 c -6.40917,-2.9883 -9.33857,-10.39062 -6.21456,-15.70366 1.81594,-3.08842 15.77043,-15.93308 19.23252,-17.70293 8.87209,-4.5355 18.2083,5.58209 14.1016,15.2818 -0.81193,1.91772 -3.64598,5.51727 -6.2979,7.99902 -13.51911,12.65159 -14.44191,13.10035 -20.82166,10.12577 z m 246.54346,124.28641 c 18.18341,-2.79617 56.45327,-12.05469 59.45654,-14.38416 0.55,-0.4266 3.475,-1.56973 6.5,-2.54028 3.025,-0.97055 5.95,-2.08699 6.5,-2.48098 0.55,-0.394 4.5903,-2.19027 8.97844,-3.99173 35.99813,-14.77824 71.52659,-39.19095 102.45161,-70.3977 5.73653,-5.78879 10.86856,-10.25406 11.40451,-9.92282 0.53595,0.33124 0.67369,0.11559 0.30607,-0.47922 -0.36761,-0.5948 1.97078,-4.15183 5.19641,-7.90451 21.50783,-25.02205 42.5661,-59.3714 54.28875,-88.5535 8.78881,-21.87866 17.72617,-53.84436 20.84171,-74.54321 2.74564,-18.24139 4.58584,-40.08882 3.46338,-41.11856 -0.85573,-0.78505 -14.01376,3.2697 -68.82452,21.20881 l -18.89364,6.18374 -1.76929,8.73915 c -6.03381,29.80315 -20.56474,65.25162 -36.86432,89.93124 C 712.48044,663.16192 702.69395,675 701.03293,675 c -0.42152,0 -3.63886,-2.7661 -7.14966,-6.14689 C 683.47762,658.8328 680.48754,657 674.54574,657 663.85268,657 656,665.54305 656,677.17618 c 0,6.58283 2.01025,10.06534 11.34164,19.648 l 6.15836,6.32419 -6.5,6.01881 c -9.4902,8.78765 -29.75695,21.85503 -46.16659,29.7668 -17.13684,8.26239 -33.71732,14.10592 -51.25476,18.06394 -7.10674,1.60391 -13.5253,3.52015 -14.26345,4.25831 -0.73816,0.73815 -2.65458,5.81998 -4.25872,11.29293 -8.48648,28.95395 -17.10738,57.90401 -19.43122,65.25246 -1.44389,4.56589 -2.62526,8.57137 -2.62526,8.90106 0,1.13659 19.63206,-0.60079 37.04346,-3.27824 z M 697.98779,714.55729 c -11.9332,-10.9511 -14.66033,-15.21876 -13.39795,-20.96635 1.59589,-7.26601 6.68564,-10.64522 12.92986,-8.58444 5.39224,1.7796 22.48716,18.42652 22.45834,21.86978 -0.04,4.77972 -3.45953,10.64979 -7.25231,12.44958 -5.58591,2.65069 -7.23459,2.11724 -14.73794,-4.76857 z M 520.40132,786.25 c 2.03185,-6.4625 13.2006,-40.55 24.81946,-75.75 27.22421,-82.47733 40.76381,-123.85085 40.77238,-124.58985 0.004,-0.32441 -3.25566,-1.1622 -7.24316,-1.86174 -8.81189,-1.54591 -22.58345,-6.17472 -28.24868,-9.49477 -5.11213,-2.99591 -15.434,-13.87626 -19.10249,-20.13606 -2.44719,-4.17581 -14.84568,-39.30406 -14.12626,-40.02348 0.76325,-0.76325 28.46344,8.79508 35.41358,12.21994 9.46828,4.66574 19.32238,14.067 23.98836,22.88596 3.60808,6.81947 8.81142,22.64433 9.80119,29.80825 0.36538,2.64454 1.2163,5.02007 1.89095,5.27895 0.67465,0.25889 15.38065,-4.29584 32.67999,-10.12162 C 638.34599,568.63979 657,562.37735 662.5,560.54903 c 5.5,-1.82831 20.575,-6.99691 33.5,-11.48577 12.925,-4.48885 28.45,-9.79123 34.5,-11.78306 6.05,-1.99183 12.35,-4.17355 14,-4.84827 1.65,-0.67471 14.7,-5.16873 29,-9.9867 14.3,-4.81798 26.1875,-8.91414 26.41667,-9.10259 0.89305,-0.73439 -1.23672,-1.58557 -19.51577,-7.79969 C 770.00541,502.00891 748.9,494.77011 733.5,489.45674 718.1,484.14336 700.325,478.09668 694,476.01966 c -11.23039,-3.68786 -69.73491,-23.74592 -93.3515,-32.00522 -6.51833,-2.27962 -12.02171,-3.97456 -12.22974,-3.76654 -0.20802,0.20803 -1.72359,5.70528 -3.36792,12.21611 -3.95263,15.65069 -9.48053,26.72869 -17.42038,34.91076 -6.60776,6.80935 -13.30921,10.55752 -27.96899,15.64326 -4.48881,1.55725 -11.26503,3.99024 -15.05827,5.40666 -3.79324,1.41642 -6.9905,2.57531 -7.10501,2.57531 -0.43917,0 8.74393,-28.77294 10.85403,-34.00837 5.26657,-13.06709 15.51315,-23.94843 28.19272,-29.93924 C 563.28741,443.86673 577.81358,440 583.03873,440 c 3.71043,0 3.70359,-0.58912 -0.12846,-11.0586 C 576.31898,410.93346 536.88406,292.77364 521.93843,246.25 519.06728,237.3125 516.37225,230 515.94949,230 c -0.42277,0 -3.08859,7.3125 -5.92405,16.25 -9.07905,28.61758 -26.495,81.12921 -40.04781,120.75 C 449.92891,425.61115 446,437.33397 446,438.5429 c 0,0.62202 3.59571,1.6615 8.16916,2.36162 9.1259,1.39702 20.92394,5.70858 28.03796,10.24641 6.92702,4.41854 15.83303,14.45448 19.57685,22.06063 2.92105,5.93455 13.56221,36.7756 12.91283,37.42498 -0.1409,0.14089 -6.62381,-1.93167 -14.40648,-4.60569 -24.70921,-8.48977 -32.87224,-13.38245 -40.75278,-24.42604 -5.79281,-8.11789 -8.50046,-14.30782 -12.51257,-28.60481 -1.77496,-6.325 -3.59628,-11.89209 -4.04739,-12.3713 -1.05317,-1.11881 -9.68693,1.48113 -39.47758,11.88815 -13.2,4.61127 -35.025,12.2 -48.5,16.86385 -13.475,4.66385 -33.05,11.47433 -43.5,15.13441 -10.45,3.66007 -31.15,10.84287 -46,15.96178 -31.34659,10.80541 -32.11716,11.09465 -32.89015,12.34537 -0.72303,1.16989 0.84956,1.80148 21.39015,8.59085 9.075,2.9996 25.05,8.45302 35.5,12.11871 50.59279,17.74713 147.88929,50.34205 151.33817,50.69921 2.43069,0.25171 2.71288,-0.18015 4.39824,-6.73103 4.37135,-16.99112 7.3122,-24.47248 12.79178,-32.5415 8.71414,-12.83216 18.71904,-18.87117 46.28497,-27.93787 5.39724,-1.7752 10.01753,-3.02327 10.26731,-2.77349 0.76638,0.76638 -8.61266,28.87892 -11.76123,35.25286 -9.1241,18.47075 -24.70402,29.50245 -48.18034,34.11515 -5.82675,1.14485 -8.6389,2.14378 -8.6389,3.06868 0,0.7542 1.5361,5.97138 3.41355,11.59373 5.44264,16.29887 22.77894,70.12348 22.93994,71.22244 0.0806,0.55 0.3948,1.225 0.69827,1.5 0.30346,0.275 6.75031,19.4 14.32633,42.5 7.57602,23.1 15.05763,45.6 16.62581,50 1.56818,4.4 4.75435,13.9625 7.08039,21.25 2.32604,7.2875 4.54272,13.25 4.92596,13.25 0.38325,0 2.35923,-5.2875 4.39107,-11.75 z M 220.16943,488.89365 c 18.33181,-6.10849 34.00557,-11.17099 34.83057,-11.25 0.825,-0.079 1.72604,-0.43986 2.0023,-0.80188 0.27627,-0.36203 4.32627,-1.93703 9,-3.5 L 274.5,470.5 277.07001,460 c 7.12962,-29.12877 20.06864,-58.60413 35.75967,-81.46129 8.51349,-12.40164 16.89464,-22.49124 18.70791,-22.52143 0.57068,-0.01 3.27068,2.28502 6,5.09894 C 346.2864,370.1362 349.4822,372 356.1997,372 c 6.69959,0 9.94702,-1.38732 14.43031,-6.16468 C 374.9539,361.22779 376,358.85031 376,353.63084 c 0,-6.76851 -1.43091,-9.44811 -9.28521,-17.38799 l -7.17894,-7.25715 2.48208,-2.25162 c 22.21826,-20.15539 61.21735,-39.41999 99.49375,-49.14747 7.54734,-1.91806 13.86875,-3.63371 14.04759,-3.81254 0.17884,-0.17884 5.94252,-18.98867 12.80819,-41.79962 6.86567,-22.81095 12.96667,-42.74124 13.55779,-44.28955 0.59111,-1.5483 1.07475,-3.0263 1.07475,-3.28444 0,-0.25814 -2.1375,-0.23771 -4.75,0.0454 -2.6125,0.28311 -9.475,0.99187 -15.25,1.57503 -50.99857,5.14979 -102.74033,24.07241 -149,54.49118 -45.54057,29.94591 -81.71973,69.84457 -109.70902,120.98794 -14.40731,26.32572 -24.94101,55.27792 -31.8352,87.5 -3.39743,15.87893 -7.65316,51 -6.17983,51 0.3096,0 15.56167,-4.99786 33.89348,-11.10635 z M 334.10455,345.20122 c -1.34598,-0.21264 -6.71282,-4.56784 -12.25,-9.94088 C 312.3813,326.06791 312,325.53092 312,321.38229 c 0,-3.57613 0.58363,-4.89926 3.40604,-7.72167 2.04889,-2.04888 4.73847,-3.60332 6.75,-3.90116 3.94856,-0.58463 6.08919,0.0347 5.18371,1.49983 -0.38736,0.62677 -0.16582,0.75125 0.54983,0.30895 1.92147,-1.18753 17.92318,15.07476 19.27592,19.58981 2.38303,7.95385 -4.53338,15.39039 -13.06095,14.04317 z M 845.56408,492.75 C 842.4539,457.4571 834.474,424.16934 821.05221,390.5 813.87528,372.49625 798.53874,345.40515 784.47515,325.88876 766.62361,301.11572 741.31598,274.19226 720.7117,258.05414 682.10297,227.8142 638.28516,205.89938 591.83712,193.59945 575.46756,189.26462 547.63838,185 535.72062,185 c -5.11189,0 -5.78807,0.22221 -5.32517,1.75 0.29163,0.9625 0.95305,3.55 1.46982,5.75 0.51678,2.2 2.33245,8.725 4.03483,14.5 16.8368,57.11557 19.74934,66.37042 21.0999,67.04667 0.825,0.4131 8.7,2.63533 17.5,4.9383 24.81814,6.49493 47.95314,16.23813 69.36363,29.21217 10.75949,6.51989 26.30911,17.65531 27.62323,19.78159 0.33267,0.53828 -1.85079,3.35076 -4.85214,6.24998 C 658.37385,342.20848 656,346.29082 656,352.51742 c 0,6.50243 1.85984,11.05693 6.17183,15.11396 5.83681,5.4917 13.74782,6.57933 20.79361,2.85878 1.39401,-0.73611 5.68456,-4.2974 9.53456,-7.91398 3.85,-3.61658 7.24922,-6.57573 7.55383,-6.57589 2.24339,-0.001 16.10734,18.14725 24.32624,31.84394 14.69098,24.48233 25.37299,50.30854 31.89603,77.11604 1.31523,5.40515 1.38867,5.48419 7.27627,7.83076 7.68335,3.0623 79.52203,27.04093 81.29912,27.13638 1.07302,0.0576 1.21985,-1.42125 0.71259,-7.17741 z M 693,345.22287 c -5.36051,-0.85381 -9.81655,-8.22866 -8.52499,-14.10907 0.79029,-3.5982 6.07499,-9.83419 13.73931,-16.2125 4.78467,-3.98184 6.60485,-4.9013 9.70274,-4.9013 4.33853,0 8.33504,2.65304 10.60292,7.03864 3.20597,6.19967 1.47516,9.95055 -8.88069,19.2455 -7.96965,7.1532 -12.51593,9.5955 -16.63929,8.93873 z"
       id="path1" />
  </g>
</svg>
