<?xml version="1.0" encoding="UTF-8" standalone="no"?>
<!-- Created with Inkscape (http://www.inkscape.org/) -->

<svg
   version="1.1"
   id="svg1"
   fill="currentColor"
   stroke="currentColor"
   width="597.36426"
   height="575.98743"
   viewBox="0 0 597.36426 575.98743"
   xmlns="http://www.w3.org/2000/svg"
   xmlns:svg="http://www.w3.org/2000/svg">
  <defs
     id="defs1" />
  <g
     id="g1"
     transform="translate(-241.5,-223.96511)">
    <path
       d="m 324.11298,798.45536 c -18.90692,-4.1018 -32.33769,-10.9469 -48.10409,-24.51662 C 262.33,762.16567 249.72668,741.34646 244.24986,721.47652 L 241.5,711.5 v -199 c 0,-162.36256 0.24535,-200.01259 1.33263,-204.5 3.89705,-16.08385 9.03916,-27.70561 17.69822,-40 5.80095,-8.23637 19.31761,-21.84079 26.6448,-26.81782 7.36551,-5.00305 19.82612,-10.88288 29.47113,-13.90665 L 325.5,224.5 517.25,224.23255 709,223.96511 l 10e-4,46.26744 10e-4,46.26745 21.63961,22.5 c 11.90179,12.375 27.87631,29.11257 35.49895,37.1946 L 780,390.8892 v 92.5554 C 780,534.35007 779.76217,576 779.47148,576 c -0.29068,0 -3.19472,-1.3459 -6.45341,-2.99088 C 765.1553,569.04001 750.96583,565 744.88813,565 H 740 v -82.3 c 0,-62.67778 -0.28611,-82.58611 -1.2,-83.5 -0.8852,-0.8852 -9.92073,-1.2 -34.4433,-1.2 -33.21906,0 -33.24443,-0.002 -34.8,-2.22251 -1.34135,-1.91504 -1.5567,-7.37942 -1.5567,-39.5 V 319 H 475.62098 283.24197 l -0.69799,77.25 c -0.38389,42.4875 -0.53281,129.225 -0.33094,192.75 0.40608,127.7869 -0.033,119.22139 6.84294,133.5 8.7324,18.13383 26.95402,32.87252 44.94402,36.3533 5.95827,1.15283 111.56234,1.82832 218.35699,1.3967 58.4794,-0.23635 61.81571,-0.34556 61.101,-2 -8.83388,-20.44908 -10.94767,-30.87209 -10.90051,-53.75 0.033,-16.02485 0.32533,-19.15217 2.66382,-28.5 3.57958,-14.30893 8.36693,-25.18919 16.37847,-37.22346 19.48042,-29.26188 47.86917,-47.74231 81.94306,-53.34307 13.39788,-2.20223 36.53617,-1.48197 47.95717,1.49282 35.04019,9.12683 63.30313,31.87008 77.4774,62.34625 8.39463,18.04934 10.45902,28.55121 9.76105,49.65586 -0.4261,12.88412 -0.97136,17.1249 -3.15932,24.5716 -9.6499,32.8434 -33.17833,58.42624 -64.46275,70.09139 -18.13249,6.76114 -5.41038,6.4171 -234.0426,6.32911 -172.08296,-0.0662 -207.6402,-0.31086 -212.9608,-1.46514 z m 346.33123,-48.75304 c -6.86307,-13.14169 -9.42769,-23.41202 -9.4372,-37.79236 -0.0237,-35.78005 22.43112,-62.08215 56.29885,-65.94484 18.79801,-2.14396 35.43621,3.72551 49.01256,17.2902 8.8146,8.80702 12.99034,17.24286 13.4861,27.24468 0.29076,5.86597 -0.0361,7.71628 -2.0178,11.42134 -4.81885,9.00962 -14.51148,13.63692 -23.51861,11.22788 -6.57934,-1.7597 -10.36106,-4.97022 -14.08549,-11.95797 -7.90225,-14.82614 -20.87505,-18.06632 -33.6563,-8.40623 -6.24326,4.71866 -10.01893,10.79179 -12.18684,19.60241 -1.37888,5.60394 -1.49224,7.85264 -0.6083,12.06685 6.12125,29.18324 40.8828,43.40942 70.02909,28.65946 16.18297,-8.18967 29.45559,-25.56759 33.31058,-43.61374 1.73389,-8.11676 1.44581,-23.71142 -0.58327,-31.57485 -4.803,-18.61337 -19.56349,-36.06081 -37.98758,-44.90273 -12.85763,-6.17052 -18.93954,-7.45372 -35,-7.3845 -16.5327,0.0713 -25.15203,1.99877 -37.37566,8.3582 -15.53167,8.08047 -27.11134,20.12655 -35.09047,36.50388 -5.29198,10.8619 -7.00584,17.90074 -7.71903,31.70207 -1.0098,19.54147 2.81852,35.32186 12.23389,50.4282 L 660.14208,760 h 7.83998 7.83997 z M 322.5,734.60769 c -6.54364,-2.9107 -9.27488,-10.27478 -6.09291,-16.42802 3.34617,-6.47079 -4.97137,-6.06752 131.75652,-6.38802 117.47261,-0.27536 124.57443,-0.1931 127.11628,1.47228 3.95347,2.59025 5.96287,6.22938 5.90134,10.68763 -0.0665,4.81585 -1.41487,7.50013 -4.92211,9.79844 -2.5024,1.63983 -10.4793,1.76392 -126.71481,1.97107 -101.62219,0.1811 -124.58659,-0.0202 -127.04431,-1.11338 z m -1.10374,-52.03706 c -9.73718,-4.23868 -10.33485,-18.54012 -1.01072,-24.18509 C 323.32107,656.60833 326.22898,656.5 371,656.5 c 52.49945,0 51.31423,-0.13611 55.71267,6.39788 4.24916,6.31223 2.3768,15.2476 -4.01122,19.1426 -3.0589,1.86513 -5.31647,1.95047 -50.70145,1.91664 -37.63581,-0.0281 -48.14455,-0.31598 -50.60374,-1.38649 z m 147.8446,-0.55014 c -3.73751,-2.29609 -7.23165,-7.4864 -7.23712,-10.75025 -0.007,-4.45498 3.13529,-10.19281 6.84716,-12.50104 3.64294,-2.26537 3.73011,-2.26969 51.6491,-2.55796 42.25386,-0.2542 48.50726,-0.0952 52.23736,1.32788 9.9461,3.79465 12.06383,15.48587 4.17451,23.04593 l -3.0419,2.91495 -50.68498,0.26135 c -49.19318,0.25367 -50.78092,0.20243 -53.94413,-1.74086 z M 320.36671,628.08194 C 315.60963,625.18121 314,622.21621 314,616.35422 c 0,-4.19284 0.52391,-5.82341 2.70331,-8.41347 C 321.70972,601.99097 321.6273,602 370.90278,602 c 29.33995,0 45.94533,0.36963 47.78212,1.06362 7.14803,2.70071 11.49138,10.84218 9.31012,17.45148 -0.61442,1.86171 -2.68031,4.75742 -4.59087,6.43492 L 419.93041,630 371.7152,629.996 c -45.69941,-0.004 -48.37869,-0.10343 -51.34849,-1.91432 z m 148.53117,-0.34514 c -7.68488,-5.11859 -8.79944,-15.25484 -2.3472,-21.34623 1.8115,-1.71019 4.73491,-3.39769 6.49648,-3.75 1.76156,-0.35231 24.40909,-0.63987 50.32784,-0.63902 53.72057,0.002 52.25756,-0.20481 56.375,7.96034 1.2375,2.45404 2.25,5.53603 2.25,6.84887 0,3.83216 -3.09023,9.2731 -6.41996,11.30356 -2.90504,1.77149 -5.92669,1.87842 -53.18216,1.88194 L 472.29577,630 Z M 320.57502,562.73355 c -11.36891,-6.4696 -11.21446,-25.07166 0.26173,-31.52164 L 324.77231,529 h 89.65368 c 87.25746,0 89.75701,0.0527 93.51932,1.9721 13.05495,6.66014 12.96964,25.76543 -0.14565,32.61718 -2.26695,1.18431 -17.19287,1.40808 -93,1.39427 L 324.5,564.9671 Z m 221.64763,0.61524 C 529.74958,557.16397 529.02466,539.2912 540.92168,531.2738 L 544.29577,529 h 78.01426 78.01425 l 4.24181,2.48587 c 7.64285,4.479 11.16466,16.47085 7.1108,24.21244 -0.92113,1.75907 -3.32755,4.45907 -5.3476,6 l -3.67281,2.80169 -78.57824,0.23694 c -70.82793,0.21356 -78.90149,0.0766 -81.85559,-1.38815 z M 319.88148,505.50541 c -2.72245,-1.48832 -5.88422,-6.95176 -5.87774,-10.15654 0.005,-2.63551 3.48238,-7.98917 6.19275,-9.53505 1.84476,-1.05217 20.12774,-1.37013 91.80351,-1.59657 79.70411,-0.25181 89.95629,-0.10933 93.66888,1.30173 4.99245,1.89749 7.56044,5.44949 7.6967,10.64592 0.0803,3.06304 -0.5512,4.48231 -3.15158,7.08286 l -3.25202,3.25224 -92.23099,0.21846 c -78.43064,0.18578 -92.6228,0.004 -94.84951,-1.21305 z m 219,-0.008 C 536.23621,504.05937 533,498.58577 533,495.54921 c 0,-2.75077 2.73449,-7.14154 5.69889,-9.15071 2.69389,-1.82583 5.88914,-1.8985 83.47764,-1.8985 79.93873,0 80.70235,0.0189 83.5,2.06453 1.55291,1.1355 3.63148,3.68836 4.61905,5.67303 1.6087,3.23291 1.64733,3.96331 0.37118,7.01756 -0.78342,1.875 -2.66462,4.38463 -4.18044,5.57698 L 703.73028,507 622.61514,506.96 c -68.20346,-0.0337 -81.53195,-0.26655 -83.73366,-1.46305 z M 317.9653,455.20059 c -6.63772,-6.63772 -6.19088,-17.14093 0.93258,-21.92066 L 322.29577,431 h 190.44782 c 214.41351,0 194.24219,-0.79228 198.39804,7.79257 2.46167,5.08513 2.08811,9.67168 -1.15914,14.23202 C 705.39786,459.46311 720.74724,459 511.93201,459 h -190.1673 z m 77.62543,-56.70797 c -6.21102,-2.38034 -10.22853,-6.05296 -13.14727,-12.01866 -2.33389,-4.7703 -2.64174,-6.41508 -2.20921,-11.80349 C 381.34056,360.88827 390.18889,352 402.80288,352 c 12.19025,0 20.02044,7.75125 20.94208,20.73098 l 0.48065,6.76902 -15.26756,0.23808 c -8.39715,0.13095 -15.42632,0.39685 -15.62036,0.5909 -0.75649,0.75649 4.35597,7.21273 6.69233,8.45137 2.95197,1.56501 11.40207,0.90161 16.6973,-1.31088 1.96887,-0.82265 3.67579,-1.37732 3.79317,-1.2326 0.11737,0.14472 0.44011,2.37504 0.71721,4.95626 l 0.50381,4.69314 -4.12076,1.65099 c -5.81846,2.33118 -17.15705,2.82289 -22.03002,0.95536 z M 412,369.45455 C 412,365.64797 407.83049,362 403.47971,362 c -1.98615,0 -4.47695,0.46334 -5.5351,1.02964 -1.9028,1.01835 -4.94461,5.89098 -4.94461,7.9207 0,0.65922 3.5337,1.04966 9.5,1.04966 h 9.5 z m 89.66536,28.62411 c -3.20905,-1.05303 -6.02002,-2.09999 -6.2466,-2.32657 -0.22658,-0.22658 0.26086,-2.67761 1.0832,-5.44674 l 1.49517,-5.03478 4.67091,2.36471 c 5.51917,2.79416 15.3021,3.31055 17.29209,0.91276 2.48723,-2.99693 0.75205,-4.8984 -6.4758,-7.09637 -10.62894,-3.23224 -14.13809,-5.20224 -15.90706,-8.93007 -3.24994,-6.84874 -0.7708,-14.35802 6.02683,-18.25515 5.23027,-2.99855 15.1387,-3.08291 22.85839,-0.1946 3.04563,1.13952 5.53751,2.50744 5.53751,3.03984 0,1.53417 -3.96294,8.8917 -4.77032,8.85651 -0.40133,-0.0175 -1.55383,-0.6564 -2.56113,-1.4198 -1.00729,-0.7634 -4.01653,-1.91219 -6.68718,-2.55287 -6.17637,-1.48169 -10.48137,0.1686 -10.48137,4.01794 0,2.26567 0.88608,2.77477 9.97591,5.73167 12.44135,4.04714 16.02409,7.11043 16.02409,13.70076 0,5.34921 -2.51241,9.08254 -8.05669,11.97187 -5.52106,2.87723 -16.12558,3.17198 -23.77795,0.66089 z M 318,370.5 V 342 l 7.75,0.038 7.75,0.0379 2.91992,4.21205 c 1.60595,2.31663 6.88786,10.14453 11.73756,17.39535 4.8497,7.25081 9.16074,13.39566 9.58008,13.65523 0.41934,0.25956 0.60623,-7.58542 0.41531,-17.4333 L 357.80573,342 H 364.90287 372 v 28.5 28.5 h -6.98538 -6.98537 l -4.56254,-5.75 c -2.5094,-3.1625 -8.36598,-11.35452 -13.01462,-18.2045 L 332,362.59101 V 380.7955 399 h -7 -7 z m 114.63233,13.25 c -2.64762,-8.3875 -5.62816,-18.01672 -6.62342,-21.39826 -0.99526,-3.38155 -2.10973,-7.09405 -2.47662,-8.25 C 422.89741,352.10142 423.20627,352 429.93261,352 c 5.70805,0 7.06739,0.29727 7.06739,1.54556 0,1.3006 6.03414,23.7409 7.65133,28.45444 0.28306,0.825 2.05728,-4.4463 3.94272,-11.714 C 453.59314,351.01633 453.03642,352 458.9431,352 h 4.99261 l 2.47915,8.25 c 1.36354,4.5375 3.27211,11.2875 4.24127,15 0.96917,3.7125 2.00551,6.74794 2.30299,6.74542 0.29749,-0.003 1.85829,-5.74003 3.46846,-12.75 C 480.71238,350.59125 479.80991,352 487.47525,352 c 3.58861,0 6.52475,0.14059 6.52475,0.31241 0,0.17183 -1.35102,4.30927 -3.00227,9.1943 -1.65125,4.88504 -3.93611,12.28196 -5.07746,16.43759 -1.14136,4.15564 -2.95939,10.5932 -4.04008,14.3057 l -1.96488,6.75 h -6.36308 -6.36308 l -2.99893,-8.28794 c -1.64941,-4.55837 -3.53441,-10.27658 -4.1889,-12.70715 -1.46247,-5.43119 -1.74058,-4.97974 -6.00353,9.74509 L 450.74083,399 h -6.64732 -6.64732 z"
       id="path1" />
  </g>
</svg>
