<?xml version="1.0" encoding="UTF-8" standalone="no"?>
<!-- Created with Inkscape (http://www.inkscape.org/) -->

<svg
   version="1.1"
   id="svg1"
   fill="currentColor"
   stroke="currentColor"
   width="636.64398"
   height="677.50018"
   viewBox="0 0 636.64399 677.50018"
   xmlns="http://www.w3.org/2000/svg"
   xmlns:svg="http://www.w3.org/2000/svg">
  <defs
     id="defs1" />
  <g
     id="g1"
     transform="translate(-193.73837,-148.5)">
    <path
       id="path1"
       d="m 511.50021,148.5 c -7.82135,0 -9.82388,0.37936 -15.2832,2.90039 -21.07228,9.73083 -27.72651,36.51535 -13.78907,55.50195 4.40067,5.99492 9.23416,9.75014 16.49219,12.81446 4.64855,1.96256 6.91493,2.29826 13.58008,2.00976 17.99107,-0.77876 32.02338,-13.05936 35.66992,-31.21679 3.02867,-15.08083 -6.4508,-32.06506 -21.95117,-39.33008 C 521.3445,148.89503 519.1724,148.5 511.50021,148.5 Z m 38.85742,80.93359 c -0.5043,0.0139 -0.68795,0.43678 -0.95312,1.28125 -2.93438,9.34507 -10.63128,18.76491 -18.7754,22.97852 -12.84308,6.64476 -31.40761,5.25759 -42.87304,-3.20313 -5.60689,-4.1375 -11.27991,-11.49486 -12.9082,-16.74023 -0.64025,-2.0625 -1.66634,-3.75 -2.2793,-3.75 -0.61296,0 -3.9885,1.6875 -7.50195,3.75 -9.02066,5.29536 -18.10108,14.54236 -21.92383,22.32422 -8.46483,17.2316 -7.8339,39.48499 1.27734,45.04101 2.92762,1.78524 6.21078,1.87686 66.36133,1.88086 68.54457,0.004 67.6604,0.0714 71.99219,-5.43554 5.79072,-7.36172 5.23883,-25.68538 -1.18164,-39.20508 -5.17506,-10.89721 -15.79746,-21.29016 -28.35938,-27.74609 -1.54608,-0.79458 -2.3707,-1.18968 -2.875,-1.17579 z m 192.4082,13.81446 c -17.1529,-1.05074 -33.8086,7.9348 -41.83007,24.23047 -3.36157,6.82913 -3.43555,7.24977 -3.43555,19.55273 0,12.51461 0.0168,12.60841 3.75195,20.16602 5.94403,12.0269 17.28587,21.29984 29.1543,23.83593 5.74589,1.22781 17.37269,0.4545 23.8457,-1.58593 11.47805,-3.61814 22.49964,-13.95296 26.77344,-25.10352 2.69619,-7.03449 3.6465,-18.98054 2.08789,-26.24805 -2.72892,-12.72451 -12.08117,-24.89304 -23.33008,-30.35156 -5.52679,-2.68186 -11.29994,-4.14585 -17.01758,-4.49609 z m -459.24023,0.0664 c -10.8516,-0.005 -21.45138,4.02259 -29.97266,11.81055 -9.58113,8.75661 -14.27121,21.50147 -13.27539,36.07031 1.20196,17.5846 13.63958,33.48207 30.37891,38.83008 10.6201,3.393 24.15925,2.15838 34.58984,-3.1543 5.84806,-2.97862 14.21409,-12.02121 17.61719,-19.04101 6.1033,-12.58972 6.24823,-27.69381 0.38086,-39.82813 -3.4863,-7.21003 -13.22915,-16.93164 -20.30664,-20.26367 -6.29926,-2.96563 -12.90115,-4.42083 -19.41211,-4.42383 z M 419.38107,296 c -0.72341,0 -14.97559,12.92636 -35.13281,31.86328 l -14.25391,13.38867 5.32031,5.125 c 4.68149,4.50913 10.68555,14.37598 10.68555,17.56055 0,1.88257 0.99324,1.18777 8.83984,-6.1875 4.24233,-3.9875 15.30805,-14.19991 24.58985,-22.69336 l 16.875,-15.44141 -2.37891,-1.55859 c -7.66729,-5.01911 -13.92578,-13.79332 -13.92578,-19.52344 0,-1.39328 -0.27852,-2.5332 -0.61914,-2.5332 z m 185.27344,0 c -0.26323,0 -0.76478,1.68714 -1.11329,3.75 -0.95599,5.65846 -6.00908,13.00579 -11.05078,16.06445 -2.43445,1.47692 -4.44158,2.98194 -4.45898,3.34375 -0.0174,0.3618 10.74055,10.37143 23.90625,22.24414 13.16569,11.87271 24.26775,22.12152 24.67187,22.77539 0.46007,0.7444 1.18721,-0.11473 1.94336,-2.29882 2.41903,-6.98718 5.4524,-11.69937 10.39649,-16.14453 2.77737,-2.4971 5.02143,-4.92074 4.98633,-5.38672 -0.0351,-0.46598 -2.17257,-2.59126 -4.75,-4.72266 -2.57744,-2.1314 -13.54324,-11.91891 -24.36915,-21.75 C 613.9907,304.04391 604.91774,296 604.65451,296 Z m -89.51954,37.21875 c -6.45157,-0.20675 -13.07309,0.1555 -17.3789,1.16602 -20.47988,4.80635 -36.92837,20.58341 -42.3457,40.61523 -2.58508,9.5589 -2.4355,24.57206 0.33398,33.5 5.65756,18.23826 20.06844,33.03254 38.19727,39.21289 8.05051,2.74453 23.43146,3.10576 32.59765,0.76563 19.34633,-4.93914 34.83473,-19.59565 41.10742,-38.9004 3.3283,-10.24314 3.73935,-24.78781 0.96485,-34.07812 -5.55813,-18.61116 -19.83809,-34.01625 -37.11133,-40.0332 -3.63114,-1.26487 -9.91366,-2.0413 -16.36524,-2.24805 z m -186.46289,7.00195 c -1.30451,-0.2938 -1.67187,0.18603 -1.67187,1.3125 0,2.57068 -4.86291,11.30853 -8.58789,15.43164 -20.6599,22.86804 -62.79147,16.91249 -76.03516,-10.74804 -1.50564,-3.14467 -2.81781,-5.84087 -2.91601,-5.99219 -0.0982,-0.15132 -2.26955,0.6209 -4.82618,1.7168 -15.84637,6.79255 -30.97552,23.29541 -37.27929,40.66211 -4.16042,11.4618 -4.8716,29.82792 -1.4043,36.30664 1.15905,2.16569 3.78893,3.86062 7.99024,5.15039 1.40711,0.43198 37.96397,0.70848 81.23632,0.61328 77.78104,-0.17116 78.70923,-0.19727 81.5,-2.23828 5.12345,-3.74702 6.72352,-8.63371 6.52344,-19.91016 -0.0978,-5.51362 -0.8674,-12.72539 -1.71094,-16.02539 -4.50995,-17.64333 -17.68781,-33.57594 -35.52148,-42.94727 -3.75159,-1.9714 -5.99237,-3.03822 -7.29688,-3.33203 z m 454.81836,0.0664 c -0.39289,0.2101 -0.49023,0.72396 -0.49023,1.64453 0,6.21966 -10.64149,18.82532 -19.81641,23.47461 -14.0497,7.11952 -31.0634,7.4759 -44.94531,0.93945 -7.77453,-3.66071 -17.1034,-13.14334 -20.2832,-20.61718 -2.83294,-6.65857 -3.42602,-6.73712 -12.42188,-1.66016 -14.86389,8.38866 -27.21248,23.05562 -32.11328,38.14062 -2.24092,6.89771 -2.71274,10.22458 -2.80664,19.79102 -0.13683,13.93976 1.2591,17.73008 7.7207,20.95312 4.12645,2.05828 4.91421,2.07505 83.16602,1.8125 87.12122,-0.2923 82.57891,0.0569 86.77344,-6.6875 1.92809,-3.10019 2.2065,-4.84741 2.08398,-13.07812 -0.17572,-11.80447 -2.3528,-21.28693 -7.11914,-31 -6.46797,-13.18075 -26.08154,-30.72823 -37.48828,-33.53906 -1.17845,-0.2904 -1.86688,-0.38393 -2.25977,-0.17383 z m -398.68164,94.49023 -2.92578,3.54688 c -4.25777,5.16542 -12.36078,8.78812 -21.35742,9.54687 L 353.06662,448.5 365.77755,460 c 6.99022,6.32499 15.18602,13.85402 18.21485,16.73047 3.02882,2.87641 5.55909,5.2389 5.62109,5.25 0.062,0.0111 1.54312,-2.88891 3.29297,-6.44336 2.1916,-4.45176 5.13929,-8.2445 9.4707,-12.19141 l 6.28711,-5.73047 -10.27734,-8.90039 c -5.65271,-4.89491 -11.01992,-10.03245 -11.92774,-11.41796 z m 254.07813,0.88868 -6.69336,6.46484 c -3.68151,3.5555 -9.00311,8.54939 -11.82617,11.09766 l -5.13282,4.63281 5.92578,4.60156 c 5.33292,4.14139 13.83985,15.13097 13.83985,17.87891 0,0.56763 1.2375,-0.0958 2.75,-1.47461 1.5125,-1.37875 9.70251,-8.77586 18.19922,-16.4375 L 671.39669,448.5 663.9006,447.88672 c -8.85364,-0.72519 -15.08428,-3.25042 -20.83008,-8.44141 z M 270.00021,448 v 19.94727 19.94921 l 3.00391,-1.04687 c 3.23416,-1.12743 19.36773,-0.70547 22.24609,0.58203 1.6346,0.73117 1.75,-0.54319 1.75,-19.32422 V 448 h -13.5 z m 457,0 v 19.97461 19.97656 l 2.75,-1.04883 c 3.37057,-1.28557 16.56359,-1.27887 21,0.0117 l 3.25,0.94727 V 467.92969 448 h -13.5 z m -154.83985,11.18164 c -1.56717,-0.0954 -2.11169,1.11709 -2.50585,3.58203 -1.66647,10.42154 -17.6946,27.74338 -31.28711,33.81445 -16.51498,7.37639 -36.93399,6.94056 -53.99219,-1.15234 -12.2472,-5.81042 -25.394,-19.59896 -29.96289,-31.42578 -0.95614,-2.475 -1.84471,-4.64289 -1.97461,-4.81641 -0.1299,-0.17351 -3.09278,1.11829 -6.58594,2.86914 -20.98124,10.51635 -37.73477,29.5034 -44.66992,50.62891 -4.4454,13.54136 -5.31586,37.27616 -1.68555,45.9668 1.97611,4.7306 6.01537,9.15045 10.00391,10.94726 2.46695,1.11135 20.8709,1.31055 103.57422,1.12696 L 613.64669,570.5 l 4.05469,-2.68359 c 2.54747,-1.68603 4.93824,-4.47472 6.42773,-7.5 2.20479,-4.47808 2.37115,-5.97409 2.36915,-21.31641 -0.002,-16.08985 -0.0836,-16.73615 -3.3086,-26 -7.18833,-20.64847 -20.22902,-35.89385 -42.39258,-49.55859 -4.47938,-2.76173 -7.06954,-4.16433 -8.63672,-4.25977 z m 168.98829,49.52539 c -13.99418,-0.0516 -27.8781,6.61927 -36.16797,19.44531 -14.94295,23.11963 -4.51053,53.30479 22.01953,63.71289 4.62626,1.81493 7.09237,2.10445 15.5293,1.82032 11.95112,-0.40249 18.06024,-2.74753 26.11523,-10.0293 19.27783,-17.42728 20.48957,-44.65105 2.77734,-62.36328 -8.43897,-8.43897 -19.38907,-12.54582 -30.27343,-12.58594 z m -458.14844,0.83203 c -14.15631,0.0143 -20.22219,2.06826 -28.5332,9.66406 -6.42881,5.87557 -9.94259,11.44129 -12.58204,19.92188 -2.28448,7.34004 -2.38674,13.52628 -0.35156,21.33984 4.01304,15.40708 15.26302,27.47042 29.9668,32.13282 6.12296,1.94152 17.38838,1.69291 24.57226,-0.54297 24.79659,-7.71756 36.80243,-36.05384 25.26172,-59.62305 -3.4356,-7.01642 -13.51112,-16.69524 -21.02929,-20.19922 -5.25696,-2.4501 -6.889,-2.70386 -17.30469,-2.69336 z m 95.09766,61.50977 c -0.32897,0.0271 -5.48677,4.68122 -11.46094,10.34179 l -10.86133,10.29102 5.36328,3.02734 c 6.01853,3.39665 13.04691,10.5163 15.53711,15.73829 1.01406,2.1265 2.09695,3.19361 2.80078,2.75976 3.73625,-2.30309 22.40743,-19.58523 21.95313,-20.32031 C 401.12875,592.39945 400.09679,592 399.13693,592 c -2.51504,0 -10.13688,-5.07734 -13.63672,-9.08398 -1.65,-1.88894 -3.85632,-5.3433 -4.90234,-7.67579 -1.04604,-2.33249 -2.17105,-4.2185 -2.5,-4.1914 z m 266.90234,0.004 c -0.275,-0.025 -1.3385,1.99258 -2.36328,4.48438 -2.38556,5.80059 -9.29707,12.71386 -15.09766,15.09961 -2.4916,1.02478 -4.42039,2.19592 -4.28516,2.60351 0.13524,0.4076 5.1961,5.21792 11.2461,10.68946 6.04999,5.47152 11.09135,9.97636 11.20312,10.00976 0.11176,0.0334 1.05119,-1.85195 2.08789,-4.18945 2.38485,-5.37713 9.70169,-12.93983 15.26368,-15.77734 l 4.28125,-2.18555 -10.91797,-10.34375 c -6.00501,-5.68951 -11.14297,-10.36563 -11.41797,-10.39063 z m -405.66602,30.08594 c -0.12418,-0.19914 -4.18678,1.55068 -9.02929,3.88867 -17.17195,8.29075 -30.82798,25.78543 -34.81446,44.60157 -1.84423,8.70475 -1.90841,21.44798 -0.1289,25.65234 1.66321,3.92956 4.48926,6.55506 8.28125,7.69141 4.19301,1.25619 152.00108,1.25467 156.52539,-0.002 4.57352,-1.27029 9.47723,-6.71693 10.5332,-11.69922 1.24485,-5.87346 0.68248,-19.22775 -1.10351,-26.19921 -3.97824,-15.52857 -15.69393,-30.30229 -30.84766,-38.90039 -10.90604,-6.188 -10.75641,-6.19716 -14.11328,0.92968 -6.02878,12.7994 -19.84554,22.88092 -34.45703,25.14258 -19.00508,2.94171 -39.95838,-7.80013 -47.69532,-24.45117 -1.60811,-3.46092 -3.02621,-6.45516 -3.15039,-6.6543 z m 546.08594,0.0918 c -1.12655,-0.0342 -1.45256,0.6366 -1.9043,2.69336 -1.16165,5.28892 -8.46757,15.0435 -14.70703,19.63672 -14.50178,10.67561 -31.85431,12.16471 -48.80859,4.18554 -8.36073,-3.93478 -18.00482,-13.50174 -20.53516,-20.37109 -0.98749,-2.68083 -2.13167,-5.26358 -2.54297,-5.73828 -1.06556,-1.22984 -11.06345,3.57373 -18.53906,8.9082 -11.62218,8.29342 -21.69985,23.50698 -24.38672,36.8125 -1.81953,9.01041 -1.70344,23.53514 0.2168,27.14258 1.96016,3.68242 5.46378,7.03821 8.78711,8.41602 1.6678,0.69143 28.34697,0.96146 80.17773,0.81054 76.71611,-0.22339 77.71088,-0.25278 80.4375,-2.28906 6.0882,-4.54673 6.89699,-6.67846 6.74024,-17.76172 -0.26566,-18.78368 -6.16464,-33.18454 -18.79102,-45.87305 -7.03935,-7.07399 -18.9224,-14.92394 -24.7168,-16.32812 -0.58817,-0.14254 -1.05221,-0.23273 -1.42773,-0.24414 z m -271.02344,4.7832 c -9.89068,-0.22659 -20.03736,1.77045 -28.04101,5.68945 -7.23585,3.54305 -17.42512,12.98514 -21.6875,20.09766 -9.29847,15.51612 -10.94669,32.69312 -4.73047,49.30469 6.27635,16.77226 21.93497,30.82016 38.32422,34.38086 13.4887,2.93053 29.61057,0.89252 41.0625,-5.19141 7.49002,-3.97912 17.46351,-14.43444 21.97656,-23.03711 8.58495,-16.36443 8.63152,-33.7843 0.13672,-51.04687 -6.87139,-13.96359 -22.98156,-26.57621 -37.32422,-29.21875 -3.15084,-0.58053 -6.4199,-0.90299 -9.7168,-0.97852 z m -126.05078,73.89063 -1.13867,3.79687 c -1.97738,6.59894 -6.70689,12.92577 -11.87891,15.88867 -2.65517,1.52107 -5.01238,2.90625 -5.23632,3.07813 -0.39892,0.30621 5.85623,6.25848 26.9082,25.60742 5.77499,5.30783 10.725,9.65611 11,9.66211 0.275,0.006 1.32642,-1.78131 2.33594,-3.9707 2.35613,-5.10994 9.18807,-11.93521 14.49218,-14.47852 2.28086,-1.09366 4.03882,-2.29391 3.90821,-2.66797 -0.13062,-0.37407 -6.76134,-6.38824 -14.73633,-13.36328 -7.97499,-6.97504 -17.01058,-15.12748 -20.07813,-18.11719 z m 246.7461,0.29297 c -0.39893,0.16663 -9.56129,8.40274 -20.36133,18.30273 -16.13723,14.79238 -19.35265,18.1782 -18.04492,19 8.64341,5.43167 11.31019,7.83868 15.29101,13.79883 l 4.47656,6.70312 7.52344,-7.32812 c 4.13765,-4.03076 12.47344,-11.77348 18.52344,-17.20508 C 653.45748,703.63146 654.98649,702 653.25411,702 c -0.50153,0 -2.97844,-1.36887 -5.50585,-3.04297 -4.99748,-3.31019 -10.14087,-10.52273 -11.23829,-15.75976 -0.38068,-1.81663 -1.01902,-3.16663 -1.41796,-3 z m -69.48438,46.00195 c -0.70476,-0.0993 -0.61169,0.45931 -0.61914,1.55078 -0.0223,3.27958 -6.47405,13.28835 -12.45703,19.32422 -6.81969,6.87996 -18.07057,13.06333 -27.23633,14.9707 -3.564,0.74168 -10.02882,1.00852 -16.79492,0.69336 -13.08877,-0.60966 -19.13148,-2.59719 -30.01563,-9.87695 -8.53236,-5.70679 -14.18897,-11.89729 -18.10156,-19.80664 -1.51154,-3.05559 -2.8834,-5.73284 -3.04687,-5.95117 -0.63331,-0.84584 -13.16312,6.10805 -19.54688,10.84765 -13.33349,9.89942 -26.21683,30.32605 -29.30469,46.46485 -0.81668,4.26841 -1.48437,12.68741 -1.48437,18.71093 0,12.56641 1.72605,17.51507 7.29101,20.90821 3.12566,1.90576 5.65615,1.95693 96.7461,1.96093 l 93.53906,0.004 4.4043,-2.25 c 6.84835,-3.49887 8.52713,-7.7033 8.48633,-21.25 -0.0657,-21.79448 -7.10072,-39.64147 -21.71094,-55.07617 -8.53904,-9.0209 -15.67526,-14.45018 -24.74219,-18.82422 -3.19977,-1.54362 -4.70149,-2.30104 -5.40625,-2.40039 z" />
  </g>
</svg>
