<?xml version="1.0" encoding="UTF-8" standalone="no"?>
<!-- Created with Inkscape (http://www.inkscape.org/) -->

<svg
   version="1.1"
   id="svg1"
   fill="currentColor"
   stroke="currentColor"
   width="557.99084"
   height="517.39587"
   viewBox="0 0 557.99084 517.39587"
   xmlns="http://www.w3.org/2000/svg"
   xmlns:svg="http://www.w3.org/2000/svg">
  <defs
     id="defs1" />
  <g
     id="g1"
     transform="translate(-243.03176,-258.60412)">
    <path
       d="M 479,745.5 V 715 H 374.11483 c -120.99656,0 -111.43643,0.74284 -121.69355,-9.45588 -10.40665,-10.3474 -9.55648,6.99919 -9.21616,-188.04412 l 0.29488,-169 2.70206,-5.5 c 5.74454,-11.69291 16.79723,-19.2876 29.95669,-20.5843 L 283,321.74158 v -25.7158 c 0,-23.23712 0.16868,-25.86444 1.75,-27.25787 2.13744,-1.88346 11.26863,-3.97409 29.75,-6.8114 26.42293,-4.05651 79.93925,-3.7653 89.98356,0.48964 5.12714,2.17195 6.21162,4.3138 6.80242,13.43488 0.49801,7.68868 0.36137,8.56253 -1.65409,10.57798 -2.13145,2.13145 -2.44938,2.15993 -10.66442,0.95501 -14.30584,-2.09827 -36.35926,-2.71236 -52.96747,-1.47491 -14.68063,1.09383 -33.4205,3.5847 -35.18811,4.67715 C 310.36535,290.89223 310,353.69773 310,430.18402 V 569.25 l 3.25,-0.65915 c 18.98508,-3.8505 21.59458,-4.07068 48.25,-4.07124 23.86538,-4.9e-4 28.49547,0.26857 39.88126,2.31754 38.84604,6.99071 73.07777,23.33395 97.22343,46.41735 l 9.41672,9.00245 -0.26071,-134.89971 -0.2607,-134.8997 -4.40695,-7.47877 c -5.14962,-8.73913 -16.44552,-20.35292 -27.13954,-27.9033 -7.59378,-5.36151 -23.74247,-13.86411 -34.3168,-18.06847 -7.99585,-3.17916 -9.62807,-5.99223 -9.63297,-16.60201 -0.004,-8.93975 1.49268,-11.65499 6.42497,-11.65499 8.68117,0 40.83753,15.1854 56.07129,26.47891 10.45299,7.74929 18.97969,15.54387 24.29169,22.20595 l 3.13745,3.93486 8.1817,-8.7448 c 7.73034,-8.26237 19.33066,-17.96432 28.50272,-23.8383 8.32659,-5.33253 28.56938,-14.84277 40.06355,-18.8222 31.10107,-10.76761 61.29381,-14.77756 97.31472,-12.92451 19.47346,1.00178 47.35728,4.68672 56.89347,7.51867 8.14375,2.41843 8.1147,2.30916 8.1147,30.51932 v 24.63289 l 6.55192,0.61183 c 13.8344,1.29187 26.74818,10.84532 31.37459,23.21051 l 2.09609,5.60229 -0.2613,170.18229 L 800.5,691.5 l -2.45723,5 c -3.97764,8.09372 -10.61554,13.97881 -18.52107,16.42058 C 772.88669,714.96993 771.28691,715 668.89466,715 H 565 v 30.5 c 0,16.775 -0.24901,30.5 -0.55335,30.5 -0.66704,0 -10.20219,-7.58038 -28.67685,-22.7979 l -13.73021,-11.30953 -11.26979,9.3716 C 490.86323,767.81783 480.61876,776 479.79936,776 479.35971,776 479,762.275 479,745.5 Z m -40.03369,-65.1677 32.4663,-0.66435 -5.4663,-1.87735 c -8.52497,-2.92781 -27.23902,-7.4872 -40.96631,-9.9808 -11.19768,-2.0341 -15.67767,-2.27271 -43,-2.29023 -32.6941,-0.021 -41.41306,0.79009 -66,6.13952 -12.67973,2.75876 -28.66277,7.10504 -31,8.42985 -1.79248,1.01603 107.7452,1.18917 153.96631,0.24336 z m 322.54125,-0.58679 c -4.20005,-2.35427 -36.95455,-9.06885 -63.00756,-12.91638 -14.24138,-2.10318 -62.29781,-1.78128 -75,0.50237 -12.09115,2.1738 -34.12585,7.85933 -41,10.57907 l -5,1.97824 27.5,0.36596 c 47.77316,0.63574 157.9109,0.27736 156.50756,-0.50926 z M 655,647.62208 c 22.90046,-0.0806 30.74114,0.25263 39.90677,1.69629 9.99604,1.57447 11.58718,1.61626 12.86553,0.3379 2.51932,-2.51932 -2.09404,-4.34746 -18.2723,-7.24078 -13.0425,-2.33253 -17.60999,-2.67856 -35,-2.65163 -22.99328,0.0356 -37.33703,2.04394 -51.68959,7.23731 -14.83168,5.36673 -13.83942,5.913 5.80439,3.1955 15.35202,-2.12378 21.92181,-2.48843 46.3852,-2.57459 z m -206,2.87959 c -4.79753,-2.73932 -20.57087,-7.46575 -29.8586,-8.94704 -22.05666,-3.5178 -47.07999,-2.95582 -69.6414,1.56401 -9.52872,1.90893 -14.5,3.89656 -14.5,5.79742 0,1.96054 3.9139,2.06048 14.42116,0.36824 16.23925,-2.61541 63.62834,-2.3257 82.07884,0.50178 7.15,1.09571 14.575,2.02614 16.5,2.06763 l 3.5,0.0754 z m 112.94698,-12.18223 c 14.00363,-9.33984 39.00383,-18.60684 60.55302,-22.44562 10.68434,-1.90332 16.56255,-2.31936 33,-2.33567 33.34663,-0.0331 56.4771,4.69009 85.48745,17.45633 C 745.99369,633.19751 750.51953,635 751.04486,635 751.61397,635 752,628.18123 752,618.12836 v -16.87165 l -11.75,-3.07941 c -6.4625,-1.69368 -15.8,-3.81934 -20.75,-4.72368 -12.15005,-2.21976 -45.07356,-3.0613 -58.59014,-1.49758 -41.94704,4.85278 -75.58372,19.81583 -100.90986,44.88906 -4.675,4.62832 -7.375,7.67085 -6,6.76119 1.375,-0.90967 4.95114,-3.28875 7.94698,-5.28685 z m -72.85867,3.84557 c -1.38914,-2.59564 -16.78798,-15.66983 -25.90543,-21.9947 -8.78458,-6.09394 -25.88301,-14.71217 -37.85763,-19.08161 -10.33137,-3.76984 -28.51191,-7.62798 -43.17417,-9.16211 -14.1654,-1.48214 -44.21851,-0.68566 -57.01404,1.51101 -10.88335,1.8684 -29.84643,6.3866 -32.38704,7.71663 -1.55871,0.816 -1.75,2.71585 -1.75,17.38095 0,10.61422 0.36547,16.46482 1.02852,16.46482 0.56568,0 3.60318,-1.29858 6.75,-2.88572 12.81556,-6.46375 37.76039,-13.79449 57.22148,-16.81614 8.5732,-1.33114 16.97185,-1.76421 33,-1.70162 25.1273,0.0981 37.19461,1.85972 56.76838,8.28717 12.60768,4.13999 32.89441,13.86228 39.75499,19.05233 4.70671,3.56065 4.83681,3.6055 3.56494,1.22899 z M 541.60903,616.1899 C 566.65139,591.49133 598.89962,575.61461 641,567.25692 c 12.68022,-2.51725 15.20028,-2.68118 41.5,-2.69948 27.16265,-0.0189 35.02255,0.63703 49.25,4.11012 l 2.25,0.54926 V 429.72756 290.23831 l -10.75,-1.64043 c -25.43606,-3.88151 -60.04051,-3.91511 -81.56248,-0.0792 -18.85467,3.36051 -40.44108,10.36417 -56.18752,18.2299 -20.94773,10.4639 -40.24197,28.071 -47.44441,43.29575 l -3.05401,6.45566 -7.9e-4,132.75 c -4.3e-4,73.0125 0.16077,132.75 0.35824,132.75 0.19747,0 3.00997,-2.61454 6.25,-5.8101 z m 19.58637,-52.67894 c -6.12976,-5.15785 -4.75607,-12.47193 3.56969,-19.00654 10.61428,-8.33078 37.10247,-19.89419 57.37565,-25.04732 20.30483,-5.16118 24.10942,-5.58929 54.59999,-6.14383 l 29.24073,-0.53181 3.50927,3.50927 c 2.80565,2.80565 3.50927,4.28672 3.50927,7.38676 0,2.13263 -0.70232,4.8802 -1.5607,6.10572 -3.31066,4.72662 -5.92794,5.21679 -27.85526,5.21679 -23.92244,0 -36.86258,1.52536 -54.91688,6.47349 -17.00578,4.66077 -29.66384,9.52886 -45.90383,17.6539 C 575.20816,562.90733 567.93019,566 566.59005,566 c -1.34013,0 -3.76772,-1.12007 -5.39465,-2.48904 z m 1.18525,-45.42055 c -3.53785,-2.1573 -5.65803,-7.0605 -4.73871,-10.95894 2.52821,-10.72113 37.36783,-28.03489 72.35806,-35.95879 18.12279,-4.1041 29.12146,-5.17297 53.21059,-5.17113 22.19509,0.002 25.83767,0.76663 28.56467,5.99845 1.91355,3.67119 0.85394,9.82505 -2.22165,12.90258 l -2.59578,2.59742 -24.22891,0.65492 c -42.0128,1.13564 -65.35836,7.01544 -102.67953,25.86081 -6.51814,3.29135 -12.45827,5.98259 -13.20028,5.98053 -0.74201,-0.002 -2.75282,-0.85969 -4.46846,-1.90585 z m 0.37501,-45.8452 c -3.68886,-2.28721 -6.07855,-7.49864 -5.22353,-11.39149 1.15936,-5.27855 7.56679,-10.19763 23.74454,-18.22904 33.05061,-16.4079 60.88292,-22.60892 101.52299,-22.61926 23.47268,-0.006 25.8532,0.48882 28.68341,5.96185 2.60965,5.0465 1.9797,9.41923 -1.84014,12.77309 l -3.35707,2.94755 -23.39293,0.60881 c -41.16703,1.07139 -65.00628,6.85674 -100.26435,24.3323 -8.17929,4.05404 -15.37929,7.35901 -16,7.34437 -0.62072,-0.0146 -2.36353,-0.79232 -3.87292,-1.72818 z m -0.63879,-46.8759 c -1.28047,-0.89688 -2.97776,-3.18547 -3.77175,-5.08576 -3.24772,-7.77288 2.69007,-14.48385 20.79806,-23.50622 29.13825,-14.51823 61.21298,-21.89997 101.35682,-23.32644 21.65812,-0.7696 25.92888,-0.10678 29.927,4.64472 3.88695,4.61938 3.57429,10.1031 -0.827,14.50439 l -3.4,3.4 -14.85,0.002 c -20.31624,0.003 -38.6461,1.54725 -52.35,4.40946 -20.35971,4.25234 -44.88132,13.1401 -62,22.47166 -8.17482,4.45617 -11.32,4.98147 -14.88313,2.48576 z m -0.91123,-47.84973 c -5.92459,-4.98521 -4.64304,-12.9984 2.96743,-18.55449 5.674,-4.14236 24.01205,-13.33999 35.25903,-17.68453 13.2705,-5.12619 37.2756,-10.92926 52.5679,-12.70793 18.7956,-2.18614 49.97968,-2.15064 54.64292,0.0622 6.93188,3.2894 8.44258,11.47966 3.10243,16.81981 l -3.25465,3.25465 -23.99535,0.55213 c -19.92279,0.45842 -26.28661,0.98542 -37.49535,3.10507 -23.74494,4.49033 -44.16791,11.49313 -64.87705,22.2456 -5.70738,2.96334 -11.63535,5.3879 -13.17328,5.3879 -1.53792,0 -4.12273,-1.11619 -5.74403,-2.48042 z m 202.92335,168.4007 c 0.58489,-0.36148 1.0295,-37.16504 1.15976,-96.00325 C 765.49606,356.28087 765.46267,354.42534 763.5,350.5 l -2,-4 -0.2901,98.5 c -0.25638,87.05103 0.17159,115.34163 1.5809,104.50325 0.21432,-1.64821 0.8165,-3.26055 1.33819,-3.58297 z M 282.96784,447 l -0.002,-98.5 -2.02597,3.16252 c -2.00357,3.12755 -2.02272,4.21083 -1.73302,98 0.16247,52.60163 0.68887,95.65418 1.18197,96.67133 0.70139,1.44677 1.0675,1.55231 1.73456,0.5 0.46504,-0.73362 0.84483,-45.65885 0.84399,-99.83385 z M 459.5,558.67615 C 426.16011,541.58671 398.2891,535 359.31682,535 c -17.97041,0 -19.85251,-0.16796 -22.88518,-2.04225 -6.00627,-3.71208 -6.90787,-12.28552 -1.79639,-17.08217 l 2.5315,-2.37558 28.66663,0.0163 c 25.70457,0.0146 29.82082,0.24866 39.83688,2.26495 32.86578,6.61605 72.27246,23.51809 78.44981,33.64816 2.88399,4.72936 2.47093,10.13343 -1.04315,13.6475 -4.41546,4.41546 -7.5008,3.83956 -23.57692,-4.40077 z m -1.2408,-46.70971 C 434.66248,499.99607 406.44086,491.49744 382.14405,489.04521 376.44827,488.47034 364.15116,488 354.81712,488 h -16.97097 l -2.87186,-2.87187 c -1.57953,-1.57952 -3.17358,-4.07396 -3.54233,-5.5432 -1.03562,-4.12624 1.5273,-9.55114 5.56804,-11.7858 3.27093,-1.80893 5.16894,-1.90576 29,-1.47954 16.97979,0.30369 28.20652,0.97033 33.60031,1.99519 24.13587,4.586 40.86931,9.93951 59.89969,19.16364 19.78567,9.59023 26.5,15.29763 26.5,22.52587 0,4.34598 -5.60033,10.05928 -9.65,9.84468 -1.5675,-0.0831 -9.70836,-3.63021 -18.0908,-7.88253 z M 457.5,465.05197 C 425.59843,448.7595 395.36454,442.00283 354.35359,442.00084 L 337.20718,442 l -3.10359,-3.5348 c -4.85009,-5.52394 -3.91485,-12.78065 2.12148,-16.461 2.99936,-1.82871 5.04197,-1.99635 24.27493,-1.99226 22.77566,0.005 33.31458,0.87913 49.42588,4.10026 24.77032,4.95232 61.2424,20.22424 71.18428,29.80694 4.35057,4.1934 4.88984,5.18308 4.88984,8.97395 0,3.37592 -0.60704,4.86779 -2.92308,7.18383 -4.58956,4.58957 -8.10258,3.89938 -25.57692,-5.02495 z M 462,420.5938 c -34.37451,-17.48461 -65.47004,-24.59078 -107.61514,-24.59296 -14.5076,-7.6e-4 -16.36448,-0.19697 -18.61464,-1.96695 -3.86013,-3.03637 -5.28562,-7.37028 -3.92163,-11.92288 2.30779,-7.70269 1.92321,-7.61433 33.01035,-7.58434 26.20438,0.0253 28.36873,0.17203 41.64106,2.82346 22.65929,4.52666 41.87597,11.32786 62,21.94313 13.17032,6.94724 17.51769,11.34473 17.47776,17.67925 -0.0327,5.18583 -4.74869,10.06849 -9.66202,10.00346 -0.99866,-0.0132 -7.44074,-2.8852 -14.31574,-6.38217 z m -2.5,-47.56729 C 424.91969,356.2427 400.31955,350.37673 360,349.30048 l -22.5,-0.60059 -3.25,-3.24995 c -3.67431,-3.67424 -4.22754,-7.65891 -1.73307,-12.48267 3.07302,-5.94257 5.03053,-6.27047 33.92088,-5.68208 22.88103,0.466 27.52691,0.84275 38.06219,3.08655 27.19808,5.79263 51.45145,14.49672 68,24.40395 10.98567,6.57687 13.5,9.37928 13.5,15.04682 0,4.48433 -5.48522,10.21866 -9.65,10.08825 -1.5675,-0.0491 -9.15,-3.147 -16.85,-6.88425 z"
       id="path1" />
  </g>
</svg>
