<?xml version="1.0" encoding="UTF-8" standalone="no"?>
<!-- Created with Inkscape (http://www.inkscape.org/) -->

<svg
   version="1.1"
   id="svg1"
   fill="currentColor"
   stroke="currentColor"
   width="548.59167"
   height="548.50751"
   viewBox="0 0 548.59167 548.50751"
   xmlns="http://www.w3.org/2000/svg"
   xmlns:svg="http://www.w3.org/2000/svg">
  <defs
     id="defs1" />
  <g
     id="g1"
     transform="translate(-241.11103,-245.3083)">
    <path
       d="m 398,792.9174 c -67.84233,-1.64118 -125.44954,-5.47642 -134.61807,-8.96229 -2.81782,-1.07133 -3.05838,-2.52438 -0.63193,-3.81701 4.55342,-2.42573 31.58375,-4.62449 69.25,-5.63307 11.825,-0.31664 23.75,-0.80925 26.5,-1.0947 l 5,-0.519 3.39005,-7.1783 c 4.5748,-9.68699 13.37193,-18.52334 21.60995,-21.70629 5.31804,-2.05474 8.18076,-2.37068 25.18675,-2.77971 l 19.18675,-0.46148 3.81325,-6.5931 c 5.3189,-9.19636 18.01213,-21.67095 27.31325,-26.84278 6.89825,-3.83573 18.55487,-8.3509 25.25,-9.78055 L 492,696.9619 V 535.98095 375 h -70 c -52.26021,0 -70,0.29269 -70,1.15493 0,2.11955 7.02346,22.91616 17.48615,51.77686 5.69616,15.71252 13.35665,36.89321 17.02331,47.06821 6.61021,18.34334 27.79003,78.96892 33.80005,96.75 l 3.12651,9.25 h 3.78199 c 2.08009,0 3.78199,0.40528 3.78199,0.90063 0,4.33011 -4.54262,25.30104 -6.92615,31.97445 C 419.10602,627.78401 413.6084,636.37978 402.5,647.60671 383.9371,666.36768 361.19998,676 335.4775,676 305.70235,676 278.72913,661.61734 261.81222,636.7202 253.73609,624.83432 244.6321,601.54725 241.46823,584.68236 240.77911,581.009 240.78597,581 244.27764,581 h 3.50022 l 3.56043,-9.75 c 1.95824,-5.3625 7.37069,-20.55 12.02765,-33.75 4.65697,-13.2 11.46777,-32.1 15.13513,-42 3.66735,-9.9 7.93579,-21.6 9.48543,-26 1.54964,-4.4 4.48282,-12.5 6.51818,-18 C 300.42319,435.50691 322,375.71696 322,375.3097 c 0,-0.204 -6.1875,-0.30637 -13.75,-0.22747 -7.5625,0.0789 -14.90037,-0.31307 -16.30637,-0.87103 -14.50102,-5.75455 -15.96099,-28.01335 -2.28287,-34.80491 3.68735,-1.83087 7.76583,-1.91675 103.08924,-2.17057 L 492,336.97144 v -24.29789 c 0,-22.97841 -0.11886,-24.53889 -2.18886,-28.73572 -3.08205,-6.24875 -3.14711,-17.81602 -0.13182,-23.43783 6.53656,-12.18698 21.93461,-18.29679 34.32068,-13.61814 7.2507,2.73883 11.91099,6.71951 15.52687,13.26259 2.51541,4.55175 2.95063,6.40616 2.89975,12.35555 -0.0424,4.95242 -0.69853,8.41368 -2.24325,11.83291 C 538.13456,288.86795 538,290.63897 538,313.06869 v 23.90289 l 99.82334,0.26421 99.82334,0.26421 4.15691,2.75112 c 11.31541,7.48875 11.15828,24.01047 -0.30359,31.92056 -3.78838,2.61444 -4.73255,2.78501 -17.8463,3.22404 -7.61546,0.25495 -14.0861,0.70335 -14.3792,0.99645 -0.29309,0.29309 5.66333,17.31226 13.23649,37.82036 17.52025,47.44479 36.33641,98.85036 46.95752,128.28747 13.52012,37.47192 13.73574,37.94424 17.49326,38.31935 2.37285,0.23688 3.04941,0.70912 2.61983,1.82861 -0.31854,0.83009 -1.49951,5.18638 -2.62439,9.68065 -5.28159,21.10175 -11.41757,35.29017 -20.45392,47.29626 -12.29693,16.33825 -30.21236,28.22773 -51.14913,33.94486 -7.99535,2.18327 -27.30901,2.98892 -35.94341,1.49936 -40.71212,-7.02345 -71.20345,-38.57816 -78.82027,-81.56909 -2.21235,-12.48702 -2.23941,-12.32497 2.11904,-12.68963 l 3.70952,-0.31037 4.88263,-14 C 620.49775,540.13207 634.86746,499.49846 644.01346,474 661.89563,424.14567 678,377.9356 678,376.47865 678,375.18787 669.10589,375 607.99697,375 h -70.00303 l 0.25303,161.12442 0.25303,161.12442 6.62881,1.72461 c 19.28319,5.01689 35.99941,17.40802 47.58974,35.27655 l 4.37835,6.75 16.70155,0.0119 c 18.90431,0.0134 24.35723,1.0362 32.90581,6.17193 7.3609,4.42221 12.86596,10.76862 16.97231,19.5662 l 3.38399,7.25 13.21972,0.01 c 29.76286,0.0214 77.6962,3.05465 84.64319,5.35626 18.67511,6.18728 -30.70699,10.7789 -146.70162,13.64056 C 572.8778,794.12498 445.79729,794.07367 398,792.9174 Z m -7,-212.4 c 0,-0.26544 -6.33439,-18.82794 -14.07643,-41.25 C 369.18153,516.84533 360.60649,491.975 357.86793,484 c -5.64135,-16.42826 -13.39147,-38.18482 -18.34533,-51.5 -3.02115,-8.12038 -3.43836,-8.75566 -4.26878,-6.5 -4.72715,12.84033 -9.62209,26.38772 -17.34336,48 -5.01062,14.025 -13.85043,38.55 -19.64404,54.5 C 289.16953,553.54404 280,579.74942 280,580.70316 280,580.86642 304.975,581 335.5,581 c 30.525,0 55.5,-0.21717 55.5,-0.4826 z m 360,-0.32679 c 0,-0.44516 -2.06165,-6.40766 -4.58144,-13.25 C 743.89877,560.09828 736.0797,538.525 729.04285,519 722.006,499.475 711.87281,471.575 706.52466,457 c -5.34815,-14.575 -10.20459,-27.9625 -10.79207,-29.75 -0.58748,-1.7875 -1.3509,-3.25 -1.69648,-3.25 -0.34558,0 -1.58033,2.8125 -2.74388,6.25 -1.16355,3.4375 -5.78543,16.375 -10.27084,28.75 C 670.08705,489.16722 639,579.13332 639,580.61013 639,580.82456 664.2,581 695,581 c 30.8,0 56,-0.36422 56,-0.80939 z"
       id="path1" />
  </g>
</svg>
