<?xml version="1.0" encoding="UTF-8" standalone="no"?>
<!-- Created with Inkscape (http://www.inkscape.org/) -->

<svg
   version="1.1"
   id="svg1"
   fill="currentColor"
   stroke="currentColor"
   width="643.14099"
   height="621.55084"
   viewBox="0 0 643.14099 621.55084"
   xmlns="http://www.w3.org/2000/svg"
   xmlns:svg="http://www.w3.org/2000/svg">
  <defs
     id="defs1" />
  <g
     id="g1"
     transform="translate(-197,-202.23662)">
    <path
       d="m 553,822.92351 c -3.025,-0.45794 -13.825,-3.27414 -24,-6.25822 -60.04137,-17.60871 -76.80055,-22.54322 -107.5,-31.65193 -31.28737,-9.28315 -69.64136,-20.57726 -90.5,-26.64956 -4.675,-1.36097 -10.79074,-3.51683 -13.59052,-4.79081 l -5.09053,-2.31632 -2.40947,-3.37834 L 307.5,744.5 l -0.25602,-82 -0.25602,-82 1.9618,-3.20145 c 1.07899,-1.7608 3.32949,-3.90872 5.00112,-4.77315 l 3.03932,-1.57169 19.7549,-3.04549 c 35.39605,-5.45679 56.52504,-8.09287 69.1909,-8.63235 l 12.43601,-0.52969 7.06399,1.24632 c 19.19981,3.38747 35.96604,12.82664 58.564,32.97076 4.675,4.16735 10.075,8.77277 12,10.23425 4.56838,3.46836 14.32711,8.27407 20,9.84903 l 4.5,1.24933 52.33864,-0.20043 52.33864,-0.20043 5.66136,1.15369 c 3.11375,0.63453 8.27703,2.53586 11.47395,4.22518 l 5.81259,3.07149 4.35757,4.84667 c 2.39667,2.66567 5.406,6.97546 6.68741,9.57732 L 661.5,641.5 v 9 9 l -2.63517,5.62001 c -1.44934,3.09101 -4.30209,7.4651 -6.33945,9.72022 l -3.70429,4.10021 -5.66055,2.77978 L 637.5,684.5 l -93.04466,0.5 -93.04466,0.5 -2.50453,1.64148 c -1.37749,0.90281 -3.32534,3.46171 -4.32855,5.68644 l -1.82403,4.04497 0.67254,3.58493 0.67254,3.58494 3.04342,3.46627 3.04342,3.46626 3.65725,1.06539 3.65726,1.06538 93,-0.30303 93,-0.30303 6.5,-2.77835 c 3.575,-1.52809 8.80364,-4.3061 11.61919,-6.17336 10.66601,-7.07363 21.97223,-21.09088 25.84993,-32.04829 l 1.76944,-5 0.49525,-11.50543 0.49526,-11.50542 -1.07774,-3.90325 -1.07774,-3.90325 18.2132,-19.09268 c 10.01727,-10.50097 27.19298,-28.76706 38.16826,-40.59132 10.97527,-11.82426 23.22383,-24.77966 27.21901,-28.78979 l 7.26397,-7.29113 5.48456,-2.51092 c 3.01652,-1.38101 8.16073,-3.0086 11.43158,-3.61688 l 5.947,-1.10597 5.84942,1.16065 c 3.21717,0.63835 8.63822,2.52599 12.04677,4.19476 l 6.19736,3.03413 3.95833,4.49689 c 5.10166,5.7958 8.0956,12.24868 9.31398,20.07456 l 0.97397,6.25605 -1.54944,6.04805 c -2.2528,8.79357 -4.42292,12.44382 -13.7407,23.11264 -4.59297,5.25893 -10.82586,12.45773 -13.85086,15.99733 -3.025,3.5396 -7.77809,8.91184 -10.56243,11.93831 -2.78434,3.02647 -10.6459,12.02767 -17.47013,20.00267 -6.82423,7.975 -15.82,18.325 -19.99059,23 -8.65831,9.70547 -21.24376,24.29287 -34.85642,40.40098 -5.15876,6.10446 -12.707,14.77676 -16.77387,19.27178 l -7.3943,8.17276 -10.22613,7.26623 c -9.79695,6.96128 -55.60271,39.73234 -70.22613,50.24226 -3.85,2.76702 -12.12636,8.52889 -18.39192,12.80416 l -11.39192,7.77323 -6.10808,2.00122 C 575.99274,823.73821 564.7818,824.70708 553,822.92351 Z M 211.5,785.93904 c -4.47311,-1.31299 -10.51444,-6.76064 -12.60719,-11.3683 L 197.04392,770.5 197.02196,663.40728 197,556.31457 l 2.32677,-4.40729 2.32678,-4.40728 4.25659,-3 4.25659,-3 24.66663,-0.31664 24.66664,-0.31664 3.81217,1.12541 c 4.68658,1.38354 11.52867,7.39737 13.3407,11.72575 L 278,556.93576 v 107.07196 107.07196 l -1.91292,3.71016 c -2.6544,5.1483 -5.67866,8.1206 -10.48206,10.302 L 261.5,786.95608 238,786.88785 c -12.925,-0.0375 -24.85,-0.46449 -26.5,-0.94881 z M 664.09825,600.07331 c -2.89463,-2.15969 -8.1545,-5.18639 -11.6886,-6.72601 -3.53411,-1.53962 -6.30955,-3.08929 -6.16765,-3.44371 0.1419,-0.35441 15.13877,-15.89021 33.32637,-34.52399 18.1876,-18.63378 36.6376,-37.65906 41,-42.27841 4.3624,-4.61934 10.5621,-10.35203 13.77712,-12.73931 l 5.8455,-4.34051 6.50984,-2.01068 c 8.25201,-2.54879 15.34633,-2.54879 23.59834,0 l 6.50984,2.01068 6.0955,4.48725 c 3.35252,2.46798 6.09549,4.90627 6.09549,5.41841 0,0.51215 -2.3625,1.42218 -5.25,2.02229 -6.17454,1.28326 -14.05272,4.78684 -20.06456,8.9231 -2.36305,1.62581 -15.71382,14.80713 -29.66839,29.2918 C 720.06248,560.6489 701.66847,579.5875 693.14147,588.25 L 677.63784,604 h -4.13832 -4.13831 z M 528.81108,540.11563 C 519.6746,538.18146 504.38324,528.43188 478.5,508.03789 430.55692,470.26246 387.97719,427.64614 366.05873,395.5 348.50895,369.76108 340.24311,348.46666 337.92,323.00915 l -1.12581,-12.33705 1.14413,-11.08605 1.14413,-11.08605 4.03825,-12 c 6.48,-19.25587 14.00996,-31.63308 27.41373,-45.0607 8.75246,-8.76804 15.80143,-13.7786 26.51394,-18.8467 12.12748,-5.73752 22.33125,-8.49745 35.23419,-9.53019 l 10.31718,-0.82579 9.08508,0.83832 c 11.11587,1.02571 16.46427,2.31614 26.81518,6.4698 15.19028,6.09562 25.605,13.45256 38.60871,27.27312 l 8.39129,8.9184 5.22743,8.88187 c 2.87508,4.88503 5.62422,9.55687 6.1092,10.38187 l 0.88178,1.5 3.26455,-6.5 c 7.84943,-15.62887 21.15193,-31.29884 33.89821,-39.9311 8.39699,-5.68676 20.59593,-11.25035 31.11883,-14.19241 l 8.5,-2.37649 18,0.0553 18,0.0553 9,2.74749 c 38.96226,11.8943 67.93916,44.81247 74.97798,85.17605 L 736,300.26198 V 312.5 324.73802 l -1.50525,8.63173 c -6.5339,37.46816 -30.2329,73.74848 -80.14483,122.69208 -29.34608,28.77675 -86.36578,74.81582 -101.15452,81.67459 l -5.3046,2.46019 -7.6954,0.34997 c -4.23247,0.19249 -9.35541,-10e-4 -11.38432,-0.43095 z M 406.93821,348.11136 c 1.34102,-0.95422 3.26111,-2.83712 4.26688,-4.18424 l 1.82867,-2.4493 0.23312,-15.98891 L 413.5,309.5 l 3.72848,-7.80848 3.72849,-7.80849 5.77151,-5.70905 5.77152,-5.70905 6.23019,-3.28055 c 3.42661,-1.8043 9.09148,-3.87921 12.5886,-4.6109 7.78872,-1.62961 9.95172,-2.74027 12.61167,-6.47582 L 466,265.19126 v -4.2276 -4.22759 l -1.93093,-3.11804 c -1.06201,-1.71491 -3.42451,-4.00366 -5.25,-5.0861 l -3.31907,-1.96808 -5.5,0.13486 -5.5,0.13485 -8,2.55763 c -10.66953,3.41109 -19.37357,8.65468 -28.22868,17.00584 -11.8704,11.19486 -18.31673,22.13113 -22.36071,37.93517 l -2.09,8.1678 0.37245,12.5 0.37244,12.5 2.11084,4 c 1.16096,2.2 3.01037,4.81349 4.1098,5.80775 4.27746,3.86829 11.35054,4.2202 16.15207,0.80361 z"
       id="path1" />
  </g>
</svg>
